<?xml version="1.0" encoding="utf-8"?>
<!-- Generator: Adobe Illustrator 21.1.0, SVG Export Plug-In . SVG Version: 6.00 Build 0)  -->
<svg version="1.1" id="Layer_1" xmlns="http://www.w3.org/2000/svg" xmlns:xlink="http://www.w3.org/1999/xlink" x="0px" y="0px"
	 viewBox="0 0 220 139" style="enable-background:new 0 0 220 139;" xml:space="preserve">
<style type="text/css">
	.st0{fill:none;stroke:#6CC5DB;stroke-width:49;stroke-linecap:round;stroke-miterlimit:10;}
	.st1{fill:#FFFFFF;stroke:#FFFFFF;stroke-width:0.75;stroke-miterlimit:10;}
	.st2{fill:none;stroke:#3C2F18;stroke-width:2.5;stroke-linecap:round;stroke-miterlimit:10;stroke-dasharray:10,5;}
	.st3{fill:none;stroke:#3D3017;stroke-width:5;stroke-linecap:round;stroke-miterlimit:10;}
</style>
<g>
	<line class="st0" x1="150.8" y1="27.7" x2="27.5" y2="27.7"/>
	<line class="st0" x1="184.1" y1="69.3" x2="68.2" y2="69.3"/>
	<line class="st0" x1="190.4" y1="109.9" x2="140.8" y2="109.9"/>
	<line class="st0" x1="88.1" y1="109.9" x2="38.6" y2="109.9"/>
</g>
<g>
	<path class="st1" d="M154.9,51.6c1.2,2.5,2.1,5.1,2.9,7.8c0.1,0.5,0.6,0.8,1,0.8c0.1,0,0.2,0,0.3,0c0.6-0.2,0.9-0.7,0.8-1.3
		c-0.8-2.8-1.8-5.5-3-8.2c-0.3-0.5-0.9-0.8-1.4-0.5C154.9,50.5,154.7,51.1,154.9,51.6z"/>
	<path class="st1" d="M153,47.9c0.2,0.3,0.6,0.5,0.9,0.5c0.2,0,0.4,0,0.5-0.1c0.5-0.3,0.7-0.9,0.4-1.5c-1.5-2.5-3.1-4.9-5-7.1
		c-0.4-0.4-1.1-0.5-1.5-0.1c-0.5,0.4-0.5,1.1-0.1,1.5C150,43.3,151.6,45.6,153,47.9z"/>
	<path class="st1" d="M158.7,63.5c0.5,2.7,0.7,5.5,0.7,8.3c0,0.6,0.5,1.1,1.1,1.1h0c0.6,0,1.1-0.5,1.1-1.1c0-2.9-0.3-5.8-0.8-8.7
		c-0.1-0.6-0.7-1-1.2-0.9C159,62.4,158.6,62.9,158.7,63.5z"/>
	<path class="st1" d="M157.9,87.5c-0.6-0.2-1.2,0.1-1.4,0.6c-0.9,2.6-2.1,5.1-3.5,7.5c-0.3,0.5-0.1,1.2,0.4,1.5
		c0.2,0.1,0.4,0.1,0.5,0.1c0.4,0,0.7-0.2,0.9-0.5c1.4-2.5,2.7-5.2,3.7-7.9C158.8,88.3,158.5,87.7,157.9,87.5z"/>
	<path class="st1" d="M160.4,75c-0.6-0.1-1.1,0.4-1.2,1c-0.2,2.8-0.7,5.5-1.4,8.2c-0.2,0.6,0.2,1.2,0.8,1.3c0.1,0,0.2,0,0.3,0
		c0.5,0,0.9-0.3,1-0.8c0.7-2.8,1.2-5.7,1.5-8.6C161.4,75.6,161,75.1,160.4,75z"/>
	<path class="st1" d="M150.8,99.2c-1.6,2.3-3.4,4.4-5.4,6.4c-0.4,0.4-0.4,1.1,0,1.5c0.2,0.2,0.5,0.3,0.8,0.3c0.3,0,0.5-0.1,0.8-0.3
		c2-2,3.9-4.3,5.6-6.7c0.3-0.5,0.2-1.1-0.3-1.5C151.8,98.6,151.1,98.7,150.8,99.2z"/>
	<path class="st1" d="M135.8,62.9c0.1,0.5,0.6,0.8,1,0.8c0.1,0,0.2,0,0.3,0c0.6-0.1,0.9-0.7,0.8-1.3c-0.7-2.8-1.8-5.6-3.1-8.2
		c-0.3-0.5-0.9-0.7-1.4-0.4c-0.5,0.3-0.7,0.9-0.4,1.4C134.1,57.6,135.1,60.2,135.8,62.9z"/>
	<path class="st1" d="M130.7,51.6c0.2,0.3,0.5,0.5,0.9,0.5c0.2,0,0.4-0.1,0.6-0.2c0.5-0.3,0.6-1,0.3-1.5c-1.3-1.9-2.8-3.8-4.5-5.4
		c-0.4-0.4-1.1-0.4-1.5,0c-0.4,0.4-0.4,1.1,0,1.5C128,48.1,129.5,49.8,130.7,51.6z"/>
	<path class="st1" d="M137.5,65.7c-0.6,0.1-1,0.6-0.9,1.2c0.2,1.6,0.3,3.3,0.3,4.9c0,1.1-0.1,2.2-0.2,3.3c-0.1,0.6,0.4,1.1,1,1.2
		c0,0,0.1,0,0.1,0c0.5,0,1-0.4,1.1-1c0.1-1.2,0.2-2.4,0.2-3.5c0-1.7-0.1-3.5-0.4-5.2C138.7,66.1,138.1,65.7,137.5,65.7z"/>
	<path class="st1" d="M133.1,90.4c-0.5-0.3-1.2-0.2-1.5,0.3c-1.5,2.3-3.2,4.5-5.1,6.5c-0.4,0.4-0.4,1.1,0,1.5
		c0.2,0.2,0.5,0.3,0.8,0.3c0.3,0,0.5-0.1,0.8-0.3c2.1-2.1,3.9-4.4,5.4-6.8C133.7,91.4,133.6,90.7,133.1,90.4z"/>
	<path class="st1" d="M137.5,78.5c-0.6-0.1-1.1,0.2-1.3,0.8c-0.6,2.7-1.4,5.3-2.6,7.8c-0.3,0.5,0,1.2,0.5,1.4
		c0.1,0.1,0.3,0.1,0.5,0.1c0.4,0,0.8-0.2,1-0.6c1.2-2.6,2.2-5.4,2.8-8.3C138.4,79.1,138,78.6,137.5,78.5z"/>
	<path class="st1" d="M117,65.3c0.1,0.5,0.6,0.8,1,0.8c0.1,0,0.2,0,0.3,0c0.6-0.2,0.9-0.8,0.7-1.3c-0.9-2.9-2.2-5.5-4-7.9
		c-0.4-0.5-1-0.6-1.5-0.2c-0.5,0.4-0.6,1-0.2,1.5C115,60.3,116.2,62.7,117,65.3z"/>
	<path class="st1" d="M117.3,80.7c-0.5-0.2-1.2,0-1.4,0.5c-1.1,2.5-2.7,4.7-4.6,6.6c-0.4,0.4-0.4,1.1,0,1.5c0.2,0.2,0.5,0.3,0.8,0.3
		c0.3,0,0.5-0.1,0.8-0.3c2.1-2.1,3.8-4.6,5-7.3C118.1,81.6,117.9,80.9,117.3,80.7z"/>
	<path class="st1" d="M118.8,68.1c-0.6,0.1-1,0.6-0.9,1.2c0.1,0.8,0.1,1.7,0.1,2.5c0,1.9-0.2,3.7-0.7,5.5c-0.1,0.6,0.2,1.1,0.8,1.3
		c0.1,0,0.2,0,0.3,0c0.5,0,0.9-0.3,1-0.8c0.5-2,0.7-4,0.7-6.1c0-0.9-0.1-1.9-0.2-2.8C119.9,68.5,119.3,68.1,118.8,68.1z"/>
	<path class="st1" d="M99.6,61.3c-0.8-12.5-2.9-24.8-6.2-36.6c0,0,0,0,0,0c0-0.1,0-0.1-0.1-0.2c0-0.1-0.1-0.2-0.1-0.2c0,0,0,0,0,0
		c0,0,0-0.1-0.1-0.1c-0.1-0.1-0.1-0.2-0.2-0.2c0-0.1-0.1-0.1-0.1-0.1c-0.1-0.1-0.1-0.1-0.2-0.2c-0.1,0-0.1-0.1-0.2-0.1
		c-0.1,0-0.1-0.1-0.2-0.1c-0.1,0-0.1-0.1-0.2-0.1c-0.1,0-0.1-0.1-0.2-0.1c-0.1,0-0.1,0-0.2-0.1c-0.1,0-0.1,0-0.2,0
		c-0.1,0-0.2,0-0.3,0c-0.1,0-0.1,0-0.2,0c-0.1,0-0.2,0-0.3,0c0,0-0.1,0-0.1,0c0,0,0,0,0,0c-0.1,0-0.1,0-0.2,0.1
		c-0.1,0-0.2,0.1-0.2,0.1c0,0,0,0,0,0C68.1,35.2,59.8,51.3,57.7,56.2h-2.3c-0.1,0-0.1,0-0.2,0c-0.1,0-0.1,0-0.2,0
		c-9,0-16.4,7.4-16.4,16.4S46,88.9,55,88.9c0.1,0,0.1,0,0.2,0c0.1,0,0.1,0,0.2,0h2.3c2.1,4.9,10.4,21,32.7,32.8
		c0.3,0.2,0.7,0.2,1,0.2c0,0,0.1,0,0.1,0c0.1,0,0.1,0,0.2,0c0.1,0,0.1,0,0.2,0c0.1,0,0.1,0,0.2,0c0.9,0,1.7-0.6,2-1.5
		c0.2-0.6,4.7-15.5,5.7-38.3c3.5-2.2,5.8-6.1,5.8-10.4C105.6,67.3,103.2,63.4,99.6,61.3z"/>
</g>
<g>
	<path class="st2" d="M152.2,100.3c8.8-8.8,14.3-21,14.3-34.5c0-13.5-5.5-25.6-14.3-34.5"/>
	<path class="st2" d="M133.2,92c6.7-6.7,10.8-15.9,10.8-26.1c0-10.2-4.1-19.4-10.8-26.1"/>
	<path class="st2" d="M118,82.7c4.3-4.3,6.9-10.2,6.9-16.8c0-6.6-2.7-12.5-6.9-16.8"/>
	<path class="st3" d="M65.1,52.3c0,0,6.8-19.5,32.3-33"/>
	<path class="st3" d="M65.1,80.8c0,0,6.8,19.5,32.3,33"/>
	<path class="st3" d="M97.7,113.9c0,0-14.6-42-0.3-93"/>
	<path class="st3" d="M103.6,56.6c-0.7-11.5-2.5-24.2-6.2-37.3"/>
	<path class="st3" d="M98.1,113.9c0,0,4.8-15.4,5.7-38.7"/>
	<path class="st3" d="M61,52.3c-7.9,0-14.3,6.4-14.3,14.3c0,7.9,6.4,14.3,14.3,14.3"/>
	<line class="st3" x1="61.3" y1="52.3" x2="65.1" y2="52.3"/>
	<line class="st3" x1="61.3" y1="80.8" x2="65.1" y2="80.8"/>
	<path class="st3" d="M103.4,75.1c-1.2,0.5-2.6,0.8-4,0.8"/>
	<path class="st3" d="M99.3,55.7c5.6,0,10.1,4.5,10.1,10.1c0,4.2-2.5,7.7-6.1,9.3"/>
	<line class="st3" x1="99.1" y1="55.7" x2="91.6" y2="55.7"/>
	<line class="st3" x1="99.1" y1="76" x2="91.6" y2="76"/>
</g>
</svg>
