<?xml version="1.0" encoding="utf-8"?>
<!-- Generator: Adobe Illustrator 21.1.0, SVG Export Plug-In . SVG Version: 6.00 Build 0)  -->
<svg version="1.1" id="Layer_1" xmlns="http://www.w3.org/2000/svg" xmlns:xlink="http://www.w3.org/1999/xlink" x="0px" y="0px"
	 viewBox="0 0 523 191" style="enable-background:new 0 0 523 191;" xml:space="preserve">
<style type="text/css">
	.st0{fill:none;stroke:#AFE6EF;stroke-width:62;stroke-linecap:round;stroke-miterlimit:10;}
	.st1{fill:none;stroke:#AFE6EF;stroke-width:60;stroke-linecap:round;stroke-miterlimit:10;}
	.st2{fill:none;stroke:#AFE6EF;stroke-width:61;stroke-linecap:round;stroke-miterlimit:10;}
	.st3{fill:#FFFFFF;}
	.st4{fill:none;stroke:#FFFFFF;stroke-width:5;stroke-linecap:round;stroke-miterlimit:10;}
	.st5{fill:none;stroke:#3D3015;stroke-width:5;stroke-linecap:round;stroke-miterlimit:10;}
	.st6{fill:none;stroke:#FFFFFF;stroke-width:7;stroke-miterlimit:10;}
</style>
<line class="st0" x1="487" y1="156.2" x2="90.5" y2="156.2"/>
<line class="st1" x1="444.2" y1="34.8" x2="180.4" y2="34.8"/>
<line class="st2" x1="384" y1="95.4" x2="35.8" y2="95.4"/>
<rect x="39.4" y="76.7" class="st3" width="74.9" height="75"/>
<rect x="39.4" y="76.7" class="st4" width="74.9" height="75"/>
<rect x="194.3" y="76.7" class="st3" width="74.9" height="75"/>
<rect x="194.3" y="76.7" class="st4" width="74.9" height="75"/>
<rect x="359.8" y="76.7" class="st3" width="74.9" height="75"/>
<rect x="359.8" y="76.7" class="st4" width="74.9" height="75"/>
<rect x="46.4" y="68.8" class="st5" width="75" height="75"/>
<rect x="201.3" y="68.8" class="st5" width="75" height="75"/>
<rect x="366.7" y="68.8" class="st5" width="75" height="75"/>
<g>
	<path class="st3" d="M273.2,142.4c-1.6,0.5-2,1.9-1,3.2l15.8,19.3c1,1.3,0.9,3.2-0.4,4.2l-4.1,3.4c-1.3,1-3.2,0.9-4.2-0.4
		l-15.8-19.2c-1-1.3-2.5-1.1-3.3,0.3l-8.6,16.2c-0.8,1.5-1.8,1.4-2.3-0.2L230,105c-0.5-1.6,0.3-2.2,1.8-1.5l58.8,31.4
		c1.5,0.8,1.4,1.8-0.2,2.3L273.2,142.4z"/>
	<path class="st6" d="M273.2,142.4c-1.6,0.5-2,1.9-1,3.2l15.8,19.3c1,1.3,0.9,3.2-0.4,4.2l-4.1,3.4c-1.3,1-3.2,0.9-4.2-0.4
		l-15.8-19.2c-1-1.3-2.5-1.1-3.3,0.3l-8.6,16.2c-0.8,1.5-1.8,1.4-2.3-0.2L230,105c-0.5-1.6,0.3-2.2,1.8-1.5l58.8,31.4
		c1.5,0.8,1.4,1.8-0.2,2.3L273.2,142.4z"/>
</g>
<g>
	<path class="st5" d="M276.8,137.1c-1.6,0.5-2,1.9-1,3.2l15.8,19.3c1,1.3,0.9,3.2-0.4,4.2l-4.1,3.4c-1.3,1-3.2,0.9-4.2-0.4
		l-15.8-19.2c-1-1.3-2.5-1.1-3.3,0.3l-8.6,16.2c-0.8,1.5-1.8,1.4-2.3-0.2l-19.3-64.2c-0.5-1.6,0.3-2.2,1.8-1.5l58.8,31.4
		c1.5,0.8,1.4,1.8-0.2,2.3L276.8,137.1z"/>
</g>
</svg>
