<?xml version="1.0" encoding="utf-8"?>
<!-- Generator: Adobe Illustrator 21.1.0, SVG Export Plug-In . SVG Version: 6.00 Build 0)  -->
<svg version="1.1" id="Layer_1" xmlns="http://www.w3.org/2000/svg" xmlns:xlink="http://www.w3.org/1999/xlink" x="0px" y="0px"
	 viewBox="0 0 187 145" style="enable-background:new 0 0 187 145;" xml:space="preserve">
<style type="text/css">
	.st0{fill:none;stroke:#6CC5DB;stroke-width:49;stroke-linecap:round;stroke-miterlimit:10;}
	.st1{fill:#FFFFFF;}
	.st2{fill:none;stroke:#FFFFFF;stroke-width:5;stroke-linecap:round;stroke-linejoin:round;stroke-miterlimit:10;}
	.st3{fill:none;stroke:#FFFFFF;stroke-width:2.5;stroke-linecap:round;stroke-miterlimit:10;}
	.st4{fill:none;stroke:#3D3017;stroke-width:5;stroke-linecap:round;stroke-miterlimit:10;}
	.st5{fill:none;stroke:#3D3017;stroke-width:5;stroke-linecap:round;stroke-linejoin:round;stroke-miterlimit:10;}
	.st6{fill:none;stroke:#3D3017;stroke-width:2.5;stroke-linecap:round;stroke-miterlimit:10;}
</style>
<g>
	<line class="st0" x1="65.6" y1="115.7" x2="152.3" y2="115.7"/>
	<line class="st0" x1="27.3" y1="74" x2="131" y2="74"/>
	<line class="st0" x1="49" y1="33" x2="141.6" y2="33"/>
</g>
<polygon class="st1" points="146.1,127 77.3,127 57.2,106.9 57.2,10.2 146.1,10.2 "/>
<polygon class="st2" points="146.1,127 77.3,127 57.2,106.9 57.2,10.2 146.1,10.2 "/>
<polygon class="st1" points="57.2,106.9 77.3,106.9 77.3,127 "/>
<polygon class="st2" points="57.2,106.9 77.3,106.9 77.3,127 "/>
<line class="st1" x1="66.3" y1="43.9" x2="133.6" y2="43.9"/>
<line class="st3" x1="66.3" y1="43.9" x2="133.6" y2="43.9"/>
<line class="st1" x1="70.3" y1="31.8" x2="107.3" y2="31.8"/>
<line class="st3" x1="70.3" y1="31.8" x2="107.3" y2="31.8"/>
<line class="st1" x1="102.1" y1="112" x2="135.8" y2="112"/>
<line class="st3" x1="102.1" y1="112" x2="135.8" y2="112"/>
<line class="st1" x1="68" y1="54.1" x2="135.3" y2="54.1"/>
<line class="st3" x1="68" y1="54.1" x2="135.3" y2="54.1"/>
<line class="st1" x1="68" y1="68.6" x2="135.3" y2="68.6"/>
<line class="st3" x1="68" y1="68.6" x2="135.3" y2="68.6"/>
<line class="st1" x1="68" y1="83.1" x2="135.3" y2="83.1"/>
<line class="st3" x1="68" y1="83.1" x2="135.3" y2="83.1"/>
<line class="st1" x1="68" y1="97.6" x2="135.3" y2="97.6"/>
<line class="st3" x1="68" y1="97.6" x2="135.3" y2="97.6"/>
<polygon class="st4" points="150.6,122.8 81.8,122.8 61.7,102.7 61.7,5.9 150.6,5.9 "/>
<polygon class="st5" points="61.7,102.7 81.8,102.7 81.8,122.8 "/>
<line class="st6" x1="72.5" y1="39.6" x2="139.8" y2="39.6"/>
<line class="st6" x1="76.2" y1="27.1" x2="113.2" y2="27.1"/>
<line class="st6" x1="106.7" y1="107.8" x2="140.3" y2="107.8"/>
<line class="st6" x1="72.5" y1="49.9" x2="139.8" y2="49.9"/>
<line class="st6" x1="72.5" y1="64.4" x2="139.8" y2="64.4"/>
<line class="st6" x1="72.5" y1="78.8" x2="139.8" y2="78.8"/>
<line class="st6" x1="72.5" y1="93.3" x2="139.8" y2="93.3"/>
</svg>
