<?xml version="1.0" encoding="utf-8"?>
<!-- Generator: Adobe Illustrator 21.1.0, SVG Export Plug-In . SVG Version: 6.00 Build 0)  -->
<svg version="1.1" id="Layer_1" xmlns="http://www.w3.org/2000/svg" xmlns:xlink="http://www.w3.org/1999/xlink" x="0px" y="0px"
	 viewBox="0 0 232 141" style="enable-background:new 0 0 232 141;" xml:space="preserve">
<style type="text/css">
	.st0{fill:none;stroke:#6CC5DB;stroke-width:49;stroke-linecap:round;stroke-miterlimit:10;}
	.st1{fill:#FFFFFF;}
	.st2{fill:none;stroke:#3D3017;stroke-width:5;stroke-linecap:round;stroke-miterlimit:10;}
</style>
<line class="st0" x1="202" y1="28.2" x2="95.4" y2="28.2"/>
<line class="st0" x1="172.2" y1="111.7" x2="56" y2="111.7"/>
<line class="st0" x1="140.9" y1="67.7" x2="28.6" y2="67.7"/>
<g>
	<path class="st1" d="M148,26.8c-61.8-10.6-119.6,0-119.6,0s-7.3,30.5,0,85.6c0,0,57.7,10.6,119.6,0C148,112.4,155.4,82,148,26.8z"
		/>
	<g>
		<path class="st1" d="M81.3,51.8c-2.2-1.6-4-0.7-4,2v31.5c0,2.8,1.8,3.6,4,2L101,72.2c2.2-1.7,2.2-4.4-0.1-6L81.3,51.8z"/>
	</g>
</g>
<g>
	<path class="st2" d="M153.2,20.9c-61.8-10.6-119.6,0-119.6,0s-7.3,30.5,0,85.6c0,0,57.7,10.6,119.6,0
		C153.2,106.4,160.5,76,153.2,20.9z"/>
	<g>
		<path class="st2" d="M86.4,45.8c-2.2-1.6-4-0.7-4,2v31.5c0,2.8,1.8,3.6,4,2l19.7-15.1c2.2-1.7,2.2-4.4-0.1-6L86.4,45.8z"/>
	</g>
</g>
</svg>
