<?xml version="1.0" encoding="utf-8"?>
<!-- Generator: Adobe Illustrator 21.0.2, SVG Export Plug-In . SVG Version: 6.00 Build 0)  -->
<svg version="1.1" xmlns="http://www.w3.org/2000/svg" xmlns:xlink="http://www.w3.org/1999/xlink" x="0px" y="0px"
	 viewBox="0 0 57.4 57.9" style="enable-background:new 0 0 57.4 57.9;" xml:space="preserve">
<style type="text/css">
	.st0{opacity:0.8;fill:#FCC549;}
	.st1{fill:#FFFFFF;}
	.st2{fill:none;stroke:#73629A;stroke-width:2;stroke-linecap:round;stroke-miterlimit:10;}
	.st3{fill:#73629A;stroke:#73629A;stroke-miterlimit:10;}
	.st4{fill:#FFFFFF;stroke:#73629A;stroke-width:2;stroke-linecap:round;stroke-miterlimit:10;}
	.st5{fill:#FFFFFF;stroke:#FFFFFF;stroke-width:9;stroke-miterlimit:10;}
	.st6{fill:#6CC5DB;}
	.st7{fill:#73629A;}
	.st8{fill:#F5C153;}
	.st9{fill:#FFFFFF;stroke:#8778B3;stroke-miterlimit:10;}
	.st10{clip-path:url(#SVGID_2_);}
	.st11{clip-path:url(#SVGID_4_);fill:#C73B3C;}
	.st12{clip-path:url(#SVGID_4_);fill:#ECD652;}
	.st13{clip-path:url(#SVGID_4_);fill:#336B44;}
	.st14{clip-path:url(#SVGID_4_);}
	.st15{clip-path:url(#SVGID_6_);fill:#55A0CE;}
	.st16{clip-path:url(#SVGID_6_);fill:#ECD652;}
	.st17{clip-path:url(#SVGID_6_);}
	.st18{fill:#ECD652;}
	.st19{clip-path:url(#SVGID_8_);}
	.st20{fill-rule:evenodd;clip-rule:evenodd;}
	.st21{fill-rule:evenodd;clip-rule:evenodd;fill:#FFFFFF;}
	.st22{fill-rule:evenodd;clip-rule:evenodd;fill:#E42535;}
	.st23{fill-rule:evenodd;clip-rule:evenodd;fill:#CACACA;}
	.st24{fill-rule:evenodd;clip-rule:evenodd;fill:#F4C343;}
	.st25{clip-path:url(#SVGID_10_);}
	.st26{fill:#E42535;}
	.st27{fill:#179F56;}
	.st28{fill:#EDCA50;}
	.st29{fill:none;}
	.st30{clip-path:url(#SVGID_12_);}
	.st31{clip-path:url(#SVGID_14_);fill:#C32732;}
	.st32{clip-path:url(#SVGID_14_);fill:#F1D74F;}
	.st33{clip-path:url(#SVGID_16_);}
	.st34{clip-path:url(#SVGID_20_);fill:#FFFFFF;}
	.st35{opacity:0.75;clip-path:url(#SVGID_20_);fill:#F90D1B;}
	.st36{clip-path:url(#SVGID_20_);fill:#030C7E;}
	.st37{clip-path:url(#SVGID_24_);}
	.st38{clip-path:url(#SVGID_26_);fill:#34448C;}
	.st39{clip-path:url(#SVGID_26_);fill:#FFFFFF;}
	.st40{clip-path:url(#SVGID_26_);fill:#CF273D;}
	.st41{clip-path:url(#SVGID_28_);}
	.st42{fill:#2978B3;}
	.st43{clip-path:url(#SVGID_30_);}
	.st44{clip-path:url(#SVGID_32_);fill:#3D8156;}
	.st45{clip-path:url(#SVGID_32_);fill:#FFFFFF;}
	.st46{clip-path:url(#SVGID_34_);}
	.st47{clip-path:url(#SVGID_36_);fill:#C32732;}
	.st48{clip-path:url(#SVGID_36_);fill:#F1D74F;}
	.st49{clip-path:url(#SVGID_38_);}
	.st50{clip-path:url(#SVGID_40_);fill:#FFFFFF;}
	.st51{clip-path:url(#SVGID_40_);fill:#316738;}
	.st52{clip-path:url(#SVGID_40_);}
	.st53{clip-path:url(#SVGID_42_);fill:#FFFFFF;}
	.st54{clip-path:url(#SVGID_42_);fill:#316738;}
	.st55{clip-path:url(#SVGID_44_);}
	.st56{clip-path:url(#SVGID_46_);fill:#AD2434;}
	.st57{clip-path:url(#SVGID_46_);fill:#EEBD49;}
	.st58{clip-path:url(#SVGID_46_);}
	.st59{fill:#95202E;}
	.st60{fill:#BCAB47;}
	.st61{fill:#43896F;}
	.st62{fill:#3F5FA1;}
	.st63{fill:#C6C6C6;}
	.st64{fill:#BAAE48;}
	.st65{fill:#C24250;}
	.st66{fill:#D66FA2;}
	.st67{fill:#F1CF95;}
	.st68{fill:#47569B;}
	.st69{clip-path:url(#SVGID_48_);fill:#3F5FA1;}
	.st70{clip-path:url(#SVGID_50_);}
	.st71{fill:#314490;}
	.st72{fill:#B4253A;}
	.st73{clip-path:url(#SVGID_52_);}
	.st74{clip-path:url(#SVGID_54_);fill:#428C4A;}
	.st75{clip-path:url(#SVGID_54_);fill:#E7BB46;}
	.st76{clip-path:url(#SVGID_54_);}
	.st77{clip-path:url(#SVGID_56_);fill:#302B68;}
	.st78{clip-path:url(#SVGID_56_);fill:#FFFFFF;}
	.st79{clip-path:url(#SVGID_56_);}
	.st80{fill-rule:evenodd;clip-rule:evenodd;fill:#428C4A;}
	.st81{clip-path:url(#SVGID_58_);}
	.st82{clip-path:url(#SVGID_60_);fill:#FFFFFF;}
	.st83{clip-path:url(#SVGID_60_);fill:#4E9A4F;}
	.st84{clip-path:url(#SVGID_60_);fill:#BE2632;}
	.st85{clip-path:url(#SVGID_60_);}
	.st86{clip-path:url(#SVGID_62_);fill:#BE2632;}
	.st87{clip-path:url(#SVGID_62_);fill:#FFFFFF;}
	.st88{clip-path:url(#SVGID_64_);}
	.st89{clip-path:url(#SVGID_66_);fill:#FFFFFF;}
	.st90{clip-path:url(#SVGID_66_);}
	.st91{clip-path:url(#SVGID_66_);fill:#316738;}
	.st92{clip-path:url(#SVGID_68_);}
	.st93{fill:#8778B3;}
	.st94{clip-path:url(#SVGID_68_);fill:#FFFFFF;}
	.st95{clip-path:url(#SVGID_68_);fill:#A2232B;}
	.st96{clip-path:url(#SVGID_70_);}
	.st97{clip-path:url(#SVGID_72_);fill:#6080B9;}
	.st98{clip-path:url(#SVGID_72_);fill:#FFFFFF;}
	.st99{clip-path:url(#SVGID_74_);}
	.st100{clip-path:url(#SVGID_76_);fill:#FFFFFF;}
	.st101{clip-path:url(#SVGID_76_);fill:#E8904F;}
	.st102{clip-path:url(#SVGID_76_);fill:#428447;}
	.st103{clip-path:url(#SVGID_76_);}
	.st104{clip-path:url(#SVGID_78_);fill:#2B2C70;}
	.st105{clip-path:url(#SVGID_78_);fill:#FFFFFF;}
	.st106{clip-path:url(#SVGID_80_);}
	.st107{clip-path:url(#SVGID_82_);fill:#CF273D;}
	.st108{clip-path:url(#SVGID_82_);fill:#FFFFFF;}
	.st109{clip-path:url(#SVGID_84_);}
	.st110{clip-path:url(#SVGID_86_);fill:#C82635;}
	.st111{clip-path:url(#SVGID_86_);}
	.st112{clip-path:url(#SVGID_88_);fill:#FFFFFF;}
	.st113{clip-path:url(#SVGID_88_);fill:#C82635;}
	.st114{clip-path:url(#SVGID_90_);}
	.st115{clip-path:url(#SVGID_92_);}
	.st116{fill:#2F3480;}
	.st117{fill:#B2252F;}
	.st118{fill:#FFFFFF;stroke:#B2252F;stroke-width:0.1;stroke-miterlimit:10;}
	.st119{opacity:0.7;fill:#73BFD3;}
	.st120{fill:#FFFFFF;stroke:#FFFFFF;stroke-width:4;stroke-miterlimit:10;}
	.st121{clip-path:url(#SVGID_94_);fill:#2A3F84;}
	.st122{clip-path:url(#SVGID_94_);fill:#B4253A;}
	.st123{clip-path:url(#SVGID_94_);}
	.st124{clip-path:url(#SVGID_96_);fill:#FFFFFF;}
	.st125{fill:none;stroke:#F0BC5C;stroke-width:2;stroke-linecap:round;stroke-miterlimit:10;}
	.st126{opacity:0.8;fill:#FFFFFF;}
	.st127{fill:#AFE6EF;}
	.st128{fill:#AFE6EF;stroke:#73629A;stroke-width:2;stroke-linecap:round;stroke-miterlimit:10;}
	.st129{fill:#FCC549;}
	.st130{opacity:0.9;fill:#FFFFFF;}
	.st131{opacity:0.8;}
	.st132{display:none;}
	.st133{display:inline;}
	.st134{fill:#FFE2C9;}
	.st135{fill:none;stroke:#FCC549;stroke-width:2;stroke-linecap:round;stroke-miterlimit:10;}
	.st136{fill:none;stroke:#FFFFFF;stroke-miterlimit:10;}
	.st137{fill:#FFFFFF;stroke:#FFFFFF;stroke-miterlimit:10;}
	.st138{fill:none;stroke:#3C2F16;stroke-width:2;stroke-linecap:round;stroke-miterlimit:10;}
	.st139{fill:#DEE7FF;}
	.st140{fill:#3C2F16;}
	.st141{fill:none;stroke:#3C2F16;stroke-width:2;stroke-linecap:round;stroke-miterlimit:10;stroke-dasharray:9.9901,4.995;}
	.st142{fill:#B4CAF6;}
</style>
<g id="MESA_DE_TRABAJO">
	<g>
		<path class="st9" d="M25.9,1.6C43.2-0.1,57.7,14.4,56,31.7C54.7,44.6,44.3,55,31.5,56.2C14.1,58-0.3,43.5,1.4,26.1
			C2.7,13.3,13,2.9,25.9,1.6z"/>
		<g>
			<defs>
				<path id="SVGID_89_" d="M51.2,26c1.9,15-10.7,27.5-25.6,25.6C15.4,50.3,7.2,42.1,5.9,31.9C4,17,16.6,4.4,31.5,6.3
					C41.7,7.5,49.9,15.8,51.2,26z"/>
			</defs>
			<clipPath id="SVGID_2_">
				<use xlink:href="#SVGID_89_"  style="overflow:visible;"/>
			</clipPath>
			<g class="st10">
				<rect x="5.7" y="5.2" class="st71" width="79.5" height="23.2"/>
				<rect x="5.7" y="28.4" class="st72" width="79.5" height="23.2"/>
				<rect x="5.7" y="5.2" class="st29" width="79.5" height="46.3"/>
				<polygon class="st1" points="5.7,5.2 5.7,51.6 46,28.4 				"/>
				<g>
					<polygon class="st28" points="11.1,47.1 9.3,46.1 7.8,47.5 8.2,45.4 6.4,44.4 8.5,44.2 8.9,42.2 9.8,44.1 11.8,43.8 10.3,45.2 
											"/>
					<path class="st28" d="M16.6,24.2l-1.5-2.6l-0.9-0.1l2.1,2.9L16.6,24.2z M15.4,25.4L12.2,23l-0.1-1.4l1.3,0l2.6,3.2L15.4,25.4z
						 M14.9,26l-2.6-1.5l-0.1-0.9l3,2L14.9,26z"/>
					<path class="st28" d="M20.3,23.7l0.8-2.9l-0.5-0.7l-0.6,3.5L20.3,23.7z M18.6,23.7l-0.5-4l0.9-1.1l0.9,0.9l-0.4,4.1L18.6,23.7z
						 M17.9,23.7l-0.8-2.9l0.5-0.7l0.6,3.5L17.9,23.7z"/>
					<path class="st28" d="M23.3,26l2.6-1.5l0.1-0.9l-3,2L23.3,26z M22.2,24.8l2.5-3.1l1.4-0.1l0,1.3l-3.3,2.5L22.2,24.8z
						 M21.6,24.3l1.5-2.6l0.9-0.1l-2.1,2.9L21.6,24.3z"/>
					<path class="st28" d="M23.8,29.6l2.9,0.8l0.7-0.5l-3.5-0.6L23.8,29.6z M23.8,28l4-0.5l1.1,0.9L28,29.4l-4.1-0.5L23.8,28z
						 M23.7,27.2l2.9-0.8l0.7,0.5l-3.5,0.6L23.7,27.2z"/>
					<path class="st28" d="M21.6,32.6l1.5,2.6l0.9,0.1l-2.1-2.9L21.6,32.6z M22.8,31.4l3.2,2.4l0.1,1.4l-1.3,0.1l-2.6-3.2L22.8,31.4
						z M23.2,30.8l2.6,1.5l0.1,0.9l-3-2L23.2,30.8z"/>
					<path class="st28" d="M17.9,33.1L17.1,36l0.5,0.7l0.6-3.5L17.9,33.1z M19.5,33.1l0.5,4l-0.9,1.1l-0.9-0.9l0.4-4.1L19.5,33.1z
						 M20.3,33.1l0.8,2.9l-0.5,0.7l-0.7-3.5L20.3,33.1z"/>
					<path class="st28" d="M14.8,30.9l-2.6,1.5l-0.1,0.9l3-2L14.8,30.9z M16,32.1l-2.5,3.1l-1.4,0.1l0-1.3l3.2-2.6L16,32.1z
						 M16.6,32.5l-1.5,2.6l-0.9,0.1l2.1-2.9L16.6,32.5z"/>
					<path class="st28" d="M14.3,27.2l-2.9-0.8L10.7,27l3.5,0.6L14.3,27.2z M14.3,28.9l-4,0.5l-1.1-0.9l0.9-0.9l4.1,0.4L14.3,28.9z
						 M14.4,29.6l-2.9,0.8l-0.7-0.5l3.5-0.7L14.4,29.6z"/>
					<path class="st28" d="M19.1,23.5c2.7,0,4.9,2.2,4.9,4.9c0,2.7-2.2,4.9-4.9,4.9c-2.7,0-4.9-2.2-4.9-4.9
						C14.2,25.7,16.4,23.5,19.1,23.5"/>
					<polygon class="st28" points="35.9,30.1 37.1,28.4 35.9,26.7 37.8,27.4 39.1,25.7 39.1,27.8 41,28.4 39.1,29 39.1,31.1 
						37.9,29.4 					"/>
					<polygon class="st28" points="11.1,9.2 9.3,10.2 7.8,8.8 8.2,10.9 6.4,11.9 8.5,12.1 8.9,14.1 9.8,12.2 11.8,12.5 10.3,11.1 
											"/>
				</g>
			</g>
		</g>
	</g>
</g>
<g id="ALMACEN" class="st132">
</g>
<g id="GUIAS" class="st132">
</g>
</svg>
