<?xml version="1.0" encoding="utf-8"?>
<!-- Generator: Adobe Illustrator 21.1.0, SVG Export Plug-In . SVG Version: 6.00 Build 0)  -->
<svg version="1.1" id="Layer_1" xmlns="http://www.w3.org/2000/svg" xmlns:xlink="http://www.w3.org/1999/xlink" x="0px" y="0px"
	 viewBox="0 0 176 176" style="enable-background:new 0 0 176 176;" xml:space="preserve">
<style type="text/css">
	.st0{fill:none;stroke:#3C2F16;stroke-width:5;stroke-linecap:round;stroke-miterlimit:10;}
	.st1{clip-path:url(#SVGID_2_);}
	.st2{fill:#00A3DD;}
	.st3{fill:#F7D618;}
	.st4{fill:#CE1021;}
</style>
<g>
	<path class="st0" d="M4.2,79.3c-5.3,53.2,39.1,97.6,92.3,92.3c39.4-3.9,71.3-35.8,75.2-75.2C177,43.3,132.6-1.1,79.4,4.2
		C40,8.1,8.1,39.9,4.2,79.3z"/>
	<g>
		<defs>
			<ellipse id="SVGID_1_" cx="88" cy="87.9" rx="69.7" ry="68.3"/>
		</defs>
		<clipPath id="SVGID_2_">
			<use xlink:href="#SVGID_1_"  style="overflow:visible;"/>
		</clipPath>
		<g class="st1">
			<rect x="16.8" y="17.9" class="st2" width="210" height="140"/>
			<polygon class="st3" points="213.7,17.9 16.8,122.9 16.8,157.9 16.8,157.9 29.9,157.9 226.8,52.9 226.8,17.9 			"/>
			<polygon class="st4" points="226.8,17.9 16.8,129.9 16.8,157.9 16.8,157.9 16.8,157.9 226.8,45.9 			"/>
			<polygon class="st3" points="49.8,24.6 55.7,42.9 74.9,42.9 59.4,54.2 65.3,72.4 49.8,61.2 34.3,72.4 40.2,54.2 24.7,42.9 
				43.9,42.9 			"/>
		</g>
	</g>
</g>
</svg>
