<?xml version="1.0" encoding="utf-8"?>
<!-- Generator: Adobe Illustrator 21.1.0, SVG Export Plug-In . SVG Version: 6.00 Build 0)  -->
<svg version="1.1" id="Layer_1" xmlns="http://www.w3.org/2000/svg" xmlns:xlink="http://www.w3.org/1999/xlink" x="0px" y="0px"
	 viewBox="0 0 173.4 173.4" style="enable-background:new 0 0 173.4 173.4;" xml:space="preserve">
<style type="text/css">
	.st0{display:none;}
	.st1{fill:none;stroke:#3C2F16;stroke-width:5;stroke-linecap:round;stroke-miterlimit:10;}
	.st2{clip-path:url(#SVGID_2_);}
	.st3{fill:#1EB53A;}
	.st4{fill:#00A3DD;}
	.st5{clip-path:url(#SVGID_4_);}
	.st6{fill:none;stroke:#FCD116;stroke-width:54.86;}
	.st7{fill:none;stroke:#000000;stroke-width:39.19;}
</style>
<g id="ALMACEN" class="st0">
</g>
<g>
	<path class="st1" d="M2.9,78.1c-5.3,53.2,39.1,97.6,92.3,92.3c39.4-3.9,71.3-35.8,75.2-75.2C175.7,42,131.3-2.3,78.1,2.9
		C38.7,6.8,6.8,38.7,2.9,78.1z"/>
</g>
<g id="GUIAS_1_" class="st0">
</g>
<g>
	<defs>
		<path id="SVGID_1_" d="M156.2,77.3c5.8,45.9-32.8,84.4-78.7,78.7c-31.3-3.9-56.5-29.2-60.4-60.4c-5.8-45.9,32.8-84.4,78.7-78.7
			C127,20.8,152.3,46,156.2,77.3z"/>
	</defs>
	<clipPath id="SVGID_2_">
		<use xlink:href="#SVGID_1_"  style="overflow:visible;"/>
	</clipPath>
	<g id="MESA_DE_TRABAJO_1_" class="st2">
		<path id="_5" class="st3" d="M-22.9,14.7h216.6L-22.9,159.1"/>
		<path id="_4" class="st4" d="M-22.9,159.1h216.6V14.7"/>
		<g>
			<g id="Group_1">
				<defs>
					<rect id="SVGID_3_" x="-22.9" y="14.7" width="216.6" height="144.4"/>
				</defs>
				<clipPath id="SVGID_4_">
					<use xlink:href="#SVGID_3_"  style="overflow:visible;"/>
				</clipPath>
				<g class="st5">
					<line id="_3" class="st6" x1="-22.9" y1="159.1" x2="193.8" y2="14.7"/>
					<line id="_2" class="st7" x1="-22.9" y1="159.1" x2="193.8" y2="14.7"/>
				</g>
			</g>
		</g>
	</g>
</g>
</svg>
