<?xml version="1.0" encoding="utf-8"?>
<!-- Generator: Adobe Illustrator 21.1.0, SVG Export Plug-In . SVG Version: 6.00 Build 0)  -->
<svg version="1.1" id="Layer_1" xmlns="http://www.w3.org/2000/svg" xmlns:xlink="http://www.w3.org/1999/xlink" x="0px" y="0px"
	 viewBox="0 0 181 180" style="enable-background:new 0 0 181 180;" xml:space="preserve">
<style type="text/css">
	.st0{clip-path:url(#SVGID_2_);}
	.st1{fill:#CC0001;}
	.st2{fill:#FFFFFF;}
	.st3{fill:#010066;}
	.st4{fill:#FFCC00;}
	.st5{fill:none;stroke:#3C2F16;stroke-width:5;stroke-linecap:round;stroke-miterlimit:10;}
</style>
<g>
	<g>
		<defs>
			<ellipse id="SVGID_1_" cx="91.7" cy="91" rx="69.7" ry="68.3"/>
		</defs>
		<clipPath id="SVGID_2_">
			<use xlink:href="#SVGID_1_"  style="overflow:visible;"/>
		</clipPath>
		<g class="st0">
			<rect x="19.6" y="20.8" class="st1" width="299.9" height="149.9"/>
			<rect x="19.6" y="160.1" class="st2" width="299.9" height="10.7"/>
			<rect x="19.6" y="138.6" class="st2" width="299.9" height="10.7"/>
			<rect x="19.6" y="117.2" class="st2" width="299.9" height="10.7"/>
			<rect x="19.6" y="95.8" class="st2" width="299.9" height="10.7"/>
			<rect x="19.6" y="74.4" class="st2" width="299.9" height="10.7"/>
			<rect x="19.6" y="53" class="st2" width="299.9" height="10.7"/>
			<rect x="19.6" y="31.5" class="st2" width="299.9" height="10.7"/>
			<rect x="19.6" y="20.8" class="st3" width="149.9" height="85.7"/>
			<path class="st4" d="M81.3,31.5c-17.8,0-32.2,14.4-32.2,32.1c0,17.7,14.4,32.1,32.2,32.1c6.4,0,12.4-1.9,17.5-5.1
				c-2.9,1-6.1,1.6-9.3,1.6c-15.8,0-28.6-12.8-28.6-28.5s12.8-28.5,28.6-28.5c3.5,0,6.8,0.6,9.9,1.8C94.2,33.6,88,31.5,81.3,31.5"/>
			<polygon class="st4" points="134.8,80.4 121.2,73.3 125.2,87.8 116.1,75.7 113.3,90.4 110.5,75.7 101.4,87.8 105.4,73.3 
				91.8,80.3 101.9,69 86.5,69.6 100.7,63.7 86.6,57.7 102,58.3 91.9,46.9 105.5,54 101.5,39.5 110.5,51.7 113.4,36.9 116.2,51.7 
				125.3,39.6 121.2,54.1 134.8,47 124.7,58.3 140.1,57.8 126,63.7 140.1,69.7 124.7,69 			"/>
		</g>
	</g>
	<path class="st5" d="M7.6,82.2c-5.3,53.2,39.1,97.6,92.3,92.3c39.4-3.9,71.3-35.8,75.2-75.2C180.4,46.1,136,1.7,82.8,7
		C43.4,10.9,11.5,42.8,7.6,82.2z"/>
</g>
</svg>
