<?xml version="1.0" encoding="utf-8"?>
<!-- Generator: Adobe Illustrator 21.1.0, SVG Export Plug-In . SVG Version: 6.00 Build 0)  -->
<svg version="1.1" id="Layer_1" xmlns="http://www.w3.org/2000/svg" xmlns:xlink="http://www.w3.org/1999/xlink" x="0px" y="0px"
	 viewBox="0 0 178 178" style="enable-background:new 0 0 178 178;" xml:space="preserve">
<style type="text/css">
	.st0{fill:none;stroke:#3C2F16;stroke-width:5;stroke-linecap:round;stroke-miterlimit:10;}
	.st1{clip-path:url(#SVGID_2_);fill:#00AA66;}
	.st2{clip-path:url(#SVGID_2_);fill:none;stroke:#000000;stroke-width:0.295;}
	.st3{clip-path:url(#SVGID_2_);fill:#F69139;}
	.st4{clip-path:url(#SVGID_2_);fill:#231F20;}
	.st5{clip-path:url(#SVGID_2_);fill:#EE3E33;}
	.st6{clip-path:url(#SVGID_2_);fill:none;stroke:#000000;stroke-width:0.148;}
	.st7{clip-path:url(#SVGID_2_);}
</style>
<g>
	<path class="st0" d="M5.5,79.5c-5.3,53.2,39.1,97.6,92.3,92.3c39.4-3.9,71.3-35.8,75.2-75.2c5.3-53.2-39.1-97.6-92.3-92.3
		C41.2,8.2,9.4,40.1,5.5,79.5z"/>
	<g>
		<defs>
			<ellipse id="SVGID_1_" cx="90.2" cy="88.1" rx="69.7" ry="68.3"/>
		</defs>
		<clipPath id="SVGID_2_">
			<use xlink:href="#SVGID_1_"  style="overflow:visible;"/>
		</clipPath>
		<rect x="-94.4" y="18.9" class="st1" width="255" height="170"/>
		<rect x="-94.4" y="18.9" class="st2" width="255" height="170"/>
		<rect x="130.2" y="79.6" class="st3" width="30.4" height="109.3"/>
		<rect x="130.2" y="79.6" class="st2" width="30.4" height="109.3"/>
		<rect x="99.8" y="79.6" class="st4" width="30.4" height="109.3"/>
		<rect x="99.8" y="79.6" class="st2" width="30.4" height="109.3"/>
		<rect x="69.4" y="79.6" class="st5" width="30.4" height="109.3"/>
		<rect x="69.4" y="79.6" class="st2" width="30.4" height="109.3"/>
		<path class="st3" d="M117.5,37.5c-0.6,0-1.1-0.2-1.3-0.6c1-0.6,1.7-0.5,2.6,0.3c0.2-0.6,0-1.3-0.4-1.7c-0.4-0.4-0.7-0.4-1.2-0.4
			c-0.5,0-1-0.2-1.3-0.2c-0.5-1.1-1.7-0.6-2.9-0.2c-1.9,0.7-3.6,2-4.4,3.3c-0.4,0.6-0.4,0.8-0.6,1.2c0.2,0,0.2,0,0.3-0.1
			c-0.1,1.5-0.3,2.8,0,3.7c-0.3,1.3-0.1,2.1,0.3,2.5c0.4,0.4,0.6,0.6,0.6,1c0.1,0.5,0.3,0.9,0.6,1.2c0.3,0.3,0.5,0.7,0.6,0.9
			c0,0.2,1.1,1.2,1.5,1.5c0.2,0.1,0.2,0.3,0.4,0.6c-0.4,2.5,1.3,5.1,0.9,7.6c0.3,0,0.7,0,1.1-0.1c0.3,2.1,0.5,3.2-1.3,3.8
			c-1.9,0.6-2.9,1.3-2.4,2c0.4,0.5,1.1,0.1,1.6-0.4c0.4-0.3,0.8-0.6,1.1-0.7c0.3-0.1,0.4,0,0.2,0.4c-0.2,0.4-1.1,1.4-1.1,1.8
			c0,0.5,0.4,0.8,1,0.4c0.6-0.4,1.2-1.3,1.3-1.9c0.1-0.4,0.3-0.7,0.2,0c0,0.7-0.4,1.9,0.5,2.1c0.9,0.2,1.2-0.9,0.9-1.8
			c-0.3-1-0.4-1.5-0.3-1.8c0.1-0.3,0.3-0.5,0.6-0.4c0.3,0.1,1,0,1-0.6c0-0.5-0.5-1-1-0.7s-0.9,0.3-0.7-0.4c0.2-0.5,0.5-1,0.5-1.4
			c0.4,0.5,2.4,0.6,3.3,0.1c0.2,1,0.7,1.9-0.4,2.8c-1.2,0.9-2.1,1.8-2.1,2.5c0,0.7,0.3,1.1,0.9,0.7c0.6-0.3,1-0.8,1.1-1.2
			c0.1-0.4,0.4-0.4,0.3,0.1c-0.1,0.5-0.4,1.3-0.3,1.8c0.1,0.5,0.8,0.5,1.1,0.1c0.3-0.4,0.2-1,0.2-1.6c-0.1-0.6,0-1.2,0.2-1.4
			c0.1-0.2,0.4-0.6,0.7,0.1c0.3,0.6,0.4,1.1,0.9,1.3c0.5,0.2,0.9-0.1,0.8-0.7c-0.1-0.6-0.8-1.3-1.5-1.9c-0.7-0.5-0.5-0.8-0.4-1.3
			c0-0.5-0.1-1.4-0.1-1.8c0.6,0.5,1.3,0.4,1.7,0.4c0.3,0,0.9-0.1,0.3-0.6c-1.1-1-0.7-1.6-1.5-2.3c-0.8-0.7-1.5-1.9-1.7-2.8
			c-0.2-1-0.7-2.7-1.8-3.6c-0.6-0.5-0.7-1.9-0.6-3.4c0.1-1.6,0.2-3.3-1.3-4.1c-1.4-0.8-1.4-1.5-0.9-2.2c0.5-0.7,1.1-1.4,1.8-1.4
			c0.2,0,0.6,0,0.7-0.2C117.8,37.6,117.7,37.5,117.5,37.5"/>
		<path class="st6" d="M117.5,37.5c-0.6,0-1.1-0.2-1.3-0.6c1-0.6,1.7-0.5,2.6,0.3c0.2-0.6,0-1.3-0.4-1.7c-0.4-0.4-0.7-0.4-1.2-0.4
			c-0.5,0-1-0.2-1.3-0.2c-0.5-1.1-1.7-0.6-2.9-0.2c-1.9,0.7-3.6,2-4.4,3.3c-0.4,0.6-0.4,0.8-0.6,1.2c0.2,0,0.2,0,0.3-0.1
			c-0.1,1.5-0.3,2.8,0,3.7c-0.3,1.3-0.1,2.1,0.3,2.5c0.4,0.4,0.6,0.6,0.6,1c0.1,0.5,0.3,0.9,0.6,1.2c0.3,0.3,0.5,0.7,0.6,0.9
			c0,0.2,1.1,1.2,1.5,1.5c0.2,0.1,0.2,0.3,0.4,0.6c-0.4,2.5,1.3,5.1,0.9,7.6c0.3,0,0.7,0,1.1-0.1c0.3,2.1,0.5,3.2-1.3,3.8
			c-1.9,0.6-2.9,1.3-2.4,2c0.4,0.5,1.1,0.1,1.6-0.4c0.4-0.3,0.8-0.6,1.1-0.7c0.3-0.1,0.4,0,0.2,0.4c-0.2,0.4-1.1,1.4-1.1,1.8
			c0,0.5,0.4,0.8,1,0.4c0.6-0.4,1.2-1.3,1.3-1.9c0.1-0.4,0.3-0.7,0.2,0c0,0.7-0.4,1.9,0.5,2.1c0.9,0.2,1.2-0.9,0.9-1.8
			c-0.3-1-0.4-1.5-0.3-1.8c0.1-0.3,0.3-0.5,0.6-0.4c0.3,0.1,1,0,1-0.6c0-0.5-0.5-1-1-0.7s-0.9,0.3-0.7-0.4c0.2-0.5,0.5-1,0.5-1.4
			c0.4,0.5,2.4,0.6,3.3,0.1c0.2,1,0.7,1.9-0.4,2.8c-1.2,0.9-2.1,1.8-2.1,2.5c0,0.7,0.3,1.1,0.9,0.7c0.6-0.3,1-0.8,1.1-1.2
			c0.1-0.4,0.4-0.4,0.3,0.1c-0.1,0.5-0.4,1.3-0.3,1.8c0.1,0.5,0.8,0.5,1.1,0.1c0.3-0.4,0.2-1,0.2-1.6c-0.1-0.6,0-1.2,0.2-1.4
			c0.1-0.2,0.4-0.6,0.7,0.1c0.3,0.6,0.4,1.1,0.9,1.3c0.5,0.2,0.9-0.1,0.8-0.7c-0.1-0.6-0.8-1.3-1.5-1.9c-0.7-0.5-0.5-0.8-0.4-1.3
			c0-0.5-0.1-1.4-0.1-1.8c0.6,0.5,1.3,0.4,1.7,0.4c0.3,0,0.9-0.1,0.3-0.6c-1.1-1-0.7-1.6-1.5-2.3c-0.8-0.7-1.5-1.9-1.7-2.8
			c-0.2-1-0.7-2.7-1.8-3.6c-0.6-0.5-0.7-1.9-0.6-3.4c0.1-1.6,0.2-3.3-1.3-4.1c-1.4-0.8-1.4-1.5-0.9-2.2c0.5-0.7,1.1-1.4,1.8-1.4
			c0.2,0,0.6,0,0.7-0.2C117.8,37.6,117.7,37.5,117.5,37.5z"/>
		<path class="st3" d="M108.2,41.1c0,0.7,0,1.3,0.1,1.7c-0.3,1.3-0.1,2.1,0.3,2.5c0.4,0.4,0.6,0.6,0.6,1c0.1,0.5,0.3,0.9,0.6,1.2
			c0.3,0.3,0.5,0.7,0.6,0.9c0,0.2,1.1,1.2,1.5,1.5c0.2,0.1,0.2,0.3,0.4,0.6c-0.2,1.1,0,2.1,0.3,3.2c-2.4,2-4.7,1-3.7-1
			c-2,1.6-5.3,1.5-4.6,0c-3.1,1.1-4,0.2-3.6-0.8c-2.6,1-3.9,0-3.5-0.7c-2.1,0.6-3.5,0.2-3.7-0.1c-0.2-0.4,0.3-1.2,0.8-1.6
			c-1,0.4-1.9,0.4-2.8,0.2c-0.9-0.1-0.7-0.4-0.5-0.8c0.2-0.4,0.4-1,1.1-1.7c-1.7,0.3-3.8,0.6-5.3,0.1c-0.3-0.1-0.8-0.2-0.5-0.5
			c0.3-0.3,1.2-1,2.3-1.5c-2.5,0.4-7.2,0.6-8.6-0.9c1.3,0.3,3-0.3,4-0.7c-4.2-0.5-9.9-3.3-10-6.2c1.2,1.9,3.3,2.6,5.3,3.2
			c-2.8-1.6-4-3.6-4.1-4.9c1.6,1.5,4,3.3,6.4,3.7c-1.7-0.9-3.9-3.5-4.5-5.4c1.2,1.1,4.4,2.9,6.6,3.4c-1.5-1.2-3.9-3.9-3.8-5.5
			c0.6,0.6,2,1.6,4.8,3.3c2.9,1.7,4.4,1.6,6.8,2.1c-0.4-0.6-0.8-1.3-0.9-1.6c0.7,0.1,1.4,0.4,3.4,1.6c2,1.2,6.4,1.6,8.8,2.7
			C104.9,41.1,107.5,40.6,108.2,41.1"/>
		<path class="st6" d="M108.2,41.1c0,0.7,0,1.3,0.1,1.7c-0.3,1.3-0.1,2.1,0.3,2.5c0.4,0.4,0.6,0.6,0.6,1c0.1,0.5,0.3,0.9,0.6,1.2
			c0.3,0.3,0.5,0.7,0.6,0.9c0,0.2,1.1,1.2,1.5,1.5c0.2,0.1,0.2,0.3,0.4,0.6c-0.2,1.1,0,2.1,0.3,3.2c-2.4,2-4.7,1-3.7-1
			c-2,1.6-5.3,1.5-4.6,0c-3.1,1.1-4,0.2-3.6-0.8c-2.6,1-3.9,0-3.5-0.7c-2.1,0.6-3.5,0.2-3.7-0.1c-0.2-0.4,0.3-1.2,0.8-1.6
			c-1,0.4-1.9,0.4-2.8,0.2c-0.9-0.1-0.7-0.4-0.5-0.8c0.2-0.4,0.4-1,1.1-1.7c-1.7,0.3-3.8,0.6-5.3,0.1c-0.3-0.1-0.8-0.2-0.5-0.5
			c0.3-0.3,1.2-1,2.3-1.5c-2.5,0.4-7.2,0.6-8.6-0.9c1.3,0.3,3-0.3,4-0.7c-4.2-0.5-9.9-3.3-10-6.2c1.2,1.9,3.3,2.6,5.3,3.2
			c-2.8-1.6-4-3.6-4.1-4.9c1.6,1.5,4,3.3,6.4,3.7c-1.7-0.9-3.9-3.5-4.5-5.4c1.2,1.1,4.4,2.9,6.6,3.4c-1.5-1.2-3.9-3.9-3.8-5.5
			c0.6,0.6,2,1.6,4.8,3.3c2.9,1.7,4.4,1.6,6.8,2.1c-0.4-0.6-0.8-1.3-0.9-1.6c0.7,0.1,1.4,0.4,3.4,1.6c2,1.2,6.4,1.6,8.8,2.7
			C104.9,41.1,107.5,40.6,108.2,41.1z"/>
		<path class="st3" d="M123.2,58.3c0.1-0.1,0.1-0.2-0.2-0.5c-1.1-1-0.7-1.6-1.5-2.3c-0.8-0.7-1.5-1.9-1.7-2.8s-0.7-2.7-1.8-3.6
			c-0.6-0.5-0.7-1.9-0.6-3.4c0.1-1.3,0.2-2.8-0.7-3.7c1.7-0.5,3.2-0.6,3.7,0c2.8-0.7,5.2-0.9,7.5-1.1c2.7-0.2,7.8-1.3,11.4-3.8
			c-0.2,0.9-1.5,2.2-2.6,2.9c3.7-0.9,8.1-2.5,11.9-5.4c0,2-1.6,3.4-2.6,4.2c2.6-1.4,6.3-3.2,7.6-5.4c0.6,2.3-3.3,5.3-5.4,6.9
			c2.1-1,4.9-2,5.9-3.5c0,1.9-2.4,4.1-4.7,5.5c2.3-0.9,5-1.8,6.5-3.2c0.2,1.9-7,6.1-10.6,7.3c3.1-0.8,7.1-1.8,8.9-2.9
			c-0.1,0.4-0.8,0.9-1.3,1.3c-2.2,1.6-5.5,2.5-7.5,2.9c0.3,1.1-0.1,1.7-1.3,1.8c-1.2,0.1-4.2-0.4-5.8-1.1c-0.2,0.1-0.5,0.2-0.8,0.2
			c1.5,1.1,2,1.9,1.7,2.4s-1.3,0.4-2.1,0.2c0.6,1.8-1.5,1.7-3.2,0.7c0.7,0.9,0.8,1.7-0.2,1.9c-1,0.2-1.7,0.1-2.7-0.5
			c-0.1,0.7-0.7,1.1-1.6,0.9c2.9,1.8,2.8,2.4,2.3,3.1c-0.5,0.7-2.2,0.5-3.2-0.1c-0.4,1.4-2,1.4-3.2,0.3
			C125.5,57.9,124.4,59,123.2,58.3"/>
		<path class="st6" d="M123.2,58.3c0.1-0.1,0.1-0.2-0.2-0.5c-1.1-1-0.7-1.6-1.5-2.3c-0.8-0.7-1.5-1.9-1.7-2.8s-0.7-2.7-1.8-3.6
			c-0.6-0.5-0.7-1.9-0.6-3.4c0.1-1.3,0.2-2.8-0.7-3.7c1.7-0.5,3.2-0.6,3.7,0c2.8-0.7,5.2-0.9,7.5-1.1c2.7-0.2,7.8-1.3,11.4-3.8
			c-0.2,0.9-1.5,2.2-2.6,2.9c3.7-0.9,8.1-2.5,11.9-5.4c0,2-1.6,3.4-2.6,4.2c2.6-1.4,6.3-3.2,7.6-5.4c0.6,2.3-3.3,5.3-5.4,6.9
			c2.1-1,4.9-2,5.9-3.5c0,1.9-2.4,4.1-4.7,5.5c2.3-0.9,5-1.8,6.5-3.2c0.2,1.9-7,6.1-10.6,7.3c3.1-0.8,7.1-1.8,8.9-2.9
			c-0.1,0.4-0.8,0.9-1.3,1.3c-2.2,1.6-5.5,2.5-7.5,2.9c0.3,1.1-0.1,1.7-1.3,1.8c-1.2,0.1-4.2-0.4-5.8-1.1c-0.2,0.1-0.5,0.2-0.8,0.2
			c1.5,1.1,2,1.9,1.7,2.4s-1.3,0.4-2.1,0.2c0.6,1.8-1.5,1.7-3.2,0.7c0.7,0.9,0.8,1.7-0.2,1.9c-1,0.2-1.7,0.1-2.7-0.5
			c-0.1,0.7-0.7,1.1-1.6,0.9c2.9,1.8,2.8,2.4,2.3,3.1c-0.5,0.7-2.2,0.5-3.2-0.1c-0.4,1.4-2,1.4-3.2,0.3
			C125.5,57.9,124.4,59,123.2,58.3z"/>
		<path class="st6" d="M91.6,37.5c0.4,0.6,1.7,1.7,2.5,1.9"/>
		<path class="st6" d="M94.1,39.1c0,0.9,0.4,2.2,1.9,2.6c1.5,0.4,2.8,0.3,3.6,0.1"/>
		<path class="st6" d="M99.6,41.8c-1.4,0.3-3,1.1-3.4,1.9c-0.4,0.7-0.1,1,0.5,1.2c2.2,0.6,4.6,0,6.3-1.3"/>
		<path class="st6" d="M99.5,41.5c0,0.9,1.9,2,5.1,1.5"/>
		<path class="st6" d="M101.7,43c-0.7,0.4-1.6,0.8-3.2,1"/>
		<path class="st6" d="M103,43.1c-0.3,1,2,1.8,5.1,1"/>
		<path class="st6" d="M104.4,44.3c-0.8,0.5-2.3,1.2-3.7,1.7"/>
		<path class="st6" d="M98.9,45.1c-0.3,0.4-0.4,1.8,0.8,2c2.5,0.3,5.9-1.4,7.3-2.7"/>
		<path class="st6" d="M102,46.8c-0.6,1.1-0.3,2.2,1.1,2.4c1.4,0.2,3.8-1,6-3.4"/>
		<path class="st6" d="M108.3,44.8c-1.5,0.9-3.1,2.2-4.8,2.8"/>
		<path class="st6" d="M105.3,48.7c-0.6,0.8-0.7,1.3-0.3,1.7c0.4,0.5,1.1,0.1,2.1-0.4c1-0.5,2.4-1.6,3.1-2.2"/>
		<path class="st6" d="M109.5,47c-0.7,0.5-2.8,2-3.3,2.5"/>
		<path class="st6" d="M108.8,48.8c-0.4,1.1,0,1.7,0.7,1.9c0.6,0.2,1.6,0.4,2.6-0.5"/>
		<path class="st6" d="M104.3,52.7c1.4-0.5,3.7-2.1,4.4-2.7"/>
		<path class="st6" d="M109.4,50.7c-0.6,0.6-1.9,1.5-3.2,2"/>
		<path class="st6" d="M108.9,52.7c1.1-0.7,2.7-1.8,3.3-2.4"/>
		<path class="st6" d="M112.2,51.4c-0.3,0.4-1.1,1.3-1.6,1.8"/>
		<path class="st6" d="M106.1,50.5c-1.1,0.6-2.5,1.2-3.5,1.6"/>
		<path class="st6" d="M100.7,51.9c0.9-0.3,3.3-1.6,4-2"/>
		<path class="st6" d="M99.3,51.2c1.9-0.4,3.4-1.5,4.2-2"/>
		<path class="st6" d="M97.2,51.2c1.6-0.3,3.9-1.8,4.9-2.4"/>
		<path class="st6" d="M101.7,47.8c-1.2,0.7-3.3,1.9-5.2,2.4"/>
		<path class="st6" d="M94.3,49.6c1.3-0.3,3.9-1.5,5.8-2.5"/>
		<path class="st6" d="M98.8,46.4c-1.4,0.6-3.9,1.5-5.5,1.9"/>
		<path class="st6" d="M92.1,47.3c1.8-0.3,4.2-1.5,5.4-2.3"/>
		<path class="st6" d="M83.8,37.7c1,0.8,2.7,1.2,3.9,1.4"/>
		<path class="st6" d="M82.3,34.7c1.5,1.5,3.9,3.1,6.7,3.5"/>
		<path class="st6" d="M87.8,37.9c-0.3,0.6-0.4,2.1,2,1.8"/>
		<path class="st6" d="M88.6,39.7c-0.4,0.8,0.2,2.2,3.1,1.3"/>
		<path class="st6" d="M91.2,40c0.5,1.7,2.6,2.1,3.8,1.2"/>
		<path class="st6" d="M88.5,40.3c-1.4-0.3-2.9-0.5-3.5-0.3c-0.5,0.2-0.7,0.8,0,1.3c2.2,1.7,10.3,1.7,12.5,1.3"/>
		<path class="st6" d="M85.6,41.6c-0.8,0.3-0.7,1.1,0.6,1.6c2,0.8,7.5,1.2,9.9,1"/>
		<path class="st6" d="M85.5,42.9c-0.4,0.4-0.2,1,0.2,1.4c1.9,1.7,6.5,1.5,10.3,0.1"/>
		<path class="st6" d="M84.1,43.8c0.3-0.1,0.9-0.2,1.2-0.2"/>
		<path class="st6" d="M79.4,40.9c1.5,1,3.4,1.4,5.7,1.6"/>
		<path class="st6" d="M81.8,39.6c1.2,0.3,1.8,0.5,2.8,0.8"/>
		<path class="st6" d="M136.9,39.9c-1.5,0.5-5.1,1.9-6.7,2.1"/>
		<path class="st6" d="M117.5,44.9c1.2,0.6,3.2,0.9,3.4-0.7"/>
		<path class="st6" d="M120.8,44.6c1.2,0.7,3.6,0.3,3.6-1.1"/>
		<path class="st6" d="M124.2,44.1c1.2,0.5,3,0.5,3.3-1.1"/>
		<path class="st6" d="M127.1,43.8c1.6,0.3,3.5-1,3-2.2"/>
		<path class="st6" d="M120.6,41.8c-0.7,0.2-1.2,0.5-1.6,0.7"/>
		<path class="st6" d="M129.5,43.1c1.3,0.3,3.7,1,4.6,1.7c0.8,0.7,1.1,1.4-0.4,1.7c-1.5,0.3-2.3,0.1-3.7-0.1"/>
		<path class="st6" d="M130.3,43.3c1.6-0.9,4.3-1.4,6-1c1.8,0.4,1.5,1.4,0.9,1.9c-0.5,0.5-1.8,0.8-3.1,0.7"/>
		<path class="st6" d="M131.9,43.8c1-0.2,3.2-0.4,4.3-0.4"/>
		<path class="st6" d="M146.2,38.7c-1.4,1.4-5.7,3.1-9.1,3.9"/>
		<path class="st6" d="M139.6,41.9c1.2,0.3,0.4,1.9-0.1,2.3c-1.2,1-2.6,1.8-4.9,2"/>
		<path class="st6" d="M134.9,46.2c1.2,0.5,3.5,0.8,4.4,0.1c1-0.6,0.8-1.6,0.1-2.1"/>
		<path class="st6" d="M137.7,48.5c-0.9-0.8-5.3-1.7-6.7-1.9"/>
		<path class="st6" d="M138.5,48.3c0.5-0.2,1.2-1.1,0.7-1.9"/>
		<path class="st6" d="M121.7,44.9c1.5,1.3,4.6,3,6.6,3.3c2,0.3,3.6-0.1,2.5-1.2c-1-1.1-3.7-2.2-5.1-2.7"/>
		<path class="st6" d="M137.2,51.1c-2.2-0.5-4.6-2-6.3-3.1"/>
		<path class="st6" d="M131,47.3c1.8,0.7,5.1,2.2,6.6,2.6"/>
		<path class="st6" d="M134,51.7c-1.3-0.6-3.7-2.1-5.1-3.4"/>
		<path class="st6" d="M130.2,48.3c0.9,0.7,3.6,2.1,4.9,2.8"/>
		<path class="st6" d="M123.5,44.7c1.6,0.9,3.9,2,5.6,2.6"/>
		<path class="st6" d="M126.2,44.3c2.3,0.2,4.4,0.7,6.7,1.3"/>
		<path class="st6" d="M119.8,52.1c0.3,0.5,0.8,1.2,1.6,1.5c0.8,0.3,1.3-0.4,1.4-1.1c0-0.7,0-1.1-0.1-1.3"/>
		<path class="st6" d="M118.4,45.2c0.2,2,2,4.8,3.4,5.7c1.5,0.9,2.6,0.5,2.9,0.1c0.3-0.4,0.3-1.7-1.4-2.6c-1.2-0.7-2.8-2.1-3.5-3"/>
		<path class="st6" d="M119.1,45.3c0.3,0.8,2.3,3.5,3.4,4.1"/>
		<path class="st6" d="M117.5,46.4c0.8,1,3.1,4.3,3.5,5.3"/>
		<path class="st6" d="M120.4,45.1c0.5,0.6,2.8,2.4,3.9,2.9"/>
		<path class="st6" d="M124.4,49.1c0.6,0.3,1.1,0.4,1.5,0.4c0.4,0,0.7-0.2,0.5-0.7c-0.2-0.5-0.5-1.1-0.9-1.4"/>
		<path class="st6" d="M124.7,51c0.8,1.2,3.6,2.8,4.9,3"/>
		<path class="st6" d="M131.2,53.2c-1.2-0.6-4-3-4.8-3.8"/>
		<path class="st6" d="M128.7,57.1c-1.1-0.6-4.7-4-6.1-5.6"/>
		<path class="st6" d="M125.5,57.3c-1-0.8-2.8-3.1-3.3-3.8"/>
		<path class="st6" d="M124.4,49.2c1.1,1,3.6,2.7,4.5,3.4"/>
		<path class="st6" d="M121.9,53.7c0.4,0.8,0.7,1.5,0.6,1.8c0,0.3-0.1,0.5-0.5,0.4"/>
		<path class="st6" d="M148.5,40.2c-2.8,1.4-5.2,3.2-9,4"/>
		<path class="st6" d="M140.2,42.7c2.7-1,6.8-2.5,10.3-5.3"/>
		<path class="st6" d="M140,45.2c3.9-1,8.2-2.6,11-5"/>
		<path class="st6" d="M149.7,42.2c-2.2,0.9-3.9,2.9-9.9,3.7"/>
		<path class="st6" d="M145.5,46.3c-1.6,0.7-4.7,0.7-6.2,0.6"/>
		<path class="st6" d="M145.6,47.6c-1.7,0.4-5.1,0.2-6.3-0.1"/>
		<path class="st6" d="M108.3,39.2c0.6-0.3,0.7-0.1,1.2-0.5c1.3-1.3,3.3-2.7,4.3-3.1c1-0.4,1.4-0.6,2.2-0.6"/>
		<path class="st6" d="M113.7,35.6c0.3-0.1,0.3,0.7,1.1,0.4c0.6-0.2,0.3-0.9,0.5-1"/>
		<path class="st6" d="M116.2,37c-0.4,0.2-0.7,0.5-0.9,0.9"/>
		<path class="st6" d="M109.6,39.9c-0.2,0.6-0.2,1.3-0.2,1.8"/>
		<path class="st6" d="M109.5,42.6c-0.1,0.6,0,1.8,0.1,2.3"/>
		<path class="st6" d="M109.9,46.3c0.1,0.4,0.6,0.8,0.8,1"/>
		<path class="st6" d="M110.6,43.5c-0.1,0.8,0.4,2.4,0.9,3c0.1,0.8,0.6,2.1,1.6,3.1"/>
		<path class="st6" d="M110.4,41.1c-0.1,0.4,0,0.9,0,1.4"/>
		<path class="st6" d="M111.7,37.8c-0.3,0.8-0.4,2.4-0.4,2.9c0.1,0.5-0.3,1.5,0.2,3.1"/>
		<path class="st6" d="M112.7,38.5c-0.3,1.4-0.3,3.9,0,4.9"/>
		<path class="st6" d="M112.3,43.8c-0.2,0.7-0.2,1.6,0.1,2.3"/>
		<path class="st6" d="M113.6,39c0,1,0.4,2.5,1.4,3.5"/>
		<path class="st6" d="M113.4,42.7c-0.1,1.2,0,2.4,0.2,3.1c0.2,0.7,0.2,2,0.8,2.8"/>
		<path class="st6" d="M114.5,44.5c0.1,0.5,0.3,1.2,0.1,1.7"/>
		<path class="st6" d="M115.4,43.6c0.3,0.9,0.4,1.8,0.4,2.2"/>
		<path class="st6" d="M115.8,48c0.1,0.7,0.4,1.6,0.6,2"/>
		<path class="st6" d="M114.7,50c0.2,0.7,0.7,1.6,1.2,2"/>
		<path class="st6" d="M117.8,50.4c0.6,0.8,0.8,1.4,1,2"/>
		<path class="st6" d="M112.3,50.5c0.6,0.1,0.9-0.1,1.4,0.8c0.4,0.9,1.7,2.4,2.3,2.7c0.6,0.3,1.7,0.8,1.9,1.8
			c0.3-0.7,0.7-1.4,0.3-2.3c0.8,1,1.8,2,1.9,2.6c0.1,0.6,0.7,1.4,1.1,1.9"/>
		<path class="st6" d="M114.3,58c0.3-0.1,0.9-0.5,1.1-0.8c0.4,0.2,1.1,0.6,1.3,1.4"/>
		<path class="st6" d="M116.9,58.7c0.3-1,0-3-1-4.7"/>
		<path class="st6" d="M113.4,52.8c0.2,0.7,0.5,1.7,0.5,2.3"/>
		<path class="st6" d="M115.1,54.3c0.3,0.8,0.6,1.9,0.6,2.4"/>
		<path class="st6" d="M118.3,56.4c0.2,0.5,0.4,1.4,0.3,1.9"/>
		<path class="st6" d="M119.7,58.5c-0.2-0.8-0.2-2.8-0.3-3.4"/>
		<path class="st7" d="M109.7,65c0-0.4,0.1-0.9,0.4-1.2c0.4-0.3,0.6-0.6,0.9-0.3c0.3,0.3,0.1,0.6-0.3,0.7c-0.4,0.1-0.7,0.5-0.8,0.8
			C109.8,65.3,109.6,65.4,109.7,65"/>
		<path class="st7" d="M112.1,67.1c-0.2-0.7-0.1-1.6,0.1-1.9c0.2-0.3,0.6-0.4,0.8-0.2c0.3,0.3,0.4,0.6-0.1,0.9
			c-0.5,0.2-0.5,0.7-0.5,1C112.4,67.3,112.2,67.5,112.1,67.1"/>
		<path class="st7" d="M115.2,65.3c-0.2,0.3,0,1.4,0.6,1.7c0.4,0.2,0.6,0.2,0.4-0.2c-0.2-0.4-0.2-0.7,0-0.9c0.1-0.2,0.1-0.6-0.2-0.7
			C115.7,65,115.3,65.1,115.2,65.3"/>
		<path class="st7" d="M117.7,64.2c-0.4-0.3-0.7,0.1-0.8,0.3c-0.3,0.5-0.1,1.1,0.4,1.5c0.4,0.4,0.4-0.1,0.2-0.4
			c-0.1-0.2-0.2-0.7,0.1-0.7C117.9,64.9,118.1,64.5,117.7,64.2"/>
		<path class="st7" d="M119.8,65c-0.4-0.1-0.7,0.3-0.7,0.7c0,0.3,0.1,0.8,0.4,1c0.2,0.1,0.4,0.2,0.3-0.2c-0.1-0.4,0.1-0.7,0.3-0.8
			C120.2,65.6,120.2,65.1,119.8,65"/>
		<path class="st7" d="M122.7,63.1c-0.3,0.2-0.2,0.6,0,0.8c0.2,0.2,0.6,0.4,0.5,0.8c-0.1,0.4,0.1,0.5,0.3,0.1c0.2-0.4,0.2-1,0-1.3
			C123.4,63.1,123,62.9,122.7,63.1"/>
	</g>
</g>
</svg>
