<?xml version="1.0" encoding="utf-8"?>
<!-- Generator: Adobe Illustrator 21.1.0, SVG Export Plug-In . SVG Version: 6.00 Build 0)  -->
<svg version="1.1" id="Layer_1" xmlns="http://www.w3.org/2000/svg" xmlns:xlink="http://www.w3.org/1999/xlink" x="0px" y="0px"
	 viewBox="0 0 178 177" style="enable-background:new 0 0 178 177;" xml:space="preserve">
<style type="text/css">
	.st0{fill:none;stroke:#3C2F16;stroke-width:5;stroke-linecap:round;stroke-miterlimit:10;}
	.st1{clip-path:url(#SVGID_2_);fill:#EC1B2E;}
	.st2{clip-path:url(#SVGID_2_);fill:none;stroke:#000000;stroke-width:0.285;}
	.st3{clip-path:url(#SVGID_2_);}
	.st4{clip-path:url(#SVGID_2_);fill:#009C57;}
</style>
<g>
	<path class="st0" d="M4.4,79.3c-5.3,53.2,39.1,97.6,92.3,92.3c39.4-3.9,71.3-35.8,75.2-75.2c5.3-53.2-39.1-97.6-92.3-92.3
		C40.2,8.1,8.3,40,4.4,79.3z"/>
	<g>
		<defs>
			<ellipse id="SVGID_1_" cx="89.1" cy="87.8" rx="69.7" ry="68.3"/>
		</defs>
		<clipPath id="SVGID_2_">
			<use xlink:href="#SVGID_1_"  style="overflow:visible;"/>
		</clipPath>
		<rect x="-33.5" y="72.4" class="st1" width="245.9" height="54.6"/>
		<rect x="-33.5" y="72.4" class="st2" width="245.9" height="54.6"/>
		<rect x="-33.5" y="17.7" class="st3" width="245.9" height="54.6"/>
		<rect x="-33.5" y="17.7" class="st2" width="245.9" height="54.6"/>
		<rect x="-33.5" y="127" class="st4" width="245.9" height="54.6"/>
		<rect x="-33.5" y="127" class="st2" width="245.9" height="54.6"/>
		<path class="st1" d="M89.3,40.5c0-3.3-3.4-18.1,0-18.1C92.8,22.4,89.3,37.3,89.3,40.5"/>
		<path class="st1" d="M86,40.7c-0.3-3.3-5-17.8-1.6-18.1C87.8,22.3,85.7,37.4,86,40.7"/>
		<path class="st1" d="M82.7,41.1c-0.6-3.2-6.5-17.3-3.1-17.9C82.9,22.7,82.1,37.9,82.7,41.1"/>
		<path class="st1" d="M79.5,41.9c-0.8-3.2-8-16.6-4.7-17.5C78.1,23.5,78.6,38.7,79.5,41.9"/>
		<path class="st1" d="M76.3,42.9c-1.1-3.1-9.4-15.9-6.2-17C73.3,24.7,75.2,39.8,76.3,42.9"/>
		<path class="st1" d="M73.2,44.1c-1.4-3-10.8-15-7.7-16.4C68.7,26.3,71.8,41.2,73.2,44.1"/>
		<path class="st1" d="M70.3,45.7c-1.6-2.8-12-14-9.1-15.7C64.2,28.3,68.6,42.9,70.3,45.7"/>
		<path class="st1" d="M67.5,47.5c-1.9-2.7-13.2-12.9-10.4-14.9C59.9,30.7,65.6,44.8,67.5,47.5"/>
		<path class="st1" d="M64.8,49.5C62.7,47,50.6,37.8,53.2,35.6S62.7,47,64.8,49.5"/>
		<path class="st1" d="M62.4,51.8c-2.3-2.3-15.2-10.4-12.8-12.8C52,36.5,60.1,49.5,62.4,51.8"/>
		<path class="st1" d="M60.1,54.2c-2.5-2.1-16.1-9-13.9-11.7C48.4,39.9,57.6,52.1,60.1,54.2"/>
		<path class="st1" d="M58.1,56.9c-2.7-1.9-16.8-7.6-14.9-10.4C45.2,43.7,55.4,55,58.1,56.9"/>
		<path class="st1" d="M56.3,59.7c-2.8-1.6-17.4-6.1-15.7-9.1C42.3,47.6,53.5,58,56.3,59.7"/>
		<path class="st1" d="M54.8,62.6c-3-1.4-17.9-4.6-16.4-7.7C39.8,51.9,51.8,61.3,54.8,62.6"/>
		<path class="st1" d="M53.5,65.7c-3.1-1.1-18.2-3-17-6.2C37.7,56.3,50.5,64.6,53.5,65.7"/>
		<path class="st1" d="M44.2,67.7c-4.8-0.7-9.7-1.6-9.2-3.5c0.7-2.6,9.3,1.3,14.4,3.5H44.2z"/>
		<path class="st1" d="M125.3,65.6c3.1-1.1,15.9-9.4,17-6.2C143.5,62.6,128.3,64.4,125.3,65.6"/>
		<path class="st1" d="M124,62.5c3-1.4,15-10.8,16.4-7.7C141.9,57.9,126.9,61.1,124,62.5"/>
		<path class="st1" d="M122.4,59.5c2.8-1.6,14-12,15.7-9.1C139.9,53.4,125.3,57.9,122.4,59.5"/>
		<path class="st1" d="M120.6,56.7c2.7-1.9,12.9-13.2,14.9-10.4C137.5,49.1,123.3,54.9,120.6,56.7"/>
		<path class="st1" d="M118.6,54.1c2.5-2.1,11.7-14.3,13.9-11.7C134.7,45.1,121.1,52,118.6,54.1"/>
		<path class="st1" d="M116.3,51.7c2.3-2.3,10.4-15.2,12.8-12.8C131.6,41.2,118.7,49.3,116.3,51.7"/>
		<path class="st1" d="M113.9,49.4c2.1-2.5,9-16.1,11.7-13.9C128.2,37.7,116,46.9,113.9,49.4"/>
		<path class="st1" d="M111.2,47.4c1.9-2.7,7.6-16.8,10.4-14.9C124.5,34.5,113.1,44.7,111.2,47.4"/>
		<path class="st1" d="M108.4,45.6c1.6-2.8,6.1-17.4,9.1-15.7C120.5,31.6,110.1,42.8,108.4,45.6"/>
		<path class="st1" d="M105.5,44.1c1.4-3,4.6-17.9,7.7-16.4C116.2,29.1,106.9,41.1,105.5,44.1"/>
		<path class="st1" d="M102.4,42.8c1.1-3.1,3-18.2,6.2-17C111.8,26.9,103.5,39.7,102.4,42.8"/>
		<path class="st1" d="M99.2,41.8c0.8-3.2,1.4-18.4,4.7-17.5C107.2,25.2,100.1,38.6,99.2,41.8"/>
		<path class="st1" d="M96,41.1c0.6-3.2-0.2-18.5,3.2-17.9C102.5,23.8,96.5,37.9,96,41.1"/>
		<path class="st1" d="M92.7,40.7c0.3-3.3-1.8-18.4,1.6-18.1C97.7,22.9,92.9,37.4,92.7,40.7"/>
		<path class="st1" d="M134.6,67.7c4.8-0.7,9.7-1.6,9.2-3.5c-0.7-2.6-9.3,1.3-14.4,3.5H134.6z"/>
		<path class="st1" d="M124.5,67.7C119.8,52.8,105.8,42,89.3,42c-16.5,0-30.5,10.8-35.2,25.7H124.5z"/>
	</g>
</g>
</svg>
