<?xml version="1.0" encoding="utf-8"?>
<!-- Generator: Adobe Illustrator 21.1.0, SVG Export Plug-In . SVG Version: 6.00 Build 0)  -->
<svg version="1.1" id="Layer_1" xmlns="http://www.w3.org/2000/svg" xmlns:xlink="http://www.w3.org/1999/xlink" x="0px" y="0px"
	 viewBox="0 0 176 176" style="enable-background:new 0 0 176 176;" xml:space="preserve">
<style type="text/css">
	.st0{clip-path:url(#SVGID_2_);fill:#005A9A;}
	.st1{clip-path:url(#SVGID_2_);fill:none;stroke:#000000;stroke-width:0.266;}
	.st2{clip-path:url(#SVGID_2_);fill:#EC174C;}
	.st3{clip-path:url(#SVGID_2_);fill:#FFFFFF;}
	.st4{clip-path:url(#SVGID_2_);fill:none;stroke:#EC174C;stroke-width:0.266;stroke-linecap:round;stroke-linejoin:round;}
	.st5{fill:none;stroke:#3C2F16;stroke-width:5;stroke-linecap:round;stroke-miterlimit:10;}
</style>
<g>
	<g>
		<defs>
			<ellipse id="SVGID_1_" cx="87.9" cy="88.5" rx="69.7" ry="68.3"/>
		</defs>
		<clipPath id="SVGID_2_">
			<use xlink:href="#SVGID_1_"  style="overflow:visible;"/>
		</clipPath>
		<rect x="-27.5" y="7.4" class="st0" width="230.2" height="153.5"/>
		<rect x="-27.5" y="7.4" class="st1" width="230.2" height="153.5"/>
		<rect x="-27.5" y="45.8" class="st2" width="230.2" height="76.7"/>
		<rect x="-27.5" y="45.8" class="st1" width="230.2" height="76.7"/>
		<path class="st3" d="M132.6,100.9c-0.7-0.3-1.7-1.5-2-2.4v-7.9c0-1.9,0.9-3,2-3.5v-8.3c-0.2,0.6-1.7,0.4-1.7,1.8H44.3
			c0-1.4-1.5-1.2-1.7-1.8v8.3c1.1,0.5,2,1.6,2,3.5v7.9c-0.3,0.9-1.4,2.1-2,2.4H132.6z"/>
		<path class="st4" d="M132.6,100.9c-0.7-0.3-1.7-1.5-2-2.4v-7.9c0-1.9,0.9-3,2-3.5v-8.3c-0.2,0.6-1.7,0.4-1.7,1.8H44.3
			c0-1.4-1.5-1.2-1.7-1.8v8.3c1.1,0.5,2,1.6,2,3.5v7.9c-0.3,0.9-1.4,2.1-2,2.4H132.6z"/>
		<rect x="40.8" y="100.9" class="st3" width="93.6" height="2.3"/>
		<rect x="40.8" y="100.9" class="st4" width="93.6" height="2.3"/>
		<rect x="38.9" y="103.2" class="st3" width="97.5" height="3.3"/>
		<rect x="38.9" y="103.2" class="st4" width="97.5" height="3.3"/>
		<rect x="36.3" y="106.4" class="st3" width="102.7" height="3.8"/>
		<rect x="36.3" y="106.4" class="st4" width="102.7" height="3.8"/>
		<rect x="33.4" y="110.2" class="st3" width="108.4" height="4.6"/>
		<rect x="33.4" y="110.2" class="st4" width="108.4" height="4.6"/>
		<rect x="30" y="114.8" class="st3" width="115.2" height="4.7"/>
		<rect x="30" y="114.8" class="st4" width="115.2" height="4.7"/>
		<line class="st3" x1="85.8" y1="98.5" x2="44.6" y2="98.5"/>
		<line class="st4" x1="85.8" y1="98.5" x2="44.6" y2="98.5"/>
		<path class="st3" d="M61.3,86.4V73.9c0-0.6-0.1-0.8-0.6-0.6c-0.6,0.2-1,0.8-1.4,1.5c-0.3,0.6-1.1,0.4-1.1-0.1c0-1.8,1-1.3,1-2.8
			c0-0.5-0.5-0.3-1,0c-0.5,0.4-0.5-0.3-0.5-0.9c0-0.9,0.7-0.6,0.7-1.7c0-0.7-0.6-0.3-0.9,0c-0.4,0.4-0.6,0.2-0.6-0.6
			c0-0.9,0.9-0.9,0.9-1.7c0-0.5-0.4-0.3-0.7,0c-0.3,0.4-0.9,0.3-0.8-0.1c0.3-1.4-0.4-2.8-1-3.3c-0.6-0.5-0.6-0.8-0.6-1.2
			c0-0.4,0-0.7-0.3-0.7C54,61.8,54,62,54,62.4c0,0.4,0,0.7-0.6,1.2c-0.6,0.5-1.3,1.9-1,3.3c0.1,0.4-0.6,0.5-0.8,0.1
			c-0.3-0.4-0.7-0.5-0.7,0c0,0.8,0.9,0.8,0.9,1.7c0,0.8-0.2,0.9-0.6,0.6s-0.9-0.7-0.9,0c0,1.1,0.7,0.9,0.7,1.7c0,0.6,0,1.3-0.5,0.9
			c-0.5-0.4-1-0.6-1,0c0,1.5,1,1,1,2.8c0,0.4-0.8,0.7-1.1,0.1c-0.3-0.6-0.8-1.3-1.4-1.5c-0.4-0.1-0.6,0-0.6,0.6v12.5H61.3z"/>
		<path class="st4" d="M61.3,86.4V73.9c0-0.6-0.1-0.8-0.6-0.6c-0.6,0.2-1,0.8-1.4,1.5c-0.3,0.6-1.1,0.4-1.1-0.1c0-1.8,1-1.3,1-2.8
			c0-0.5-0.5-0.3-1,0c-0.5,0.4-0.5-0.3-0.5-0.9c0-0.9,0.7-0.6,0.7-1.7c0-0.7-0.6-0.3-0.9,0c-0.4,0.4-0.6,0.2-0.6-0.6
			c0-0.9,0.9-0.9,0.9-1.7c0-0.5-0.4-0.3-0.7,0c-0.3,0.4-0.9,0.3-0.8-0.1c0.3-1.4-0.4-2.8-1-3.3c-0.6-0.5-0.6-0.8-0.6-1.2
			c0-0.4,0-0.7-0.3-0.7C54,61.8,54,62,54,62.4c0,0.4,0,0.7-0.6,1.2c-0.6,0.5-1.3,1.9-1,3.3c0.1,0.4-0.6,0.5-0.8,0.1
			c-0.3-0.4-0.7-0.5-0.7,0c0,0.8,0.9,0.8,0.9,1.7c0,0.8-0.2,0.9-0.6,0.6s-0.9-0.7-0.9,0c0,1.1,0.7,0.9,0.7,1.7c0,0.6,0,1.3-0.5,0.9
			c-0.5-0.4-1-0.6-1,0c0,1.5,1,1,1,2.8c0,0.4-0.8,0.7-1.1,0.1c-0.3-0.6-0.8-1.3-1.4-1.5c-0.4-0.1-0.6,0-0.6,0.6v12.5H61.3z"/>
		<rect x="52.3" y="87.4" class="st3" width="4" height="13.5"/>
		<rect x="52.3" y="87.4" class="st4" width="4" height="13.5"/>
		<rect x="50.8" y="100.9" class="st3" width="7.1" height="18.6"/>
		<rect x="50.8" y="100.9" class="st4" width="7.1" height="18.6"/>
		<rect x="52.3" y="100.9" class="st3" width="4" height="18.6"/>
		<rect x="52.3" y="100.9" class="st4" width="4" height="18.6"/>
		<path class="st4" d="M58.5,87.4c-0.8,0.7-1.2,1.3-1.2,2.5v8.6c0,0.5,0.6,2.4,2.1,2.4"/>
		<path class="st4" d="M61.3,86.4c-0.8,0.2-2,0.8-2,2.1v10c0,0.9,0.4,2.4,2.3,2.4"/>
		<polyline class="st4" points="64.3,80.5 64.3,86.4 61.3,86.4 		"/>
		<path class="st4" d="M61.3,86.4c0-2.5,2-3.6,3-3.6"/>
		<path class="st3" d="M63.5,79.6v3.3c0.3-0.1,0.6-0.2,0.8-0.2v-3.1H63.5z"/>
		<path class="st4" d="M63.5,79.6v3.3c0.3-0.1,0.6-0.2,0.8-0.2v-3.1H63.5z"/>
		<line class="st4" x1="64.3" y1="81.3" x2="75.5" y2="81.3"/>
		<line class="st4" x1="64.3" y1="83.8" x2="75.5" y2="83.8"/>
		<line class="st4" x1="64.3" y1="85.1" x2="72.7" y2="85.1"/>
		<path class="st4" d="M76.7,87.4H64.3c-0.8,0-0.8,0.3-0.8,0.7v10.4c0,0.9,0.8,2.4,2.3,2.4"/>
		<line class="st4" x1="63.5" y1="89.8" x2="77" y2="89.8"/>
		<line class="st4" x1="64.3" y1="86.4" x2="75.5" y2="86.4"/>
		<path class="st4" d="M60.6,98.5v-7c0-0.1,0.1-0.2,0.2-0.2h1.1c0.1,0,0.2,0.1,0.2,0.2v7"/>
		<path class="st4" d="M63.5,91.3h1c0.1,0,0.2,0.1,0.2,0.2v7"/>
		<path class="st4" d="M67.8,98.5v-7c0-0.1-0.1-0.2-0.2-0.2h-1.1c-0.1,0-0.2,0.1-0.2,0.2v7"/>
		<path class="st4" d="M71,98.5v-7c0-0.1-0.1-0.2-0.2-0.2h-1.1c-0.1,0-0.2,0.1-0.2,0.2v7"/>
		<path class="st4" d="M74.2,98.5v-7c0-0.1-0.1-0.2-0.2-0.2H73c-0.1,0-0.2,0.1-0.2,0.2v7"/>
		<path class="st4" d="M76,98.5v-7c0-0.1,0.1-0.2,0.2-0.2H77"/>
		<line class="st3" x1="89.5" y1="98.5" x2="130.6" y2="98.5"/>
		<line class="st4" x1="89.5" y1="98.5" x2="130.6" y2="98.5"/>
		<path class="st3" d="M114,86.4V73.9c0-0.6,0.1-0.8,0.6-0.6c0.6,0.2,1,0.8,1.4,1.5c0.3,0.6,1.1,0.4,1.1-0.1c0-1.8-1-1.3-1-2.8
			c0-0.5,0.5-0.3,1,0c0.5,0.4,0.5-0.3,0.5-0.9c0-0.9-0.7-0.6-0.7-1.7c0-0.7,0.6-0.3,0.9,0c0.4,0.4,0.6,0.2,0.6-0.6
			c0-0.9-0.9-0.9-0.9-1.7c0-0.5,0.4-0.3,0.7,0c0.3,0.4,0.9,0.3,0.8-0.1c-0.3-1.4,0.4-2.8,1-3.3c0.6-0.5,0.6-0.8,0.6-1.2
			c0-0.4,0-0.7,0.3-0.7c0.3,0,0.3,0.2,0.3,0.7c0,0.4,0,0.7,0.6,1.2c0.6,0.5,1.3,1.9,1,3.3c-0.1,0.4,0.6,0.5,0.8,0.1
			c0.3-0.4,0.7-0.5,0.7,0c0,0.8-0.9,0.8-0.9,1.7c0,0.8,0.2,0.9,0.6,0.6c0.4-0.4,0.9-0.7,0.9,0c0,1.1-0.7,0.9-0.7,1.7
			c0,0.6,0,1.3,0.5,0.9c0.5-0.4,1-0.6,1,0c0,1.5-1,1-1,2.8c0,0.4,0.8,0.7,1.1,0.1c0.3-0.6,0.8-1.3,1.4-1.5c0.4-0.1,0.6,0,0.6,0.6
			v12.5H114z"/>
		<path class="st4" d="M114,86.4V73.9c0-0.6,0.1-0.8,0.6-0.6c0.6,0.2,1,0.8,1.4,1.5c0.3,0.6,1.1,0.4,1.1-0.1c0-1.8-1-1.3-1-2.8
			c0-0.5,0.5-0.3,1,0c0.5,0.4,0.5-0.3,0.5-0.9c0-0.9-0.7-0.6-0.7-1.7c0-0.7,0.6-0.3,0.9,0c0.4,0.4,0.6,0.2,0.6-0.6
			c0-0.9-0.9-0.9-0.9-1.7c0-0.5,0.4-0.3,0.7,0c0.3,0.4,0.9,0.3,0.8-0.1c-0.3-1.4,0.4-2.8,1-3.3c0.6-0.5,0.6-0.8,0.6-1.2
			c0-0.4,0-0.7,0.3-0.7c0.3,0,0.3,0.2,0.3,0.7c0,0.4,0,0.7,0.6,1.2c0.6,0.5,1.3,1.9,1,3.3c-0.1,0.4,0.6,0.5,0.8,0.1
			c0.3-0.4,0.7-0.5,0.7,0c0,0.8-0.9,0.8-0.9,1.7c0,0.8,0.2,0.9,0.6,0.6c0.4-0.4,0.9-0.7,0.9,0c0,1.1-0.7,0.9-0.7,1.7
			c0,0.6,0,1.3,0.5,0.9c0.5-0.4,1-0.6,1,0c0,1.5-1,1-1,2.8c0,0.4,0.8,0.7,1.1,0.1c0.3-0.6,0.8-1.3,1.4-1.5c0.4-0.1,0.6,0,0.6,0.6
			v12.5H114z"/>
		<rect x="118.9" y="87.4" class="st3" width="4" height="13.5"/>
		<rect x="118.9" y="87.4" class="st4" width="4" height="13.5"/>
		<rect x="117.4" y="100.9" class="st3" width="7.1" height="18.6"/>
		<rect x="117.4" y="100.9" class="st4" width="7.1" height="18.6"/>
		<rect x="118.9" y="100.9" class="st3" width="4" height="18.6"/>
		<rect x="118.9" y="100.9" class="st4" width="4" height="18.6"/>
		<path class="st4" d="M125.1,87.4c-0.8,0.7-1.2,1.3-1.2,2.5v8.6c0,0.5,0.6,2.4,2.1,2.4"/>
		<path class="st4" d="M128.1,100.9c-1.9,0-2.3-1.5-2.3-2.4v-10c0-1.2,1.1-1.9,2-2.1h3"/>
		<path class="st4" d="M116.7,87.4c0.8,0.7,1.2,1.3,1.2,2.5v8.6c0,0.5-0.6,2.4-2.1,2.4"/>
		<path class="st4" d="M114,86.4c0.8,0.2,2,0.8,2,2.1v10c0,0.9-0.4,2.4-2.3,2.4"/>
		<path class="st4" d="M130.9,80.5v5.9c-0.6,0-1.2,0.7-1.2,1.9v10.2c0,0.9,0.7,2.4,2.1,2.4"/>
		<path class="st3" d="M127.9,86.4c0-1.5,1.5-3.6,3-3.6v-6.5h-1.3v5.8c-0.2,0-0.3,0.2-0.4,0.3V79h-1.4V86.4z"/>
		<path class="st4" d="M127.9,86.4c0-1.5,1.5-3.6,3-3.6v-6.5h-1.3v5.8c-0.2,0-0.3,0.2-0.4,0.3V79h-1.4V86.4z"/>
		<rect x="127.9" y="77.3" class="st3" width="1.4" height="1.1"/>
		<rect x="127.9" y="77.3" class="st4" width="1.4" height="1.1"/>
		<polyline class="st4" points="110.9,80.5 110.9,86.4 114,86.4 		"/>
		<path class="st4" d="M114,86.4c0-2.5-2-3.6-3-3.6"/>
		<path class="st3" d="M111.8,79.6v3.3c-0.3-0.1-0.6-0.2-0.8-0.2v-3.1H111.8z"/>
		<path class="st4" d="M111.8,79.6v3.3c-0.3-0.1-0.6-0.2-0.8-0.2v-3.1H111.8z"/>
		<line class="st4" x1="110.9" y1="81.3" x2="99.7" y2="81.3"/>
		<line class="st4" x1="110.9" y1="83.8" x2="99.7" y2="83.8"/>
		<line class="st4" x1="108.2" y1="85.1" x2="99.8" y2="85.1"/>
		<path class="st4" d="M98.5,87.4H111c0.7,0,0.8,0.3,0.8,0.7v10.4c0,0.9-0.8,2.4-2.2,2.4"/>
		<line class="st4" x1="111.8" y1="89.8" x2="98.2" y2="89.8"/>
		<path class="st4" d="M128.3,98.5v-7c0-0.1-0.1-0.2-0.2-0.2H127c-0.1,0-0.2,0.1-0.2,0.2v7"/>
		<line class="st4" x1="110.9" y1="86.4" x2="99.7" y2="86.4"/>
		<path class="st4" d="M114.7,98.5v-7c0-0.1-0.1-0.2-0.2-0.2h-1.1c-0.1,0-0.2,0.1-0.2,0.2v7"/>
		<path class="st4" d="M111.8,91.3h-1c-0.1,0-0.2,0.1-0.2,0.2v7"/>
		<path class="st4" d="M107.4,98.5v-7c0-0.1,0.1-0.2,0.2-0.2h1.1c0.1,0,0.2,0.1,0.2,0.2v7"/>
		<path class="st4" d="M104.2,98.5v-7c0-0.1,0.1-0.2,0.2-0.2h1.1c0.1,0,0.2,0.1,0.2,0.2v7"/>
		<path class="st4" d="M101,98.5v-7c0-0.1,0.1-0.2,0.2-0.2h1.1c0.1,0,0.2,0.1,0.2,0.2v7"/>
		<path class="st4" d="M99.3,98.5v-7c0-0.1-0.1-0.2-0.2-0.2h-0.9"/>
		<path class="st3" d="M99.7,86.5V74.8c0,0.2-1.4,0.9-1.4,1.5h-2v-1.4c0.4,0,0.8-0.4,0.9-0.7c0-0.2,0-0.2-0.2-0.1
			c-0.1,0.1-0.9,0.4-1.1,0.2c-0.1-0.1-0.1-0.1,0.2-0.4c0.2-0.2,1-0.7,1.2-0.8c0.3-0.2-0.2-0.8-0.4-0.6c-0.3,0.2-0.7,0.5-1,0.7
			c-0.2,0.2-0.5,0.3-0.6,0c-0.1-0.4-0.6-0.8-1.1-0.8H81c-0.5,0-1,0.4-1.1,0.8c-0.1,0.3-0.4,0.1-0.6,0c-0.3-0.2-0.7-0.5-1-0.7
			c-0.2-0.1-0.7,0.5-0.4,0.6c0.2,0.1,1,0.7,1.2,0.8c0.3,0.2,0.3,0.2,0.2,0.4c-0.1,0.2-0.9-0.1-1.1-0.2c-0.1-0.1-0.2,0-0.2,0.1
			c0.1,0.3,0.5,0.7,0.9,0.7v1.4h-2.1c0-0.6-1.3-1.3-1.3-1.5v11.7H99.7z"/>
		<path class="st4" d="M99.7,86.5V74.8c0,0.2-1.4,0.9-1.4,1.5h-2v-1.4c0.4,0,0.8-0.4,0.9-0.7c0-0.2,0-0.2-0.2-0.1
			c-0.1,0.1-0.9,0.4-1.1,0.2c-0.1-0.1-0.1-0.1,0.2-0.4c0.2-0.2,1-0.7,1.2-0.8c0.3-0.2-0.2-0.8-0.4-0.6c-0.3,0.2-0.7,0.5-1,0.7
			c-0.2,0.2-0.5,0.3-0.6,0c-0.1-0.4-0.6-0.8-1.1-0.8H81c-0.5,0-1,0.4-1.1,0.8c-0.1,0.3-0.4,0.1-0.6,0c-0.3-0.2-0.7-0.5-1-0.7
			c-0.2-0.1-0.7,0.5-0.4,0.6c0.2,0.1,1,0.7,1.2,0.8c0.3,0.2,0.3,0.2,0.2,0.4c-0.1,0.2-0.9-0.1-1.1-0.2c-0.1-0.1-0.2,0-0.2,0.1
			c0.1,0.3,0.5,0.7,0.9,0.7v1.4h-2.1c0-0.6-1.3-1.3-1.3-1.5v11.7H99.7z"/>
		<path class="st3" d="M91.2,54.3c0,0.7-0.3,0.8-0.3,1.4c0,0.6,0.7,0.5,0.8,0.1c0.1-0.2,0.6-0.3,0.6,0.4c0,0.6-0.7,1.1-0.7,1.9
			c0,0.7,0.4,0.5,0.6,0.1c0.2-0.4,1.2-1.1,1.2,0c0,0.3,0.1,1-0.3,1.5c-0.5,0.5-0.4,0.9-0.4,1.3c0,0.5,0.3,0.8,0.8,0
			c0.1-0.3,1.1-0.9,1.1,0.1v1.3c0,0.6-0.8,0.9-0.8,1.5v1c0,0.3,0.3,0.6,0.5,0.2c0.3-0.7,1.4-1.2,1.4-0.3v1c0,0.2,0.1,0.4-0.5,0.9
			c-0.6,0.5-1.1,1.3-1.1,1.7v1c0,0.2,0.4,0.5,0.8-0.2c0.4-0.8,0.8-0.4,0.8,0.1c0,0.5,0.1,0.9-0.6,1.5c-0.7,0.6-0.6,1-0.6,1.5V75
			c0,0.4,0.1,0.6-0.4,0.6H81.3c-0.5,0-0.4-0.1-0.4-0.6v-2.8c0-0.6,0.1-1-0.6-1.5c-0.7-0.6-0.6-0.9-0.6-1.5c0-0.5,0.4-0.9,0.8-0.1
			c0.4,0.8,0.8,0.5,0.8,0.2v-1c0-0.4-0.5-1.2-1.1-1.7c-0.6-0.5-0.5-0.7-0.5-0.9v-1c0-0.9,1-0.4,1.4,0.3c0.2,0.4,0.5,0.1,0.5-0.2v-1
			c0-0.6-0.8-0.8-0.8-1.5V61c0-1,1-0.4,1.1-0.1c0.4,0.9,0.8,0.5,0.8,0c0-0.4,0-0.8-0.4-1.3c-0.5-0.5-0.3-1.2-0.3-1.5
			c0-1.1,1-0.4,1.2,0c0.2,0.4,0.6,0.6,0.6-0.1c0-0.8-0.7-1.3-0.7-1.9c0-0.7,0.5-0.6,0.6-0.4c0.2,0.4,0.8,0.5,0.8-0.1
			c0-0.6-0.3-0.6-0.3-1.4H91.2z"/>
		<path class="st4" d="M91.2,54.3c0,0.7-0.3,0.8-0.3,1.4c0,0.6,0.7,0.5,0.8,0.1c0.1-0.2,0.6-0.3,0.6,0.4c0,0.6-0.7,1.1-0.7,1.9
			c0,0.7,0.4,0.5,0.6,0.1c0.2-0.4,1.2-1.1,1.2,0c0,0.3,0.1,1-0.3,1.5c-0.5,0.5-0.4,0.9-0.4,1.3c0,0.5,0.3,0.8,0.8,0
			c0.1-0.3,1.1-0.9,1.1,0.1v1.3c0,0.6-0.8,0.9-0.8,1.5v1c0,0.3,0.3,0.6,0.5,0.2c0.3-0.7,1.4-1.2,1.4-0.3v1c0,0.2,0.1,0.4-0.5,0.9
			c-0.6,0.5-1.1,1.3-1.1,1.7v1c0,0.2,0.4,0.5,0.8-0.2c0.4-0.8,0.8-0.4,0.8,0.1c0,0.5,0.1,0.9-0.6,1.5c-0.7,0.6-0.6,1-0.6,1.5V75
			c0,0.4,0.1,0.6-0.4,0.6H81.3c-0.5,0-0.4-0.1-0.4-0.6v-2.8c0-0.6,0.1-1-0.6-1.5c-0.7-0.6-0.6-0.9-0.6-1.5c0-0.5,0.4-0.9,0.8-0.1
			c0.4,0.8,0.8,0.5,0.8,0.2v-1c0-0.4-0.5-1.2-1.1-1.7c-0.6-0.5-0.5-0.7-0.5-0.9v-1c0-0.9,1-0.4,1.4,0.3c0.2,0.4,0.5,0.1,0.5-0.2v-1
			c0-0.6-0.8-0.8-0.8-1.5V61c0-1,1-0.4,1.1-0.1c0.4,0.9,0.8,0.5,0.8,0c0-0.4,0-0.8-0.4-1.3c-0.5-0.5-0.3-1.2-0.3-1.5
			c0-1.1,1-0.4,1.2,0c0.2,0.4,0.6,0.6,0.6-0.1c0-0.8-0.7-1.3-0.7-1.9c0-0.7,0.5-0.6,0.6-0.4c0.2,0.4,0.8,0.5,0.8-0.1
			c0-0.6-0.3-0.6-0.3-1.4H91.2z"/>
		<line class="st3" x1="91.3" y1="56.8" x2="83.9" y2="56.8"/>
		<line class="st4" x1="91.3" y1="56.8" x2="83.9" y2="56.8"/>
		<line class="st3" x1="92.3" y1="59.3" x2="82.9" y2="59.3"/>
		<line class="st4" x1="92.3" y1="59.3" x2="82.9" y2="59.3"/>
		<line class="st3" x1="93.3" y1="62.1" x2="81.9" y2="62.1"/>
		<line class="st4" x1="93.3" y1="62.1" x2="81.9" y2="62.1"/>
		<line class="st3" x1="93.9" y1="66.2" x2="81.3" y2="66.2"/>
		<line class="st4" x1="93.9" y1="66.2" x2="81.3" y2="66.2"/>
		<line class="st3" x1="93.7" y1="70.5" x2="81.6" y2="70.5"/>
		<line class="st4" x1="93.7" y1="70.5" x2="81.6" y2="70.5"/>
		<rect x="83.6" y="82.8" class="st3" width="7.9" height="4.5"/>
		<rect x="83.6" y="82.8" class="st4" width="7.9" height="4.5"/>
		<path class="st3" d="M77.9,73.1c0.3,0.2,0.7-0.5,0.4-0.6C78.1,72.3,77.6,72.9,77.9,73.1"/>
		<path class="st4" d="M77.9,73.1c0.3,0.2,0.7-0.5,0.4-0.6C78.1,72.3,77.6,72.9,77.9,73.1z"/>
		<path class="st3" d="M97.4,73.1c-0.3,0.2-0.7-0.5-0.4-0.6C97.2,72.3,97.6,72.9,97.4,73.1"/>
		<path class="st4" d="M97.4,73.1c-0.3,0.2-0.7-0.5-0.4-0.6C97.2,72.3,97.6,72.9,97.4,73.1z"/>
		<line class="st4" x1="76.8" y1="76.4" x2="76.8" y2="83.6"/>
		<path class="st4" d="M83.6,85.1h-6.1c-0.1-0.6-0.6-2-2.1-2"/>
		<line class="st4" x1="76.8" y1="82.8" x2="82.9" y2="82.8"/>
		<line class="st4" x1="78" y1="76.4" x2="78" y2="81"/>
		<path class="st4" d="M79.8,73.7v7.9c0.7,0.4,1.9,1.5,1.9,2.4c0.6,0,1.3,0,1.9,0.3"/>
		<line class="st4" x1="79.8" y1="81.6" x2="82.9" y2="81.6"/>
		<path class="st4" d="M79.8,79.5c0.8,0.2,1.9,0.8,2.2,2.2"/>
		<rect x="84.7" y="100.9" class="st3" width="5.8" height="18.6"/>
		<rect x="84.7" y="100.9" class="st4" width="5.8" height="18.6"/>
		<rect x="85.8" y="100.9" class="st3" width="3.7" height="18.6"/>
		<rect x="85.8" y="100.9" class="st4" width="3.7" height="18.6"/>
		<rect x="85.8" y="87.3" class="st3" width="3.7" height="13.6"/>
		<rect x="85.8" y="87.3" class="st4" width="3.7" height="13.6"/>
		<path class="st4" d="M83.6,87.3c0.6,0.4,0.8,0.8,0.8,2.2v9c0,1-0.9,2.4-1.8,2.4"/>
		<path class="st4" d="M75.5,86.5c1.4,0.4,1.5,1.4,1.5,2.3v9.6c0,1-0.9,2.4-2.7,2.4"/>
		<path class="st4" d="M79.4,85.1c0.9,0,2.2,0.9,2.2,2.2v11.2c0,1.1-1.4,2.4-2.8,2.4"/>
		<path class="st4" d="M80.1,98.5v-7c0-0.1,0.1-0.2,0.2-0.2h1.3"/>
		<path class="st4" d="M83,98.5v-7c0-0.1,0.1-0.2,0.2-0.2h0.3"/>
		<line class="st4" x1="98.4" y1="76.4" x2="98.4" y2="83.6"/>
		<path class="st4" d="M91.6,85.1h6.1c0.1-0.6,0.6-2,2.1-2"/>
		<line class="st4" x1="97.2" y1="76.4" x2="97.2" y2="81"/>
		<path class="st4" d="M95.4,73.7v7.9c-0.7,0.4-1.9,1.5-1.9,2.4c-0.6,0-1.3,0-1.9,0.3"/>
		<line class="st4" x1="95.4" y1="81.6" x2="92.3" y2="81.6"/>
		<path class="st4" d="M95.4,79.5c-0.8,0.2-1.9,0.8-2.2,2.2"/>
		<path class="st4" d="M91.6,87.3c-0.6,0.4-0.8,0.8-0.8,2.2v9c0,1,0.9,2.4,1.8,2.4"/>
		<path class="st4" d="M95.8,85.1c-0.9,0-2.2,0.9-2.2,2.2v11.2c0,1.1,1.4,2.4,2.8,2.4"/>
		<path class="st4" d="M95.1,98.5v-7c0-0.1-0.1-0.2-0.2-0.2h-1.3"/>
		<path class="st4" d="M92.2,98.5v-7c0-0.1-0.1-0.2-0.2-0.2h-0.3"/>
		<path class="st4" d="M99.7,86.5c-1.4,0.4-1.5,1.4-1.5,2.3v9.6c0,1,0.9,2.4,2.7,2.4"/>
		<path class="st3" d="M91.2,54.3c0.7,0,0.6-1.5,0-1.5H84c-0.6,0-0.7,1.5,0,1.5H91.2z"/>
		<path class="st4" d="M91.2,54.3c0.7,0,0.6-1.5,0-1.5H84c-0.6,0-0.7,1.5,0,1.5H91.2z"/>
		<path class="st3" d="M90.4,52.8c0.5,0,0.5-0.2,0.1-0.6c-0.3-0.4-0.3-0.5-0.9-0.5h-4c-0.6,0-0.6,0.1-0.9,0.5
			c-0.3,0.4-0.3,0.6,0.1,0.6H90.4z"/>
		<path class="st4" d="M90.4,52.8c0.5,0,0.5-0.2,0.1-0.6c-0.3-0.4-0.3-0.5-0.9-0.5h-4c-0.6,0-0.6,0.1-0.9,0.5
			c-0.3,0.4-0.3,0.6,0.1,0.6H90.4z"/>
		<path class="st3" d="M89.6,51.7c0.5,0,0.5-0.2,0.1-0.6c-0.3-0.4-0.3-0.5-0.9-0.5h-2.4c-0.6,0-0.6,0.1-0.9,0.5
			c-0.3,0.4-0.3,0.6,0.1,0.6H89.6z"/>
		<path class="st4" d="M89.6,51.7c0.5,0,0.5-0.2,0.1-0.6c-0.3-0.4-0.3-0.5-0.9-0.5h-2.4c-0.6,0-0.6,0.1-0.9,0.5
			c-0.3,0.4-0.3,0.6,0.1,0.6H89.6z"/>
		<path class="st3" d="M88.5,50.7c0-0.6,0.1-2-0.9-2c-1,0-0.9,1.4-0.9,2H88.5z"/>
		<path class="st4" d="M88.5,50.7c0-0.6,0.1-2-0.9-2c-1,0-0.9,1.4-0.9,2H88.5z"/>
		<path class="st3" d="M54.9,68c0.2-0.3,0.6-0.6,1-0.7v-1.1c-0.3,0-0.5,0.2-0.6,0.3h-0.1c-0.1-0.2-0.5-0.8-0.8-1
			c-0.3,0.2-0.7,0.8-0.8,1h-0.1c-0.1-0.1-0.3-0.3-0.6-0.3v1.1c0.4,0.1,0.8,0.4,1,0.7H54.9z"/>
		<path class="st4" d="M54.9,68c0.2-0.3,0.6-0.6,1-0.7v-1.1c-0.3,0-0.5,0.2-0.6,0.3h-0.1c-0.1-0.2-0.5-0.8-0.8-1
			c-0.3,0.2-0.7,0.8-0.8,1h-0.1c-0.1-0.1-0.3-0.3-0.6-0.3v1.1c0.4,0.1,0.8,0.4,1,0.7H54.9z"/>
		<path class="st3" d="M55.2,70.5c0.2-0.5,0.5-0.8,0.9-1.1V68c-0.4,0-0.6,0.3-0.7,0.6h-0.1c-0.1-0.8-0.7-1.2-1-1.5
			c-0.3,0.2-0.9,0.7-1,1.5h-0.1c-0.1-0.2-0.3-0.5-0.7-0.6v1.4c0.4,0.2,0.7,0.6,0.9,1.1H55.2z"/>
		<path class="st4" d="M55.2,70.5c0.2-0.5,0.5-0.8,0.9-1.1V68c-0.4,0-0.6,0.3-0.7,0.6h-0.1c-0.1-0.8-0.7-1.2-1-1.5
			c-0.3,0.2-0.9,0.7-1,1.5h-0.1c-0.1-0.2-0.3-0.5-0.7-0.6v1.4c0.4,0.2,0.7,0.6,0.9,1.1H55.2z"/>
		<path class="st3" d="M55.6,72.8c0.2-0.5,0.8-1.1,1.3-1.4v-1.3c-0.3,0-0.8,0.4-1,0.7h-0.1c-0.1-0.5-0.9-1.7-1.5-2
			c-0.7,0.3-1.4,1.5-1.5,2h-0.1c-0.2-0.2-0.6-0.6-1-0.7v1.3c0.6,0.3,1.1,0.8,1.3,1.4H55.6z"/>
		<path class="st4" d="M55.6,72.8c0.2-0.5,0.8-1.1,1.3-1.4v-1.3c-0.3,0-0.8,0.4-1,0.7h-0.1c-0.1-0.5-0.9-1.7-1.5-2
			c-0.7,0.3-1.4,1.5-1.5,2h-0.1c-0.2-0.2-0.6-0.6-1-0.7v1.3c0.6,0.3,1.1,0.8,1.3,1.4H55.6z"/>
		<path class="st3" d="M56.2,76c0.1-0.6,0.6-1.6,1.3-2.1v-1.5c-0.4,0-1,0.3-1.2,0.7h-0.1c-0.1-1.3-1.1-2.3-1.7-2.8
			c-0.6,0.5-1.6,1.5-1.7,2.8h-0.1c-0.2-0.4-0.8-0.7-1.2-0.7v1.5c0.6,0.5,1.2,1.5,1.3,2.1H56.2z"/>
		<path class="st4" d="M56.2,76c0.1-0.6,0.6-1.6,1.3-2.1v-1.5c-0.4,0-1,0.3-1.2,0.7h-0.1c-0.1-1.3-1.1-2.3-1.7-2.8
			c-0.6,0.5-1.6,1.5-1.7,2.8h-0.1c-0.2-0.4-0.8-0.7-1.2-0.7v1.5c0.6,0.5,1.2,1.5,1.3,2.1H56.2z"/>
		<path class="st3" d="M57.1,81.5c0-2,0.6-2.9,1.3-3.1V76c-0.6,0.1-1.2,0.7-1.4,1.2h-0.2c-0.1-1.9-1.4-3.7-2.4-4.6
			c-1,0.9-2.3,2.7-2.4,4.6h-0.2c-0.2-0.5-0.8-1.1-1.4-1.2v2.5c0.7,0.1,1.3,1.1,1.3,3.1H57.1z"/>
		<path class="st4" d="M57.1,81.5c0-2,0.6-2.9,1.3-3.1V76c-0.6,0.1-1.2,0.7-1.4,1.2h-0.2c-0.1-1.9-1.4-3.7-2.4-4.6
			c-1,0.9-2.3,2.7-2.4,4.6h-0.2c-0.2-0.5-0.8-1.1-1.4-1.2v2.5c0.7,0.1,1.3,1.1,1.3,3.1H57.1z"/>
		<path class="st3" d="M56.9,84.7c0-1,0.4-2.4,1.7-2.7v-2.4c-0.8,0-1.6,0.6-1.7,1.8h-0.2c0-1.8-1-3.9-2.3-4.9
			c-1.3,1-2.3,3.1-2.3,4.9h-0.2c-0.1-1.2-0.9-1.7-1.7-1.8V82c1.2,0.2,1.6,1.7,1.7,2.7H56.9z"/>
		<path class="st4" d="M56.9,84.7c0-1,0.4-2.4,1.7-2.7v-2.4c-0.8,0-1.6,0.6-1.7,1.8h-0.2c0-1.8-1-3.9-2.3-4.9
			c-1.3,1-2.3,3.1-2.3,4.9h-0.2c-0.1-1.2-0.9-1.7-1.7-1.8V82c1.2,0.2,1.6,1.7,1.7,2.7H56.9z"/>
		<path class="st3" d="M57.6,86.4c-0.2-3.1-2-5.1-3.3-6c-1.3,0.9-3.1,3-3.3,6H57.6z"/>
		<path class="st4" d="M57.6,86.4c-0.2-3.1-2-5.1-3.3-6c-1.3,0.9-3.1,3-3.3,6H57.6z"/>
		<path class="st3" d="M58.5,87.4v-2.9c-1.3,0.2-1.8,1-2.1,1.7h-0.3c-0.1-1.3-1.1-3.3-1.9-4c-0.8,0.8-1.7,2.8-1.9,4h-0.3
			c-0.2-0.7-0.8-1.5-2.1-1.7v2.9H58.5z"/>
		<path class="st4" d="M58.5,87.4v-2.9c-1.3,0.2-1.8,1-2.1,1.7h-0.3c-0.1-1.3-1.1-3.3-1.9-4c-0.8,0.8-1.7,2.8-1.9,4h-0.3
			c-0.2-0.7-0.8-1.5-2.1-1.7v2.9H58.5z"/>
		<path class="st3" d="M121.5,68c0.2-0.3,0.6-0.6,1-0.7v-1.1c-0.3,0-0.5,0.2-0.6,0.3h-0.1c-0.1-0.2-0.5-0.8-0.8-1
			c-0.3,0.2-0.7,0.8-0.8,1H120c-0.1-0.1-0.3-0.3-0.6-0.3v1.1c0.4,0.1,0.8,0.4,1,0.7H121.5z"/>
		<path class="st4" d="M121.5,68c0.2-0.3,0.6-0.6,1-0.7v-1.1c-0.3,0-0.5,0.2-0.6,0.3h-0.1c-0.1-0.2-0.5-0.8-0.8-1
			c-0.3,0.2-0.7,0.8-0.8,1H120c-0.1-0.1-0.3-0.3-0.6-0.3v1.1c0.4,0.1,0.8,0.4,1,0.7H121.5z"/>
		<path class="st3" d="M121.8,70.5c0.2-0.5,0.5-0.8,0.9-1.1V68c-0.4,0-0.6,0.3-0.7,0.6h-0.1c-0.1-0.8-0.7-1.2-1-1.5
			c-0.3,0.2-0.9,0.7-1,1.5h-0.1c-0.1-0.2-0.3-0.5-0.7-0.6v1.4c0.4,0.2,0.7,0.6,0.9,1.1H121.8z"/>
		<path class="st4" d="M121.8,70.5c0.2-0.5,0.5-0.8,0.9-1.1V68c-0.4,0-0.6,0.3-0.7,0.6h-0.1c-0.1-0.8-0.7-1.2-1-1.5
			c-0.3,0.2-0.9,0.7-1,1.5h-0.1c-0.1-0.2-0.3-0.5-0.7-0.6v1.4c0.4,0.2,0.7,0.6,0.9,1.1H121.8z"/>
		<path class="st3" d="M122.2,72.8c0.2-0.5,0.8-1.1,1.3-1.4v-1.3c-0.3,0-0.8,0.4-1,0.7h-0.1c-0.1-0.5-0.9-1.7-1.5-2
			c-0.7,0.3-1.4,1.5-1.5,2h-0.1c-0.2-0.2-0.6-0.6-1-0.7v1.3c0.6,0.3,1.1,0.8,1.3,1.4H122.2z"/>
		<path class="st4" d="M122.2,72.8c0.2-0.5,0.8-1.1,1.3-1.4v-1.3c-0.3,0-0.8,0.4-1,0.7h-0.1c-0.1-0.5-0.9-1.7-1.5-2
			c-0.7,0.3-1.4,1.5-1.5,2h-0.1c-0.2-0.2-0.6-0.6-1-0.7v1.3c0.6,0.3,1.1,0.8,1.3,1.4H122.2z"/>
		<path class="st3" d="M122.7,76c0.1-0.6,0.6-1.6,1.3-2.1v-1.5c-0.4,0-1,0.3-1.2,0.7h-0.1c-0.1-1.3-1.1-2.3-1.7-2.8
			c-0.6,0.5-1.6,1.5-1.7,2.8H119c-0.2-0.4-0.8-0.7-1.2-0.7v1.5c0.6,0.5,1.1,1.5,1.3,2.1H122.7z"/>
		<path class="st4" d="M122.7,76c0.1-0.6,0.6-1.6,1.3-2.1v-1.5c-0.4,0-1,0.3-1.2,0.7h-0.1c-0.1-1.3-1.1-2.3-1.7-2.8
			c-0.6,0.5-1.6,1.5-1.7,2.8H119c-0.2-0.4-0.8-0.7-1.2-0.7v1.5c0.6,0.5,1.1,1.5,1.3,2.1H122.7z"/>
		<path class="st3" d="M123.6,81.5c0-2,0.6-2.9,1.3-3.1V76c-0.6,0.1-1.2,0.7-1.4,1.2h-0.2c-0.1-1.9-1.4-3.7-2.4-4.6
			c-1,0.9-2.3,2.7-2.4,4.6h-0.2c-0.2-0.5-0.8-1.1-1.4-1.2v2.5c0.7,0.1,1.3,1.1,1.3,3.1H123.6z"/>
		<path class="st4" d="M123.6,81.5c0-2,0.6-2.9,1.3-3.1V76c-0.6,0.1-1.2,0.7-1.4,1.2h-0.2c-0.1-1.9-1.4-3.7-2.4-4.6
			c-1,0.9-2.3,2.7-2.4,4.6h-0.2c-0.2-0.5-0.8-1.1-1.4-1.2v2.5c0.7,0.1,1.3,1.1,1.3,3.1H123.6z"/>
		<path class="st3" d="M123.5,84.7c0-1,0.4-2.4,1.7-2.7v-2.4c-0.8,0-1.6,0.6-1.7,1.8h-0.2c0-1.8-1-3.9-2.3-4.9
			c-1.3,1-2.3,3.1-2.3,4.9h-0.2c-0.1-1.2-0.9-1.7-1.7-1.8V82c1.2,0.2,1.6,1.7,1.7,2.7H123.5z"/>
		<path class="st4" d="M123.5,84.7c0-1,0.4-2.4,1.7-2.7v-2.4c-0.8,0-1.6,0.6-1.7,1.8h-0.2c0-1.8-1-3.9-2.3-4.9
			c-1.3,1-2.3,3.1-2.3,4.9h-0.2c-0.1-1.2-0.9-1.7-1.7-1.8V82c1.2,0.2,1.6,1.7,1.7,2.7H123.5z"/>
		<path class="st3" d="M124.2,86.4c-0.2-3.1-2-5.1-3.3-6c-1.3,0.9-3.1,3-3.3,6H124.2z"/>
		<path class="st4" d="M124.2,86.4c-0.2-3.1-2-5.1-3.3-6c-1.3,0.9-3.1,3-3.3,6H124.2z"/>
		<path class="st3" d="M125.1,87.4v-2.9c-1.3,0.2-1.8,1-2.1,1.7h-0.3c-0.1-1.3-1.1-3.3-1.9-4c-0.8,0.8-1.7,2.8-1.9,4h-0.3
			c-0.2-0.7-0.8-1.5-2.1-1.7v2.9H125.1z"/>
		<path class="st4" d="M125.1,87.4v-2.9c-1.3,0.2-1.8,1-2.1,1.7h-0.3c-0.1-1.3-1.1-3.3-1.9-4c-0.8,0.8-1.7,2.8-1.9,4h-0.3
			c-0.2-0.7-0.8-1.5-2.1-1.7v2.9H125.1z"/>
		<path class="st3" d="M88.6,58.3c0.1-0.4,0.5-0.8,0.8-1v-1.5c-0.3,0-0.6,0.3-0.8,0.5h-0.1c-0.1-0.4-0.2-1.3-0.8-1.5
			c-0.6,0.2-0.8,1.1-0.8,1.5h-0.1c-0.2-0.2-0.5-0.5-0.8-0.5v1.5c0.3,0.2,0.7,0.5,0.8,1H88.6z"/>
		<path class="st4" d="M88.6,58.3c0.1-0.4,0.5-0.8,0.8-1v-1.5c-0.3,0-0.6,0.3-0.8,0.5h-0.1c-0.1-0.4-0.2-1.3-0.8-1.5
			c-0.6,0.2-0.8,1.1-0.8,1.5h-0.1c-0.2-0.2-0.5-0.5-0.8-0.5v1.5c0.3,0.2,0.7,0.5,0.8,1H88.6z"/>
		<path class="st3" d="M88.6,61c0.2-0.8,0.8-1.2,1.4-1.4V58c-0.5,0-1,0.4-1.2,0.8h-0.1c0-0.9-0.6-1.8-1.1-2.1
			c-0.5,0.3-1.1,1.2-1.1,2.1h-0.1c-0.2-0.4-0.8-0.8-1.2-0.8v1.6c0.7,0.1,1.2,0.6,1.4,1.4H88.6z"/>
		<path class="st4" d="M88.6,61c0.2-0.8,0.8-1.2,1.4-1.4V58c-0.5,0-1,0.4-1.2,0.8h-0.1c0-0.9-0.6-1.8-1.1-2.1
			c-0.5,0.3-1.1,1.2-1.1,2.1h-0.1c-0.2-0.4-0.8-0.8-1.2-0.8v1.6c0.7,0.1,1.2,0.6,1.4,1.4H88.6z"/>
		<path class="st3" d="M88.9,64.6c0.2-0.8,1-1.5,1.6-1.9v-2.3c-0.9,0.1-1.3,0.8-1.4,1.4H89c0-1-0.3-2.3-1.4-2.9
			c-1,0.6-1.4,1.9-1.4,2.9h-0.1c0-0.7-0.5-1.4-1.4-1.4v2.3c0.6,0.3,1.3,1.1,1.6,1.9H88.9z"/>
		<path class="st4" d="M88.9,64.6c0.2-0.8,1-1.5,1.6-1.9v-2.3c-0.9,0.1-1.3,0.8-1.4,1.4H89c0-1-0.3-2.3-1.4-2.9
			c-1,0.6-1.4,1.9-1.4,2.9h-0.1c0-0.7-0.5-1.4-1.4-1.4v2.3c0.6,0.3,1.3,1.1,1.6,1.9H88.9z"/>
		<path class="st3" d="M91.4,66.9v-2.4c-0.5,0-1.6,0.7-1.6,1.5h-0.1c0-1.3-0.9-3.1-2-3.9c-1.1,0.9-2,2.7-2,3.9h-0.1
			c-0.1-0.8-1.1-1.5-1.6-1.5v2.4H91.4z"/>
		<path class="st4" d="M91.4,66.9v-2.4c-0.5,0-1.6,0.7-1.6,1.5h-0.1c0-1.3-0.9-3.1-2-3.9c-1.1,0.9-2,2.7-2,3.9h-0.1
			c-0.1-0.8-1.1-1.5-1.6-1.5v2.4H91.4z"/>
		<path class="st3" d="M91.4,66.9c-0.4,0-2,0.2-2.1,2.2h-3.4c-0.1-1.9-1.7-2.2-2.1-2.2H91.4z"/>
		<path class="st4" d="M91.4,66.9c-0.4,0-2,0.2-2.1,2.2h-3.4c-0.1-1.9-1.7-2.2-2.1-2.2H91.4z"/>
		<path class="st3" d="M91.8,71.2v-2.6c-0.6,0-1.3,0.8-1.5,1.6h-0.1c-0.1-1.5-1.7-3.4-2.6-4c-0.9,0.6-2.5,2.6-2.6,4h-0.1
			c-0.2-0.8-0.9-1.6-1.5-1.6v2.6H91.8z"/>
		<path class="st4" d="M91.8,71.2v-2.6c-0.6,0-1.3,0.8-1.5,1.6h-0.1c-0.1-1.5-1.7-3.4-2.6-4c-0.9,0.6-2.5,2.6-2.6,4h-0.1
			c-0.2-0.8-0.9-1.6-1.5-1.6v2.6H91.8z"/>
		<path class="st3" d="M91.8,71.2c-0.7,0-1.4,1-1.5,2.5H85c-0.1-1.5-0.8-2.5-1.5-2.5H91.8z"/>
		<path class="st4" d="M91.8,71.2c-0.7,0-1.4,1-1.5,2.5H85c-0.1-1.5-0.8-2.5-1.5-2.5H91.8z"/>
		<path class="st3" d="M93,76.3v-2.9c-0.6,0.2-1.6,1-1.8,2H91c-0.2-1.7-2.1-4.4-3.4-5.2c-1.4,0.9-3.2,3.5-3.4,5.2h-0.1
			c-0.2-1-1.2-1.8-1.8-2v2.9H93z"/>
		<path class="st4" d="M93,76.3v-2.9c-0.6,0.2-1.6,1-1.8,2H91c-0.2-1.7-2.1-4.4-3.4-5.2c-1.4,0.9-3.2,3.5-3.4,5.2h-0.1
			c-0.2-1-1.2-1.8-1.8-2v2.9H93z"/>
		<path class="st3" d="M93,76.3c-1.5,0.5-1.7,2.9-1.8,5.8h-7.1c-0.1-3-0.3-5.3-1.8-5.8H93z"/>
		<path class="st4" d="M93,76.3c-1.5,0.5-1.7,2.9-1.8,5.8h-7.1c-0.1-3-0.3-5.3-1.8-5.8H93z"/>
		<path class="st3" d="M92.3,82.8v-3.2c-1,0.1-1.6,1.6-1.7,2.5h-0.2c0-1.6-0.4-5.7-2.8-7.2c-2.3,1.5-2.8,5.6-2.8,7.2h-0.2
			c-0.1-0.9-0.7-2.4-1.7-2.5v3.2H92.3z"/>
		<path class="st4" d="M92.3,82.8v-3.2c-1,0.1-1.6,1.6-1.7,2.5h-0.2c0-1.6-0.4-5.7-2.8-7.2c-2.3,1.5-2.8,5.6-2.8,7.2h-0.2
			c-0.1-0.9-0.7-2.4-1.7-2.5v3.2H92.3z"/>
		<path class="st3" d="M91.6,87.3v-3c-0.7,0-1.3,1-1.6,1.6h-0.2c0.1-1-0.1-3.8-2.1-4.8c-2,1-2.3,3.8-2.1,4.8h-0.2
			c-0.3-0.7-0.9-1.6-1.6-1.6v3H91.6z"/>
		<path class="st4" d="M91.6,87.3v-3c-0.7,0-1.3,1-1.6,1.6h-0.2c0.1-1-0.1-3.8-2.1-4.8c-2,1-2.3,3.8-2.1,4.8h-0.2
			c-0.3-0.7-0.9-1.6-1.6-1.6v3H91.6z"/>
	</g>
	<path class="st5" d="M3.6,79.2c-5.3,53.2,39.1,97.6,92.3,92.3c39.4-3.9,71.3-35.8,75.2-75.2C176.4,43.1,132-1.3,78.8,4
		C39.4,7.9,7.5,39.8,3.6,79.2z"/>
</g>
</svg>
