<?xml version="1.0" encoding="utf-8"?>
<!-- Generator: Adobe Illustrator 21.0.2, SVG Export Plug-In . SVG Version: 6.00 Build 0)  -->
<svg version="1.1" id="Capa_1" xmlns="http://www.w3.org/2000/svg" xmlns:xlink="http://www.w3.org/1999/xlink" x="0px" y="0px"
	 viewBox="0 0 57.4 57.9" style="enable-background:new 0 0 57.4 57.9;" xml:space="preserve">
<style type="text/css">
	.st0{clip-path:url(#SVGID_2_);}
	.st1{clip-path:url(#SVGID_5_);}
	.st2{fill:#FFFFFF;stroke:#8778B3;stroke-miterlimit:10;}
	.st3{clip-path:url(#SVGID_8_);}
	.st4{fill:#2F3480;}
	.st5{fill:#B2252F;}
	.st6{fill:#FFFFFF;stroke:#B2252F;stroke-width:0.1;stroke-miterlimit:10;}
	.st7{fill:none;}
	.st8{display:none;}
</style>
<g>
	<g>
		<g id="MESA_DE_TRABAJO">
			<g>
				<defs>
					<path id="SVGID_1_" d="M-27.9,26c1.9,15-10.7,27.5-25.6,25.6c-10.2-1.3-18.4-9.5-19.7-19.7C-75.1,17-62.5,4.4-47.6,6.3
						C-37.4,7.5-29.2,15.8-27.9,26z"/>
				</defs>
				<clipPath id="SVGID_2_">
					<use xlink:href="#SVGID_1_"  style="overflow:visible;"/>
				</clipPath>
				<g class="st0">
					<g id="TURKEY_2_">
						<g>
							<g>
								<defs>
									<rect id="SVGID_3_" x="-78" y="5.8" width="79.4" height="46.4"/>
								</defs>
								<defs>
									<rect id="SVGID_4_" x="-78" y="5.8" width="79.4" height="46.4"/>
								</defs>
								<clipPath id="SVGID_5_">
									<use xlink:href="#SVGID_3_"  style="overflow:visible;"/>
								</clipPath>
								<clipPath id="SVGID_6_" class="st1">
									<use xlink:href="#SVGID_4_"  style="overflow:visible;"/>
								</clipPath>
							</g>
						</g>
					</g>
				</g>
			</g>
			<g>
				<path class="st2" d="M1.4,26.1C-0.3,43.5,14.1,58,31.5,56.2C44.3,55,54.7,44.6,56,31.7C57.7,14.4,43.2-0.1,25.9,1.6
					C13,2.9,2.7,13.3,1.4,26.1z"/>
				<g>
					<g>
						<defs>
							<path id="SVGID_7_" d="M51.5,26c1.9,15-10.7,27.5-25.6,25.6C15.6,50.3,7.4,42.1,6.1,31.9C4.2,17,16.8,4.4,31.8,6.3
								C42,7.5,50.2,15.8,51.5,26z"/>
						</defs>
						<clipPath id="SVGID_8_">
							<use xlink:href="#SVGID_7_"  style="overflow:visible;"/>
						</clipPath>
						<g class="st3">
							<g>
								<rect x="-10.9" y="4.9" class="st4" width="79.4" height="48"/>
								<rect x="-10.9" y="16.5" class="st5" width="79.4" height="23.2"/>
								<g>
									<rect x="14.1" y="28.1" class="st6" width="29.5" height="4.8"/>
									<g>
										<path class="st6" d="M43.6,32.9H14.1L14,28.1L43.6,28V32.9L43.6,32.9z M43.5,28.1H14.1l0.1,4.7l29.3-0.1V28.1L43.5,28.1z"
											/>
									</g>
									<polygon class="st6" points="14.1,32.8 13.6,33.9 44.1,33.9 43.6,32.8 									"/>
									<g>
										<path class="st6" d="M44.2,34H13.5l0.5-1.2h29.6L44.2,34L44.2,34z M13.7,33.9H44l-0.4-1H14.1L13.7,33.9L13.7,33.9z"/>
									</g>
									<polygon class="st6" points="37.4,32.8 36.8,33.9 43.7,33.9 43.1,32.8 									"/>
									<g>
										<path class="st6" d="M43.8,34h-7.1l0.6-1.2h5.8L43.8,34L43.8,34z M36.9,33.9h6.7l-0.5-1h-5.7L36.9,33.9L36.9,33.9z"/>
									</g>
									<polygon class="st6" points="39,32.8 38.7,33.9 42.2,33.9 41.9,32.8 									"/>
									<g>
										<path class="st6" d="M42.3,34h-3.6l0.2-1.2h3L42.3,34L42.3,34z M41.9,32.8H39L38.8,34l3.4-0.1L41.9,32.8L41.9,32.8z"/>
									</g>
									<polygon class="st6" points="39.5,32.8 39.4,33.9 41.6,33.9 41.4,32.8 									"/>
									<g>
										<path class="st6" d="M41.7,34h-2.3l0.1-1.2l1.9-0.1L41.7,34L41.7,34z M41.4,32.8h-1.8l-0.1,1.1l2.1-0.1L41.4,32.8
											L41.4,32.8z"/>
									</g>
									<polygon class="st6" points="25.8,32.8 25.2,33.9 32.5,33.9 31.9,32.8 									"/>
									<g>
										<path class="st6" d="M32.6,34h-7.5l0.6-1.2h6.1L32.6,34L32.6,34z M25.3,33.9h7.1l-0.6-1h-6L25.3,33.9L25.3,33.9z"/>
									</g>
									<rect x="13.9" y="28" class="st6" width="29.8" height="1.1"/>
									<g>
										<path class="st6" d="M43.8,29.2H13.9V28l29.9-0.1V29.2L43.8,29.2z M43.7,28L14,28.1l0.1,1.1l29.7-0.1V28H43.7z"/>
									</g>
									<rect x="37.3" y="28.1" class="st6" width="5.8" height="4.7"/>
									<g>
										<path class="st6" d="M43.2,32.9h-5.9l-0.1-4.8l5.9-0.1L43.2,32.9L43.2,32.9z M43.1,28.1l-5.8,0.1l0.1,4.7l5.7-0.1V28.1
											L43.1,28.1z"/>
									</g>
									<rect x="41.5" y="30.3" class="st6" width="0.6" height="2.5"/>
									<g>
										<path class="st6" d="M42.1,32.9h-0.6l-0.1-2.6l0.6-0.1L42.1,32.9L42.1,32.9z M42,30.3l-0.5,0.1l0.1,2.5l0.5-0.1L42,30.3
											L42,30.3z"/>
									</g>
									<rect x="38.9" y="30.3" class="st6" width="0.6" height="2.5"/>
									<g>
										<path class="st6" d="M39.6,32.9H39l-0.1-2.6l0.6-0.1L39.6,32.9L39.6,32.9z M39.4,30.3l-0.5,0.1l0.1,2.5l0.5-0.1L39.4,30.3
											L39.4,30.3z"/>
									</g>
									<polygon class="st6" points="27.3,32.8 27,33.9 30.6,33.9 30.3,32.8 									"/>
									<g>
										<path class="st6" d="M30.7,34H27l0.2-1.2h3.1L30.7,34L30.7,34z M30.3,32.8h-3L27,34l3.5-0.1L30.3,32.8L30.3,32.8z"/>
									</g>
									<polygon class="st6" points="27.9,32.8 27.7,33.9 30,33.9 29.8,32.8 									"/>
									<g>
										<path class="st6" d="M30.1,34h-2.4l0.1-1.2h2L30.1,34L30.1,34z M29.7,32.8h-1.9L27.7,34l2.2-0.1L29.7,32.8L29.7,32.8z"/>
									</g>
									<rect x="25.7" y="28.1" class="st6" width="6.1" height="4.8"/>
									<g>
										<path class="st6" d="M31.9,32.9h-6.2l-0.1-4.8l6.2-0.1L31.9,32.9L31.9,32.9z M31.8,28.1h-6.1l0.1,4.7l6-0.1V28.1
											L31.8,28.1z"/>
									</g>
									<rect x="30.6" y="30.3" class="st6" width="0.6" height="2.5"/>
									<g>
										<path class="st6" d="M31.3,32.9h-0.6l-0.1-2.6l0.6-0.1L31.3,32.9L31.3,32.9z M31.2,30.3l-0.5,0.1l0.1,2.5l0.5-0.1v-2.5
											H31.2z"/>
									</g>
									<rect x="26.6" y="30.3" class="st6" width="0.6" height="2.5"/>
									<g>
										<path class="st6" d="M27.2,32.9h-0.6l-0.1-2.6l0.6-0.1L27.2,32.9L27.2,32.9z M27.1,30.3l-0.5,0.1l0.1,2.5l0.5-0.1v-2.5
											H27.1z"/>
									</g>
									<rect x="27.3" y="26.9" class="st6" width="3" height="5.9"/>
									<g>
										<path class="st6" d="M30.4,32.9h-3l-0.1-6l3-0.1L30.4,32.9L30.4,32.9z M30.3,26.9l-3,0.1l0.1,5.9l2.9-0.1V26.9L30.3,26.9z
											"/>
									</g>
									<rect x="29.6" y="30.3" class="st6" width="0.6" height="2.5"/>
									<g>
										<path class="st6" d="M30.2,32.9h-0.6l-0.1-2.6l0.6-0.1L30.2,32.9L30.2,32.9z M30.1,30.3l-0.5,0.1l0.1,2.5l0.5-0.1v-2.5
											H30.1z"/>
									</g>
									<rect x="27.6" y="30.3" class="st6" width="0.6" height="2.5"/>
									<g>
										<path class="st6" d="M28.3,32.9h-0.6l-0.1-2.6l0.6-0.1L28.3,32.9L28.3,32.9z M28.1,30.3l-0.5,0.1l0.1,2.5l0.5-0.1v-2.5
											H28.1z"/>
									</g>
									<polygon class="st6" points="27.5,27.9 28.8,29.7 30.1,27.9 									"/>
									<g>
										<path class="st6" d="M28.8,29.8l-1.4-2h2.8L28.8,29.8L28.8,29.8z M27.7,27.9l1.1,1.7l1.2-1.7H27.7L27.7,27.9z"/>
									</g>
									<rect x="39.6" y="28.1" class="st6" width="1.7" height="5.9"/>
									<g>
										<path class="st6" d="M41.3,34h-1.7l-0.1-5.9l1.7-0.1L41.3,34L41.3,34z M41.2,28.1h-1.6l0.1,5.8l1.5-0.1V28.1L41.2,28.1z"
											/>
									</g>
									<rect x="39.9" y="28.1" class="st6" width="1.1" height="5.9"/>
									<g>
										<path class="st6" d="M41.1,34h-1.2l-0.1-5.9L41,28L41.1,34L41.1,34z M41,28.1h-1l0.1,5.8l1-0.1L41,28.1L41,28.1z"/>
									</g>
									<polygon class="st6" points="14.5,32.8 13.9,33.9 20.8,33.9 20.3,32.8 									"/>
									<g>
										<path class="st6" d="M20.9,34h-7.1l0.6-1.2h5.8L20.9,34L20.9,34z M14,33.9h6.7l-0.5-1h-5.7L14,33.9L14,33.9z"/>
									</g>
									<polygon class="st6" points="15.9,32.8 15.6,33.9 18.9,33.9 18.6,32.8 									"/>
									<g>
										<path class="st6" d="M18.9,34h-3.3l0.2-1.2h2.8L18.9,34L18.9,34z M18.5,32.8h-2.7L15.7,34l3.1-0.1L18.5,32.8L18.5,32.8z"
											/>
									</g>
									<polygon class="st6" points="16.4,32.8 16.2,33.9 18.3,33.9 18.1,32.8 									"/>
									<g>
										<path class="st6" d="M18.3,34h-2.1l0.1-1.2l1.8-0.1L18.3,34L18.3,34z M18,32.8h-1.7l-0.1,1.1l2-0.1L18,32.8L18,32.8z"/>
									</g>
									<rect x="14.4" y="28.1" class="st6" width="5.8" height="4.8"/>
									<g>
										<path class="st6" d="M20.3,32.9h-5.9l-0.1-4.8l5.9-0.1L20.3,32.9L20.3,32.9z M20.2,28.1h-5.7l0.1,4.7l5.7-0.1v-4.6H20.2z"
											/>
									</g>
									<rect x="15.6" y="30.3" class="st6" width="0.6" height="2.5"/>
									<g>
										<path class="st6" d="M16.2,32.9h-0.6l-0.1-2.6l0.6-0.1L16.2,32.9L16.2,32.9z M16.1,30.3l-0.5,0.1l0.1,2.5l0.5-0.1v-2.5
											H16.1z"/>
									</g>
									<rect x="18.3" y="30.3" class="st6" width="0.6" height="2.5"/>
									<g>
										<path class="st6" d="M18.9,32.9h-0.6l-0.1-2.6l0.6-0.1L18.9,32.9L18.9,32.9z M18.8,30.3l-0.5,0.1l0.1,2.5l0.5-0.1v-2.5
											H18.8z"/>
									</g>
									<rect x="16.4" y="28.1" class="st6" width="1.7" height="5.9"/>
									<g>
										<path class="st6" d="M18.1,34h-1.7l-0.1-5.9L18,28L18.1,34L18.1,34z M18,28.1h-1.6l0.1,5.8l1.5-0.1V28.1L18,28.1z"/>
									</g>
									<rect x="16.7" y="28.1" class="st6" width="1.1" height="5.9"/>
									<g>
										<path class="st6" d="M17.9,34h-1.2l-0.1-5.9l1.2-0.1L17.9,34L17.9,34z M17.7,28.1h-1l0.1,5.8l1-0.1v-5.7H17.7z"/>
									</g>
									<rect x="13.6" y="26.9" class="st6" width="30.5" height="1.1"/>
									<g>
										<path class="st6" d="M44.1,28.1H13.6l-0.1-1.2L44,26.8L44.1,28.1L44.1,28.1z M44,26.9L13.6,27l0.1,1.1L44,28V26.9L44,26.9
											z"/>
									</g>
									<rect x="12.8" y="33.7" class="st6" width="32" height="1.4"/>
									<g>
										<path class="st6" d="M44.9,35.2H12.8l-0.1-1.5l32.1-0.1L44.9,35.2L44.9,35.2z M44.7,33.7l-32,0.1l0.1,1.4L44.7,35V33.7
											L44.7,33.7z"/>
									</g>
									<rect x="12.3" y="34" class="st6" width="33" height="1.4"/>
									<g>
										<path class="st6" d="M45.3,35.5h-33L12.2,34l33.1-0.1V35.5L45.3,35.5z M45.2,34H12.3l0.1,1.4l32.9-0.1V34H45.2z"/>
									</g>
									<rect x="11.4" y="34.8" class="st6" width="34.8" height="1.4"/>
									<g>
										<path class="st6" d="M46.3,36.3H11.4l-0.1-1.5l34.9-0.1L46.3,36.3L46.3,36.3z M46.2,34.8l-34.8,0.1l0.1,1.4l34.7-0.1
											L46.2,34.8L46.2,34.8z"/>
									</g>
									<rect x="10.2" y="35.8" class="st6" width="37.3" height="1.4"/>
									<g>
										<path class="st6" d="M47.5,37.3H10.2l-0.1-1.5l37.3-0.1L47.5,37.3L47.5,37.3z M47.4,35.8H10.2l0.1,1.4l37.2-0.1L47.4,35.8
											L47.4,35.8z"/>
									</g>
									<rect x="9" y="37.3" class="st6" width="39.7" height="1.4"/>
									<g>
										<path class="st6" d="M48.7,38.8H9l-0.1-1.5l39.8-0.1L48.7,38.8L48.7,38.8z M48.6,37.3H9v1.4l39.6-0.1V37.3L48.6,37.3z"/>
									</g>
									<rect x="16.4" y="33.7" class="st6" width="1.7" height="5"/>
									<g>
										<path class="st6" d="M18.1,38.8h-1.7l-0.1-5.1l1.7-0.1L18.1,38.8L18.1,38.8z M18,33.7l-1.6,0.1l0.1,5l1.5-0.1V33.7
											L18,33.7z"/>
									</g>
									<rect x="16.7" y="33.7" class="st6" width="1.1" height="5"/>
									<g>
										<path class="st6" d="M17.9,38.8h-1.2l-0.1-5.1l1.2-0.1L17.9,38.8L17.9,38.8z M17.7,33.7l-1,0.1l0.1,5l1-0.1v-5H17.7z"/>
									</g>
									<rect x="39.6" y="33.7" class="st6" width="1.7" height="5"/>
									<g>
										<path class="st6" d="M41.3,38.8h-1.7l-0.1-5.1l1.7-0.1L41.3,38.8L41.3,38.8z M41.2,33.7l-1.6,0.1l0.1,5l1.5-0.1V33.7
											L41.2,33.7z"/>
									</g>
									<rect x="39.9" y="33.7" class="st6" width="1.1" height="5"/>
									<g>
										<path class="st6" d="M41,38.8h-1.2l-0.1-5.1l1.2-0.1L41,38.8L41,38.8z M40.9,33.7l-1,0.1l0.1,5l1-0.1L40.9,33.7L40.9,33.7
											z"/>
									</g>
									<rect x="28.2" y="28.1" class="st6" width="1.3" height="10.7"/>
									<g>
										<path class="st6" d="M29.6,38.8h-1.4l-0.1-10.7l1.4-0.1L29.6,38.8L29.6,38.8z M29.5,28.1h-1.3l0.1,10.6l1.2-0.1L29.5,28.1
											L29.5,28.1z"/>
									</g>
									<path class="st6" d="M37.7,28.1v-2.9c0,0,0.3,0.6,2.6,0.7c2.2-0.1,2.5-0.4,2.6-0.7l-0.1,3L37.7,28.1z"/>
									<g>
										<path class="st6" d="M42.9,28.2h-5.2v-3V25l0.1,0.2c0,0,0.3,0.6,2.6,0.7c2.1-0.1,2.5-0.4,2.6-0.7h0.1L42.9,28.2L42.9,28.2
											z M37.8,25.3v2.8h5.1l0.1-2.7c-0.2,0.3-0.9,0.5-2.6,0.6C38.6,25.9,38,25.5,37.8,25.3L37.8,25.3z"/>
									</g>
									<path class="st6" d="M39.2,24.7l-0.7-0.6c0.2-0.1,0.7,0.1,0.7,0.1s0.2-0.7,1.3-0.9c1,0.3,1.3,0.9,1.3,0.9s0.4-0.3,0.7-0.1
										l-0.7,0.6H39.2z"/>
									<g>
										<path class="st6" d="M41.6,24.8h-2.5l-0.7-0.6c0.1-0.1,0.1-0.1,0.2-0.1c0.2,0,0.5,0.1,0.5,0.1c0-0.1,0.2-0.7,1.2-0.9
											c1,0.2,1.3,0.8,1.3,0.9c0-0.1,0.5-0.2,0.7-0.1L41.6,24.8L41.6,24.8z M38.7,24.1c-0.1,0-0.1,0-0.2,0l0.7,0.5h2.4l0.6-0.5
											h-0.1c-0.2,0-0.5,0.1-0.5,0.1c-0.1,0-0.3-0.7-1.3-0.9c-0.9,0.3-1.2,0.9-1.2,0.9C39.1,24.3,38.9,24.1,38.7,24.1L38.7,24.1z
											"/>
									</g>
									<path class="st6" d="M38.8,26.2l-0.9-0.8c0.3-0.2,0.9,0.1,0.9,0.1s0.3-0.9,1.6-1.3c1.3,0.4,1.6,1.3,1.6,1.3
										s0.6-0.4,0.9-0.1L42,26.2H38.8z"/>
									<g>
										<path class="st6" d="M42,26.2h-3.2l-1-0.8c0.1-0.1,0.2-0.2,0.3-0.2c0.3,0,0.6,0.2,0.7,0.2c0-0.1,0.3-0.9,1.6-1.3
											c1.3,0.4,1.6,1.2,1.7,1.3c0-0.1,0.6-0.3,0.9-0.1L42,26.2L42,26.2z M38.1,25.4c-0.1,0-0.2,0-0.2,0.1l0.9,0.7h3.1l0.9-0.8
											c-0.1,0-0.1,0-0.2,0c-0.3,0-0.6,0.2-0.6,0.2c-0.1,0-0.4-0.9-1.7-1.3c-1.2,0.4-1.6,1.3-1.6,1.3
											C38.7,25.6,38.4,25.4,38.1,25.4L38.1,25.4z"/>
									</g>
									<path class="st6" d="M40.4,20.2c0,0,1.1,1.9,0,2C39.3,22.2,40.4,20.3,40.4,20.2L40.4,20.2z"/>
									<g>
										<path class="st6" d="M40.4,22.2c-0.2,0-0.4-0.1-0.4-0.2c-0.3-0.4,0.2-1.4,0.4-1.7c0,0,0-0.1,0.1-0.1c0,0,0,0,0.1,0h0.1
											l0,0c0.2,0.2,0.5,0.9,0.5,1.4C41,22,40.8,22.2,40.4,22.2L40.4,22.2L40.4,22.2z M40.4,20.3L40.4,20.3
											c-0.2,0.3-0.6,1.3-0.4,1.6c0.1,0.1,0.2,0.2,0.3,0.2l0,0l0,0c0.2,0,0.3-0.1,0.4-0.2C41,21.5,40.6,20.6,40.4,20.3L40.4,20.3
											z"/>
									</g>
									<path class="st6" d="M39.5,22.7L39,22.4c0.2-0.1,0.5,0,0.5,0s0.2-0.3,1-0.5c0.8,0.1,1,0.5,1,0.5s0.3-0.1,0.5,0l-0.6,0.3
										H39.5z"/>
									<g>
										<path class="st6" d="M41.4,22.7h-1.9l-0.7-0.4h0.1c0.2-0.1,0.5,0,0.6,0.1c0,0,0.2-0.4,0.9-0.5c0.7,0.1,1,0.4,1,0.5
											c0,0,0.3-0.1,0.5-0.1H42L41.4,22.7L41.4,22.7z M39.1,22.4l0.4,0.2h1.8l0.4-0.2c-0.2,0-0.3,0.1-0.3,0.1
											c-0.1,0-0.3-0.4-1-0.5c-0.7,0.1-0.9,0.5-0.9,0.5C39.4,22.5,39.3,22.4,39.1,22.4L39.1,22.4z"/>
									</g>
									<path class="st6" d="M39.9,22.9v-0.2c0,0,0.1-0.3,0.5-0.5c0.4,0.1,0.5,0.5,0.5,0.5v0.2H39.9z"/>
									<g>
										<path class="st6" d="M41,23h-1l-0.1-0.3c0,0,0.1-0.4,0.5-0.5c0.5,0.1,0.6,0.5,0.6,0.5V23L41,23z M40.4,22.2
											c-0.3,0.1-0.4,0.4-0.4,0.4v0.2h0.8v-0.2l0,0C40.9,22.7,40.8,22.4,40.4,22.2L40.4,22.2z"/>
									</g>
									<path class="st6" d="M39.5,23.6v-0.3c0,0,0.2-0.5,1-0.7c0.8,0.2,1,0.7,1,0.7v0.3H39.5z"/>
									<g>
										<path class="st6" d="M41.4,23.7h-2l-0.1-0.4c0,0,0.2-0.5,1-0.7c0.9,0.2,1.1,0.7,1.1,0.7V23.7L41.4,23.7z M40.4,22.7
											c-0.7,0.2-0.9,0.6-0.9,0.6v0.3l1.8-0.1v-0.3l0,0C41.3,23.3,41.2,22.9,40.4,22.7L40.4,22.7z"/>
									</g>
									<path class="st6" d="M39.5,24.1v-0.3c0,0,0.2-0.5,1-0.7c0.8,0.2,1,0.7,1,0.7v0.3H39.5z"/>
									<g>
										<path class="st6" d="M41.4,24.2h-2l-0.1-0.4c0,0,0.2-0.5,1-0.7c0.9,0.2,1.1,0.7,1.1,0.7V24.2L41.4,24.2z M40.4,23.2
											c-0.7,0.2-0.9,0.6-0.9,0.6v0.3l1.8-0.1v-0.3l0,0C41.3,23.8,41.2,23.4,40.4,23.2L40.4,23.2z"/>
									</g>
									<path class="st6" d="M39.5,25.6L39,24.8c0.2-0.2,0.5,0.1,0.5,0.1s0.2-0.9,1-1.3c0.8,0.4,1,1.3,1,1.3s0.3-0.4,0.5-0.1
										l-0.6,0.8H39.5z"/>
									<g>
										<path class="st6" d="M41.4,25.7h-1.9l-0.6-0.8c0.1-0.4,0.4-0.1,0.5,0c0.1-0.3,0.3-0.9,1-1.3c0.7,0.3,0.9,1,1,1.3
											c0.1-0.1,0.4-0.2,0.5-0.1L41.4,25.7L41.4,25.7z M39.1,24.8C39,24.8,39,24.8,39.1,24.8l0.5,0.8h1.8l0.5-0.8h-0.1
											c-0.1,0-0.3,0.1-0.3,0.2l-0.1,0.1V25c0,0-0.2-0.9-0.9-1.3c-0.7,0.4-0.9,1.3-0.9,1.3v0.1L39.4,25
											C39.4,25,39.2,24.8,39.1,24.8L39.1,24.8z"/>
									</g>
									<path class="st6" d="M39.5,26.6L39,25.8c0.2-0.2,0.5,0.2,0.5,0.2s0.2-0.9,1-1.3c0.8,0.4,1,1.3,1,1.3s0.3-0.4,0.5-0.2
										l-0.6,0.8H39.5z"/>
									<g>
										<path class="st6" d="M41.4,26.7h-1.9l-0.6-0.8c0.1-0.4,0.4-0.1,0.5,0c0.1-0.2,0.3-0.9,1-1.3c0.7,0.3,0.9,1,1,1.3
											c0.1-0.1,0.4-0.2,0.5-0.1L41.4,26.7L41.4,26.7z M39.1,25.8C39,25.8,39,25.8,39.1,25.8l0.5,0.8h1.8l0.5-0.8h-0.1
											c-0.1,0-0.3,0.1-0.3,0.2l-0.1,0.1V26c0,0-0.2-0.9-0.9-1.3c-0.7,0.4-0.9,1.3-0.9,1.3v0.1L39.4,26
											C39.4,25.9,39.2,25.8,39.1,25.8L39.1,25.8z"/>
									</g>
									<path class="st6" d="M39.5,28.1v-0.8c0,0,0.2-1.2,1-1.6c0.8,0.5,1,1.6,1,1.6v0.8H39.5z"/>
									<g>
										<path class="st6" d="M41.4,28.1h-2l-0.1-0.9c0-0.1,0.2-1.2,1-1.7c0.9,0.5,1.1,1.6,1.1,1.7V28.1L41.4,28.1z M40.4,25.7
											c-0.7,0.5-0.9,1.6-0.9,1.6v0.8l1.8-0.1v-0.8C41.4,27.2,41.2,26.1,40.4,25.7L40.4,25.7z"/>
									</g>
									<path class="st6" d="M39.5,28.1L39,27.5c0.2-0.2,0.5,0.1,0.5,0.1s0.2-0.7,1-1c0.8,0.3,1,1,1,1s0.3-0.3,0.5-0.1l-0.6,0.6
										H39.5z"/>
									<g>
										<path class="st6" d="M41.4,28.1h-1.9l-0.6-0.6c0-0.1,0.1-0.1,0.2-0.1c0.1,0,0.3,0.1,0.3,0.1c0.1-0.2,0.3-0.7,1-0.9
											c0.7,0.2,0.9,0.7,1,0.9c0.1-0.1,0.4-0.2,0.5-0.1L41.4,28.1L41.4,28.1z M39.1,27.5L39.1,27.5l0.5,0.5h1.8l0.5-0.5
											c0,0,0,0-0.1,0s-0.3,0.1-0.3,0.1h-0.1v-0.1c0,0-0.2-0.7-0.9-0.9c-0.7,0.3-0.9,0.9-0.9,0.9v0.1h-0.1
											C39.4,27.6,39.2,27.5,39.1,27.5L39.1,27.5z"/>
									</g>
									<path class="st6" d="M16,24.5l-0.7-0.6C15.6,23.8,16,24,16,24s0.2-0.7,1.3-0.9c1,0.3,1.3,0.9,1.3,0.9s0.4-0.2,0.7-0.1
										l-0.7,0.6H16z"/>
									<g>
										<path class="st6" d="M18.5,24.5H16L15.3,24c0.1-0.1,0.1-0.1,0.2-0.1c0.2,0,0.5,0.1,0.5,0.2c0-0.1,0.2-0.7,1.2-0.9
											c1,0.3,1.3,0.8,1.3,0.9c0-0.1,0.5-0.2,0.7-0.1L18.5,24.5L18.5,24.5z M15.5,23.9c-0.1,0-0.1,0-0.2,0l0.7,0.5h2.4l0.6-0.5
											h-0.1c-0.2,0-0.5,0.1-0.5,0.1c-0.1,0-0.3-0.7-1.3-0.9c-0.9,0.3-1.2,0.9-1.2,0.9C16,24.1,15.7,23.9,15.5,23.9L15.5,23.9z"
											/>
									</g>
									<path class="st6" d="M15.7,26l-0.9-0.8c0.3-0.2,0.9,0.2,0.9,0.2s0.3-0.9,1.6-1.3c1.3,0.4,1.6,1.3,1.6,1.3s0.6-0.4,0.9-0.2
										L18.9,26H15.7z"/>
									<g>
										<path class="st6" d="M18.9,26h-3.2l-1-0.8c0.1-0.1,0.2-0.2,0.3-0.2c0.3,0,0.6,0.2,0.7,0.2c0-0.1,0.3-0.9,1.6-1.3
											c1.3,0.4,1.6,1.2,1.7,1.3c0-0.1,0.6-0.3,0.9-0.2L18.9,26L18.9,26z M15,25.2c-0.1,0-0.2,0-0.2,0.1l0.9,0.7h3.1l0.9-0.8
											c0,0-0.1,0-0.2,0c-0.3,0-0.6,0.2-0.6,0.2c-0.1,0-0.4-0.9-1.7-1.3c-1.2,0.4-1.6,1.3-1.6,1.3C15.6,25.4,15.3,25.2,15,25.2
											L15,25.2z"/>
									</g>
									<path class="st6" d="M14.8,28.1v-2.9c0,0,0.3,0.6,2.6,0.7c2.2-0.1,2.5-0.4,2.6-0.7l-0.1,3L14.8,28.1z"/>
									<g>
										<path class="st6" d="M20,28.2h-5.2v-3V25l0.1,0.2c0,0,0.3,0.6,2.6,0.7c2.1-0.1,2.5-0.4,2.6-0.7h0.1L20,28.2L20,28.2z
											 M14.8,25.3v2.8h5.1l0.1-2.7c-0.2,0.3-0.9,0.5-2.6,0.6C15.7,25.9,15,25.5,14.8,25.3L14.8,25.3z"/>
									</g>
									<path class="st6" d="M17.2,20.2c0,0,1.1,1.9,0,2C16.1,22.2,17.2,20.3,17.2,20.2L17.2,20.2z"/>
									<g>
										<path class="st6" d="M17.2,22.2c-0.2,0-0.4-0.1-0.4-0.2c-0.3-0.4,0.2-1.4,0.4-1.7v-0.1c0,0,0,0,0.1,0h0.1l0,0
											c0.2,0.2,0.5,0.9,0.5,1.4C17.8,22,17.6,22.2,17.2,22.2L17.2,22.2L17.2,22.2z M17.3,20.3C17.3,20.3,17.2,20.3,17.3,20.3
											c-0.2,0.3-0.6,1.3-0.4,1.6c0.1,0.1,0.2,0.2,0.3,0.2l0,0l0,0c0.2,0,0.3-0.1,0.4-0.2C17.8,21.5,17.4,20.6,17.3,20.3
											L17.3,20.3z"/>
									</g>
									<path class="st6" d="M16.3,22.7l-0.5-0.3c0.2-0.1,0.5,0,0.5,0s0.2-0.3,1-0.5c0.8,0.1,1,0.5,1,0.5s0.3-0.1,0.5,0l-0.6,0.3
										H16.3z"/>
									<g>
										<path class="st6" d="M18.2,22.7h-1.9l-0.7-0.4h0.1c0.2-0.1,0.5,0,0.6,0.1c0,0,0.2-0.4,0.9-0.5c0.7,0.1,1,0.4,1,0.5
											c0,0,0.3-0.1,0.5-0.1h0.1L18.2,22.7L18.2,22.7z M15.9,22.4l0.4,0.2h1.8l0.4-0.2c-0.2,0-0.3,0.1-0.3,0.1
											c-0.1,0-0.3-0.4-1-0.5c-0.7,0.1-0.9,0.5-0.9,0.5S16.1,22.4,15.9,22.4L15.9,22.4z"/>
									</g>
									<path class="st6" d="M16.8,22.9v-0.2c0,0,0.1-0.3,0.5-0.5c0.4,0.1,0.5,0.5,0.5,0.5v0.2H16.8z"/>
									<g>
										<path class="st6" d="M17.8,23h-1l-0.1-0.3c0,0,0.1-0.4,0.5-0.5c0.5,0.1,0.6,0.5,0.6,0.5V23L17.8,23z M17.2,22.2
											c-0.3,0.1-0.4,0.4-0.4,0.4v0.2h0.9v-0.2l0,0C17.7,22.7,17.6,22.4,17.2,22.2L17.2,22.2z"/>
									</g>
									<path class="st6" d="M16.3,23.6v-0.3c0,0,0.2-0.5,1-0.7c0.8,0.2,1,0.7,1,0.7v0.3H16.3z"/>
									<g>
										<path class="st6" d="M18.3,23.7h-2l-0.1-0.4c0,0,0.2-0.5,1-0.7c0.9,0.2,1.1,0.7,1.1,0.7V23.7L18.3,23.7z M17.2,22.7
											c-0.7,0.2-0.9,0.6-0.9,0.6v0.3l1.8-0.1v-0.3l0,0C18.2,23.3,18,22.9,17.2,22.7L17.2,22.7z"/>
									</g>
									<path class="st6" d="M16.3,24.1v-0.3c0,0,0.2-0.5,1-0.7c0.8,0.2,1,0.7,1,0.7v0.3H16.3z"/>
									<g>
										<path class="st6" d="M18.3,24.2h-2l-0.1-0.4c0,0,0.2-0.5,1-0.7c0.9,0.2,1.1,0.7,1.1,0.7V24.2L18.3,24.2z M17.2,23.2
											c-0.7,0.2-0.9,0.6-0.9,0.6v0.3l1.8-0.1v-0.3l0,0C18.2,23.8,18,23.4,17.2,23.2L17.2,23.2z"/>
									</g>
									<path class="st6" d="M16.3,25.6l-0.5-0.8c0.2-0.2,0.5,0.1,0.5,0.1s0.2-0.9,1-1.3c0.8,0.4,1,1.3,1,1.3s0.3-0.4,0.5-0.1
										l-0.6,0.8H16.3z"/>
									<g>
										<path class="st6" d="M18.2,25.7h-1.9l-0.6-0.8c0.1-0.4,0.4-0.1,0.5,0c0.1-0.3,0.3-0.9,1-1.3c0.7,0.3,1,1,1,1.3
											c0.1-0.1,0.4-0.2,0.5-0.1L18.2,25.7L18.2,25.7z M15.9,24.8C15.9,24.8,15.8,24.8,15.9,24.8l0.5,0.8h1.8l0.5-0.8
											c0,0,0,0-0.1,0s-0.3,0.1-0.3,0.2l-0.1,0.1V25c0,0-0.2-0.9-0.9-1.3c-0.7,0.4-0.9,1.3-0.9,1.3v0.1L16.2,25
											C16.2,25,16,24.8,15.9,24.8L15.9,24.8z"/>
									</g>
									<path class="st6" d="M16.3,26.6l-0.5-0.8c0.2-0.2,0.5,0.2,0.5,0.2s0.2-0.9,1-1.3c0.8,0.4,1,1.3,1,1.3s0.3-0.4,0.5-0.2
										l-0.6,0.8H16.3z"/>
									<g>
										<path class="st6" d="M18.2,26.7h-1.9l-0.6-0.8c0.2-0.4,0.4-0.1,0.5,0c0.1-0.2,0.3-0.9,1-1.3c0.7,0.3,1,1,1,1.3
											c0.1-0.1,0.4-0.2,0.5-0.1L18.2,26.7L18.2,26.7z M15.9,25.8C15.9,25.8,15.8,25.8,15.9,25.8l0.5,0.8h1.8l0.5-0.8h-0.1
											c-0.1,0-0.3,0.1-0.3,0.2l-0.1,0.1V26c0,0-0.2-0.9-0.9-1.3c-0.7,0.4-0.9,1.3-0.9,1.3v0.1L16.2,26
											C16.2,25.9,16,25.8,15.9,25.8L15.9,25.8z"/>
									</g>
									<path class="st6" d="M16.3,28.1v-0.8c0,0,0.2-1.2,1-1.6c0.8,0.5,1,1.6,1,1.6v0.8H16.3z"/>
									<g>
										<path class="st6" d="M18.3,28.1h-2l-0.1-0.9c0-0.1,0.2-1.2,1-1.7c0.9,0.5,1.1,1.6,1.1,1.7V28.1L18.3,28.1z M17.2,25.7
											c-0.7,0.5-0.9,1.6-0.9,1.6v0.8l1.8-0.1v-0.8C18.2,27.2,18,26.1,17.2,25.7L17.2,25.7z"/>
									</g>
									<path class="st6" d="M16.3,28.1l-0.5-0.6c0.2-0.2,0.5,0.1,0.5,0.1s0.2-0.7,1-1c0.8,0.3,1,1,1,1s0.3-0.3,0.5-0.1l-0.6,0.6
										H16.3z"/>
									<g>
										<path class="st6" d="M18.2,28.1h-1.9l-0.6-0.6c0.1-0.1,0.1-0.1,0.2-0.1s0.3,0.1,0.3,0.1c0.1-0.2,0.3-0.7,1-0.9
											c0.7,0.2,0.9,0.7,1,0.9c0.1-0.1,0.4-0.2,0.5-0.1L18.2,28.1L18.2,28.1z M15.9,27.5C15.9,27.5,15.8,27.5,15.9,27.5l0.5,0.6
											h1.8l0.5-0.5c0,0,0,0-0.1,0c-0.2,0-0.3,0.1-0.3,0.1h-0.1v-0.1c0,0-0.2-0.7-0.9-0.9c-0.7,0.3-0.9,0.9-0.9,0.9v0.1h-0.1
											C16.2,27.6,16.1,27.5,15.9,27.5L15.9,27.5z"/>
									</g>
									<path class="st6" d="M25.5,26.8h6.7c0.3,0,0.6,0.3,0.6,0.6c0,0.3-0.3,0.6-0.6,0.6h-6.7c-0.3,0-0.6-0.3-0.6-0.6
										C24.9,27,25.1,26.8,25.5,26.8L25.5,26.8z"/>
									<g>
										<path class="st6" d="M32.2,28h-6.7c-0.4,0-0.7-0.3-0.7-0.7c0-0.4,0.3-0.7,0.7-0.7h6.7c0.4,0,0.7,0.3,0.7,0.7
											S32.6,28,32.2,28L32.2,28z M25.5,26.8c-0.3,0-0.5,0.2-0.5,0.5s0.2,0.5,0.5,0.5h6.7c0.3,0,0.5-0.2,0.5-0.5
											s-0.2-0.5-0.5-0.5H25.5L25.5,26.8z"/>
									</g>
									<path class="st6" d="M32.9,27.5l0.1-4c0,0-0.2,1-0.6,1h-7.1c-0.5,0-0.6-1-0.6-1v4H32.9z"/>
									<g>
										<path class="st6" d="M33,27.5h-8.2l-0.1-4h0.1c0,0.3,0.2,0.9,0.6,0.9h7.1c0.3,0,0.5-0.7,0.6-0.9h0.1L33,27.5L33,27.5z
											 M24.8,23.9v3.5l8.1-0.1v-3.5c-0.1,0.3-0.3,0.6-0.6,0.6h-7.1C25,24.5,24.9,24.2,24.8,23.9L24.8,23.9z"/>
									</g>
									<path class="st6" d="M31.4,25.7v-1.3c0,0,0.9-0.2,0.8-0.6C32,23.4,31,24.2,31,24.2h-4.2c0,0-1.1-0.8-1.2-0.4
										c-0.1,0.3,0.8,0.6,0.8,0.6v1.3H31.4z"/>
									<g>
										<path class="st6" d="M31.4,25.7h-5.1l-0.1-1.4c0,0-0.6-0.1-0.7-0.4c0-0.1,0-0.1,0-0.2s0.1-0.1,0.2-0.1
											c0.3,0,1,0.5,1.1,0.5H31c0,0,0.7-0.5,1-0.5c0.1,0,0.2,0.1,0.2,0.1c0,0.1,0,0.1,0,0.2c-0.1,0.3-0.8,0.4-0.8,0.5L31.4,25.7
											L31.4,25.7L31.4,25.7z M25.7,23.8C25.6,23.8,25.6,23.8,25.7,23.8c-0.1,0.1-0.1,0.1-0.1,0.2c0.1,0.2,0.5,0.3,0.7,0.4
											l0.1,1.3l4.9-0.1v-1.2c0.2-0.1,0.7-0.3,0.8-0.4v-0.1c0,0,0,0-0.1,0c-0.2,0-0.8,0.4-1,0.5h-4.3
											C26.5,24.1,25.9,23.8,25.7,23.8L25.7,23.8z"/>
									</g>
									<path class="st6" d="M31.9,26.8v-1.4c0,0,1.1-0.2,0.9-0.5c-0.1-0.4-1.4,0.4-1.4,0.4h-5.1c0,0-1.3-0.8-1.4-0.4
										c-0.1,0.3,0.9,0.5,0.9,0.5v1.4H31.9z"/>
									<g>
										<path class="st6" d="M31.9,26.8h-6.1l-0.1-1.4c0,0-0.8-0.1-0.9-0.3c0-0.1,0-0.1,0-0.2s0.1-0.1,0.2-0.1
											c0.4,0,1.2,0.5,1.3,0.5h5.1c0,0,0.8-0.5,1.2-0.5c0.1,0,0.2,0.1,0.2,0.1c0,0.1,0,0.1,0,0.2c-0.1,0.3-0.9,0.4-0.9,0.4V26.8
											L31.9,26.8L31.9,26.8z M25.1,24.9c-0.1,0-0.1,0-0.1,0c0.1,0.3,0.7,0.4,0.9,0.4l0.1,1.4l5.9-0.1v-1.3
											c0.3-0.1,0.8-0.2,0.9-0.4c0-0.5-1.3,0.4-1.3,0.4h-5.1C26.3,25.4,25.4,24.9,25.1,24.9L25.1,24.9z"/>
									</g>
									<path class="st6" d="M29.6,19.8v-0.5c-0.6,0-0.5-0.6-0.5-0.8c0.2-0.2,0.2-0.7-0.3-0.9c-0.5,0.3-0.5,0.7-0.3,0.9
										c0,0.2,0.2,0.8-0.5,0.8v0.5H29.6z"/>
									<g>
										<path class="st6" d="M29.6,19.8h-1.5L28,19.2c0.2-0.1,0.4-0.1,0.4-0.2c0.1-0.1,0.1-0.3,0.1-0.5c0-0.1,0-0.1,0-0.2
											c-0.1-0.1-0.1-0.3-0.1-0.4s0.1-0.3,0.4-0.5c0.3,0.1,0.4,0.3,0.5,0.5c0,0.2,0,0.4-0.1,0.5c0,0,0,0,0,0.1
											c0,0.2,0,0.4,0.1,0.5s0.2,0.1,0.3,0.1L29.6,19.8L29.6,19.8L29.6,19.8z M28.8,17.6c-0.2,0.1-0.3,0.2-0.3,0.4
											c0,0.1,0,0.3,0.1,0.4c0,0.1,0,0.1,0,0.2c0,0.2,0.1,0.4-0.1,0.6c-0.1,0.1-0.2,0.1-0.5,0.1l0.1,0.5h1.4v-0.5
											c-0.1,0-0.3,0-0.4-0.1C29,19,29,18.7,29,18.5v-0.1c0.1-0.1,0.2-0.3,0.1-0.5C29.1,17.8,29,17.6,28.8,17.6L28.8,17.6z"/>
									</g>
									<path class="st6" d="M30.6,23.3v-1c0,0,0.6-0.2,0.5-0.5s-0.8,0.3-0.8,0.3h-3c0,0-0.8-0.6-0.8-0.3c-0.1,0.3,0.5,0.5,0.5,0.5
										v1H30.6z"/>
									<g>
										<path class="st6" d="M30.7,23.4H27v-1.1c0,0-0.6-0.2-0.5-0.5c0-0.1,0.1-0.1,0.2-0.1c0.2,0,0.7,0.4,0.8,0.4h3
											c0,0,0.5-0.4,0.7-0.4c0.1,0,0.1,0,0.2,0.1c0.1,0.3-0.5,0.5-0.6,0.6L30.7,23.4L30.7,23.4L30.7,23.4z M26.6,21.8
											c-0.1,0.2,0.3,0.4,0.5,0.5v1.1l3.5-0.1v-1c0.2-0.1,0.6-0.3,0.5-0.5c-0.2,0-0.6,0.3-0.7,0.4h-3
											C27.2,22.1,26.8,21.8,26.6,21.8L26.6,21.8z"/>
									</g>
									<path class="st6" d="M31,24.3v-1.1c0,0,0.8-0.1,0.6-0.4c-0.1-0.3-1,0.4-1,0.4H27c0,0-0.9-0.6-1-0.4
										c-0.1,0.3,0.6,0.4,0.6,0.4v1.1H31z"/>
									<g>
										<path class="st6" d="M31,24.3h-4.4l-0.1-1.2c0,0-0.5,0-0.6-0.3c0,0,0-0.1,0-0.2c0,0,0.1-0.1,0.2-0.1
											c0.3,0,0.9,0.4,0.9,0.4h3.6c0,0,0.6-0.4,0.9-0.4c0.1,0,0.2,0.1,0.2,0.1c0,0.1,0,0.1,0,0.2c-0.1,0.2-0.6,0.3-0.7,0.3V24.3
											L31,24.3L31,24.3z M26.2,22.7l-0.1,0.1c0.1,0.1,0.4,0.2,0.6,0.2l0.1,1.2l4.2-0.1V23c0.2-0.1,0.6-0.2,0.6-0.3l-0.1-0.1
											c-0.2,0-0.7,0.3-0.8,0.4h-3.6C26.8,23,26.4,22.7,26.2,22.7L26.2,22.7z"/>
									</g>
									<path class="st6" d="M30,21.7V21c0,0,0.4-0.2,0.3-0.4c-0.1-0.2-0.5,0.2-0.5,0.2h-1.9c0,0-0.5-0.4-0.5-0.2
										c-0.1,0.2,0.3,0.4,0.3,0.4v0.7H30z"/>
									<g>
										<path class="st6" d="M30.1,21.7h-2.4L27.6,21c0,0-0.4-0.1-0.3-0.4l0,0l0.1-0.1c0.2,0,0.5,0.3,0.5,0.3h1.9
											c0,0,0.3-0.3,0.5-0.3l0,0l0.1,0.1c0.1,0.2-0.3,0.4-0.4,0.4L30.1,21.7L30.1,21.7L30.1,21.7z M27.4,20.6
											c0,0.1,0.2,0.2,0.3,0.3v0.7l2.2-0.1v-0.6c0.2-0.1,0.4-0.2,0.4-0.3c-0.1,0-0.3,0.2-0.4,0.3h-2
											C27.7,20.8,27.5,20.6,27.4,20.6L27.4,20.6z"/>
									</g>
									<path class="st6" d="M30.2,22.3v-0.7c0,0,0.5-0.2,0.4-0.4C30.5,21,30,21.4,30,21.4h-2.3c0,0-0.6-0.4-0.6-0.2
										c-0.1,0.2,0.4,0.4,0.4,0.4v0.7H30.2z"/>
									<g>
										<path class="st6" d="M30.3,22.4h-2.8l-0.1-0.7c0,0-0.3-0.1-0.4-0.2l0,0v-0.1c0,0,0-0.1,0.1-0.1c0.2,0,0.6,0.3,0.6,0.3H30
											c0,0,0.4-0.3,0.6-0.3l0,0l0.1,0.1v0.1c-0.1,0.2-0.4,0.3-0.4,0.3L30.3,22.4L30.3,22.4L30.3,22.4z M27.1,21.3
											c0,0.1,0.2,0.2,0.4,0.3l0.1,0.7h2.7v-0.6c0.2-0.1,0.4-0.2,0.4-0.3c-0.1-0.1-0.4,0.1-0.6,0.2h-2.4
											C27.5,21.4,27.2,21.3,27.1,21.3L27.1,21.3z"/>
									</g>
									<path class="st6" d="M29.7,20.5v-0.6c0,0,0.3-0.1,0.2-0.3c0-0.1-0.4,0.2-0.4,0.2h-1.4c0,0-0.3-0.4-0.4-0.2
										c0,0.2,0.2,0.3,0.2,0.3v0.5L29.7,20.5z"/>
									<g>
										<path class="st6" d="M29.7,20.5L28,20.4v-0.6c0,0-0.3-0.1-0.2-0.3l0,0h0.1c0.1,0,0.3,0.2,0.4,0.3h1.3c0,0,0.2-0.2,0.3-0.2
											l0,0l0.1,0.1c0,0.2-0.2,0.4-0.3,0.4L29.7,20.5L29.7,20.5L29.7,20.5z M27.8,19.6c0,0.1,0.1,0.2,0.2,0.2v0.6h1.5v-0.6
											c0.1-0.1,0.3-0.2,0.2-0.3c0,0-0.2,0.1-0.3,0.2H28C28,19.7,27.9,19.6,27.8,19.6L27.8,19.6z"/>
									</g>
									<path class="st6" d="M29.8,20.9v-0.5c0,0,0.3-0.1,0.3-0.3c0-0.2-0.5,0.2-0.5,0.2H28c0,0-0.4-0.4-0.5-0.2
										c0,0.2,0.3,0.3,0.3,0.3v0.5H29.8z"/>
									<g>
										<path class="st6" d="M29.9,20.9h-2l-0.1-0.6c0,0-0.4-0.1-0.3-0.3l0,0h0.1c0.1,0,0.4,0.2,0.4,0.3h1.6c0,0,0.3-0.2,0.4-0.2
											l0,0l0.1,0.1c0.1,0.2-0.3,0.3-0.3,0.4L29.9,20.9L29.9,20.9L29.9,20.9z M27.6,20.1c0,0.1,0.1,0.2,0.3,0.2v0.6l1.8-0.1v-0.5
											c0.2-0.1,0.3-0.2,0.3-0.3c-0.1,0-0.3,0.1-0.4,0.2h-1.7C27.9,20.2,27.7,20.1,27.6,20.1L27.6,20.1z"/>
									</g>
									<path class="st6" d="M28.3,20.9L28,20.6c0.1-0.1,0.3,0.1,0.3,0.1s0.1-0.4,0.5-0.6c0.4,0.2,0.5,0.6,0.5,0.6s0.2-0.2,0.3-0.1
										l-0.3,0.3H28.3z"/>
									<g>
										<path class="st6" d="M29.4,21h-1.1l-0.4-0.5h0.2c0.1,0,0.1,0,0.2,0.1c0.1-0.1,0.2-0.4,0.6-0.5c0.4,0.1,0.5,0.4,0.6,0.5
											c0,0,0.1-0.1,0.2-0.1h0.1L29.4,21L29.4,21z M28.1,20.6l0.3,0.3h1l0.3-0.3c-0.1,0.1-0.2,0.1-0.2,0.1l-0.1,0.1v-0.1
											c0,0-0.1-0.4-0.5-0.5c-0.4,0.1-0.5,0.5-0.5,0.5v0.1l-0.1-0.1C28.2,20.7,28.1,20.6,28.1,20.6L28.1,20.6z"/>
									</g>
									<path class="st6" d="M28.1,21.5l-0.4-0.3c0.1-0.1,0.4,0.1,0.4,0.1s0.1-0.4,0.8-0.6c0.6,0.2,0.8,0.6,0.8,0.6
										s0.3-0.1,0.4-0.1l-0.4,0.3H28.1z"/>
									<g>
										<path class="st6" d="M29.6,21.5h-1.5l-0.5-0.4c0-0.1,0.1-0.1,0.1-0.1c0.1,0,0.3,0.1,0.3,0.1c0-0.1,0.2-0.4,0.7-0.6
											c0.6,0.1,0.8,0.5,0.8,0.6c0-0.1,0.3-0.1,0.4-0.1L29.6,21.5L29.6,21.5z M27.8,21.2l0.3,0.2h1.4l0.3-0.2
											c-0.1,0-0.2,0.1-0.2,0.1c-0.1,0-0.2-0.4-0.8-0.6c-0.5,0.1-0.7,0.5-0.7,0.5C28.1,21.3,27.9,21.2,27.8,21.2L27.8,21.2z"/>
									</g>
									<path class="st6" d="M28,22.5L27.5,22c0.2-0.1,0.5,0.1,0.5,0.1s0.2-0.5,0.9-0.7c0.7,0.2,0.9,0.7,0.9,0.7s0.3-0.2,0.5-0.1
										l-0.5,0.5H28z"/>
									<g>
										<path class="st6" d="M29.7,22.5H28L27.5,22c0-0.1,0.1-0.1,0.2-0.1S28,22,28.1,22c0-0.1,0.2-0.5,0.8-0.7
											c0.6,0.2,0.9,0.6,0.9,0.7c0-0.1,0.3-0.2,0.5-0.1L29.7,22.5L29.7,22.5z M27.6,22L27.6,22l0.4,0.4h1.6L30,22
											c-0.1,0-0.3,0.1-0.3,0.1c-0.1,0-0.3-0.5-0.9-0.7c-0.6,0.2-0.8,0.7-0.8,0.7C27.9,22.1,27.8,22,27.6,22L27.6,22z"/>
									</g>
									<path class="st6" d="M27.8,23.7l-0.6-0.6c0.2-0.1,0.6,0.1,0.6,0.1s0.2-0.7,1.1-0.9c0.9,0.3,1.1,0.9,1.1,0.9
										s0.4-0.3,0.6-0.1L30,23.7H27.8z"/>
									<g>
										<path class="st6" d="M29.9,23.7h-2.1l-0.6-0.6c0.1-0.1,0.1-0.1,0.2-0.1c0.2,0,0.4,0.1,0.4,0.2c0-0.1,0.2-0.7,1-0.9
											c0.8,0.2,1.1,0.8,1.1,0.9c0-0.1,0.4-0.2,0.6-0.1L29.9,23.7L29.9,23.7z M27.3,23.1c-0.1,0-0.1,0-0.1,0l0.6,0.5h2l0.5-0.5
											c0,0,0,0-0.1,0c-0.2,0-0.4,0.1-0.4,0.1c-0.1,0-0.3-0.7-1.1-0.9c-0.8,0.3-1,0.9-1,0.9C27.7,23.2,27.5,23.1,27.3,23.1
											L27.3,23.1z"/>
									</g>
									<polygon class="st6" points="27.6,24.6 28.8,26.1 30,24.6 									"/>
									<g>
										<path class="st6" d="M28.8,26.2l-1.3-1.6h2.6L28.8,26.2L28.8,26.2z M27.8,24.7l1,1.3l1.1-1.3H27.8L27.8,24.7z"/>
									</g>
									<path class="st6" d="M27.6,24.8l-0.7-0.6c0.2-0.2,0.7,0.1,0.7,0.1s0.2-0.7,1.3-1c1,0.3,1.3,1,1.3,1s0.5-0.3,0.7-0.1
										l-0.7,0.6H27.6z"/>
									<g>
										<path class="st6" d="M30.1,24.9h-2.5l-0.8-0.7c0.1-0.1,0.1-0.2,0.2-0.2c0.2,0,0.5,0.1,0.5,0.2c0-0.1,0.2-0.8,1.2-1
											c1,0.3,1.3,0.9,1.4,1c0-0.1,0.5-0.3,0.7-0.1L30.1,24.9L30.1,24.9z M27,24.2c-0.1,0-0.1,0-0.2,0l0.7,0.5H30l0.7-0.6h-0.1
											c-0.2,0-0.5,0.2-0.5,0.2c-0.1,0-0.3-0.7-1.3-1c-1,0.3-1.2,1-1.2,1C27.5,24.4,27.3,24.2,27,24.2L27,24.2z"/>
									</g>
									<polygon class="st6" points="27.5,26.2 28.8,28.1 30.1,26.2 									"/>
									<g>
										<path class="st6" d="M28.8,28.2l-1.4-2h2.8L28.8,28.2L28.8,28.2z M27.7,26.3l1.1,1.7l1.2-1.7H27.7L27.7,26.3z"/>
									</g>
									<path class="st6" d="M27.5,26.4l-0.8-0.8c0.3-0.2,0.8,0.2,0.8,0.2s0.3-0.9,1.4-1.3c1.1,0.4,1.4,1.3,1.4,1.3
										s0.5-0.4,0.8-0.2l-0.8,0.8H27.5z"/>
									<g>
										<path class="st6" d="M30.2,26.5h-2.7l-0.8-0.8c0.1-0.1,0.2-0.2,0.2-0.2c0.2,0,0.4,0.1,0.5,0.2c0.1-0.2,0.4-1,1.4-1.3
											c1,0.3,1.4,1,1.4,1.3c0.2-0.1,0.6-0.3,0.8-0.1L30.2,26.5L30.2,26.5z M26.9,25.6c-0.1,0-0.1,0-0.2,0.1l0.8,0.7h2.6l0.8-0.8
											h-0.1c-0.2,0-0.5,0.2-0.5,0.2l-0.1,0.1v-0.1c0,0-0.3-0.9-1.4-1.3c-1,0.4-1.3,1.3-1.3,1.3v0.1l-0.1-0.1
											C27.4,25.8,27.1,25.6,26.9,25.6L26.9,25.6z"/>
									</g>
									<path class="st6" d="M27.5,28.1l-0.8-0.8c0.3-0.2,0.8,0.1,0.8,0.1s0.3-0.9,1.4-1.3c1.1,0.4,1.4,1.3,1.4,1.3
										s0.5-0.4,0.8-0.1l-0.8,0.8H27.5z"/>
									<g>
										<path class="st6" d="M30.2,28.1h-2.7l-0.8-0.8c0.1-0.1,0.2-0.2,0.2-0.2c0.2,0,0.4,0.1,0.5,0.2c0.1-0.2,0.4-0.9,1.4-1.3
											c1,0.3,1.4,1,1.4,1.3c0.2-0.1,0.6-0.3,0.8-0.1L30.2,28.1L30.2,28.1z M26.9,27.3c-0.1,0-0.1,0-0.2,0.1l0.8,0.7h2.6l0.8-0.8
											h-0.1c-0.2,0-0.5,0.2-0.5,0.2h-0.1v-0.1c0,0-0.3-0.9-1.4-1.3c-1.1,0.4-1.3,1.3-1.3,1.3v0.1h-0.1
											C27.4,27.5,27.1,27.3,26.9,27.3L26.9,27.3z"/>
									</g>
									<rect x="20.7" y="30.3" class="st6" width="0.6" height="2.5"/>
									<g>
										<path class="st6" d="M21.4,32.9h-0.6l-0.1-2.6l0.6-0.1L21.4,32.9L21.4,32.9z M21.3,30.3l-0.5,0.1l0.1,2.5l0.5-0.1v-2.5
											H21.3z"/>
									</g>
									<rect x="22.7" y="30.3" class="st6" width="0.6" height="2.5"/>
									<g>
										<path class="st6" d="M23.4,32.9h-0.6l-0.1-2.6l0.6-0.1L23.4,32.9L23.4,32.9z M23.2,30.3l-0.5,0.1l0.1,2.5l0.5-0.1v-2.5
											H23.2z"/>
									</g>
									<rect x="21.8" y="30.3" class="st6" width="0.6" height="2.5"/>
									<g>
										<path class="st6" d="M22.4,32.9h-0.6l-0.1-2.6l0.6-0.1L22.4,32.9L22.4,32.9z M22.3,30.3l-0.5,0.1l0.1,2.5l0.5-0.1v-2.5
											H22.3z"/>
									</g>
									<rect x="32.4" y="30.3" class="st6" width="0.6" height="2.5"/>
									<g>
										<path class="st6" d="M33,32.9h-0.6l-0.1-2.6l0.6-0.1L33,32.9L33,32.9z M32.9,30.3l-0.5,0.1l0.1,2.5l0.5-0.1L32.9,30.3
											L32.9,30.3z"/>
									</g>
									<rect x="36.4" y="30.3" class="st6" width="0.6" height="2.5"/>
									<g>
										<path class="st6" d="M37,32.9h-0.6l-0.1-2.6l0.6-0.1L37,32.9L37,32.9z M36.9,30.3l-0.5,0.1l0.1,2.5l0.5-0.1L36.9,30.3
											L36.9,30.3z"/>
									</g>
									<rect x="34.4" y="30.3" class="st6" width="0.6" height="2.5"/>
									<g>
										<path class="st6" d="M35,32.9h-0.6l-0.1-2.6l0.6-0.1L35,32.9L35,32.9z M34.9,30.3l-0.5,0.1l0.1,2.5l0.5-0.1L34.9,30.3
											L34.9,30.3z"/>
									</g>
									<rect x="33.4" y="30.3" class="st6" width="0.6" height="2.5"/>
									<g>
										<path class="st6" d="M34.1,32.9h-0.6l-0.1-2.6l0.6-0.1L34.1,32.9L34.1,32.9z M34,30.3l-0.5,0.1l0.1,2.5l0.5-0.1L34,30.3
											L34,30.3z"/>
									</g>
									<rect x="35.3" y="30.3" class="st6" width="0.6" height="2.5"/>
									<g>
										<path class="st6" d="M36,32.9h-0.6l-0.1-2.6l0.6-0.1L36,32.9L36,32.9z M35.8,30.3l-0.5,0.1l0.1,2.5l0.5-0.1L35.8,30.3
											L35.8,30.3z"/>
									</g>
									<rect x="24.7" y="30.3" class="st6" width="0.6" height="2.5"/>
									<g>
										<path class="st6" d="M25.4,32.9h-0.6l-0.1-2.6l0.6-0.1L25.4,32.9L25.4,32.9z M25.2,30.3l-0.5,0.1l0.1,2.5l0.5-0.1v-2.5
											H25.2z"/>
									</g>
									<rect x="23.7" y="30.3" class="st6" width="0.6" height="2.5"/>
									<g>
										<path class="st6" d="M24.3,32.9h-0.6l-0.1-2.6l0.6-0.1L24.3,32.9L24.3,32.9z M24.2,30.3l-0.5,0.1l0.1,2.5l0.5-0.1v-2.5
											H24.2z"/>
									</g>
									<rect x="28.2" y="18.8" class="st6" width="1.2" height="0.5"/>
									<g>
										<path class="st6" d="M29.5,19.3h-1.3l-0.1-0.5l1.3-0.1L29.5,19.3L29.5,19.3z M29.4,18.8l-1.2,0.1l0.1,0.4l1.1-0.1V18.8
											L29.4,18.8z"/>
									</g>
									<rect x="28.4" y="18.3" class="st6" width="0.9" height="0.4"/>
									<g>
										<path class="st6" d="M29.3,18.8h-1l-0.1-0.5l1-0.1L29.3,18.8L29.3,18.8z M29.2,18.3l-0.8,0.1l0.1,0.4l0.8-0.1v-0.4H29.2z"
											/>
									</g>
								</g>
								<rect x="-10.9" y="4.9" class="st7" width="79.4" height="46.3"/>
							</g>
						</g>
					</g>
				</g>
			</g>
		</g>
		<g id="ALMACEN" class="st8">
		</g>
		<g id="GUIAS" class="st8">
		</g>
	</g>
</g>
</svg>
