<?xml version="1.0" encoding="utf-8"?>
<!-- Generator: Adobe Illustrator 22.0.1, SVG Export Plug-In . SVG Version: 6.00 Build 0)  -->
<svg version="1.1" id="Layer_1" xmlns="http://www.w3.org/2000/svg" xmlns:xlink="http://www.w3.org/1999/xlink" x="0px" y="0px"
	 viewBox="0 0 259.6 233" style="enable-background:new 0 0 259.6 233;" xml:space="preserve">
<style type="text/css">
	.st0{fill:#FFFFFF;stroke:#231F20;stroke-width:4;stroke-miterlimit:10;}
	.st1{clip-path:url(#SVGID_2_);}
	.st2{fill:#00853F;}
	.st3{fill:#FDEF42;}
	.st4{fill:#E31B23;}
</style>
<path class="st0" d="M41.3,107.1c-5.6,54.9,42,100.7,99.5,95c42.3-3.8,76.7-36.6,81-77.3c5.6-54.6-42.3-100.3-99.5-95
	C79.7,33.9,45.6,66.7,41.3,107.1z"/>
<g>
	<defs>
		<path id="SVGID_1_" d="M207,117.1c0,40.7-33.8,73.7-75.5,73.7c-41.7,0-75.5-33-75.5-73.7c0-40.7,33.8-73.7,75.5-73.7
			C173.2,43.4,207,76.4,207,117.1z"/>
	</defs>
	<clipPath id="SVGID_2_">
		<use xlink:href="#SVGID_1_"  style="overflow:visible;"/>
	</clipPath>
	<g class="st1">
		<rect id="_x34__1_" x="13.4" y="38" class="st2" width="78.8" height="157.5"/>
		<rect id="_x33__1_" x="92.2" y="38" class="st3" width="78.8" height="157.5"/>
		<rect id="_x32__1_" x="170.9" y="38" class="st4" width="78.8" height="157.5"/>
		<polygon id="_x31__1_" class="st2" points="106.6,108.6 122,119.8 116.1,138 131.5,126.8 147,138 141.1,119.8 156.5,108.6 
			137.4,108.6 131.5,90.5 125.7,108.6 		"/>
	</g>
</g>
</svg>
