<?xml version="1.0" encoding="utf-8"?>
<!-- Generator: Adobe Illustrator 21.1.0, SVG Export Plug-In . SVG Version: 6.00 Build 0)  -->
<svg version="1.1" id="Layer_1" xmlns="http://www.w3.org/2000/svg" xmlns:xlink="http://www.w3.org/1999/xlink" x="0px" y="0px"
	 viewBox="0 0 176 176" style="enable-background:new 0 0 176 176;" xml:space="preserve">
<style type="text/css">
	.st0{fill:none;stroke:#3C2F16;stroke-width:5;stroke-linecap:round;stroke-miterlimit:10;}
	.st1{clip-path:url(#SVGID_2_);}
	.st2{fill:#00498F;}
	.st3{fill:#FFFFFF;}
	.st4{fill:#EC1B2E;}
</style>
<g>
	<g>
		<path class="st0" d="M4.1,79.3c-5.3,53.2,39.1,97.6,92.3,92.3c39.4-3.9,71.3-35.8,75.2-75.2c5.3-53.2-39.1-97.5-92.3-92.3
			C39.9,8,8,39.9,4.1,79.3z"/>
	</g>
	<g>
		<defs>
			<path id="SVGID_1_" d="M157.4,78.3c5.8,45.9-32.8,84.4-78.7,78.7c-31.3-3.9-56.5-29.2-60.4-60.4C12.5,50.7,51.1,12.2,97,17.9
				C128.2,21.8,153.5,47,157.4,78.3z"/>
		</defs>
		<clipPath id="SVGID_2_">
			<use xlink:href="#SVGID_1_"  style="overflow:visible;"/>
		</clipPath>
		<g class="st1">
			<rect x="-4.7" y="11.1" class="st2" width="180.9" height="172.2"/>
			<polygon class="st3" points="-4.7,32.1 14.3,32.1 -4.7,22.5 -4.7,17 6.2,17 32.9,30.3 32.9,17 47.9,17 47.9,30.3 74.6,17 
				85.6,17 85.6,22.5 66.4,32.1 85.6,32.1 85.6,47.2 66.4,47.2 85.6,56.7 85.6,62.2 74.6,62.2 47.9,48.9 47.9,62.2 32.9,62.2 
				32.9,48.9 6.2,62.2 -4.7,62.2 -4.7,56.7 14.3,47.2 -4.7,47.2 			"/>
			<g>
				<polygon class="st4" points="78.5,17 48.3,32.1 55.6,32.1 85.6,17 				"/>
				<polygon class="st4" points="85.6,62.2 55.5,47.2 62.8,47.2 85.6,58.6 				"/>
				<polygon class="st4" points="25.5,32.1 -4.7,17 -4.7,20.6 18.2,32.1 				"/>
				<polygon class="st4" points="25.4,47.2 -4.7,62.2 2.5,62.2 32.6,47.2 				"/>
				<polygon class="st4" points="-4.7,35.2 36.1,35.2 36.1,17 44.9,17 44.9,35.2 85.6,35.2 85.6,44 44.9,44 44.9,62.2 36.1,62.2 
					36.1,44 -4.7,44 				"/>
			</g>
			<g>
				<polygon class="st3" points="130.9,28.4 129.3,33.5 124,33.5 128.3,36.6 126.6,41.7 130.9,38.5 135.3,41.7 133.6,36.6 
					137.9,33.5 132.6,33.5 				"/>
				<polygon class="st3" points="110,49.4 108.4,54.5 103.1,54.5 107.4,57.6 105.7,62.7 110,59.5 114.3,62.7 112.7,57.6 117,54.5 
					111.7,54.5 				"/>
				<polygon class="st3" points="148.9,44.5 147.5,49.2 142.6,49.2 146.5,52.1 145,56.7 148.9,53.8 152.9,56.7 151.4,52 155.3,49.2 
					150.5,49.2 				"/>
				<polygon class="st3" points="130.9,82 129.1,87.6 123.1,87.6 128,91.1 126.1,96.8 130.9,93.3 135.8,96.8 133.9,91.1 138.8,87.6 
					132.8,87.6 				"/>
			</g>
			<g>
				<polygon class="st4" points="130.9,30.9 129.9,34.2 126.4,34.2 129.2,36.2 128.2,39.5 130.9,37.4 133.7,39.5 132.7,36.2 
					135.5,34.2 132,34.2 				"/>
				<polygon class="st4" points="110,51.9 109,55.2 105.5,55.2 108.3,57.2 107.3,60.5 110,58.4 112.8,60.5 111.8,57.2 114.6,55.2 
					111.1,55.2 				"/>
				<polygon class="st4" points="148.9,47.3 148.1,50 145.1,50 147.5,51.8 146.6,54.5 148.9,52.8 151.3,54.5 150.4,51.7 152.7,50 
					149.8,50 				"/>
				<polygon class="st4" points="130.9,84.6 129.7,88.4 125.7,88.4 129,90.8 127.7,94.6 130.9,92.3 134.2,94.6 132.9,90.8 
					136.2,88.5 132.2,88.5 				"/>
			</g>
		</g>
	</g>
</g>
</svg>
