<?xml version="1.0" encoding="utf-8"?>
<!-- Generator: Adobe Illustrator 21.1.0, SVG Export Plug-In . SVG Version: 6.00 Build 0)  -->
<svg version="1.1" id="Layer_1" xmlns="http://www.w3.org/2000/svg" xmlns:xlink="http://www.w3.org/1999/xlink" x="0px" y="0px"
	 viewBox="0 0 176 175" style="enable-background:new 0 0 176 175;" xml:space="preserve">
<style type="text/css">
	.st0{fill:none;stroke:#3C2F16;stroke-width:5;stroke-linecap:round;stroke-miterlimit:10;}
	.st1{clip-path:url(#SVGID_2_);fill:#01411C;}
	.st2{clip-path:url(#SVGID_2_);}
	.st3{fill:#FFFFFF;}
</style>
<g>
	<path class="st0" d="M4.4,79c-5.3,53.2,39.1,97.6,92.4,92.3c39.4-3.9,71.3-35.8,75.1-75.2c5.3-53.2-39.1-97.6-92.4-92.3
		C40.1,7.7,8.2,39.6,4.4,79z"/>
	<g>
		<defs>
			<circle id="SVGID_1_" cx="88.2" cy="87.4" r="69.7"/>
		</defs>
		<clipPath id="SVGID_2_">
			<use xlink:href="#SVGID_1_"  style="overflow:visible;"/>
		</clipPath>
		<rect x="-63.1" y="-9.1" class="st1" width="296.7" height="195.3"/>
		<g class="st2">
			<polygon class="st3" points="116.1,66.3 121.7,56.8 111.5,61.3 104,53.1 105.1,64 94.9,68.4 105.9,70.7 107,81.6 112.6,72.2 
				123.5,74.5 			"/>
			<path class="st3" d="M98.2,119.5c-23.9,0-43.3-19-43.3-42.5c0-14.1,7-26.6,17.8-34.4C53.2,48.6,39,66.4,39,87.5
				c0,25.9,21.4,46.9,47.8,46.9c20.4,0,37.7-12.5,44.6-30.1C123.5,113.6,111.6,119.5,98.2,119.5z"/>
		</g>
	</g>
</g>
</svg>
