<?xml version="1.0" encoding="utf-8"?>
<!-- Generator: Adobe Illustrator 20.1.0, SVG Export Plug-In . SVG Version: 6.00 Build 0)  -->
<svg version="1.0" id="Capa_1" xmlns="http://www.w3.org/2000/svg" xmlns:xlink="http://www.w3.org/1999/xlink" x="0px" y="0px"
	 viewBox="0 0 180 179.5" style="enable-background:new 0 0 180 179.5;" xml:space="preserve">
<style type="text/css">
	.st0{fill:none;stroke:#3C2F18;stroke-width:5;stroke-linecap:round;stroke-miterlimit:10;}
	.st1{clip-path:url(#SVGID_2_);}
	.st2{fill:#003580;}
	.st3{fill:#009543;}
	.st4{stroke:#FFFFFF;stroke-width:20;}
	.st5{stroke:#D21034;stroke-width:15;}
	.st6{fill:#FFCE00;}
</style>
<path class="st0" d="M6.2,81.2c-5.3,53.2,39.1,97.6,92.3,92.3c39.4-3.9,71.3-35.8,75.2-75.2C179,45.1,134.7,0.7,81.4,6
	C42,9.9,10.1,41.8,6.2,81.2z"/>
<g>
	<defs>
		<path id="SVGID_1_" d="M20.5,98.9c3.9,31.2,29.2,56.5,60.4,60.4c45.9,5.8,84.4-32.8,78.7-78.7c-3.9-31.3-29.2-56.5-60.4-60.4
			C96,19.8,93,19.6,90,19.6C48.3,19.6,15.1,56.1,20.5,98.9"/>
	</defs>
	<clipPath id="SVGID_2_">
		<use xlink:href="#SVGID_1_"  style="overflow:visible;"/>
	</clipPath>
	<g class="st1">
		<path class="st2" d="M241.1,17.8H18.3v151.1L241.1,17.8z"/>
		<path class="st3" d="M18.3,168.9h222.8V20.3L18.3,168.9z"/>
		<path class="st4" d="M18.3,168.9L241.1,20.3"/>
		<path class="st5" d="M18.3,168.9L241.1,20.3"/>
		<path class="st6" d="M62.9,85.6l3.8-10.4h-7.7L62.9,85.6z M38.1,60.8l10.4,3.8V57L38.1,60.8z M62.9,36l-3.8,10.4h7.7L62.9,36z
			 M87.7,60.8L77.2,57v7.7L87.7,60.8z M50.5,82.2l8.5-7.1l-6.7-3.8L50.5,82.2z M41.5,48.4l7.1,8.5l3.8-6.7L41.5,48.4z M75.3,39.4
			l-8.5,7.1l6.7,3.8L75.3,39.4z M84.3,73.2l-7.1-8.5l-3.8,6.7L84.3,73.2z M41.5,73.2l10.9-1.9l-3.8-6.7L41.5,73.2z M50.5,39.4
			l1.9,10.9l6.7-3.8L50.5,39.4z M84.3,48.4l-10.9,1.9l3.8,6.7L84.3,48.4z M75.3,82.2l-1.9-10.9l-6.7,3.8L75.3,82.2z M62.9,47.2
			c7.5,0,13.6,6.1,13.6,13.6c0,7.5-6.1,13.6-13.6,13.6s-13.6-6.1-13.6-13.6C49.3,53.3,55.4,47.2,62.9,47.2z"/>
	</g>
</g>
</svg>
