<?xml version="1.0" encoding="utf-8"?>
<!-- Generator: Adobe Illustrator 21.1.0, SVG Export Plug-In . SVG Version: 6.00 Build 0)  -->
<svg version="1.1" id="Layer_1" xmlns="http://www.w3.org/2000/svg" xmlns:xlink="http://www.w3.org/1999/xlink" x="0px" y="0px"
	 viewBox="0 0 184 181" style="enable-background:new 0 0 184 181;" xml:space="preserve">
<style type="text/css">
	.st0{clip-path:url(#SVGID_2_);}
	.st1{fill:#239F40;}
	.st2{fill:#FFFFFF;}
	.st3{fill:#DA0E15;}
	.st4{fill:#3D3019;}
</style>
<g>
	<defs>
		<path id="SVGID_1_" d="M23.1,91.8c0,38.9,31.1,70.5,69.5,70.5c38.4,0,69.5-31.6,69.5-70.5c0-38.9-31.1-70.5-69.5-70.5
			C54.2,21.3,23.1,52.9,23.1,91.8"/>
	</defs>
	<clipPath id="SVGID_2_">
		<use xlink:href="#SVGID_1_"  style="overflow:visible;"/>
	</clipPath>
	<g class="st0">
		<rect x="-28.6" y="21.3" class="st1" width="242.4" height="141"/>
	</g>
	<g class="st0">
		<rect x="-28.6" y="68.3" class="st2" width="242.4" height="47"/>
	</g>
	<g class="st0">
		<rect x="-28.6" y="115.3" class="st3" width="242.4" height="47"/>
	</g>
	<g class="st0">
		<path class="st2" d="M103,66.3h-5.7v-2.2h-2.9v0.8h2.2v1.4H93v-3.6h4.3v-2.2h1.4v4.4h0.8v-4.4h1.4v4.4h0.8v-4.4h1.4V66.3z
			 M92.2,66.3h-5.7v-2.2h-2.9v2.2h-1.4v-3.6h5.7v2.2h2.9v-0.8h-2.2v-1.4h3.6V66.3z M96.5,61.9H82.2v-1.4h14.3V61.9z"/>
	</g>
	<g class="st0">
		<path class="st2" d="M103,68.7H93v-1.4h10V68.7z M92.2,68.7h-10v-1.4h10V68.7z"/>
	</g>
	<g class="st0">
		<path class="st2" d="M103,123.1h-5.7v-2.2h-2.9v0.8h2.2v1.4H93v-3.6h4.3v-2.2h1.4v4.4h0.8v-4.4h1.4v4.4h0.8v-4.4h1.4V123.1z
			 M92.2,123.1h-5.7v-2.2h-2.9v2.2h-1.4v-3.6h5.7v2.2h2.9v-0.8h-2.2v-1.4h3.6V123.1z M96.5,118.7H82.2v-1.4h14.3V118.7z"/>
	</g>
	<g class="st0">
		<path class="st2" d="M103,116.3H93v-1.4h10V116.3z M92.2,116.3h-10v-1.4h10V116.3z"/>
	</g>
	<g class="st0">
		<path class="st2" d="M124.5,66.3h-5.7v-2.2h-2.9v0.8h2.2v1.4h-3.6v-3.6h4.3v-2.2h1.4v4.4h0.8v-4.4h1.4v4.4h0.8v-4.4h1.4V66.3z
			 M113.7,66.3H108v-2.2h-2.9v2.2h-1.4v-3.6h5.7v2.2h2.9v-0.8h-2.2v-1.4h3.6V66.3z M118.1,61.9h-14.3v-1.4h14.3V61.9z"/>
	</g>
	<g class="st0">
		<path class="st2" d="M124.5,68.7h-10v-1.4h10V68.7z M113.7,68.7h-10v-1.4h10V68.7z"/>
	</g>
	<g class="st0">
		<path class="st2" d="M124.5,123.1h-5.7v-2.2h-2.9v0.8h2.2v1.4h-3.6v-3.6h4.3v-2.2h1.4v4.4h0.8v-4.4h1.4v4.4h0.8v-4.4h1.4V123.1z
			 M113.7,123.1H108v-2.2h-2.9v2.2h-1.4v-3.6h5.7v2.2h2.9v-0.8h-2.2v-1.4h3.6V123.1z M118.1,118.7h-14.3v-1.4h14.3V118.7z"/>
	</g>
	<g class="st0">
		<path class="st2" d="M124.5,116.3h-10v-1.4h10V116.3z M113.7,116.3h-10v-1.4h10V116.3z"/>
	</g>
	<g class="st0">
		<path class="st2" d="M59.9,66.3h-5.7v-2.2h-2.9v0.8h2.2v1.4h-3.6v-3.6h4.3v-2.2h1.4v4.4h0.8v-4.4h1.4v4.4h0.8v-4.4h1.4V66.3z
			 M49.1,66.3h-5.7v-2.2h-2.9v2.2h-1.4v-3.6h5.7v2.2h2.9v-0.8h-2.2v-1.4h3.6V66.3z M53.4,61.9H39.1v-1.4h14.3V61.9z"/>
	</g>
	<g class="st0">
		<path class="st2" d="M59.9,68.7h-10v-1.4h10V68.7z M49.1,68.7h-10v-1.4h10V68.7z"/>
	</g>
	<g class="st0">
		<path class="st2" d="M59.9,123.1h-5.7v-2.2h-2.9v0.8h2.2v1.4h-3.6v-3.6h4.3v-2.2h1.4v4.4h0.8v-4.4h1.4v4.4h0.8v-4.4h1.4V123.1z
			 M49.1,123.1h-5.7v-2.2h-2.9v2.2h-1.4v-3.6h5.7v2.2h2.9v-0.8h-2.2v-1.4h3.6V123.1z M53.4,118.7H39.1v-1.4h14.3V118.7z"/>
	</g>
	<g class="st0">
		<path class="st2" d="M59.9,116.3h-10v-1.4h10V116.3z M49.1,116.3h-10v-1.4h10V116.3z"/>
	</g>
	<g class="st0">
		<path class="st2" d="M81.4,66.3h-5.7v-2.2h-2.9v0.8H75v1.4h-3.6v-3.6h4.3v-2.2h1.4v4.4h0.8v-4.4h1.4v4.4H80v-4.4h1.4V66.3z
			 M70.6,66.3h-5.7v-2.2H62v2.2h-1.4v-3.6h5.7v2.2h2.9v-0.8h-2.2v-1.4h3.6V66.3z M75,61.9H60.6v-1.4H75V61.9z"/>
	</g>
	<g class="st0">
		<path class="st2" d="M81.4,68.7h-10v-1.4h10V68.7z M70.6,68.7h-10v-1.4h10V68.7z"/>
	</g>
	<g class="st0">
		<path class="st2" d="M81.4,123.1h-5.7v-2.2h-2.9v0.8H75v1.4h-3.6v-3.6h4.3v-2.2h1.4v4.4h0.8v-4.4h1.4v4.4H80v-4.4h1.4V123.1z
			 M70.6,123.1h-5.7v-2.2H62v2.2h-1.4v-3.6h5.7v2.2h2.9v-0.8h-2.2v-1.4h3.6V123.1z M75,118.7H60.6v-1.4H75V118.7z"/>
	</g>
	<g class="st0">
		<path class="st2" d="M81.4,116.3h-10v-1.4h10V116.3z M70.6,116.3h-10v-1.4h10V116.3z"/>
	</g>
	<g class="st0">
		<path class="st2" d="M189.2,66.3h-5.7v-2.2h-2.9v0.8h2.2v1.4h-3.6v-3.6h4.3v-2.2h1.4v4.4h0.8v-4.4h1.4v4.4h0.8v-4.4h1.4V66.3z
			 M178.4,66.3h-5.7v-2.2h-2.9v2.2h-1.4v-3.6h5.7v2.2h2.9v-0.8h-2.2v-1.4h3.6V66.3z M182.7,61.9h-14.3v-1.4h14.3V61.9z"/>
	</g>
	<g class="st0">
		<path class="st2" d="M189.2,68.7h-10v-1.4h10V68.7z M178.4,68.7h-10v-1.4h10V68.7z"/>
	</g>
	<g class="st0">
		<path class="st2" d="M189.2,123.1h-5.7v-2.2h-2.9v0.8h2.2v1.4h-3.6v-3.6h4.3v-2.2h1.4v4.4h0.8v-4.4h1.4v4.4h0.8v-4.4h1.4V123.1z
			 M178.4,123.1h-5.7v-2.2h-2.9v2.2h-1.4v-3.6h5.7v2.2h2.9v-0.8h-2.2v-1.4h3.6V123.1z M182.7,118.7h-14.3v-1.4h14.3V118.7z"/>
	</g>
	<g class="st0">
		<path class="st2" d="M189.2,116.3h-10v-1.4h10V116.3z M178.4,116.3h-10v-1.4h10V116.3z"/>
	</g>
	<g class="st0">
		<path class="st2" d="M210.7,66.3H205v-2.2h-2.9v0.8h2.2v1.4h-3.6v-3.6h4.3v-2.2h1.4v4.4h0.8v-4.4h1.4v4.4h0.8v-4.4h1.4V66.3z
			 M199.9,66.3h-5.7v-2.2h-2.9v2.2h-1.4v-3.6h5.7v2.2h2.9v-0.8h-2.2v-1.4h3.6V66.3z M204.3,61.9h-14.3v-1.4h14.3V61.9z"/>
	</g>
	<g class="st0">
		<path class="st2" d="M210.7,68.7h-10v-1.4h10V68.7z M199.9,68.7h-10v-1.4h10V68.7z"/>
	</g>
	<g class="st0">
		<path class="st2" d="M210.7,123.1H205v-2.2h-2.9v0.8h2.2v1.4h-3.6v-3.6h4.3v-2.2h1.4v4.4h0.8v-4.4h1.4v4.4h0.8v-4.4h1.4V123.1z
			 M199.9,123.1h-5.7v-2.2h-2.9v2.2h-1.4v-3.6h5.7v2.2h2.9v-0.8h-2.2v-1.4h3.6V123.1z M204.3,118.7h-14.3v-1.4h14.3V118.7z"/>
	</g>
	<g class="st0">
		<path class="st2" d="M210.7,116.3h-10v-1.4h10V116.3z M199.9,116.3h-10v-1.4h10V116.3z"/>
	</g>
	<g class="st0">
		<path class="st2" d="M146.1,66.3h-5.7v-2.2h-2.9v0.8h2.2v1.4h-3.6v-3.6h4.3v-2.2h1.4v4.4h0.8v-4.4h1.4v4.4h0.8v-4.4h1.4V66.3z
			 M135.3,66.3h-5.7v-2.2h-2.9v2.2h-1.4v-3.6h5.7v2.2h2.9v-0.8h-2.2v-1.4h3.6V66.3z M139.6,61.9h-14.3v-1.4h14.3V61.9z"/>
	</g>
	<g class="st0">
		<path class="st2" d="M146.1,68.7h-10v-1.4h10V68.7z M135.3,68.7h-10v-1.4h10V68.7z"/>
	</g>
	<g class="st0">
		<path class="st2" d="M146.1,123.1h-5.7v-2.2h-2.9v0.8h2.2v1.4h-3.6v-3.6h4.3v-2.2h1.4v4.4h0.8v-4.4h1.4v4.4h0.8v-4.4h1.4V123.1z
			 M135.3,123.1h-5.7v-2.2h-2.9v2.2h-1.4v-3.6h5.7v2.2h2.9v-0.8h-2.2v-1.4h3.6V123.1z M139.6,118.7h-14.3v-1.4h14.3V118.7z"/>
	</g>
	<g class="st0">
		<path class="st2" d="M146.1,116.3h-10v-1.4h10V116.3z M135.3,116.3h-10v-1.4h10V116.3z"/>
	</g>
	<g class="st0">
		<path class="st2" d="M167.6,66.3h-5.7v-2.2H159v0.8h2.2v1.4h-3.6v-3.6h4.3v-2.2h1.4v4.4h0.8v-4.4h1.4v4.4h0.8v-4.4h1.4V66.3z
			 M156.8,66.3h-5.7v-2.2h-2.9v2.2h-1.4v-3.6h5.7v2.2h2.9v-0.8h-2.2v-1.4h3.6V66.3z M161.2,61.9h-14.3v-1.4h14.3V61.9z"/>
	</g>
	<g class="st0">
		<path class="st2" d="M167.6,68.7h-10v-1.4h10V68.7z M156.8,68.7h-10v-1.4h10V68.7z"/>
	</g>
	<g class="st0">
		<path class="st2" d="M167.6,123.1h-5.7v-2.2H159v0.8h2.2v1.4h-3.6v-3.6h4.3v-2.2h1.4v4.4h0.8v-4.4h1.4v4.4h0.8v-4.4h1.4V123.1z
			 M156.8,123.1h-5.7v-2.2h-2.9v2.2h-1.4v-3.6h5.7v2.2h2.9v-0.8h-2.2v-1.4h3.6V123.1z M161.2,118.7h-14.3v-1.4h14.3V118.7z"/>
	</g>
	<g class="st0">
		<path class="st2" d="M167.6,116.3h-10v-1.4h10V116.3z M156.8,116.3h-10v-1.4h10V116.3z"/>
	</g>
	<g class="st0">
		<path class="st2" d="M38.3,66.3h-5.7v-2.2h-2.9v0.8h2.2v1.4h-3.6v-3.6h4.3v-2.2H34v4.4h0.8v-4.4h1.4v4.4h0.8v-4.4h1.4V66.3z
			 M27.5,66.3h-5.7v-2.2h-2.9v2.2h-1.4v-3.6h5.7v2.2h2.9v-0.8H24v-1.4h3.6V66.3z M31.9,61.9H17.5v-1.4h14.3V61.9z"/>
	</g>
	<g class="st0">
		<path class="st2" d="M38.3,68.7h-10v-1.4h10V68.7z M27.5,68.7h-10v-1.4h10V68.7z"/>
	</g>
	<g class="st0">
		<path class="st2" d="M38.3,123.1h-5.7v-2.2h-2.9v0.8h2.2v1.4h-3.6v-3.6h4.3v-2.2H34v4.4h0.8v-4.4h1.4v4.4h0.8v-4.4h1.4V123.1z
			 M27.5,123.1h-5.7v-2.2h-2.9v2.2h-1.4v-3.6h5.7v2.2h2.9v-0.8H24v-1.4h3.6V123.1z M31.9,118.7H17.5v-1.4h14.3V118.7z"/>
	</g>
	<g class="st0">
		<path class="st2" d="M38.3,116.3h-10v-1.4h10V116.3z M27.5,116.3h-10v-1.4h10V116.3z"/>
	</g>
	<g class="st0">
		<path class="st2" d="M-4.8,66.3h-5.7v-2.2h-2.9v0.8h2.2v1.4h-3.6v-3.6h4.3v-2.2h1.4v4.4h0.8v-4.4h1.4v4.4h0.8v-4.4h1.4V66.3z
			 M-15.6,66.3h-5.7v-2.2h-2.9v2.2h-1.4v-3.6h5.7v2.2h2.9v-0.8h-2.2v-1.4h3.6V66.3z M-11.2,61.9h-14.3v-1.4h14.3V61.9z"/>
	</g>
	<g class="st0">
		<path class="st2" d="M-4.8,68.7h-10v-1.4h10V68.7z M-15.6,68.7h-10v-1.4h10V68.7z"/>
	</g>
	<g class="st0">
		<path class="st2" d="M-4.8,123.1h-5.7v-2.2h-2.9v0.8h2.2v1.4h-3.6v-3.6h4.3v-2.2h1.4v4.4h0.8v-4.4h1.4v4.4h0.8v-4.4h1.4V123.1z
			 M-15.6,123.1h-5.7v-2.2h-2.9v2.2h-1.4v-3.6h5.7v2.2h2.9v-0.8h-2.2v-1.4h3.6V123.1z M-11.2,118.7h-14.3v-1.4h14.3V118.7z"/>
	</g>
	<g class="st0">
		<path class="st2" d="M-4.8,116.3h-10v-1.4h10V116.3z M-15.6,116.3h-10v-1.4h10V116.3z"/>
	</g>
	<g class="st0">
		<path class="st2" d="M16.8,66.3h-5.7v-2.2H8.1v0.8h2.2v1.4H6.8v-3.6h4.3v-2.2h1.4v4.4h0.8v-4.4h1.4v4.4h0.8v-4.4h1.4V66.3z
			 M6,66.3H0.3v-2.2h-2.9v2.2H-4v-3.6h5.7v2.2h2.9v-0.8H2.4v-1.4H6V66.3z M10.3,61.9H-4v-1.4h14.3V61.9z"/>
	</g>
	<g class="st0">
		<path class="st2" d="M16.8,68.7h-10v-1.4h10V68.7z M6,68.7H-4v-1.4H6V68.7z"/>
	</g>
	<g class="st0">
		<path class="st2" d="M16.8,123.1h-5.7v-2.2H8.1v0.8h2.2v1.4H6.8v-3.6h4.3v-2.2h1.4v4.4h0.8v-4.4h1.4v4.4h0.8v-4.4h1.4V123.1z
			 M6,123.1H0.3v-2.2h-2.9v2.2H-4v-3.6h5.7v2.2h2.9v-0.8H2.4v-1.4H6V123.1z M10.3,118.7H-4v-1.4h14.3V118.7z"/>
	</g>
	<g class="st0">
		<path class="st2" d="M16.8,116.3h-10v-1.4h10V116.3z M6,116.3H-4v-1.4H6V116.3z"/>
	</g>
	<g class="st0">
		<path class="st3" d="M99.6,79.2c0,0,12.5,10,3.3,24.3C111.6,98.1,112.4,83.3,99.6,79.2"/>
	</g>
	<g class="st0">
		<path class="st3" d="M92.6,77.8c-2,2.3-5.4,0-4.2-2.5c2.1,3.8,4.2,0.7,4.2,0.7s2.2,3,4.2-0.7C98,77.8,94.6,80.1,92.6,77.8"/>
	</g>
	<g class="st0">
		<path class="st3" d="M92.6,108.9l-1.4-1.9c0,0-3.4,1.1-7.8-0.4c3.6,0,5.7-0.7,6.4-1c0,0-8.2-4.5-8.1-13.7
			c0.5-9.3,5.4-12.2,5.4-12.2s-8.7,12.9,4.1,23.6l-0.6-13.3v-9.8c0.7-0.2,2-1.7,2-1.7s1.3,1.6,2,1.7v9.8l-0.6,13.3
			c12.7-10.8,4.1-23.6,4.1-23.6s4.9,2.8,5.4,12.2c0.2,9.2-8.1,13.7-8.1,13.7c0.8,0.4,2.8,1,6.4,1c-4.4,1.6-7.8,0.4-7.8,0.4
			L92.6,108.9L92.6,108.9z"/>
	</g>
	<g class="st0">
		<path class="st3" d="M85.5,79.2c0,0-12.5,10-3.3,24.3C73.5,98.1,72.8,83.3,85.5,79.2"/>
	</g>
</g>
<g>
	<path class="st4" d="M92.7,178.5c-23,0-45-9-61.4-25.4C12.8,134.6,3.7,109.1,6.3,83c1.9-19.6,10.8-38.2,25-52.4
		c14.2-14.2,32.8-23,52.4-25c26.1-2.6,51.7,6.5,70.1,24.9c18.4,18.4,27.5,44,25,70.1c-1.9,19.6-10.8,38.2-25,52.4s-32.8,23-52.4,25
		C98.5,178.3,95.6,178.5,92.7,178.5z M92.5,10.1c-2.7,0-5.5,0.1-8.3,0.4c-18.5,1.8-36,10.2-49.4,23.5C21.5,47.4,13.1,65,11.3,83.4
		l0,0c-2.4,24.6,6.1,48.7,23.5,66.1C50.2,165,71,173.5,92.7,173.5c2.7,0,5.5-0.1,8.2-0.4c18.5-1.8,36-10.2,49.4-23.6
		c13.4-13.4,21.7-30.9,23.6-49.4c2.4-24.6-6.1-48.7-23.5-66.1C134.9,18.6,114.2,10.1,92.5,10.1z M8.8,83.2L8.8,83.2L8.8,83.2z"/>
</g>
</svg>
