<?xml version="1.0" encoding="utf-8"?>
<!-- Generator: Adobe Illustrator 21.0.2, SVG Export Plug-In . SVG Version: 6.00 Build 0)  -->
<svg version="1.1" xmlns="http://www.w3.org/2000/svg" xmlns:xlink="http://www.w3.org/1999/xlink" x="0px" y="0px"
	 viewBox="0 0 57.4 57.9" style="enable-background:new 0 0 57.4 57.9;" xml:space="preserve">
<style type="text/css">
	.st0{opacity:0.8;fill:#FCC549;}
	.st1{fill:#FFFFFF;}
	.st2{fill:none;stroke:#73629A;stroke-width:2;stroke-linecap:round;stroke-miterlimit:10;}
	.st3{fill:#73629A;stroke:#73629A;stroke-miterlimit:10;}
	.st4{fill:#FFFFFF;stroke:#73629A;stroke-width:2;stroke-linecap:round;stroke-miterlimit:10;}
	.st5{fill:#FFFFFF;stroke:#FFFFFF;stroke-width:9;stroke-miterlimit:10;}
	.st6{fill:#6CC5DB;}
	.st7{fill:#73629A;}
	.st8{fill:#F5C153;}
	.st9{fill:#FFFFFF;stroke:#8778B3;stroke-miterlimit:10;}
	.st10{clip-path:url(#SVGID_2_);}
	.st11{clip-path:url(#SVGID_4_);fill:#C73B3C;}
	.st12{clip-path:url(#SVGID_4_);fill:#ECD652;}
	.st13{clip-path:url(#SVGID_4_);fill:#336B44;}
	.st14{clip-path:url(#SVGID_4_);}
	.st15{clip-path:url(#SVGID_6_);fill:#55A0CE;}
	.st16{clip-path:url(#SVGID_6_);fill:#ECD652;}
	.st17{clip-path:url(#SVGID_6_);}
	.st18{fill:#ECD652;}
	.st19{clip-path:url(#SVGID_8_);}
	.st20{fill-rule:evenodd;clip-rule:evenodd;}
	.st21{fill-rule:evenodd;clip-rule:evenodd;fill:#FFFFFF;}
	.st22{fill-rule:evenodd;clip-rule:evenodd;fill:#E42535;}
	.st23{fill-rule:evenodd;clip-rule:evenodd;fill:#CACACA;}
	.st24{fill-rule:evenodd;clip-rule:evenodd;fill:#F4C343;}
	.st25{clip-path:url(#SVGID_10_);}
	.st26{fill:#E42535;}
	.st27{fill:#179F56;}
	.st28{fill:#EDCA50;}
	.st29{fill:none;}
	.st30{clip-path:url(#SVGID_12_);}
	.st31{clip-path:url(#SVGID_14_);fill:#C32732;}
	.st32{clip-path:url(#SVGID_14_);fill:#F1D74F;}
	.st33{clip-path:url(#SVGID_16_);}
	.st34{clip-path:url(#SVGID_20_);fill:#FFFFFF;}
	.st35{opacity:0.75;clip-path:url(#SVGID_20_);fill:#F90D1B;}
	.st36{clip-path:url(#SVGID_20_);fill:#030C7E;}
	.st37{clip-path:url(#SVGID_24_);}
	.st38{clip-path:url(#SVGID_26_);fill:#34448C;}
	.st39{clip-path:url(#SVGID_26_);fill:#FFFFFF;}
	.st40{clip-path:url(#SVGID_26_);fill:#CF273D;}
	.st41{clip-path:url(#SVGID_28_);}
	.st42{fill:#2978B3;}
	.st43{clip-path:url(#SVGID_30_);}
	.st44{clip-path:url(#SVGID_32_);fill:#3D8156;}
	.st45{clip-path:url(#SVGID_32_);fill:#FFFFFF;}
	.st46{clip-path:url(#SVGID_34_);}
	.st47{clip-path:url(#SVGID_36_);fill:#C32732;}
	.st48{clip-path:url(#SVGID_36_);fill:#F1D74F;}
	.st49{clip-path:url(#SVGID_38_);}
	.st50{clip-path:url(#SVGID_40_);fill:#FFFFFF;}
	.st51{clip-path:url(#SVGID_40_);fill:#316738;}
	.st52{clip-path:url(#SVGID_40_);}
	.st53{clip-path:url(#SVGID_42_);fill:#FFFFFF;}
	.st54{clip-path:url(#SVGID_42_);fill:#316738;}
	.st55{clip-path:url(#SVGID_44_);}
	.st56{clip-path:url(#SVGID_46_);fill:#AD2434;}
	.st57{clip-path:url(#SVGID_46_);fill:#EEBD49;}
	.st58{clip-path:url(#SVGID_46_);}
	.st59{fill:#95202E;}
	.st60{fill:#BCAB47;}
	.st61{fill:#43896F;}
	.st62{fill:#3F5FA1;}
	.st63{fill:#C6C6C6;}
	.st64{fill:#BAAE48;}
	.st65{fill:#C24250;}
	.st66{fill:#D66FA2;}
	.st67{fill:#F1CF95;}
	.st68{fill:#47569B;}
	.st69{clip-path:url(#SVGID_48_);fill:#3F5FA1;}
	.st70{clip-path:url(#SVGID_50_);}
	.st71{fill:#314490;}
	.st72{fill:#B4253A;}
	.st73{clip-path:url(#SVGID_52_);}
	.st74{clip-path:url(#SVGID_54_);fill:#428C4A;}
	.st75{clip-path:url(#SVGID_54_);fill:#E7BB46;}
	.st76{clip-path:url(#SVGID_54_);}
	.st77{clip-path:url(#SVGID_56_);fill:#302B68;}
	.st78{clip-path:url(#SVGID_56_);fill:#FFFFFF;}
	.st79{clip-path:url(#SVGID_56_);}
	.st80{fill-rule:evenodd;clip-rule:evenodd;fill:#428C4A;}
	.st81{clip-path:url(#SVGID_58_);}
	.st82{clip-path:url(#SVGID_60_);fill:#FFFFFF;}
	.st83{clip-path:url(#SVGID_60_);fill:#4E9A4F;}
	.st84{clip-path:url(#SVGID_60_);fill:#BE2632;}
	.st85{clip-path:url(#SVGID_60_);}
	.st86{clip-path:url(#SVGID_62_);fill:#BE2632;}
	.st87{clip-path:url(#SVGID_62_);fill:#FFFFFF;}
	.st88{clip-path:url(#SVGID_64_);}
	.st89{clip-path:url(#SVGID_66_);fill:#FFFFFF;}
	.st90{clip-path:url(#SVGID_66_);}
	.st91{clip-path:url(#SVGID_66_);fill:#316738;}
	.st92{clip-path:url(#SVGID_68_);}
	.st93{fill:#8778B3;}
	.st94{clip-path:url(#SVGID_68_);fill:#FFFFFF;}
	.st95{clip-path:url(#SVGID_68_);fill:#A2232B;}
	.st96{clip-path:url(#SVGID_70_);}
	.st97{clip-path:url(#SVGID_72_);fill:#6080B9;}
	.st98{clip-path:url(#SVGID_72_);fill:#FFFFFF;}
	.st99{clip-path:url(#SVGID_74_);}
	.st100{clip-path:url(#SVGID_76_);fill:#FFFFFF;}
	.st101{clip-path:url(#SVGID_76_);fill:#E8904F;}
	.st102{clip-path:url(#SVGID_76_);fill:#428447;}
	.st103{clip-path:url(#SVGID_76_);}
	.st104{clip-path:url(#SVGID_78_);fill:#2B2C70;}
	.st105{clip-path:url(#SVGID_78_);fill:#FFFFFF;}
	.st106{clip-path:url(#SVGID_80_);}
	.st107{clip-path:url(#SVGID_82_);fill:#CF273D;}
	.st108{clip-path:url(#SVGID_82_);fill:#FFFFFF;}
	.st109{clip-path:url(#SVGID_84_);}
	.st110{clip-path:url(#SVGID_86_);fill:#C82635;}
	.st111{clip-path:url(#SVGID_86_);}
	.st112{clip-path:url(#SVGID_88_);fill:#FFFFFF;}
	.st113{clip-path:url(#SVGID_88_);fill:#C82635;}
	.st114{clip-path:url(#SVGID_90_);}
	.st115{clip-path:url(#SVGID_92_);}
	.st116{fill:#2F3480;}
	.st117{fill:#B2252F;}
	.st118{fill:#FFFFFF;stroke:#B2252F;stroke-width:0.1;stroke-miterlimit:10;}
	.st119{opacity:0.7;fill:#73BFD3;}
	.st120{fill:#FFFFFF;stroke:#FFFFFF;stroke-width:4;stroke-miterlimit:10;}
	.st121{clip-path:url(#SVGID_94_);fill:#2A3F84;}
	.st122{clip-path:url(#SVGID_94_);fill:#B4253A;}
	.st123{clip-path:url(#SVGID_94_);}
	.st124{clip-path:url(#SVGID_96_);fill:#FFFFFF;}
	.st125{fill:none;stroke:#F0BC5C;stroke-width:2;stroke-linecap:round;stroke-miterlimit:10;}
	.st126{opacity:0.8;fill:#FFFFFF;}
	.st127{fill:#AFE6EF;}
	.st128{fill:#AFE6EF;stroke:#73629A;stroke-width:2;stroke-linecap:round;stroke-miterlimit:10;}
	.st129{fill:#FCC549;}
	.st130{opacity:0.9;fill:#FFFFFF;}
	.st131{opacity:0.8;}
	.st132{display:none;}
	.st133{display:inline;}
	.st134{fill:#FFE2C9;}
	.st135{fill:none;stroke:#FCC549;stroke-width:2;stroke-linecap:round;stroke-miterlimit:10;}
	.st136{fill:none;stroke:#FFFFFF;stroke-miterlimit:10;}
	.st137{fill:#FFFFFF;stroke:#FFFFFF;stroke-miterlimit:10;}
	.st138{fill:none;stroke:#3C2F16;stroke-width:2;stroke-linecap:round;stroke-miterlimit:10;}
	.st139{fill:#DEE7FF;}
	.st140{fill:#3C2F16;}
	.st141{fill:none;stroke:#3C2F16;stroke-width:2;stroke-linecap:round;stroke-miterlimit:10;stroke-dasharray:9.9901,4.995;}
	.st142{fill:#B4CAF6;}
</style>
<g id="MESA_DE_TRABAJO">
	<g>
		<path class="st9" d="M1.4,26.1C-0.3,43.5,14.1,58,31.5,56.2C44.3,55,54.7,44.6,56,31.7C57.7,14.4,43.2-0.1,25.9,1.6
			C13,2.9,2.7,13.3,1.4,26.1z"/>
		<g>
			<defs>
				<path id="SVGID_7_" d="M51.4,26c1.9,15-10.7,27.5-25.6,25.6C15.5,50.3,7.3,42.1,6,31.9C4.1,17,16.7,4.4,31.7,6.3
					C41.8,7.5,50.1,15.8,51.4,26z"/>
			</defs>
			<clipPath id="SVGID_2_">
				<use xlink:href="#SVGID_7_"  style="overflow:visible;"/>
			</clipPath>
			<g class="st10">
				<path class="st20" d="M-10.4,54.2h77.1l0-51.3h-77.1V54.2L-10.4,54.2z M66.8,54.3v-0.2V54.3L66.8,54.3z M-10.7,54.5V2.6H67v51.7
					v0.2H-10.7L-10.7,54.5z"/>
				<polygon class="st20" points="-10.6,54.3 66.8,54.3 66.8,37.1 -10.6,37.1 -10.6,54.3 				"/>
				<polygon class="st21" points="-10.6,19.9 -10.6,37.1 66.8,37.1 66.8,19.9 -10.6,19.9 				"/>
				<polygon class="st22" points="66.8,2.8 -10.6,2.8 -10.6,19.9 66.8,19.9 66.8,2.8 				"/>
				<path class="st21" d="M29.1,24.7l0.8,0.2c0,0-0.9-1.2-0.6-2.2c0.3-1.3,0-1.8-0.6-2c-0.4-0.1-0.6-0.1-0.8,0l-0.4,0.3l-0.5-0.2
					c-0.2,0-0.5,0-0.5,0.5l0.1-0.1l0.5,0.2c0.1,0.1,0.3,0.6,0.4,1.1c0.1,1-1,2.3-1,2.3l0.8-0.2l-0.3,0.4c0.4-0.1,0.9-0.5,0.9-0.5
					l0.3,0.4l0.3-0.4c0,0,0.5,0.4,0.9,0.5L29.1,24.7L29.1,24.7z"/>
				<path class="st21" d="M27.2,24.8c0,0,0.6-0.7,0.4-1.4L27.2,24.8L27.2,24.8z"/>
				<path class="st21" d="M29.1,24.8c0,0-0.6-0.7-0.4-1.4L29.1,24.8L29.1,24.8z"/>
				<polygon class="st21" points="26.5,34.5 24.4,33.8 26.2,28.7 28,29.9 26.5,34.5 				"/>
				<polygon class="st21" points="25.7,30.2 25.9,30.7 26.5,30.2 25.7,30.2 				"/>
				<polygon class="st21" points="26.4,29.3 26.6,31.2 27.2,30.4 26.4,29.3 				"/>
				<polygon class="st21" points="27.1,30.6 27.5,31.3 27.1,30.6 				"/>
				<polygon class="st21" points="25.2,31.5 25.8,31.2 26,31.9 26.4,31.3 26.7,32.4 27.3,32 25.2,31.5 				"/>
				<polygon class="st21" points="25,32.2 25.3,33 25.9,32.5 26.1,33.3 26.7,32.7 26.9,33.4 25,32.2 				"/>
				<polygon class="st21" points="24.5,33.8 25.2,33.2 25.4,34 26,33.6 26.1,34.3 26.8,33.6 24.5,33.8 				"/>
				<polygon class="st21" points="29.7,34.5 31.9,33.8 30.1,28.7 28.3,29.9 29.7,34.5 				"/>
				<polygon class="st21" points="30.6,30.2 30.4,30.7 29.8,30.2 30.6,30.2 				"/>
				<polygon class="st21" points="29.9,29.3 29.7,31.2 29,30.4 29.9,29.3 				"/>
				<polygon class="st21" points="29.2,30.6 28.8,31.4 29.2,30.6 				"/>
				<polygon class="st21" points="31,31.5 30.5,31.2 30.3,31.9 29.9,31.3 29.6,32.5 29,32 31,31.5 				"/>
				<polygon class="st21" points="31.3,32.3 31,33 30.4,32.5 30.2,33.3 29.6,32.7 29.4,33.4 31.3,32.3 				"/>
				<polygon class="st21" points="31.7,33.8 31,33.3 30.9,34 30.3,33.6 30.2,34.3 29.5,33.6 31.7,33.8 				"/>
				<path class="st21" d="M30.4,34c-0.5,0.1-1.1,0.1-1.6,0.1c-0.3,0-0.5,0.4,0.1,0.5c0.5,0.1,1.2,0,1.6-0.1c0.3-0.1,1-0.2,1.5-0.3
					c0.5-0.2,0.1-0.6-0.1-0.5C31.4,33.8,30.9,34,30.4,34L30.4,34z"/>
				<path class="st23" d="M30.4,34L30.4,34c-0.4,0-0.8,0-1.2,0l-0.4,0l-0.3,0.3l0.4,0.3l0.5,0c0.4,0,0.8,0,1.1-0.1
					c0.3-0.1,1.1-0.2,1.5-0.3l0.3-0.3l-0.4-0.3l-0.1,0C31.4,33.8,30.9,33.9,30.4,34L30.4,34L30.4,34c0.5,0,1.1-0.1,1.5-0.3l0,0
					l0.2,0.2l-0.2,0.2c-0.4,0.1-1.2,0.3-1.5,0.3c-0.3,0-0.7,0.1-1.1,0.1l-0.4,0l-0.3-0.2l0.2-0.2l0.4,0C29.6,34.2,30,34.1,30.4,34
					L30.4,34L30.4,34z"/>
				<polygon class="st21" points="30.7,34.5 30.5,35 30.2,34.5 30.4,34.2 30.7,34.5 				"/>
				<path class="st21" d="M28.8,34.6c0,0.2-0.2,0.1-0.3,0.5l-0.2-0.5l0.3-0.3L28.8,34.6L28.8,34.6z"/>
				<polygon class="st21" points="32,34.3 32.4,34.6 32.4,34 32,33.8 32,34.3 				"/>
				<path class="st21" d="M26,34c0.5,0.1,1.1,0.1,1.6,0.1c0.3,0,0.5,0.4-0.1,0.5c-0.5,0.1-1.2,0-1.6-0.1c-0.3-0.1-1-0.2-1.5-0.3
					c-0.5-0.2-0.1-0.6,0.1-0.5C24.9,33.8,25.4,34,26,34L26,34z"/>
				<path class="st23" d="M26,34L26,34c0.4,0.1,0.8,0.1,1.2,0.1l0.4,0l0.2,0.2l-0.3,0.2l-0.4,0c-0.4,0-0.8,0-1.1-0.1
					c-0.3-0.1-1-0.2-1.5-0.3L24.2,34l0.3-0.2l0,0C24.9,33.9,25.4,34,26,34L26,34L26,34c-0.5-0.1-1-0.2-1.4-0.4l-0.1,0L24.1,34
					l0.3,0.3c0.5,0.1,1.2,0.3,1.5,0.3c0.3,0,0.7,0.1,1.1,0.1l0.5,0l0.4-0.3l-0.3-0.3l-0.4,0C26.7,34.1,26.3,34,26,34L26,34L26,34z"
					/>
				<polygon class="st21" points="25.6,34.5 25.8,35 26.1,34.5 25.9,34.2 25.6,34.5 				"/>
				<path class="st21" d="M27.5,34.6c0,0.2,0.2,0.1,0.3,0.5l0.2-0.5l-0.3-0.3L27.5,34.6L27.5,34.6z"/>
				<polygon class="st21" points="24.3,34.3 23.9,34.6 23.9,34 24.3,33.8 24.3,34.3 				"/>
				<path class="st21" d="M28.2,25.4c0.7,0.5,1.5,0.8,2.5,0.7c-0.1,2.3-0.7,3.9-2.5,5c-1.8-1.2-2.4-2.7-2.5-5
					C26.6,26.2,27.5,25.9,28.2,25.4L28.2,25.4z"/>
				<path class="st23" d="M28.9,26.1l-0.7-0.4l-0.8,0.4c-0.4,0.2-0.9,0.2-1.5,0.2c0.1,1.7,0.6,3,1.5,3.9l0.8,0.7l0.7-0.6
					c0.9-0.9,1.4-2.3,1.5-4C29.9,26.3,29.4,26.3,28.9,26.1L28.9,26.1z"/>
				<polygon class="st21" points="28.2,25.7 27.4,26.1 27.4,30.2 28.2,30.9 28.9,30.3 28.9,26.1 28.2,25.7 				"/>
				<g>
					<path class="st24" d="M28.2,34.4l-0.2,0c-0.6,0-2.6,0-3.3-0.2l-0.3,0c-0.3,0-0.6,0.2-0.6,0.5l0,0l-0.2,0.2l-0.4,0.1l0,0.1
						l0.3,0.3l0.2,0.3l0,0.2l0.4,0.4c0.9,0.2,4.1,0.3,4.1,0.3l0-0.1c0,0-3.2-0.1-4.1-0.3l-0.3-0.3l0-0.2v0l0,0l-0.2-0.2L23.3,35
						l0.4-0.2l0.1-0.1l0.1,0l0.1,0v-0.1l0.5-0.5l0.3,0c0.7,0.2,2.7,0.2,3.3,0.2l0.2,0V34.4L28.2,34.4L28.2,34.4z"/>
					<path class="st24" d="M28.2,34.5l0.2,0c0.6,0,2.6,0,3.3-0.2l0.3,0l0.5,0.5l0.1,0.1l0.1,0l0.1,0.1L33,35l-0.3,0.3l-0.2,0.2l0,0
						v0l0,0.2l-0.3,0.3c-0.9,0.2-4.1,0.3-4.1,0.3l0,0.1c0,0,3.2-0.1,4.1-0.3l0.4-0.4l0-0.2l0.2-0.3l0.3-0.3l0-0.1l-0.4-0.1l-0.2-0.2
						l0,0.1c0-0.4-0.3-0.6-0.6-0.6l-0.3,0c-0.6,0.2-2.6,0.2-3.3,0.2l-0.2,0V34.5L28.2,34.5L28.2,34.5z"/>
					<path class="st24" d="M28.4,35.6L28.4,35.6L28.4,35.6L28.4,35.6z M27.9,35.7l-0.1,0l0.3-0.1L27.9,35.7L27.9,35.7z M28.3,35.6
						l-0.2,0l0-0.2l-0.4,0.1l-0.2,0.1l-0.1-0.1l-0.1,0.1l0-0.1l-0.1-0.1l0,0.1l0,0.1l0,0.1l-0.3,0l0.1,0.1l0.1,0l0.2-0.2l0.2-0.1
						l0.2,0.1l0.3,0l0.2,0l0.1,0l0.2,0l0-0.3L28.3,35.6L28.3,35.6z M29.5,35.8L29.5,35.8l-0.1,0.1l0.1,0L29.5,35.8h0.1H29.5
						L29.5,35.8z M31.6,35.6l0.1,0l0.1-0.1l-0.1,0L31.6,35.6L31.6,35.6z M31.2,35.3L31.2,35.3L31.2,35.3L31.2,35.3z M30.8,35.7
						l-0.1-0.1L30.8,35.7L30.8,35.7L30.8,35.7z M30.7,35.3L30.7,35.3L30.7,35.3L30.7,35.3L30.7,35.3z M31.9,35.2L31.6,35l-0.2,0.2
						l0.3,0l-0.3,0.1l-0.1-0.2l-0.1,0.2l-0.4,0.2l0.1-0.2l-0.1-0.1l-0.1,0.2l-0.1,0.1l-0.2-0.1l0.1,0.3l-0.2,0.2l-0.1,0l-0.1,0
						l0.3,0.1l0.1-0.1l0-0.1l0.1,0l0.2,0.2l0-0.2l0.3-0.1l0.1-0.1l0.2,0l0.4-0.1l0.2,0L31.9,35.2L31.9,35.2L31.9,35.2z M29.9,35.5
						L29.9,35.5l0,0.2l-0.2,0.1l-0.2,0l0.3,0.1l0.2-0.2L30,35.4L29.9,35.5L29.9,35.5z M29.1,35.5L29.1,35.5L29.1,35.5L29.1,35.5
						L29.1,35.5z M29.5,35.4l0,0.1l0.1,0.1l-0.3,0l-0.1-0.4l-0.1,0.2l-0.2,0.2l0,0.1l0.2-0.1l0.1,0.2l0.2,0l0.2-0.1L29.5,35.4
						L29.5,35.4L29.5,35.4z M26.5,35.4l0,0.2l0,0.1l0.1-0.2l-0.1-0.5L26.5,35.4L26.5,35.4z M24.9,35.6L24.9,35.6L24.9,35.6l0,0.1
						L24.9,35.6L24.9,35.6l0.1,0L24.9,35.6L24.9,35.6L24.9,35.6z M25.1,35.6l0.1,0.1l0.1-0.1l-0.1-0.1L25.1,35.6L25.1,35.6z
						 M24.6,34.7L24.6,34.7l0.1,0L24.6,34.7L24.6,34.7L24.6,34.7l-0.1,0L24.6,34.7L24.6,34.7L24.6,34.7z M26,35.4L26,35.4L26,35.4
						L26,35.4L26,35.4L26,35.4z M26.4,35.2l0.1-0.1L26.3,35l0,0.1L26.4,35.2l0,0.3l-0.3,0l0-0.2l-0.2,0l0.1,0.1h-0.1l-0.1-0.2l0,0.1
						l0,0.1l0,0.1l-0.3,0l0.2,0.2l0.2-0.2l0.2,0l0.4,0.1l0-0.3L26.4,35.2L26.4,35.2z M29.1,35.1l0.1-0.1L29.1,35.1L29.1,35.1l-0.1,0
						L29.1,35.1L29.1,35.1L29.1,35.1z M24.6,35.1L24.6,35.1L24.6,35.1L24.6,35.1L24.6,35.1z M25.3,35.1l0,0.1l0.1,0.1l-0.1,0
						l-0.1-0.1L25,35.1l0,0.1l0.1,0.1l-0.3-0.1l-0.1-0.4l0,0.1L24.4,35v0.2l0.2,0l0.2,0.3l0.5,0.1l0-0.3L25.3,35.1L25.3,35.1z"/>
					<polygon class="st24" points="26.3,30.2 25.7,30.8 26,26.2 26.5,26.1 26.3,30.2 					"/>
					<polygon class="st24" points="23,33.3 22.4,34 22.8,24.6 23.4,24.4 23,33.3 					"/>
					<polygon class="st24" points="23.9,32.5 23.3,33.2 23.7,24.5 24.3,25.1 23.9,32.5 					"/>
					<polygon class="st24" points="24.8,31.7 24.2,32.3 24.5,25.3 25.1,25.7 24.8,31.7 					"/>
					<polygon class="st24" points="25.6,30.9 25,31.6 25.3,25.9 25.8,26.1 25.6,30.9 					"/>
					<polygon class="st24" points="30,30.2 30.6,30.8 30.3,26.2 29.8,26.1 30,30.2 					"/>
					<polygon class="st24" points="28.3,30.2 28.5,33.6 28.1,34.1 27.8,33.6 28,30.2 28.3,30.2 					"/>
					<polygon class="st24" points="28.4,30.2 29.4,33.4 29.2,34 28.7,33.6 28.1,30.3 28.4,30.2 					"/>
					<polygon class="st24" points="27.9,30.2 26.9,33.4 27.1,34 27.5,33.6 28.1,30.3 27.9,30.2 					"/>
					<polygon class="st24" points="26.5,34.5 26.6,34.5 24.5,33.7 26.2,28.8 27.9,29.9 26.5,34.5 26.5,34.5 26.6,34.5 26.5,34.5 
						26.6,34.5 28.1,29.8 26.2,28.7 26.2,28.6 24.4,33.8 26.5,34.6 26.6,34.6 26.6,34.5 26.5,34.5 					"/>
					<polygon class="st24" points="29.7,34.5 29.8,34.6 31.9,33.8 31.9,33.8 30.1,28.7 28.2,29.8 28.2,29.9 29.7,34.6 29.8,34.6 
						29.7,34.5 29.8,34.5 28.3,29.9 30,28.8 31.8,33.7 29.7,34.5 29.7,34.5 29.8,34.5 29.7,34.5 					"/>
					<polygon class="st24" points="31.8,33.8 31.1,33.2 31,33.2 30.8,33.9 30.3,33.5 30.3,33.5 30.1,34.2 29.5,33.6 29.4,33.7 
						30.1,34.3 30.2,34.4 30.3,33.7 30.8,34.1 30.9,34.1 31.1,33.3 31.7,33.9 31.8,33.8 					"/>
					<path class="st24" d="M28.7,34.6c0,0.2-0.1,0-0.2,0.3l-0.1-0.4l0.2-0.2L28.7,34.6L28.7,34.6l-0.1-0.4l0-0.1l-0.3,0.3l0,0
						l0.2,0.6l0,0.1l0.1-0.1c0.1-0.4,0.3-0.2,0.3-0.5l0,0L28.7,34.6L28.7,34.6L28.7,34.6z"/>
					<polygon class="st24" points="32,34.3 31.9,34.3 32.4,34.6 32.5,34.7 32.4,34 32.4,34 32,33.8 32,33.8 31.9,34.2 31.9,34.3 
						31.9,34.3 32,34.3 32,34.3 32.1,33.9 32.3,34 32.4,34.5 32,34.2 32,34.3 32,34.3 32,34.3 					"/>
					<polygon class="st24" points="29.1,34.5 29.4,34.5 29.4,34.3 29.1,34.3 29.1,34.5 					"/>
					<polygon class="st24" points="29.6,34.4 30,34.4 30,34.3 29.6,34.3 29.6,34.4 					"/>
					<polygon class="st24" points="30.8,34.3 31.1,34.2 31.1,34.1 30.8,34.2 30.8,34.3 					"/>
					<polygon class="st24" points="31.3,34.2 31.6,34.1 31.6,34 31.3,34.1 31.3,34.2 					"/>
					<path class="st24" d="M26,34L26,34c0,0.1,0.8,0.1,1.4,0.1l0.2,0h0l0.2,0.2l-0.3,0.2l-0.3,0c-0.5,0-1.2-0.1-1.2-0.1
						s-1.1-0.2-1.5-0.3L24.2,34l0.3-0.2l0,0C24.9,33.9,25.9,34.1,26,34L26,34L26,34c0-0.1-1-0.3-1.4-0.4l-0.1,0L24.1,34l0.3,0.3
						c0.5,0.2,1.5,0.3,1.5,0.3c0,0,0.7,0.1,1.3,0.1l0.3,0l0.4-0.3l-0.3-0.3h0l-0.2,0C26.8,34.1,26,34,26,34L26,34L26,34z"/>
					<polygon class="st24" points="25.6,34.5 25.6,34.5 25.8,35.1 25.8,35.2 26.2,34.6 26.2,34.5 26,34.2 25.9,34.1 25.6,34.5 
						25.6,34.5 25.6,34.5 25.6,34.5 25.7,34.5 25.9,34.3 26.1,34.5 25.8,34.9 25.7,34.5 25.6,34.5 25.7,34.5 25.6,34.5 					"/>
					<polygon class="st24" points="24.3,34.3 24.3,34.2 23.9,34.5 24,34 24.3,33.9 24.3,34.2 24.3,34.3 24.3,34.2 24.3,34.3 
						24.4,34.2 24.3,33.8 24.3,33.8 23.9,34 23.9,34 23.8,34.6 23.8,34.7 24.4,34.3 24.4,34.3 24.4,34.2 24.3,34.3 					"/>
					<polygon class="st24" points="27.2,34.3 26.9,34.3 26.9,34.5 27.2,34.5 27.2,34.3 					"/>
					<polygon class="st24" points="26.7,34.3 26.3,34.3 26.3,34.4 26.7,34.4 26.7,34.3 					"/>
					<polygon class="st24" points="25.5,34.2 25.2,34.1 25.2,34.2 25.5,34.3 25.5,34.2 					"/>
					<polygon class="st24" points="25,34.1 24.7,34 24.7,34.1 25,34.2 25,34.1 					"/>
					<path class="st24" d="M28.9,26.1L28.9,26.1l-0.7-0.5l0,0L27.4,26c-0.4,0.2-0.9,0.2-1.5,0.2l-0.1,0l0,0.1c0.1,1.7,0.6,3,1.5,3.9
						l0.8,0.7l0,0l0.8-0.6c0.9-1,1.5-2.3,1.5-4l0-0.1h-0.1C29.9,26.3,29.4,26.2,28.9,26.1L28.9,26.1L28.9,26.1
						c0.4,0.2,1,0.3,1.5,0.3v-0.1l-0.1,0c-0.1,1.7-0.6,3-1.5,3.9l-0.7,0.6l-0.7-0.6c-0.9-0.9-1.4-2.2-1.5-3.9l-0.1,0v0.1
						c0.6,0,1.1-0.1,1.5-0.2l0.8-0.4L28.9,26.1L28.9,26.1L28.9,26.1z"/>
					<path class="st24" d="M25.9,26.3c0.1,1.7,0.6,3,1.5,3.9l0-4.1C27,26.3,26.5,26.3,25.9,26.3L25.9,26.3z"/>
					<path class="st24" d="M28.9,26.1v4.2c0.9-0.9,1.4-2.3,1.5-4C29.9,26.3,29.4,26.3,28.9,26.1L28.9,26.1z"/>
					<path class="st24" d="M33.2,33.3l0.6,0.6l-0.4-9.4l-0.6-0.2L33.2,33.3L33.2,33.3z M32.3,32.5l0.6,0.6l-0.4-8.6L32,25.1
						L32.3,32.5L32.3,32.5z M31.4,31.7l0.6,0.6l-0.3-7.1l-0.5,0.4L31.4,31.7L31.4,31.7z M30.7,30.9l0.6,0.6L31,25.9l-0.5,0.2
						L30.7,30.9L30.7,30.9z"/>
					<path class="st24" d="M29.2,24.8l0.7,0.2l0.1,0l-0.1-0.1c0,0-0.7-0.9-0.7-1.8l0-0.3c0.1-0.3,0.1-0.6,0.1-0.9
						c0-0.7-0.3-1-0.7-1.1l-0.4-0.1l-0.4,0.1l0,0h0l-0.1,0.1L27.4,21l-0.5-0.2l-0.1,0c-0.2,0-0.5,0.1-0.5,0.5v0.1l0.1-0.1l0.5,0.2
						c0.1,0.1,0.3,0.6,0.3,1l0,0.2c0,0.9-1,2.1-1,2.1L26.2,25l0.9-0.2L26.9,25l-0.1,0.1l0.1,0c0.4-0.1,0.9-0.5,0.9-0.5l0.3,0.4
						l0,0.1l0.3-0.5l0,0c0.1,0.1,0.5,0.4,0.9,0.5l0.1,0L29.2,24.8L29.2,24.8L29.2,24.8z M29.1,21.1L29.1,21.1
						C29.1,21,29.1,21,29.1,21.1C29.1,21,29.1,21.1,29.1,21.1L29.1,21.1z M28,20.9l0.1,0.1L28,21.1L27.9,21L28,20.9L28,20.9z
						 M28.3,20.7L28.3,20.7L28.3,20.7L28.3,20.7L28.3,20.7z M27.3,21.1L27.3,21.1l0.6,0.2l0,0c0.1,0,0.3,0,0.4-0.1
						c0.1-0.1,0.2-0.2,0.4-0.2c0.2,0,0.3,0.1,0.5,0.1c0.1,0.2,0.1,0.4,0.1,0.6l-0.1,0.9l0,0.4c0,0.7,0.4,1.5,0.6,1.7l0,0l-0.7-0.2
						c-0.1-0.2-0.4-0.6-0.4-1.1l0-0.2l-0.1,0l0,0.2c0,0.4,0.2,0.8,0.3,1l0,0l0.1,0.1l0,0l0,0l0,0c0,0,0,0,0,0l0,0l0,0c0,0,0,0,0,0
						l0,0l0.2,0.2l0,0c-0.3-0.1-0.7-0.5-0.7-0.5l0,0c-0.1-0.1-0.2-0.5-0.2-0.9l0-0.2l-0.1,0l0,0.3c0,0.4,0.1,0.8,0.2,0.9l-0.3,0.4
						l-0.3-0.4c0.1-0.2,0.2-0.5,0.2-0.9l0-0.3l-0.1,0l0,0.2c0,0.4-0.2,0.8-0.2,0.9c-0.2,0.2-0.4,0.3-0.7,0.4c0,0,0.2-0.2,0.2-0.2
						l0.1-0.1c0.1-0.2,0.3-0.6,0.3-1l0-0.2l-0.1,0l0,0.2c0,0.4-0.2,0.8-0.3,1l-0.7,0.2l0,0c0.2-0.3,0.9-1.2,0.9-2l0-0.2
						c0-0.1-0.1-0.3-0.1-0.4l0.1-0.4l0.3,0.1c0,0-0.2-0.3-0.6-0.5c-0.3-0.2-0.6-0.1-0.7-0.1l0,0c0-0.2,0.2-0.3,0.3-0.3l0.1,0
						L27.3,21.1L27.3,21.1z M29.2,21.2C29.2,21.2,29.2,21.2,29.2,21.2L29.2,21.2L29.2,21.2L29.2,21.2z"/>
					<path class="st24" d="M29.8,29.3L29.6,31l-0.5-0.7L29,30.4l0.2,0.2l0,0l-0.4,0.7l0.1,0l0.4-0.7l0.4,0.5l0.1,0.1l0.1-1.1
						l0.5,0.5l0.1,0.1l0.2-0.6l-0.1,0l-0.2,0.5l-0.5-0.5l0.1-0.8L29.8,29.3L29.8,29.3L29.8,29.3z M31.2,32.2L31,32.9l-0.5-0.5
						l-0.1-0.1l-0.2,0.8l-0.5-0.6l-0.1-0.1l-0.2,0.8l0.1,0l0.1-0.6l0.5,0.6l0.1,0.1l0.2-0.9l0.5,0.5l0.1,0.1L31.2,32.2L31.2,32.2
						L31.2,32.2z M31.1,31.5l-0.6-0.3l-0.1,0l-0.2,0.7l-0.4-0.5l-0.1-0.1l-0.3,1.2L29,32L29,32l0.6,0.5l0.1,0l0.2-1.1l0.4,0.5
						l0.1,0.1l0.2-0.8L31.1,31.5L31.1,31.5L31.1,31.5z"/>
					<path class="st24" d="M30.4,34L30.4,34c0-0.1-0.9,0-1.4,0l-0.2,0h0l-0.3,0.3l0.4,0.3l0.3,0c0.3,0,0.8,0,1-0.1l0.3,0.4l0.1,0.1
						l0.2-0.6c0.3-0.1,0.9-0.2,1.2-0.3l0.3-0.3l-0.4-0.3l-0.1,0C31.4,33.8,30.3,34,30.4,34L30.4,34L30.4,34c0,0.1,1-0.2,1.5-0.3l0,0
						l0.2,0.2l-0.2,0.2c-0.3,0.1-0.8,0.2-1.2,0.3l0,0l0,0l0,0l-0.3-0.3L30.4,34l-0.2,0.5l0,0l0,0c-0.3,0-0.6,0.1-1,0.1l-0.3,0
						l-0.3-0.2l0.2-0.2h0l0.2,0C29.5,34.2,30.4,34.1,30.4,34L30.4,34L30.4,34z M30.3,34.6c0.1,0,0.1,0,0.1,0c0,0,0.1,0,0.2,0
						l-0.1,0.3L30.3,34.6L30.3,34.6z M30.6,34.5C30.6,34.5,30.6,34.5,30.6,34.5L30.6,34.5L30.6,34.5L30.6,34.5z M30.6,34.5
						c-0.1,0-0.2,0-0.2,0s-0.1,0-0.2,0l0.2-0.2L30.6,34.5L30.6,34.5z M30.6,34.5L30.6,34.5L30.6,34.5L30.6,34.5z"/>
					<path class="st24" d="M27.5,34.6c0.1,0.2,0.2,0.1,0.3,0.5l0.1,0.1l0.2-0.7l0,0l-0.3-0.3l0,0L27.5,34.6L27.5,34.6L27.5,34.6
						L27.5,34.6L27.5,34.6L27.5,34.6z M27.6,34.6L27.6,34.6l0.2-0.3l0.2,0.2l-0.1,0.4l0,0C27.7,34.7,27.6,34.8,27.6,34.6L27.6,34.6
						L27.6,34.6z"/>
					<path class="st24" d="M33.8,34.1L33.8,34.1c0,0-0.3-6.9-0.4-9.3c0-0.8-0.4-1.1-0.8-1c-0.4,0-0.9,0.2-1.4,0.5
						c-0.3,0.2-0.7,0.3-1.1,0.3c-0.6,0-1.3-0.2-2-0.2c-0.7,0-1.4,0.2-2,0.2c-0.4,0-0.8-0.1-1.1-0.3c-0.4-0.3-0.9-0.5-1.4-0.5
						c-0.5,0-0.8,0.3-0.8,1c-0.1,2.4-0.4,9.3-0.4,9.3l0,0.1L33.8,34.1L33.8,34.1L33.8,34.1L33.8,34.1z M33.8,34H22.4v0.1l0.1,0
						c0,0,0.3-6.9,0.4-9.3c0-0.7,0.3-0.9,0.7-0.9c0.4,0,0.9,0.2,1.3,0.5c0.4,0.2,0.8,0.3,1.2,0.3c0.6,0,1.3-0.2,2-0.2
						c0.7,0,1.4,0.2,2,0.2c0.4,0,0.8-0.1,1.2-0.3c0.4-0.3,0.9-0.5,1.3-0.5c0.4,0,0.7,0.2,0.7,0.9C33.5,27,33.7,33.3,33.8,34L33.8,34
						L33.8,34L33.8,34z"/>
					<path class="st24" d="M28.2,25.5c0.6,0.5,1.4,0.7,2.2,0.7l0.3,0l0-0.1l0,0c-0.1,2.3-0.7,3.8-2.5,5l0,0l0,0
						c-1.7-1.2-2.4-2.7-2.5-5l-0.1,0l0,0.1l0.3,0C26.8,26.2,27.6,25.9,28.2,25.5L28.2,25.5L28.2,25.5z M28.1,25.4L28.1,25.4
						c-0.6,0.4-1.4,0.7-2.2,0.7l-0.3,0l-0.1,0v0.1c0.1,2.3,0.7,3.9,2.5,5.1l0,0l0,0c1.8-1.2,2.4-2.8,2.5-5.1l0-0.1l-0.1,0l-0.3,0
						C29.5,26.1,28.8,25.8,28.1,25.4L28.1,25.4L28.1,25.4L28.1,25.4L28.1,25.4z"/>
					<path class="st24" d="M25,32.3l0.3,0.8l0,0.1l0.6-0.5l0.2,0.8l0,0.1l0.6-0.7l0.1,0.7l0.1,0l-0.2-0.7l0-0.1l-0.6,0.7L26,32.5
						l0-0.1l-0.6,0.6L25,32.3L25,32.3L25,32.3z M25.3,31.6l0.5-0.3l0.2,0.7l0,0.1l0.4-0.6l0.2,1l0,0.1l0.7-0.5l-0.1-0.1l-0.6,0.4
						l-0.2-1l0-0.1L26,31.8l-0.2-0.6l0-0.1L25.3,31.6L25.3,31.6L25.3,31.6L25.3,31.6z M25.7,30.2l0.2,0.6l0,0.1l0.6-0.6l0.1,0.9
						l0,0.1l0.5-0.6l0.4,0.7l0.1,0l-0.4-0.7l0,0l0.2-0.2l-0.1-0.1L26.7,31l-0.2-1.8l-0.1,0v0l0.1,0.9l0,0l-0.5,0.5l-0.2-0.5
						L25.7,30.2L25.7,30.2z M24.6,33.8l0.6-0.5l0.2,0.7l0,0.1l0.6-0.4l0.1,0.6l0,0.1l0.8-0.7l-0.1-0.1l-0.6,0.6L26,33.6l0-0.1
						l-0.6,0.4l-0.2-0.7l0-0.1L24.6,33.8L24.6,33.8L24.6,33.8L24.6,33.8z"/>
				</g>
			</g>
		</g>
	</g>
</g>
<g id="ALMACEN" class="st132">
</g>
<g id="GUIAS" class="st132">
</g>
</svg>
