<?xml version="1.0" encoding="utf-8"?>
<!-- Generator: Adobe Illustrator 21.1.0, SVG Export Plug-In . SVG Version: 6.00 Build 0)  -->
<svg version="1.1" id="Layer_1" xmlns="http://www.w3.org/2000/svg" xmlns:xlink="http://www.w3.org/1999/xlink" x="0px" y="0px"
	 viewBox="0 0 178 180" style="enable-background:new 0 0 178 180;" xml:space="preserve">
<style type="text/css">
	.st0{fill:none;stroke:#3C2F16;stroke-width:5;stroke-linecap:round;stroke-miterlimit:10;}
	.st1{clip-path:url(#SVGID_2_);fill:#FADA0A;}
	.st2{clip-path:url(#SVGID_2_);fill:#DA1F26;}
	.st3{clip-path:url(#SVGID_2_);fill:#169A56;}
	.st4{clip-path:url(#SVGID_2_);fill:#FFFFFF;}
</style>
<g>
	<g>
		<path class="st0" d="M5.1,82.5c-5.3,53.2,39.1,97.6,92.3,92.3c39.4-3.9,71.3-35.8,75.2-75.2c5.3-53.2-39.1-97.6-92.3-92.3
			C40.9,11.2,9,43.1,5.1,82.5z"/>
	</g>
	<g>
		<defs>
			<ellipse id="SVGID_1_" cx="89.4" cy="90.5" rx="69.7" ry="68.3"/>
		</defs>
		<clipPath id="SVGID_2_">
			<use xlink:href="#SVGID_1_"  style="overflow:visible;"/>
		</clipPath>
		<rect x="-33.4" y="17.9" class="st1" width="245.9" height="47.5"/>
		<rect x="-33.4" y="112.1" class="st2" width="245.9" height="47.2"/>
		<rect x="-33.4" y="65.4" class="st3" width="245.9" height="46.7"/>
		<polygon class="st4" points="89.9,33.4 103.1,73.8 146,73.8 111.3,98.8 124.6,139.2 89.9,114.2 55.2,139.2 68.5,98.8 33.8,73.8 
			76.6,73.8 		"/>
	</g>
</g>
</svg>
