<?xml version="1.0" encoding="utf-8"?>
<!-- Generator: Adobe Illustrator 21.1.0, SVG Export Plug-In . SVG Version: 6.00 Build 0)  -->
<svg version="1.1" id="Layer_1" xmlns="http://www.w3.org/2000/svg" xmlns:xlink="http://www.w3.org/1999/xlink" x="0px" y="0px"
	 viewBox="0 0 184 181" style="enable-background:new 0 0 184 181;" xml:space="preserve">
<style type="text/css">
	.st0{clip-path:url(#SVGID_2_);fill:#086C40;}
	.st1{clip-path:url(#SVGID_2_);fill:#FDD21A;}
	.st2{clip-path:url(#SVGID_2_);fill:#CE1327;}
	.st3{clip-path:url(#SVGID_2_);fill:#020203;}
	.st4{fill:none;stroke:#3D3019;stroke-width:5;stroke-linecap:round;stroke-miterlimit:10;}
</style>
<g>
	<g>
		<defs>
			<path id="SVGID_1_" d="M22.1,90.3c0,38.9,31.6,70.5,70.5,70.5c38.9,0,70.5-31.6,70.5-70.5s-31.6-70.5-70.5-70.5
				C53.6,19.8,22.1,51.4,22.1,90.3"/>
		</defs>
		<clipPath id="SVGID_2_">
			<use xlink:href="#SVGID_1_"  style="overflow:visible;"/>
		</clipPath>
		<polyline class="st0" points="-13.2,19.8 198.3,19.8 198.3,160.8 -13.2,160.8 		"/>
		<polyline class="st1" points="-13.2,19.8 198.3,19.8 198.3,113.8 -13.2,113.8 		"/>
		<polyline class="st2" points="-13.2,19.8 198.3,19.8 198.3,66.8 -13.2,66.8 		"/>
		<polyline class="st3" points="67.2,84.7 117,84.7 77.1,113.8 92.1,66.3 108.1,113.8 		"/>
	</g>
	<path class="st4" d="M8.8,81.7c-5.3,53.2,39.1,97.6,92.3,92.3c39.4-3.9,71.3-35.8,75.2-75.2C181.6,45.6,137.2,1.3,84,6.5
		C44.6,10.4,12.7,42.3,8.8,81.7z"/>
</g>
</svg>
