<?xml version="1.0" encoding="utf-8"?>
<!-- Generator: Adobe Illustrator 21.0.2, SVG Export Plug-In . SVG Version: 6.00 Build 0)  -->
<svg version="1.1" xmlns="http://www.w3.org/2000/svg" xmlns:xlink="http://www.w3.org/1999/xlink" x="0px" y="0px"
	 viewBox="0 0 57.4 57.9" style="enable-background:new 0 0 57.4 57.9;" xml:space="preserve">
<style type="text/css">
	.st0{opacity:0.8;fill:#FCC549;}
	.st1{fill:#FFFFFF;}
	.st2{fill:none;stroke:#73629A;stroke-width:2;stroke-linecap:round;stroke-miterlimit:10;}
	.st3{fill:#73629A;stroke:#73629A;stroke-miterlimit:10;}
	.st4{fill:#FFFFFF;stroke:#73629A;stroke-width:2;stroke-linecap:round;stroke-miterlimit:10;}
	.st5{fill:#FFFFFF;stroke:#FFFFFF;stroke-width:9;stroke-miterlimit:10;}
	.st6{fill:#6CC5DB;}
	.st7{fill:#73629A;}
	.st8{fill:#F5C153;}
	.st9{fill:#FFFFFF;stroke:#8778B3;stroke-miterlimit:10;}
	.st10{clip-path:url(#SVGID_2_);}
	.st11{clip-path:url(#SVGID_4_);fill:#C73B3C;}
	.st12{clip-path:url(#SVGID_4_);fill:#ECD652;}
	.st13{clip-path:url(#SVGID_4_);fill:#336B44;}
	.st14{clip-path:url(#SVGID_4_);}
	.st15{clip-path:url(#SVGID_6_);fill:#55A0CE;}
	.st16{clip-path:url(#SVGID_6_);fill:#ECD652;}
	.st17{clip-path:url(#SVGID_6_);}
	.st18{fill:#ECD652;}
	.st19{clip-path:url(#SVGID_8_);}
	.st20{fill-rule:evenodd;clip-rule:evenodd;}
	.st21{fill-rule:evenodd;clip-rule:evenodd;fill:#FFFFFF;}
	.st22{fill-rule:evenodd;clip-rule:evenodd;fill:#E42535;}
	.st23{fill-rule:evenodd;clip-rule:evenodd;fill:#CACACA;}
	.st24{fill-rule:evenodd;clip-rule:evenodd;fill:#F4C343;}
	.st25{clip-path:url(#SVGID_10_);}
	.st26{fill:#E42535;}
	.st27{fill:#179F56;}
	.st28{fill:#EDCA50;}
	.st29{fill:none;}
	.st30{clip-path:url(#SVGID_12_);}
	.st31{clip-path:url(#SVGID_14_);fill:#C32732;}
	.st32{clip-path:url(#SVGID_14_);fill:#F1D74F;}
	.st33{clip-path:url(#SVGID_16_);}
	.st34{clip-path:url(#SVGID_20_);fill:#FFFFFF;}
	.st35{opacity:0.75;clip-path:url(#SVGID_20_);fill:#F90D1B;}
	.st36{clip-path:url(#SVGID_20_);fill:#030C7E;}
	.st37{clip-path:url(#SVGID_24_);}
	.st38{clip-path:url(#SVGID_26_);fill:#34448C;}
	.st39{clip-path:url(#SVGID_26_);fill:#FFFFFF;}
	.st40{clip-path:url(#SVGID_26_);fill:#CF273D;}
	.st41{clip-path:url(#SVGID_28_);}
	.st42{fill:#2978B3;}
	.st43{clip-path:url(#SVGID_30_);}
	.st44{clip-path:url(#SVGID_32_);fill:#3D8156;}
	.st45{clip-path:url(#SVGID_32_);fill:#FFFFFF;}
	.st46{clip-path:url(#SVGID_34_);}
	.st47{clip-path:url(#SVGID_36_);fill:#C32732;}
	.st48{clip-path:url(#SVGID_36_);fill:#F1D74F;}
	.st49{clip-path:url(#SVGID_38_);}
	.st50{clip-path:url(#SVGID_40_);fill:#FFFFFF;}
	.st51{clip-path:url(#SVGID_40_);fill:#316738;}
	.st52{clip-path:url(#SVGID_40_);}
	.st53{clip-path:url(#SVGID_42_);fill:#FFFFFF;}
	.st54{clip-path:url(#SVGID_42_);fill:#316738;}
	.st55{clip-path:url(#SVGID_44_);}
	.st56{clip-path:url(#SVGID_46_);fill:#AD2434;}
	.st57{clip-path:url(#SVGID_46_);fill:#EEBD49;}
	.st58{clip-path:url(#SVGID_46_);}
	.st59{fill:#95202E;}
	.st60{fill:#BCAB47;}
	.st61{fill:#43896F;}
	.st62{fill:#3F5FA1;}
	.st63{fill:#C6C6C6;}
	.st64{fill:#BAAE48;}
	.st65{fill:#C24250;}
	.st66{fill:#D66FA2;}
	.st67{fill:#F1CF95;}
	.st68{fill:#47569B;}
	.st69{clip-path:url(#SVGID_48_);fill:#3F5FA1;}
	.st70{clip-path:url(#SVGID_50_);}
	.st71{fill:#314490;}
	.st72{fill:#B4253A;}
	.st73{clip-path:url(#SVGID_52_);}
	.st74{clip-path:url(#SVGID_54_);fill:#428C4A;}
	.st75{clip-path:url(#SVGID_54_);fill:#E7BB46;}
	.st76{clip-path:url(#SVGID_54_);}
	.st77{clip-path:url(#SVGID_56_);fill:#302B68;}
	.st78{clip-path:url(#SVGID_56_);fill:#FFFFFF;}
	.st79{clip-path:url(#SVGID_56_);}
	.st80{fill-rule:evenodd;clip-rule:evenodd;fill:#428C4A;}
	.st81{clip-path:url(#SVGID_58_);}
	.st82{clip-path:url(#SVGID_60_);fill:#FFFFFF;}
	.st83{clip-path:url(#SVGID_60_);fill:#4E9A4F;}
	.st84{clip-path:url(#SVGID_60_);fill:#BE2632;}
	.st85{clip-path:url(#SVGID_60_);}
	.st86{clip-path:url(#SVGID_62_);fill:#BE2632;}
	.st87{clip-path:url(#SVGID_62_);fill:#FFFFFF;}
	.st88{clip-path:url(#SVGID_64_);}
	.st89{clip-path:url(#SVGID_66_);fill:#FFFFFF;}
	.st90{clip-path:url(#SVGID_66_);}
	.st91{clip-path:url(#SVGID_66_);fill:#316738;}
	.st92{clip-path:url(#SVGID_68_);}
	.st93{fill:#8778B3;}
	.st94{clip-path:url(#SVGID_68_);fill:#FFFFFF;}
	.st95{clip-path:url(#SVGID_68_);fill:#A2232B;}
	.st96{clip-path:url(#SVGID_70_);}
	.st97{clip-path:url(#SVGID_72_);fill:#6080B9;}
	.st98{clip-path:url(#SVGID_72_);fill:#FFFFFF;}
	.st99{clip-path:url(#SVGID_74_);}
	.st100{clip-path:url(#SVGID_76_);fill:#FFFFFF;}
	.st101{clip-path:url(#SVGID_76_);fill:#E8904F;}
	.st102{clip-path:url(#SVGID_76_);fill:#428447;}
	.st103{clip-path:url(#SVGID_76_);}
	.st104{clip-path:url(#SVGID_78_);fill:#2B2C70;}
	.st105{clip-path:url(#SVGID_78_);fill:#FFFFFF;}
	.st106{clip-path:url(#SVGID_80_);}
	.st107{clip-path:url(#SVGID_82_);fill:#CF273D;}
	.st108{clip-path:url(#SVGID_82_);fill:#FFFFFF;}
	.st109{clip-path:url(#SVGID_84_);}
	.st110{clip-path:url(#SVGID_86_);fill:#C82635;}
	.st111{clip-path:url(#SVGID_86_);}
	.st112{clip-path:url(#SVGID_88_);fill:#FFFFFF;}
	.st113{clip-path:url(#SVGID_88_);fill:#C82635;}
	.st114{clip-path:url(#SVGID_90_);}
	.st115{clip-path:url(#SVGID_92_);}
	.st116{fill:#2F3480;}
	.st117{fill:#B2252F;}
	.st118{fill:#FFFFFF;stroke:#B2252F;stroke-width:0.1;stroke-miterlimit:10;}
	.st119{opacity:0.7;fill:#73BFD3;}
	.st120{fill:#FFFFFF;stroke:#FFFFFF;stroke-width:4;stroke-miterlimit:10;}
	.st121{clip-path:url(#SVGID_94_);fill:#2A3F84;}
	.st122{clip-path:url(#SVGID_94_);fill:#B4253A;}
	.st123{clip-path:url(#SVGID_94_);}
	.st124{clip-path:url(#SVGID_96_);fill:#FFFFFF;}
	.st125{fill:none;stroke:#F0BC5C;stroke-width:2;stroke-linecap:round;stroke-miterlimit:10;}
	.st126{opacity:0.8;fill:#FFFFFF;}
	.st127{fill:#AFE6EF;}
	.st128{fill:#AFE6EF;stroke:#73629A;stroke-width:2;stroke-linecap:round;stroke-miterlimit:10;}
	.st129{fill:#FCC549;}
	.st130{opacity:0.9;fill:#FFFFFF;}
	.st131{opacity:0.8;}
	.st132{display:none;}
	.st133{display:inline;}
	.st134{fill:#FFE2C9;}
	.st135{fill:none;stroke:#FCC549;stroke-width:2;stroke-linecap:round;stroke-miterlimit:10;}
	.st136{fill:none;stroke:#FFFFFF;stroke-miterlimit:10;}
	.st137{fill:#FFFFFF;stroke:#FFFFFF;stroke-miterlimit:10;}
	.st138{fill:none;stroke:#3C2F16;stroke-width:2;stroke-linecap:round;stroke-miterlimit:10;}
	.st139{fill:#DEE7FF;}
	.st140{fill:#3C2F16;}
	.st141{fill:none;stroke:#3C2F16;stroke-width:2;stroke-linecap:round;stroke-miterlimit:10;stroke-dasharray:9.9901,4.995;}
	.st142{fill:#B4CAF6;}
</style>
<g id="MESA_DE_TRABAJO">
	<g>
		<path class="st9" d="M1.4,26.1C-0.3,43.5,14.1,58,31.5,56.2C44.3,55,54.7,44.6,56,31.7C57.7,14.4,43.2-0.1,25.9,1.6
			C13,2.9,2.7,13.3,1.4,26.1z"/>
		<g>
			<defs>
				<path id="SVGID_1_" d="M51.4,26c1.9,15-10.7,27.5-25.6,25.6C15.5,50.3,7.3,42.1,6,31.9C4.1,17,16.7,4.4,31.7,6.3
					C41.8,7.5,50.1,15.8,51.4,26z"/>
			</defs>
			<clipPath id="SVGID_2_">
				<use xlink:href="#SVGID_1_"  style="overflow:visible;"/>
			</clipPath>
			<g id="ETHIOPIA_2_" class="st10">
				<g>
					<g>
						<defs>
							<rect id="SVGID_3_" x="-11" y="5.4" width="79.4" height="46.3"/>
						</defs>
						<clipPath id="SVGID_4_">
							<use xlink:href="#SVGID_3_"  style="overflow:visible;"/>
						</clipPath>
						<rect x="-11" y="36.3" class="st11" width="79.4" height="15.4"/>
						<rect x="-11" y="20.9" class="st12" width="79.4" height="15.4"/>
						<rect x="-11" y="5.4" class="st13" width="79.4" height="15.5"/>
						<g class="st14">
							<defs>
								<rect id="SVGID_5_" x="-11" y="5.4" width="79.4" height="46.3"/>
							</defs>
							<clipPath id="SVGID_6_">
								<use xlink:href="#SVGID_5_"  style="overflow:visible;"/>
							</clipPath>
							<path class="st15" d="M40.3,28.6c0,6.4-5.2,11.6-11.6,11.6c-6.4,0-11.6-5.2-11.6-11.6c0-6.4,5.2-11.6,11.6-11.6
								C35.1,17,40.3,22.2,40.3,28.6L40.3,28.6z"/>
							<path class="st16" d="M19.9,25.7h6.7l1.5-4.7l0.4,1.3l-2.2,6.8l-0.7-0.5l0.7-2.1h-5.4L19.9,25.7z M23.2,36.1l2.1-6.4l-4-2.9
								h1.3l5.8,4.2l-0.7,0.5L26,30.1l-1.7,5.2L23.2,36.1L23.2,36.1z M34.1,36.1l-5.4-4l-4,2.9l0.4-1.2l5.8-4.2l0.2,0.8l-1.8,1.3
								l4.4,3.2L34.1,36.1L34.1,36.1z M37.5,25.7l-5.4,4l1.5,4.7l-1.1-0.8l-2.2-6.8h0.8l0.7,2.1l4.4-3.2H37.5L37.5,25.7z M28.7,19.3
								l2.1,6.4h4.9l-1.1,0.8h-7.2l0.3-0.8H30l-1.7-5.2L28.7,19.3z"/>
							<path class="st17" d="M28.7,32.9v5V32.9z M24.6,29.9l-4.8,1.6L24.6,29.9z M26.2,25.2l-2.9-4.1L26.2,25.2z M31.2,25.2l2.9-4.1
								L31.2,25.2z M32.7,29.9l4.8,1.6L32.7,29.9z"/>
							<g class="st17">
								<path class="st18" d="M28.9,37.9h-0.4v-5h0.4V37.9L28.9,37.9z M37.4,31.6l-4.8-1.5l0.1-0.4l4.8,1.5L37.4,31.6L37.4,31.6z
									 M19.9,31.6l-0.1-0.4l4.8-1.5l0.1,0.4L19.9,31.6L19.9,31.6z M31.3,25.3L31,25.1l3-4.1l0.3,0.2L31.3,25.3L31.3,25.3z
									 M26,25.3l-3-4.1l0.3-0.2l2.9,4.1L26,25.3L26,25.3z"/>
							</g>
						</g>
					</g>
				</g>
			</g>
		</g>
	</g>
</g>
<g id="ALMACEN" class="st132">
</g>
<g id="GUIAS" class="st132">
</g>
</svg>
