<?xml version="1.0" encoding="utf-8"?>
<!-- Generator: Adobe Illustrator 22.0.1, SVG Export Plug-In . SVG Version: 6.00 Build 0)  -->
<svg version="1.1" id="Layer_1" xmlns="http://www.w3.org/2000/svg" xmlns:xlink="http://www.w3.org/1999/xlink" x="0px" y="0px"
	 viewBox="0 0 259.6 233" style="enable-background:new 0 0 259.6 233;" xml:space="preserve">
<style type="text/css">
	.st0{fill:#FFFFFF;stroke:#231F20;stroke-width:4;stroke-miterlimit:10;}
	.st1{clip-path:url(#SVGID_2_);fill:#2A9E5F;}
	.st2{clip-path:url(#SVGID_2_);fill:#EF7E1E;}
	.st3{clip-path:url(#SVGID_2_);fill:#FFFFFF;}
</style>
<path class="st0" d="M41.3,107.1c-5.6,54.9,42,100.7,99.5,95c42.3-3.8,76.7-36.6,81-77.3c5.6-54.6-42.3-100.3-99.5-95
	C79.7,33.9,45.6,66.7,41.3,107.1z"/>
<g>
	<defs>
		<path id="SVGID_1_" d="M207,117.1c0,40.7-33.8,73.7-75.5,73.7c-41.7,0-75.5-33-75.5-73.7c0-40.7,33.8-73.7,75.5-73.7
			C173.2,43.4,207,76.4,207,117.1z"/>
	</defs>
	<clipPath id="SVGID_2_">
		<use xlink:href="#SVGID_1_"  style="overflow:visible;"/>
	</clipPath>
	<rect x="166.4" y="39" class="st1" width="70.5" height="151.9"/>
	<rect x="25.3" y="39" class="st2" width="70.4" height="151.9"/>
	<rect x="95.6" y="39" class="st3" width="70.7" height="151.9"/>
</g>
</svg>
