<?xml version="1.0" encoding="utf-8"?>
<!-- Generator: Adobe Illustrator 21.1.0, SVG Export Plug-In . SVG Version: 6.00 Build 0)  -->
<svg version="1.1" id="Layer_1" xmlns="http://www.w3.org/2000/svg" xmlns:xlink="http://www.w3.org/1999/xlink" x="0px" y="0px"
	 viewBox="0 0 261 221.5" style="enable-background:new 0 0 261 221.5;" xml:space="preserve">
<style type="text/css">
	.st0{fill:none;stroke:#3C3019;stroke-width:5;stroke-linecap:round;stroke-miterlimit:10;}
	.st1{clip-path:url(#SVGID_2_);fill:#74ACDF;}
	.st2{clip-path:url(#SVGID_2_);fill:#FFFFFF;}
	.st3{clip-path:url(#SVGID_2_);fill:#F6B40E;}
	.st4{clip-path:url(#SVGID_2_);fill:none;stroke:#85340A;stroke-width:0.345;}
	.st5{clip-path:url(#SVGID_2_);fill:#85340A;}
	.st6{clip-path:url(#SVGID_2_);fill:none;stroke:#85340A;stroke-width:0.465;}
	.st7{clip-path:url(#SVGID_2_);fill:#843511;}
</style>
<path class="st0" d="M46.7,102.2c-5.3,53.2,39.1,97.6,92.3,92.3c39.4-3.9,71.3-35.8,75.2-75.2c5.3-53.2-39.1-97.6-92.3-92.3
	C82.5,30.9,50.6,62.8,46.7,102.2z"/>
<g>
	<defs>
		<circle id="SVGID_1_" cx="130.5" cy="111" r="70.8"/>
	</defs>
	<clipPath id="SVGID_2_">
		<use xlink:href="#SVGID_1_"  style="overflow:visible;"/>
	</clipPath>
	<rect x="17.3" y="40.2" class="st1" width="226.4" height="141.5"/>
	<rect x="17.3" y="87.4" class="st2" width="226.4" height="47.2"/>
	<path class="st3" d="M129.9,110.3l-13.1,14.2c0,0-0.3,0.3-0.1,0.4c0.2,0.2,0.4-0.1,0.4-0.1l14.2-13.1 M124.8,114.1
		c-2.5,0.9-3.2,3-5.5,3.7c-2.3,0.7-3,2.4-3.8,3.1c-0.7,0.6-1.5,0.3-1.5,0.6c0,0.3,0.9,0.6,2-0.1c1.1-0.7,1.1-1.8,3.9-2.7
		c2.8-0.9,2.9-2.5,5.4-3.2"/>
	<path class="st4" d="M129.9,110.3l-13.1,14.2c0,0-0.3,0.3-0.1,0.4c0.2,0.2,0.4-0.1,0.4-0.1l14.2-13.1 M124.8,114.1
		c-2.5,0.9-3.2,3-5.5,3.7c-2.3,0.7-3,2.4-3.8,3.1c-0.7,0.6-1.5,0.3-1.5,0.6c0,0.3,0.9,0.6,2-0.1c1.1-0.7,1.1-1.8,3.9-2.7
		c2.8-0.9,2.9-2.5,5.4-3.2"/>
	<path class="st3" d="M129.6,110.6l-6.7,18.1c0,0-0.1,0.3,0.1,0.4c0.2,0.1,0.4-0.2,0.4-0.2l8.1-17.5 M126.5,116
		c-2,1.8-1.8,4-3.7,5.5c-1.8,1.5-1.9,3.4-2.3,4.3c-0.4,0.9-1.3,0.8-1.2,1.1c0.1,0.3,1,0.2,1.8-0.9c0.8-1.1,0.4-2.1,2.6-3.9
		c2.2-1.9,1.7-3.4,3.8-5"/>
	<path class="st4" d="M129.6,110.6l-6.7,18.1c0,0-0.1,0.3,0.1,0.4c0.2,0.1,0.4-0.2,0.4-0.2l8.1-17.5 M126.5,116
		c-2,1.8-1.8,4-3.7,5.5c-1.8,1.5-1.9,3.4-2.3,4.3c-0.4,0.9-1.3,0.8-1.2,1.1c0.1,0.3,1,0.2,1.8-0.9c0.8-1.1,0.4-2.1,2.6-3.9
		c2.2-1.9,1.7-3.4,3.8-5"/>
	<path class="st3" d="M129.6,111.3l8.1,17.5c0,0,0.1,0.3,0.4,0.2c0.2-0.1,0.1-0.4,0.1-0.4l-6.7-18.1 M131.2,117.4
		c-0.1,2.7,1.5,4.1,1.3,6.5c-0.2,2.4,1.1,3.7,1.4,4.7c0.3,0.9-0.3,1.5-0.1,1.6c0.3,0.1,0.9-0.6,0.7-1.9c-0.2-1.3-1.2-1.7-1-4.6
		c0.2-2.9-1.2-3.6-0.8-6.2"/>
	<path class="st4" d="M129.6,111.3l8.1,17.5c0,0,0.1,0.3,0.4,0.2c0.2-0.1,0.1-0.4,0.1-0.4l-6.7-18.1 M131.2,117.4
		c-0.1,2.7,1.5,4.1,1.3,6.5c-0.2,2.4,1.1,3.7,1.4,4.7c0.3,0.9-0.3,1.5-0.1,1.6c0.3,0.1,0.9-0.6,0.7-1.9c-0.2-1.3-1.2-1.7-1-4.6
		c0.2-2.9-1.2-3.6-0.8-6.2"/>
	<path class="st3" d="M129.6,111l0.7,19.3c0,0,0,0.4,0.2,0.4c0.2,0,0.2-0.4,0.2-0.4l0.7-19.3 M128.7,117.2c-1.1,2.4-0.2,4.4-1.3,6.5
		c-1.1,2.1-0.4,3.9-0.5,4.8c-0.1,1-0.9,1.2-0.7,1.5c0.2,0.2,1-0.2,1.4-1.5c0.3-1.3-0.4-2,0.9-4.6c1.3-2.6,0.3-3.8,1.6-6.1"/>
	<path class="st4" d="M129.6,111l0.7,19.3c0,0,0,0.4,0.2,0.4c0.2,0,0.2-0.4,0.2-0.4l0.7-19.3 M128.7,117.2c-1.1,2.4-0.2,4.4-1.3,6.5
		c-1.1,2.1-0.4,3.9-0.5,4.8c-0.1,1-0.9,1.2-0.7,1.5c0.2,0.2,1-0.2,1.4-1.5c0.3-1.3-0.4-2,0.9-4.6c1.3-2.6,0.3-3.8,1.6-6.1"/>
	<path class="st3" d="M130.5,110l-19.3,0.7c0,0-0.4,0-0.4,0.2c0,0.2,0.4,0.2,0.4,0.2l19.3,0.7 M124.3,109.1
		c-2.4-1.1-4.4-0.2-6.5-1.3c-2.1-1.1-3.9-0.4-4.8-0.5c-1-0.1-1.2-0.9-1.5-0.7c-0.2,0.2,0.2,1,1.5,1.4c1.3,0.3,2-0.4,4.6,0.9
		c2.6,1.3,3.8,0.3,6.1,1.6"/>
	<path class="st4" d="M130.5,110l-19.3,0.7c0,0-0.4,0-0.4,0.2c0,0.2,0.4,0.2,0.4,0.2l19.3,0.7 M124.3,109.1
		c-2.4-1.1-4.4-0.2-6.5-1.3c-2.1-1.1-3.9-0.4-4.8-0.5c-1-0.1-1.2-0.9-1.5-0.7c-0.2,0.2,0.2,1,1.5,1.4c1.3,0.3,2-0.4,4.6,0.9
		c2.6,1.3,3.8,0.3,6.1,1.6"/>
	<path class="st3" d="M130.9,110.1l-18.1-6.7c0,0-0.3-0.1-0.4,0.1c-0.1,0.2,0.2,0.4,0.2,0.4l17.5,8.1 M125.5,106.9
		c-1.8-2-4-1.8-5.5-3.7c-1.5-1.8-3.4-1.9-4.3-2.3c-0.9-0.4-0.8-1.3-1.1-1.2c-0.3,0.1-0.2,1,0.9,1.8c1.1,0.8,2.1,0.4,3.9,2.6
		c1.9,2.2,3.4,1.7,5,3.8"/>
	<path class="st4" d="M130.9,110.1l-18.1-6.7c0,0-0.3-0.1-0.4,0.1c-0.1,0.2,0.2,0.4,0.2,0.4l17.5,8.1 M125.5,106.9
		c-1.8-2-4-1.8-5.5-3.7c-1.5-1.8-3.4-1.9-4.3-2.3c-0.9-0.4-0.8-1.3-1.1-1.2c-0.3,0.1-0.2,1,0.9,1.8c1.1,0.8,2.1,0.4,3.9,2.6
		c1.9,2.2,3.4,1.7,5,3.8"/>
	<path class="st3" d="M131.2,110.3l-14.2-13.1c0,0-0.3-0.3-0.4-0.1c-0.2,0.2,0.1,0.4,0.1,0.4l13.1,14.2 M127.4,105.3
		c-0.9-2.5-3-3.2-3.7-5.5c-0.7-2.3-2.4-3-3.1-3.8c-0.6-0.7-0.3-1.5-0.6-1.5c-0.3,0-0.6,0.9,0.1,2c0.7,1.1,1.8,1.1,2.7,3.9
		c0.9,2.8,2.5,2.9,3.2,5.4"/>
	<path class="st4" d="M131.2,110.3l-14.2-13.1c0,0-0.3-0.3-0.4-0.1c-0.2,0.2,0.1,0.4,0.1,0.4l13.1,14.2 M127.4,105.3
		c-0.9-2.5-3-3.2-3.7-5.5c-0.7-2.3-2.4-3-3.1-3.8c-0.6-0.7-0.3-1.5-0.6-1.5c-0.3,0-0.6,0.9,0.1,2c0.7,1.1,1.8,1.1,2.7,3.9
		c0.9,2.8,2.5,2.9,3.2,5.4"/>
	<path class="st5" d="M124.6,114.7c-2.3,1.1-2.8,2.9-5.1,3.5c1.9-0.1,2.7-2.1,5.2-3 M130.2,110.6l-9,9.7l9.7-9"/>
	<path class="st5" d="M129,117.8c-0.9,2.4,0,4-1.1,6.1c1.3-1.5,0.4-3.4,1.6-5.9 M130,111l0.5,13.2L131,111"/>
	<path class="st5" d="M126.5,116.7c-1.7,1.9-1.5,3.7-3.3,5.2c1.7-0.9,1.7-2.9,3.7-4.8 M130.1,110.8l-4.6,12.4l5.5-12.1"/>
	<path class="st3" d="M130.2,110.1l-17.5,8.1c0,0-0.3,0.1-0.2,0.4c0.1,0.2,0.4,0.1,0.4,0.1l18.1-6.7 M124.1,111.7
		c-2.7-0.1-4.1,1.5-6.5,1.3c-2.4-0.2-3.7,1.1-4.7,1.4c-0.9,0.3-1.5-0.3-1.6-0.1c-0.1,0.3,0.6,0.9,1.9,0.7c1.3-0.2,1.7-1.2,4.6-1
		c2.9,0.2,3.6-1.2,6.2-0.8"/>
	<path class="st4" d="M130.2,110.1l-17.5,8.1c0,0-0.3,0.1-0.2,0.4c0.1,0.2,0.4,0.1,0.4,0.1l18.1-6.7 M124.1,111.7
		c-2.7-0.1-4.1,1.5-6.5,1.3c-2.4-0.2-3.7,1.1-4.7,1.4c-0.9,0.3-1.5-0.3-1.6-0.1c-0.1,0.3,0.6,0.9,1.9,0.7c1.3-0.2,1.7-1.2,4.6-1
		c2.9,0.2,3.6-1.2,6.2-0.8"/>
	<path class="st5" d="M123.6,112.2c-2.6,0.1-3.7,1.6-6,1.3c1.8,0.6,3.3-0.9,6-0.8 M130.3,110.5l-12.1,5.5l12.4-4.6"/>
	<path class="st5" d="M123.7,109.4c-2.4-0.9-4,0-6.1-1.1c1.5,1.3,3.4,0.4,5.9,1.6 M130.5,110.5l-13.2,0.5l13.2,0.5"/>
	<path class="st5" d="M124.8,106.9c-1.9-1.7-3.7-1.5-5.2-3.3c0.9,1.7,2.9,1.7,4.8,3.7 M130.7,110.5l-12.4-4.6l12.1,5.5"/>
	<path class="st5" d="M126.8,105c-1.1-2.3-2.9-2.8-3.5-5.1c0.1,1.9,2.1,2.7,3,5.2 M130.9,110.6l-9.7-9l9,9.7"/>
	<path class="st3" d="M131.4,110.6L123.4,93c0,0-0.1-0.3-0.4-0.2c-0.2,0.1-0.1,0.4-0.1,0.4l6.7,18.1 M129.8,104.5
		c0.1-2.7-1.5-4.1-1.3-6.5c0.2-2.4-1.1-3.7-1.4-4.7c-0.3-0.9,0.3-1.5,0.1-1.6c-0.3-0.1-0.9,0.6-0.7,1.9c0.2,1.3,1.2,1.7,1,4.6
		c-0.2,2.9,1.2,3.6,0.8,6.2"/>
	<path class="st4" d="M131.4,110.6L123.4,93c0,0-0.1-0.3-0.4-0.2c-0.2,0.1-0.1,0.4-0.1,0.4l6.7,18.1 M129.8,104.5
		c0.1-2.7-1.5-4.1-1.3-6.5c0.2-2.4-1.1-3.7-1.4-4.7c-0.3-0.9,0.3-1.5,0.1-1.6c-0.3-0.1-0.9,0.6-0.7,1.9c0.2,1.3,1.2,1.7,1,4.6
		c-0.2,2.9,1.2,3.6,0.8,6.2"/>
	<path class="st3" d="M131.5,111l-0.7-19.3c0,0,0-0.4-0.2-0.4c-0.2,0-0.2,0.4-0.2,0.4l-0.7,19.3 M132.4,104.7
		c1.1-2.4,0.2-4.4,1.3-6.5c1.1-2.1,0.4-3.9,0.5-4.8c0.1-1,0.9-1.2,0.7-1.5c-0.2-0.2-1,0.2-1.4,1.5c-0.3,1.3,0.4,2-0.9,4.6
		c-1.3,2.6-0.3,3.8-1.6,6.1"/>
	<path class="st4" d="M131.5,111l-0.7-19.3c0,0,0-0.4-0.2-0.4c-0.2,0-0.2,0.4-0.2,0.4l-0.7,19.3 M132.4,104.7
		c1.1-2.4,0.2-4.4,1.3-6.5c1.1-2.1,0.4-3.9,0.5-4.8c0.1-1,0.9-1.2,0.7-1.5c-0.2-0.2-1,0.2-1.4,1.5c-0.3,1.3,0.4,2-0.9,4.6
		c-1.3,2.6-0.3,3.8-1.6,6.1"/>
	<path class="st3" d="M131.4,111.3l6.7-18.1c0,0,0.1-0.3-0.1-0.4c-0.2-0.1-0.4,0.2-0.4,0.2l-8.1,17.5 M134.6,105.9
		c2-1.8,1.8-4,3.7-5.5c1.8-1.5,1.9-3.4,2.3-4.3c0.4-0.9,1.3-0.8,1.2-1.1c-0.1-0.3-1-0.2-1.8,0.9c-0.8,1.1-0.4,2.1-2.6,3.9
		c-2.2,1.9-1.7,3.4-3.8,5"/>
	<path class="st4" d="M131.4,111.3l6.7-18.1c0,0,0.1-0.3-0.1-0.4c-0.2-0.1-0.4,0.2-0.4,0.2l-8.1,17.5 M134.6,105.9
		c2-1.8,1.8-4,3.7-5.5c1.8-1.5,1.9-3.4,2.3-4.3c0.4-0.9,1.3-0.8,1.2-1.1c-0.1-0.3-1-0.2-1.8,0.9c-0.8,1.1-0.4,2.1-2.6,3.9
		c-2.2,1.9-1.7,3.4-3.8,5"/>
	<path class="st3" d="M131.2,111.6l13.1-14.2c0,0,0.3-0.3,0.1-0.4c-0.2-0.2-0.4,0.1-0.4,0.1l-14.2,13.1 M136.2,107.8
		c2.5-0.9,3.2-3,5.5-3.7c2.3-0.7,3-2.4,3.8-3.1c0.7-0.6,1.5-0.3,1.5-0.6c0-0.3-0.9-0.6-2,0.1c-1.1,0.7-1.1,1.8-3.9,2.7
		c-2.8,0.9-2.9,2.5-5.4,3.2"/>
	<path class="st4" d="M131.2,111.6l13.1-14.2c0,0,0.3-0.3,0.1-0.4c-0.2-0.2-0.4,0.1-0.4,0.1l-14.2,13.1 M136.2,107.8
		c2.5-0.9,3.2-3,5.5-3.7c2.3-0.7,3-2.4,3.8-3.1c0.7-0.6,1.5-0.3,1.5-0.6c0-0.3-0.9-0.6-2,0.1c-1.1,0.7-1.1,1.8-3.9,2.7
		c-2.8,0.9-2.9,2.5-5.4,3.2"/>
	<path class="st3" d="M129.9,111.6l14.2,13.1c0,0,0.3,0.3,0.4,0.1c0.2-0.2-0.1-0.4-0.1-0.4l-13.1-14.2 M133.7,116.7
		c0.9,2.5,3,3.2,3.7,5.5c0.7,2.3,2.4,3,3.1,3.8c0.6,0.7,0.3,1.5,0.6,1.5c0.3,0,0.6-0.9-0.1-2c-0.7-1.1-1.8-1.1-2.7-3.9
		c-0.9-2.8-2.5-2.9-3.2-5.4"/>
	<path class="st4" d="M129.9,111.6l14.2,13.1c0,0,0.3,0.3,0.4,0.1c0.2-0.2-0.1-0.4-0.1-0.4l-13.1-14.2 M133.7,116.7
		c0.9,2.5,3,3.2,3.7,5.5c0.7,2.3,2.4,3,3.1,3.8c0.6,0.7,0.3,1.5,0.6,1.5c0.3,0,0.6-0.9-0.1-2c-0.7-1.1-1.8-1.1-2.7-3.9
		c-0.9-2.8-2.5-2.9-3.2-5.4"/>
	<path class="st3" d="M130.5,111.9l19.3-0.7c0,0,0.4,0,0.4-0.2c0-0.2-0.4-0.2-0.4-0.2l-19.3-0.7 M136.8,112.8
		c2.4,1.1,4.4,0.2,6.5,1.3c2.1,1.1,3.9,0.4,4.8,0.5c1,0.1,1.2,0.9,1.5,0.7c0.2-0.2-0.2-1-1.5-1.4c-1.3-0.3-2,0.4-4.6-0.9
		c-2.6-1.3-3.8-0.3-6.1-1.6"/>
	<path class="st4" d="M130.5,111.9l19.3-0.7c0,0,0.4,0,0.4-0.2c0-0.2-0.4-0.2-0.4-0.2l-19.3-0.7 M136.8,112.8
		c2.4,1.1,4.4,0.2,6.5,1.3c2.1,1.1,3.9,0.4,4.8,0.5c1,0.1,1.2,0.9,1.5,0.7c0.2-0.2-0.2-1-1.5-1.4c-1.3-0.3-2,0.4-4.6-0.9
		c-2.6-1.3-3.8-0.3-6.1-1.6"/>
	<path class="st3" d="M130.2,111.9l18.1,6.7c0,0,0.3,0.1,0.4-0.1c0.1-0.2-0.2-0.4-0.2-0.4l-17.5-8.1 M135.6,115c1.8,2,4,1.8,5.5,3.7
		c1.5,1.8,3.4,1.9,4.3,2.3c0.9,0.4,0.8,1.3,1.1,1.2c0.3-0.1,0.2-1-0.9-1.8c-1.1-0.8-2.1-0.4-3.9-2.6c-1.9-2.2-3.4-1.7-5-3.8"/>
	<path class="st4" d="M130.2,111.9l18.1,6.7c0,0,0.3,0.1,0.4-0.1c0.1-0.2-0.2-0.4-0.2-0.4l-17.5-8.1 M135.6,115c1.8,2,4,1.8,5.5,3.7
		c1.5,1.8,3.4,1.9,4.3,2.3c0.9,0.4,0.8,1.3,1.1,1.2c0.3-0.1,0.2-1-0.9-1.8c-1.1-0.8-2.1-0.4-3.9-2.6c-1.9-2.2-3.4-1.7-5-3.8"/>
	<path class="st5" d="M132.1,104.1c0.9-2.4,0-4,1.1-6.1c-1.3,1.5-0.4,3.4-1.6,5.9 M131,110.9l-0.5-13.2l-0.5,13.2"/>
	<path class="st5" d="M134.6,105.2c1.7-1.9,1.5-3.7,3.3-5.2c-1.7,0.9-1.7,2.9-3.7,4.8 M131,111.1l4.6-12.4l-5.5,12.1"/>
	<path class="st5" d="M136.5,107.2c2.3-1.1,2.8-2.9,5.1-3.5c-1.9,0.1-2.7,2.1-5.2,3 M130.9,111.3l9-9.7l-9.7,9"/>
	<path class="st5" d="M129.3,104c-0.1-2.6-1.6-3.7-1.3-6c-0.6,1.8,0.9,3.3,0.8,6 M131,110.7l-5.5-12l4.6,12.4"/>
	<path class="st3" d="M130.9,111.9l17.5-8.1c0,0,0.3-0.1,0.2-0.4c-0.1-0.2-0.4-0.1-0.4-0.1l-18.1,6.7 M137,110.3
		c2.7,0.1,4.1-1.5,6.5-1.3c2.4,0.2,3.7-1.1,4.7-1.4c0.9-0.3,1.5,0.3,1.6,0.1c0.1-0.3-0.6-0.9-1.9-0.7c-1.3,0.2-1.7,1.2-4.6,1
		c-2.9-0.2-3.6,1.2-6.2,0.8"/>
	<path class="st4" d="M130.9,111.9l17.5-8.1c0,0,0.3-0.1,0.2-0.4c-0.1-0.2-0.4-0.1-0.4-0.1l-18.1,6.7 M137,110.3
		c2.7,0.1,4.1-1.5,6.5-1.3c2.4,0.2,3.7-1.1,4.7-1.4c0.9-0.3,1.5,0.3,1.6,0.1c0.1-0.3-0.6-0.9-1.9-0.7c-1.3,0.2-1.7,1.2-4.6,1
		c-2.9-0.2-3.6,1.2-6.2,0.8"/>
	<path class="st5" d="M137.5,109.7c2.6-0.1,3.7-1.6,6-1.3c-1.8-0.6-3.3,0.9-6,0.8 M130.8,111.4l12.1-5.5l-12.4,4.6"/>
	<path class="st5" d="M137.4,112.5c2.4,0.9,4,0,6.1,1.1c-1.5-1.3-3.4-0.4-5.9-1.6 M130.6,111.5l13.2-0.5l-13.2-0.5"/>
	<path class="st5" d="M136.3,115c1.9,1.7,3.7,1.5,5.2,3.3c-0.9-1.7-2.9-1.7-4.8-3.7 M130.4,111.4l12.4,4.6l-12.1-5.5"/>
	<path class="st5" d="M134.3,116.9c1.1,2.3,2.9,2.8,3.5,5.1c-0.1-1.9-2.1-2.7-3-5.2 M130.2,111.3l9.7,9l-9-9.7"/>
	<path class="st5" d="M131.8,117.9c0.1,2.6,1.6,3.7,1.3,6c0.6-1.8-0.9-3.3-0.8-6 M130.1,111.2l5.5,12l-4.6-12.4"/>
	<path class="st3" d="M130.5,103.1c4.3,0,7.9,3.5,7.9,7.9s-3.5,7.9-7.9,7.9c-4.3,0-7.9-3.5-7.9-7.9S126.2,103.1,130.5,103.1"/>
	<circle class="st6" cx="130.5" cy="111" r="7.9"/>
	<path class="st7" d="M133.2,109.3c-0.5,0-1.1,0.2-1.4,0.7c0.6,0.5,1.9,0.6,2.8-0.1C134.3,109.5,133.8,109.3,133.2,109.3
		L133.2,109.3z M133.2,109.4c0.5,0,1,0.2,1.1,0.5c-0.6,0.7-1.6,0.6-2.2,0.1C132.4,109.6,132.8,109.4,133.2,109.4"/>
	<path class="st5" d="M133.3,108.9c-0.8,0-1,0.2-1.3,0.5c-0.4,0.3-0.5,0.2-0.6,0.3c-0.1,0.1,0,0.2,0.1,0.2c0.1-0.1,0.4-0.2,0.7-0.5
		c0.4-0.3,0.7-0.3,1.1-0.3c1.1,0,1.7,0.9,1.8,0.8C135.3,109.9,134.5,108.9,133.3,108.9L133.3,108.9z"/>
	<path class="st5" d="M135.5,109.3c-1.4-1.2-3.1-1.4-4.1-0.5c-0.2,0.3-0.4,0.7-0.5,1c-0.1,0.7,0.1,1.4,0.6,2.2
		c-0.1,0-0.2,0.1-0.2,0.1c-0.5-0.9-0.6-1.9-0.5-2.8c0-0.2,0.1-0.5,0.2-0.7C132.4,107.6,134.2,107.4,135.5,109.3L135.5,109.3z"/>
	<path class="st5" d="M133.2,109.3c0.3,0,0.5,0.2,0.5,0.5c0,0.3-0.2,0.5-0.5,0.5c-0.3,0-0.5-0.2-0.5-0.5
		C132.7,109.6,132.9,109.3,133.2,109.3"/>
	<path class="st5" d="M134.8,110.2c-1,0.8-2.1,0.7-2.7,0.4c-0.6-0.4-0.6-0.5-0.5-0.5c0.1,0,0.2,0.1,0.7,0.4
		C132.8,110.7,133.6,110.7,134.8,110.2L134.8,110.2z"/>
	<path class="st5" d="M129.3,112c-0.3,0-0.4,0.3-0.4,0.5c0,0.3,0.2,0.5,0.5,0.5c0.2,0,0.3-0.1,0.4-0.2c0.2,0.2,0.5,0.2,0.7,0.2
		c0,0,0.1,0,0.1,0c0.2,0,0.4,0,0.7-0.2c0.1,0.1,0.3,0.2,0.4,0.2c0.3,0,0.5-0.2,0.5-0.5c0-0.3-0.2-0.5-0.4-0.5
		c0.1,0.1,0.2,0.2,0.2,0.3c0,0.2-0.2,0.4-0.4,0.4c-0.2,0-0.4-0.2-0.4-0.3c-0.1,0.1-0.3,0.5-0.8,0.5c-0.5,0-0.7-0.4-0.8-0.5
		c0,0.2-0.2,0.3-0.4,0.3c-0.2,0-0.4-0.2-0.4-0.4C129.1,112.2,129.2,112.1,129.3,112"/>
	<path class="st5" d="M129.9,113.7c-0.6,0-0.8,0.5-1.4,0.9c0.3-0.1,0.5-0.4,1-0.6c0.4-0.2,0.8,0.1,1,0.1h0c0.2,0,0.6-0.3,1-0.1
		c0.4,0.2,0.7,0.5,1,0.6c-0.5-0.4-0.8-0.9-1.4-0.9c-0.1,0-0.4,0.1-0.6,0.2h0C130.3,113.7,130.1,113.7,129.9,113.7"/>
	<path class="st5" d="M129.7,114.4c-0.2,0-0.6,0.1-1,0.2c1.1-0.2,1.3,0.1,1.8,0.1h0c0.5,0,0.7-0.4,1.8-0.1c-1.2-0.4-1.5-0.1-1.8-0.1
		h0C130.3,114.4,130.1,114.4,129.7,114.4"/>
	<path class="st5" d="M128.8,114.6c-0.1,0-0.1,0-0.2,0c1.3,0.1,0.7,0.8,2,0.8h0c1.3,0,0.7-0.7,2-0.8c-1.3-0.1-0.9,0.7-2,0.7h0
		C129.5,115.2,129.8,114.5,128.8,114.6"/>
	<path class="st5" d="M131.6,116.5c0-0.6-0.5-1.1-1.1-1.1c-0.6,0-1.1,0.5-1.1,1.1c0.1-0.5,0.6-0.9,1.1-0.9
		C131.1,115.7,131.5,116,131.6,116.5"/>
	<path class="st5" d="M125.7,109.3c1.4-1.2,3.1-1.4,4.1-0.5c0.2,0.3,0.4,0.7,0.5,1c0.1,0.7-0.1,1.4-0.6,2.2c0.1,0,0.2,0.1,0.2,0.1
		c0.5-0.9,0.7-1.9,0.5-2.8c0-0.2-0.1-0.5-0.2-0.7C128.8,107.6,127,107.4,125.7,109.3L125.7,109.3z"/>
	<path class="st5" d="M127.8,108.9c0.8,0,1,0.2,1.3,0.5c0.4,0.3,0.5,0.2,0.6,0.3c0.1,0.1,0,0.2-0.1,0.2c-0.1-0.1-0.4-0.2-0.7-0.5
		c-0.4-0.3-0.7-0.3-1.1-0.3c-1.1,0-1.7,0.9-1.8,0.8C125.9,109.9,126.6,108.9,127.8,108.9L127.8,108.9z"/>
	<path class="st7" d="M127.8,109.3c-0.5,0-1.1,0.2-1.4,0.7c0.6,0.5,1.9,0.6,2.8-0.1C128.9,109.5,128.3,109.3,127.8,109.3
		 M127.8,109.4c0.5,0,1,0.2,1.1,0.5c-0.6,0.7-1.6,0.6-2.2,0.1C127,109.6,127.4,109.4,127.8,109.4"/>
	<path class="st5" d="M127.9,109.3c0.3,0,0.5,0.2,0.5,0.5c0,0.3-0.2,0.5-0.5,0.5c-0.3,0-0.5-0.2-0.5-0.5
		C127.3,109.6,127.6,109.3,127.9,109.3"/>
	<path class="st5" d="M126.4,110.2c1,0.8,2.1,0.7,2.7,0.4c0.6-0.4,0.6-0.5,0.5-0.5c-0.1,0-0.2,0.1-0.7,0.4
		C128.3,110.7,127.6,110.7,126.4,110.2L126.4,110.2z"/>
</g>
</svg>
