<?xml version="1.0" encoding="utf-8"?>
<!-- Generator: Adobe Illustrator 21.0.2, SVG Export Plug-In . SVG Version: 6.00 Build 0)  -->
<svg version="1.1" xmlns="http://www.w3.org/2000/svg" xmlns:xlink="http://www.w3.org/1999/xlink" x="0px" y="0px"
	 viewBox="0 0 57.4 57.9" style="enable-background:new 0 0 57.4 57.9;" xml:space="preserve">
<style type="text/css">
	.st0{opacity:0.8;fill:#FCC549;}
	.st1{fill:#FFFFFF;}
	.st2{fill:none;stroke:#73629A;stroke-width:2;stroke-linecap:round;stroke-miterlimit:10;}
	.st3{fill:#73629A;stroke:#73629A;stroke-miterlimit:10;}
	.st4{fill:#FFFFFF;stroke:#73629A;stroke-width:2;stroke-linecap:round;stroke-miterlimit:10;}
	.st5{fill:#FFFFFF;stroke:#FFFFFF;stroke-width:9;stroke-miterlimit:10;}
	.st6{fill:#6CC5DB;}
	.st7{fill:#73629A;}
	.st8{fill:#F5C153;}
	.st9{fill:#FFFFFF;stroke:#8778B3;stroke-miterlimit:10;}
	.st10{clip-path:url(#SVGID_2_);}
	.st11{clip-path:url(#SVGID_4_);fill:#C73B3C;}
	.st12{clip-path:url(#SVGID_4_);fill:#ECD652;}
	.st13{clip-path:url(#SVGID_4_);fill:#336B44;}
	.st14{clip-path:url(#SVGID_4_);}
	.st15{clip-path:url(#SVGID_6_);fill:#55A0CE;}
	.st16{clip-path:url(#SVGID_6_);fill:#ECD652;}
	.st17{clip-path:url(#SVGID_6_);}
	.st18{fill:#ECD652;}
	.st19{clip-path:url(#SVGID_8_);}
	.st20{fill-rule:evenodd;clip-rule:evenodd;}
	.st21{fill-rule:evenodd;clip-rule:evenodd;fill:#FFFFFF;}
	.st22{fill-rule:evenodd;clip-rule:evenodd;fill:#E42535;}
	.st23{fill-rule:evenodd;clip-rule:evenodd;fill:#CACACA;}
	.st24{fill-rule:evenodd;clip-rule:evenodd;fill:#F4C343;}
	.st25{clip-path:url(#SVGID_10_);}
	.st26{fill:#E42535;}
	.st27{fill:#179F56;}
	.st28{fill:#EDCA50;}
	.st29{fill:none;}
	.st30{clip-path:url(#SVGID_12_);}
	.st31{clip-path:url(#SVGID_14_);fill:#C32732;}
	.st32{clip-path:url(#SVGID_14_);fill:#F1D74F;}
	.st33{clip-path:url(#SVGID_16_);}
	.st34{clip-path:url(#SVGID_20_);fill:#FFFFFF;}
	.st35{opacity:0.75;clip-path:url(#SVGID_20_);fill:#F90D1B;}
	.st36{clip-path:url(#SVGID_20_);fill:#030C7E;}
	.st37{clip-path:url(#SVGID_24_);}
	.st38{clip-path:url(#SVGID_26_);fill:#34448C;}
	.st39{clip-path:url(#SVGID_26_);fill:#FFFFFF;}
	.st40{clip-path:url(#SVGID_26_);fill:#CF273D;}
	.st41{clip-path:url(#SVGID_28_);}
	.st42{fill:#2978B3;}
	.st43{clip-path:url(#SVGID_30_);}
	.st44{clip-path:url(#SVGID_32_);fill:#3D8156;}
	.st45{clip-path:url(#SVGID_32_);fill:#FFFFFF;}
	.st46{clip-path:url(#SVGID_34_);}
	.st47{clip-path:url(#SVGID_36_);fill:#C32732;}
	.st48{clip-path:url(#SVGID_36_);fill:#F1D74F;}
	.st49{clip-path:url(#SVGID_38_);}
	.st50{clip-path:url(#SVGID_40_);fill:#FFFFFF;}
	.st51{clip-path:url(#SVGID_40_);fill:#316738;}
	.st52{clip-path:url(#SVGID_40_);}
	.st53{clip-path:url(#SVGID_42_);fill:#FFFFFF;}
	.st54{clip-path:url(#SVGID_42_);fill:#316738;}
	.st55{clip-path:url(#SVGID_44_);}
	.st56{clip-path:url(#SVGID_46_);fill:#AD2434;}
	.st57{clip-path:url(#SVGID_46_);fill:#EEBD49;}
	.st58{clip-path:url(#SVGID_46_);}
	.st59{fill:#95202E;}
	.st60{fill:#BCAB47;}
	.st61{fill:#43896F;}
	.st62{fill:#3F5FA1;}
	.st63{fill:#C6C6C6;}
	.st64{fill:#BAAE48;}
	.st65{fill:#C24250;}
	.st66{fill:#D66FA2;}
	.st67{fill:#F1CF95;}
	.st68{fill:#47569B;}
	.st69{clip-path:url(#SVGID_48_);fill:#3F5FA1;}
	.st70{clip-path:url(#SVGID_50_);}
	.st71{fill:#314490;}
	.st72{fill:#B4253A;}
	.st73{clip-path:url(#SVGID_52_);}
	.st74{clip-path:url(#SVGID_54_);fill:#428C4A;}
	.st75{clip-path:url(#SVGID_54_);fill:#E7BB46;}
	.st76{clip-path:url(#SVGID_54_);}
	.st77{clip-path:url(#SVGID_56_);fill:#302B68;}
	.st78{clip-path:url(#SVGID_56_);fill:#FFFFFF;}
	.st79{clip-path:url(#SVGID_56_);}
	.st80{fill-rule:evenodd;clip-rule:evenodd;fill:#428C4A;}
	.st81{clip-path:url(#SVGID_58_);}
	.st82{clip-path:url(#SVGID_60_);fill:#FFFFFF;}
	.st83{clip-path:url(#SVGID_60_);fill:#4E9A4F;}
	.st84{clip-path:url(#SVGID_60_);fill:#BE2632;}
	.st85{clip-path:url(#SVGID_60_);}
	.st86{clip-path:url(#SVGID_62_);fill:#BE2632;}
	.st87{clip-path:url(#SVGID_62_);fill:#FFFFFF;}
	.st88{clip-path:url(#SVGID_64_);}
	.st89{clip-path:url(#SVGID_66_);fill:#FFFFFF;}
	.st90{clip-path:url(#SVGID_66_);}
	.st91{clip-path:url(#SVGID_66_);fill:#316738;}
	.st92{clip-path:url(#SVGID_68_);}
	.st93{fill:#8778B3;}
	.st94{clip-path:url(#SVGID_68_);fill:#FFFFFF;}
	.st95{clip-path:url(#SVGID_68_);fill:#A2232B;}
	.st96{clip-path:url(#SVGID_70_);}
	.st97{clip-path:url(#SVGID_72_);fill:#6080B9;}
	.st98{clip-path:url(#SVGID_72_);fill:#FFFFFF;}
	.st99{clip-path:url(#SVGID_74_);}
	.st100{clip-path:url(#SVGID_76_);fill:#FFFFFF;}
	.st101{clip-path:url(#SVGID_76_);fill:#E8904F;}
	.st102{clip-path:url(#SVGID_76_);fill:#428447;}
	.st103{clip-path:url(#SVGID_76_);}
	.st104{clip-path:url(#SVGID_78_);fill:#2B2C70;}
	.st105{clip-path:url(#SVGID_78_);fill:#FFFFFF;}
	.st106{clip-path:url(#SVGID_80_);}
	.st107{clip-path:url(#SVGID_82_);fill:#CF273D;}
	.st108{clip-path:url(#SVGID_82_);fill:#FFFFFF;}
	.st109{clip-path:url(#SVGID_84_);}
	.st110{clip-path:url(#SVGID_86_);fill:#C82635;}
	.st111{clip-path:url(#SVGID_86_);}
	.st112{clip-path:url(#SVGID_88_);fill:#FFFFFF;}
	.st113{clip-path:url(#SVGID_88_);fill:#C82635;}
	.st114{clip-path:url(#SVGID_90_);}
	.st115{clip-path:url(#SVGID_92_);}
	.st116{fill:#2F3480;}
	.st117{fill:#B2252F;}
	.st118{fill:#FFFFFF;stroke:#B2252F;stroke-width:0.1;stroke-miterlimit:10;}
	.st119{opacity:0.7;fill:#73BFD3;}
	.st120{fill:#FFFFFF;stroke:#FFFFFF;stroke-width:4;stroke-miterlimit:10;}
	.st121{clip-path:url(#SVGID_94_);fill:#2A3F84;}
	.st122{clip-path:url(#SVGID_94_);fill:#B4253A;}
	.st123{clip-path:url(#SVGID_94_);}
	.st124{clip-path:url(#SVGID_96_);fill:#FFFFFF;}
	.st125{fill:none;stroke:#F0BC5C;stroke-width:2;stroke-linecap:round;stroke-miterlimit:10;}
	.st126{opacity:0.8;fill:#FFFFFF;}
	.st127{fill:#AFE6EF;}
	.st128{fill:#AFE6EF;stroke:#73629A;stroke-width:2;stroke-linecap:round;stroke-miterlimit:10;}
	.st129{fill:#FCC549;}
	.st130{opacity:0.9;fill:#FFFFFF;}
	.st131{opacity:0.8;}
	.st132{display:none;}
	.st133{display:inline;}
	.st134{fill:#FFE2C9;}
	.st135{fill:none;stroke:#FCC549;stroke-width:2;stroke-linecap:round;stroke-miterlimit:10;}
	.st136{fill:none;stroke:#FFFFFF;stroke-miterlimit:10;}
	.st137{fill:#FFFFFF;stroke:#FFFFFF;stroke-miterlimit:10;}
	.st138{fill:none;stroke:#3C2F16;stroke-width:2;stroke-linecap:round;stroke-miterlimit:10;}
	.st139{fill:#DEE7FF;}
	.st140{fill:#3C2F16;}
	.st141{fill:none;stroke:#3C2F16;stroke-width:2;stroke-linecap:round;stroke-miterlimit:10;stroke-dasharray:9.9901,4.995;}
	.st142{fill:#B4CAF6;}
</style>
<g id="MESA_DE_TRABAJO">
	<g>
		<path class="st9" d="M25.9,1.6C43.2-0.1,57.7,14.4,56,31.7C54.7,44.6,44.3,55,31.5,56.2C14.1,58-0.3,43.5,1.4,26.1
			C2.7,13.3,13,2.9,25.9,1.6z"/>
		<g>
			<defs>
				<path id="SVGID_63_" d="M51.3,26c1.9,15-10.7,27.5-25.6,25.6C15.5,50.3,7.2,42.1,6,31.9C4.1,17,16.7,4.4,31.6,6.3
					C41.8,7.5,50,15.8,51.3,26z"/>
			</defs>
			<clipPath id="SVGID_2_">
				<use xlink:href="#SVGID_63_"  style="overflow:visible;"/>
			</clipPath>
			<g id="KENYA_2_" class="st10">
				<g>
					<g>
						<defs>
							<rect id="SVGID_65_" x="-11.1" y="5.8" width="79.4" height="46.4"/>
						</defs>
						<clipPath id="SVGID_4_">
							<use xlink:href="#SVGID_65_"  style="overflow:visible;"/>
						</clipPath>
						<rect x="-11.1" y="5.8" style="clip-path:url(#SVGID_4_);fill:#FFFFFF;" width="79.4" height="46.4"/>
						<rect x="-11.1" y="5.8" class="st14" width="79.4" height="13.9"/>
						<rect x="-11.1" y="38.2" style="clip-path:url(#SVGID_4_);fill:#316738;" width="79.4" height="13.9"/>
						<g class="st14">
							<defs>
								<rect id="SVGID_67_" x="-11.1" y="5.8" width="79.4" height="46.4"/>
							</defs>
							<clipPath id="SVGID_6_">
								<use xlink:href="#SVGID_67_"  style="overflow:visible;"/>
							</clipPath>
							<path class="st17" d="M20,42.7l0.5,0.3L34,19.6c0.8-0.2,1.2-1,1.7-1.7c0.3-0.5,1.4-2.5,2-5.1c-2,1.7-3.2,3.8-3.5,4.2
								c-0.4,0.7-0.9,1.5-0.6,2.3L20,42.7z"/>
							<g class="st17">
								<path class="st93" d="M20.5,43L20,42.7l13.5-23.5c-0.2-0.8,0.2-1.6,0.7-2.3c1.2-2.1,2.5-3.5,3.5-4.3
									c-0.2,1.2-0.7,3.1-1.9,5.2c-0.4,0.7-0.9,1.5-1.7,1.7L20.5,43L20.5,43z M37.6,12.7c-0.9,0.8-2.2,2.2-3.4,4.3
									c-0.4,0.7-0.9,1.5-0.6,2.3L20.1,42.7l0.5,0.2L34,19.5c0.8-0.2,1.2-1,1.7-1.7C36.9,15.8,37.4,13.9,37.6,12.7L37.6,12.7z"/>
							</g>
							<path style="clip-path:url(#SVGID_6_);fill:#FFFFFF;" d="M20,42.7l0.5,0.3L34,19.6c0.8-0.2,1.2-1,1.7-1.7
								c0.3-0.5,1.4-2.5,2-5.1c-2,1.7-3.2,3.8-3.5,4.2c-0.4,0.7-0.9,1.5-0.6,2.3L20,42.7z"/>
							<path class="st17" d="M36.6,42.7L36.1,43L22.5,19.6c-0.8-0.2-1.2-1-1.7-1.7c-0.3-0.5-1.5-2.5-2-5.1c2,1.7,3.2,3.8,3.5,4.2
								c0.4,0.7,0.9,1.5,0.6,2.3L36.6,42.7z"/>
							<g class="st17">
								<path class="st93" d="M36,43L36,43L22.5,19.6c-0.8-0.2-1.2-1-1.7-1.7c-1.2-2.1-1.7-3.9-2-5.1c1,0.8,2.3,2.1,3.5,4.2
									c0.4,0.7,0.9,1.5,0.7,2.3l13.5,23.4L36,43L36,43z M18.9,12.8c0.3,1.1,0.8,3,2,5.1c0.4,0.7,0.9,1.5,1.6,1.7l13.5,23.4
									l0.5-0.3L23,19.3c0.2-0.8-0.2-1.6-0.7-2.3C21.2,14.9,19.8,13.5,18.9,12.8L18.9,12.8z"/>
							</g>
							<path style="clip-path:url(#SVGID_6_);fill:#FFFFFF;" d="M36.6,42.7L36.1,43L22.5,19.6c-0.8-0.2-1.2-1-1.7-1.7
								c-0.3-0.5-1.5-2.5-2-5.1c2,1.7,3.2,3.8,3.5,4.2c0.4,0.7,0.9,1.5,0.6,2.3L36.6,42.7z"/>
							<path style="clip-path:url(#SVGID_6_);fill:#A2232B;" d="M-11.1,22v13.9h33.9c0.9,2.3,3.8,7,5.5,7c1.7,0,4.6-4.6,5.5-7h34.6
								V22H33.8c-0.9-2.3-3.8-7-5.5-7c-1.7,0-4.6,4.6-5.5,7H-11.1z"/>
							<path class="st17" d="M33.8,35.9c0.9-2.3,1.5-4.6,1.5-7c0-2.3-0.6-4.6-1.5-6.9c-0.9,2.3-1.4,4.6-1.4,6.9
								C32.3,31.3,32.9,33.6,33.8,35.9L33.8,35.9z"/>
							<path class="st17" d="M22.8,35.9c-0.9-2.3-1.4-4.6-1.4-7c0-2.3,0.6-4.6,1.4-6.9c0.9,2.3,1.4,4.6,1.4,6.9
								C24.2,31.3,23.7,33.6,22.8,35.9L22.8,35.9z"/>
							<path style="clip-path:url(#SVGID_6_);fill:#FFFFFF;" d="M28.3,27.2c0.6,0,1.2,0.8,1.2,1.7c0,1-0.5,1.7-1.2,1.7
								c-0.6,0-1.2-0.8-1.2-1.7C27.1,28,27.7,27.2,28.3,27.2L28.3,27.2z"/>
							<path style="clip-path:url(#SVGID_6_);fill:#FFFFFF;" d="M28.6,30.6c0,0,1.2,2.3,1.2,6.1c0,3.8-1.2,6.1-1.2,6.1V30.6z"/>
							<path style="clip-path:url(#SVGID_6_);fill:#FFFFFF;" d="M28,27.2c0,0-1.2-2.3-1.2-6.1c0-3.8,1.2-6.1,1.2-6.1V27.2z"/>
							<path style="clip-path:url(#SVGID_6_);fill:#FFFFFF;" d="M28,30.6c0,0-1.2,2.3-1.2,6.1c0,3.8,1.2,6.1,1.2,6.1V30.6z"/>
							<path style="clip-path:url(#SVGID_6_);fill:#FFFFFF;" d="M28.6,27.2c0,0,1.2-2.3,1.2-6.1c0-3.8-1.2-6.1-1.2-6.1V27.2z"/>
						</g>
					</g>
				</g>
			</g>
		</g>
	</g>
</g>
<g id="ALMACEN" class="st132">
</g>
<g id="GUIAS" class="st132">
</g>
</svg>
