<?xml version="1.0" encoding="utf-8"?>
<!-- Generator: Adobe Illustrator 21.1.0, SVG Export Plug-In . SVG Version: 6.00 Build 0)  -->
<svg version="1.1" id="Layer_1" xmlns="http://www.w3.org/2000/svg" xmlns:xlink="http://www.w3.org/1999/xlink" x="0px" y="0px"
	 viewBox="0 0 192 192" style="enable-background:new 0 0 192 192;" xml:space="preserve">
<style type="text/css">
	.st0{fill:none;stroke:#3C2F18;stroke-width:5;stroke-linecap:round;stroke-miterlimit:10;}
	.st1{clip-path:url(#SVGID_2_);}
	.st2{fill:#FFFFFF;}
	.st3{fill:#007168;}
	.st4{fill:#FCE100;}
	.st5{fill:#D21034;}
</style>
<path class="st0" d="M9,85.6c-5.3,53.2,39.1,97.6,92.3,92.3c39.4-3.9,71.3-35.8,75.2-75.2c5.3-53.2-39.1-97.6-92.3-92.3
	C44.8,14.3,12.9,46.2,9,85.6z"/>
<g>
	<defs>
		<path id="SVGID_1_" d="M162.6,85.3c5.8,45.9-32.9,84.6-78.8,78.8c-31.3-3.9-56.6-29.2-60.5-60.5C17.5,57.6,56.2,19,102.1,24.7
			C133.4,28.7,158.7,54,162.6,85.3z"/>
	</defs>
	<clipPath id="SVGID_2_">
		<use xlink:href="#SVGID_1_"  style="overflow:visible;"/>
	</clipPath>
	<g class="st1">
		<g>
			<rect x="19" y="20" width="223.5" height="149"/>
		</g>
		<g>
			<rect x="19" y="20" class="st2" width="223.5" height="51.2"/>
		</g>
		<g>
			<rect x="19" y="20" class="st3" width="223.5" height="46.6"/>
		</g>
		<g>
			<rect x="19" y="117.7" class="st2" width="223.5" height="51.3"/>
		</g>
		<g>
			<rect x="19" y="122.4" class="st4" width="223.5" height="46.6"/>
		</g>
		<g>
			<path class="st5" d="M19,20v149l97.8-74.5L19,20z"/>
		</g>
		<g>
			<path class="st4" d="M69.8,122.4l-18.2-13.3l-18.1,13.3l7-21.4L22.2,87.9L44.7,88l6.9-21.4L58.5,88L81,87.9l-18.3,13.2
				L69.8,122.4z"/>
		</g>
		<g>
			<path class="st2" d="M35.8,107.5h13.1c1.1,1.2,3.4,1.7,5.6,0c4.1-2.2,12,0,12,0l1.6-1.7l-3.8-12.5L63,91.9c0,0-2.9-1.8-8.5-1.2
				c-5.6,0.6-7.5-0.2-7.5-0.2s-4.9,0.6-6.3,1.3c-0.2,0.1-1.6,1.6-1.6,1.6L35.8,107.5z"/>
			<path d="M51.5,108.8c-1.1,0-2.1-0.4-2.7-1.1h-13c-0.1,0-0.1,0-0.2-0.1c0,0-0.1-0.1,0-0.2l3.3-14.2c0,0,0-0.1,0.1-0.1
				c0.1-0.1,1.4-1.5,1.6-1.6c0,0,0,0,0,0c1.4-0.7,6.1-1.3,6.3-1.3c0,0,0.1,0,0.1,0c0,0,2,0.8,7.4,0.2c5.6-0.6,8.5,1.1,8.6,1.2
				c0,0,0,0,0,0l1.4,1.5c0,0,0,0,0,0.1l3.8,12.5c0,0.1,0,0.1,0,0.2l-1.6,1.7c-0.1,0.1-0.1,0.1-0.2,0.1c-0.1,0-7.9-2.2-11.9,0
				C53.6,108.5,52.5,108.8,51.5,108.8z M36.1,107.3h12.8c0.1,0,0.1,0,0.1,0.1c1,1.2,3.3,1.5,5.4,0c3.9-2.2,11.1-0.3,12.1-0.1
				l1.4-1.5l-3.8-12.3l-1.3-1.4c-0.3-0.2-3.2-1.7-8.4-1.1c-5.1,0.5-7.2-0.1-7.6-0.2c-0.5,0.1-4.8,0.6-6.1,1.2c-0.2,0.1-1,1-1.5,1.5
				L36.1,107.3z"/>
		</g>
		<g>
			<path d="M51.5,108.8c-1,0-1.9-0.3-2.8-1c-0.1-0.1-0.1-0.2-0.1-0.3c0.2-0.4,1.1-1.2,2.7-2c-5-1.9-12.7-1-12.8-1
				c-0.1,0-0.2-0.1-0.2-0.2c0-0.1,0.1-0.2,0.2-0.2c0,0,3.2-0.4,6.7-0.2c2.7,0.2,4.9,0.6,6.6,1.3c2.5-1.1,6.5-2,12.2-1.2
				c0.1,0,0.2,0.1,0.2,0.2c0,0.1-0.1,0.2-0.2,0.2c-5.5-0.8-9.3,0.1-11.6,1.1c1,0.5,1.9,1.2,2.4,1.9c0,0,0,0.1,0,0.2
				c0,0.1,0,0.1-0.1,0.1C53.6,108.4,52.5,108.8,51.5,108.8z M49.1,107.6c1.7,1.2,3.3,1.1,5.2-0.1c-0.6-0.7-1.5-1.3-2.5-1.8
				C50.2,106.5,49.4,107.3,49.1,107.6z"/>
		</g>
		<g>
			<path d="M51.8,91.8l-0.1,13.8 M63,92l2.3,10.9 M40.8,91.8l-1.3,5.6"/>
			<path d="M51.7,105.8C51.7,105.8,51.7,105.8,51.7,105.8c-0.1,0-0.2-0.1-0.2-0.2l0.1-13.8c0-0.1,0.1-0.2,0.2-0.2c0,0,0,0,0,0
				c0.1,0,0.2,0.1,0.2,0.2l-0.1,13.8C51.9,105.7,51.8,105.8,51.7,105.8z M65.3,103.1c-0.1,0-0.2-0.1-0.2-0.2L62.8,92
				c0-0.1,0-0.2,0.2-0.2c0.1,0,0.2,0,0.2,0.2l2.3,10.9C65.5,103,65.5,103.1,65.3,103.1C65.3,103.1,65.3,103.1,65.3,103.1z
				 M39.5,97.7C39.5,97.7,39.5,97.7,39.5,97.7c-0.2,0-0.2-0.1-0.2-0.2l1.3-5.6c0-0.1,0.1-0.2,0.2-0.1c0.1,0,0.2,0.1,0.1,0.2
				l-1.3,5.6C39.7,97.6,39.6,97.7,39.5,97.7z"/>
		</g>
		<g>
			<path d="M27.3,109l3.1,3.6c0.4,0.2,0.7,0.2,1,0l4.6-5.5l1.9-2.4c0.3-0.4,0.4-0.7,0.4-1.1l3.7-3.3c0.3,0,0.5,0.1,0.8,0.1
				c-0.4-0.1-0.6-0.3-0.3-0.7l0.8-0.6l0.6,0.8c0,0-0.9,1.2-1,1.2s-1,0-1,0l-1.9,1.7l0.8,0.7l1.3,3.5l1.6-1.1l-1-3.6l2.2-2.4
				l-0.8-1.3l0.5-0.7c0,0,7.6,4.8,10.5,3.5c0.1,0,0.2-3.4,0.2-3.4s-7.8-0.8-8-2.4c-0.2-1.6,1.7-1.7,1.7-1.7L48,92.9l0.2-0.6l1.4,1.7
				l3.1-2.6l18.2,20.8c1-0.4,1.2-0.6,1.3-1.6c0,0-17.9-20.5-17.9-20.5l1.4-1.5c0.3-0.3,0.4-0.4,0.4-0.9l2.1-1.8
				c0.6,0.2,1,0.6,1.4,1.1l5.8-4.9c0.2,0.2,0.6,0.3,0.9,0.1l9.5-9.2l-10.4,7.3L65,80.1c0-0.3,0.4-0.4,0-0.9c-0.4-0.5-1,0.5-1.1,0.5
				c-0.1,0-1.5-0.5-1.8-1.1L62,80.2l-2.6,2.5l-2-0.1l-2.9,2.8L54,86.4l0.5,0.9c0,0-1.6,1.4-1.6,1.3c0-0.1-0.3-0.4-0.3-0.4l1.3-1.2
				l0.2-0.8l-0.4-0.7c-0.1,0.1-1.8,1.9-1.9,1.7c-0.2-0.2-4.9-5.6-4.9-5.6l0.3-1L44,77.2c-1.1-0.4-2.9-0.5-3.3,2
				c-0.3,0.6-2.6,0.1-2.6,0.1l-1.3,0.3l-7.2,10.2l4,4.8l8.2-10.4l0.2-2.9l1.7,1.9c0.6,0.1,1.1,0.1,1.6-0.2l4.9,5.4l-0.8,0.8
				c0.3,0.3,0.5,0.5,0.7,0.8c0.3-0.2,0.5-0.4,0.8-0.6c0.1,0.1,0.2,0.4,0.3,0.5c-0.4,0.2-0.7,0.5-1.1,0.7c-0.7-0.4-1.3-1-1.2-1.8
				l-2.7,2.3l-0.1,0.5l-8.1,6.8l-0.7,0.1l-0.2,2.1l5.3-4.4v-0.6L43,96l4.1-3.3c0,0,0.3,0.4,0.2,0.4c-0.1,0-3.6,3.3-3.6,3.3l-0.1,0.4
				l-0.6,0.5L42.5,97l-4.9,4.4h-0.7l-2.7,2.7c-0.7,0.1-1.3,0.1-1.9,0.5L27.3,109z"/>
			<path d="M30.9,113c-0.2,0-0.4-0.1-0.6-0.2c0,0,0,0,0,0l-3.1-3.6c-0.1-0.1-0.1-0.2,0-0.3l4.9-4.3c0.6-0.4,1.2-0.5,2-0.6l2.7-2.7
				c0,0,0.1-0.1,0.1-0.1h0.7l4.9-4.3c0.1-0.1,0.2-0.1,0.3,0l0.2,0.2l0.5-0.4l0.1-0.3c0,0,0-0.1,0.1-0.1c2.2-2.1,3.1-2.8,3.5-3.1
				l-3.9,3.1c-0.1,0.1-0.2,0.1-0.3,0L42.6,96v0.2c0,0.1,0,0.1-0.1,0.2l-5.3,4.4c-0.1,0.1-0.1,0.1-0.2,0c-0.1,0-0.1-0.1-0.1-0.2
				l0.2-2.1c0-0.1,0.1-0.2,0.2-0.2l0.7-0.1l8-6.7l0.1-0.4c0,0,0-0.1,0.1-0.1l2.7-2.3c0.1-0.1,0.1-0.1,0.2,0c0.1,0,0.1,0.1,0.1,0.2
				c0,0.7,0.5,1.2,1,1.6c0.1-0.1,0.3-0.2,0.4-0.3c0.1-0.1,0.2-0.2,0.4-0.3c0,0,0,0,0-0.1c0,0,0,0-0.1-0.1c-0.1,0.1-0.2,0.1-0.2,0.2
				c-0.1,0.1-0.3,0.2-0.4,0.3c-0.1,0.1-0.2,0-0.3,0c-0.1-0.2-0.3-0.3-0.4-0.4c-0.1-0.1-0.2-0.3-0.4-0.4c-0.1-0.1-0.1-0.2,0-0.3
				l0.7-0.7l-4.6-5.2c-0.6,0.2-1.1,0.2-1.6,0.1c0,0-0.1,0-0.1-0.1l-1.4-1.6L42,84.3c0,0,0,0.1,0,0.1l-8.2,10.4c0,0-0.1,0.1-0.2,0.1
				c-0.1,0-0.1,0-0.2-0.1l-4-4.8c-0.1-0.1-0.1-0.2,0-0.2l7.2-10.2c0,0,0.1-0.1,0.1-0.1l1.3-0.3c0,0,0.1,0,0.1,0c1,0.2,2.2,0.3,2.4,0
				c0.2-1,0.5-1.7,1.1-2c0.8-0.5,1.9-0.3,2.4-0.1c0,0,0.1,0,0.1,0.1l3.1,3.4c0,0.1,0.1,0.1,0,0.2L47,81.6c0.6,0.6,4.2,4.7,4.8,5.4
				c0.3-0.2,1-0.9,1.3-1.2c0.3-0.3,0.4-0.4,0.4-0.4c0,0,0.1,0,0.2,0c0.1,0,0.1,0,0.1,0.1l0.2,0.3l0.1-0.4c0,0,0-0.1,0.1-0.1l2.9-2.8
				c0,0,0.1-0.1,0.1-0.1l1.9,0.1l2.5-2.4l0.1-1.6c0-0.1,0.1-0.2,0.2-0.2c0.1,0,0.2,0,0.2,0.1c0.2,0.5,1.3,0.9,1.6,1c0,0,0,0,0.1-0.1
				c0.2-0.2,0.5-0.5,0.8-0.5c0.1,0,0.3,0,0.4,0.2c0.3,0.4,0.2,0.7,0.1,0.9c0,0,0,0.1,0,0.1l0.1,0.1l10.3-7.3c0.1-0.1,0.2,0,0.3,0
				c0.1,0.1,0.1,0.2,0,0.3l-9.5,9.2c0,0,0,0,0,0c-0.3,0.2-0.7,0.1-1-0.1l-5.6,4.8c0,0-0.1,0.1-0.2,0c-0.1,0-0.1,0-0.1-0.1
				c-0.3-0.5-0.7-0.8-1.2-1l-1.9,1.7c0,0.5-0.1,0.6-0.4,1L54.6,90c1.6,1.8,17.6,20.2,17.8,20.4c0,0,0.1,0.1,0.1,0.1
				c-0.1,1.1-0.3,1.4-1.4,1.8c-0.1,0-0.2,0-0.2-0.1L52.6,91.7l-3,2.5c0,0-0.1,0.1-0.1,0c-0.1,0-0.1,0-0.1-0.1l-1.1-1.4l0,0.2L49,94
				c0,0.1,0,0.1,0,0.2c0,0.1-0.1,0.1-0.2,0.1c0,0-0.9,0.1-1.3,0.6c-0.2,0.2-0.3,0.5-0.2,0.9c0.1,0.5,2.3,1.6,7.9,2.2
				c0.1,0,0.2,0.1,0.2,0.2c-0.1,3.5-0.2,3.5-0.3,3.6c0,0,0,0,0,0c-2.8,1.2-9.4-2.7-10.5-3.4l-0.4,0.5l0.7,1.2c0,0.1,0,0.2,0,0.2
				l-2.1,2.3l1,3.4c0,0.1,0,0.2-0.1,0.2l-1.6,1.1c-0.1,0-0.1,0-0.2,0c-0.1,0-0.1-0.1-0.1-0.1l-1.2-3.4l-0.8-0.7c0,0-0.1-0.1-0.1-0.1
				c0-0.1,0-0.1,0.1-0.1l1.9-1.7c0,0,0.1-0.1,0.1-0.1h0.9c0.1-0.1,0.5-0.6,0.8-1l-0.4-0.5l-0.6,0.5c-0.1,0.1-0.1,0.1-0.1,0.2
				c0,0,0,0.1,0.3,0.2c0.1,0,0.2,0.1,0.1,0.2c0,0.1-0.1,0.2-0.2,0.2c-0.2,0-0.3,0-0.4,0c-0.1,0-0.2,0-0.3,0l-3.5,3.1
				c0,0.3-0.1,0.7-0.4,1.1l-1.9,2.4l-4.6,5.5c0,0,0,0,0,0C31.3,112.9,31.1,113,30.9,113z M30.5,112.5c0.3,0.2,0.5,0.2,0.7,0l4.5-5.4
				l1.9-2.4c0.3-0.4,0.3-0.7,0.3-1c0-0.1,0-0.1,0.1-0.2l3.7-3.3c0,0,0.1-0.1,0.1,0c0,0,0.1,0,0.1,0c0-0.2,0-0.3,0.1-0.5c0,0,0,0,0,0
				l0.8-0.6c0.1-0.1,0.2-0.1,0.3,0l0.6,0.8c0.1,0.1,0.1,0.2,0,0.2c-1,1.3-1.1,1.3-1.2,1.3h-0.9l-1.7,1.5l0.7,0.6c0,0,0,0,0.1,0.1
				l1.2,3.2l1.2-0.9l-1-3.4c0-0.1,0-0.1,0-0.2l2.1-2.3L43.7,99c0-0.1,0-0.2,0-0.2l0.5-0.7c0.1-0.1,0.2-0.1,0.3,0
				c0.1,0,7.4,4.6,10.2,3.5c0-0.4,0.1-1.8,0.1-3.1c-0.5-0.1-2.2-0.3-3.8-0.6c-4.1-0.8-4.2-1.7-4.2-1.9c-0.1-0.5,0.1-0.9,0.3-1.2
				c0.4-0.4,0.9-0.6,1.3-0.7L47.8,93c0,0,0-0.1,0-0.2l0.2-0.6c0-0.1,0.1-0.1,0.2-0.1c0.1,0,0.1,0,0.2,0.1l1.2,1.6l2.9-2.5
				c0.1-0.1,0.2-0.1,0.3,0L71,111.9c0.8-0.3,1-0.5,1-1.3c-0.4-0.4-2.7-3-17.8-20.5c-0.1-0.1-0.1-0.2,0-0.3l1.4-1.5
				c0.2-0.3,0.3-0.4,0.3-0.8c0-0.1,0-0.1,0.1-0.2l2.1-1.8c0.1,0,0.1-0.1,0.2,0c0.5,0.2,1,0.5,1.3,1l5.6-4.7c0.1-0.1,0.2-0.1,0.3,0
				c0.1,0.1,0.4,0.2,0.7,0.1l7.6-7.3l-8.2,5.8c-0.1,0.1-0.2,0-0.2,0l-0.4-0.3c-0.1,0-0.1-0.1-0.1-0.2c0-0.2,0.1-0.3,0.1-0.3
				c0.1-0.1,0.1-0.2-0.1-0.4c0,0-0.1-0.1-0.1-0.1c0,0,0,0,0,0c-0.2,0-0.4,0.3-0.5,0.4c-0.1,0.1-0.2,0.2-0.3,0.2
				c-0.1,0-1.1-0.3-1.6-0.8l-0.1,1.2c0,0.1,0,0.1-0.1,0.1l-2.6,2.5c0,0-0.1,0.1-0.1,0.1l-1.9-0.1l-2.8,2.7l-0.3,0.8l-0.1,0.2
				l0.4,0.8c0,0.1,0,0.2,0,0.2c-1.6,1.4-1.6,1.4-1.8,1.3c-0.1,0-0.1-0.1-0.1-0.1c0-0.1-0.1-0.2-0.2-0.2c-0.1-0.1-0.1-0.1-0.1-0.2
				c0-0.1,0-0.2,0.1-0.2l1.3-1.2l0.1-0.4c0,0,0-0.1,0-0.1l0.1-0.2l-0.3-0.4c-0.1,0.1-0.1,0.1-0.2,0.2c-1.3,1.3-1.5,1.4-1.7,1.4
				c0,0-0.1,0-0.1-0.1l0,0c-0.2-0.2-4.9-5.6-4.9-5.6c0-0.1-0.1-0.1,0-0.2l0.2-0.9l-3-3.3c-0.5-0.2-1.3-0.3-2,0.1
				c-0.5,0.3-0.8,0.9-1,1.8c0,0,0,0,0,0.1c-0.3,0.7-2.2,0.3-2.8,0.2l-1.2,0.2l-7.1,10l3.8,4.5l8-10.2l0.2-2.9c0-0.1,0.1-0.1,0.1-0.2
				c0.1,0,0.2,0,0.2,0.1l1.7,1.9c0.5,0.1,1,0.1,1.5-0.2c0.1,0,0.2,0,0.2,0l4.9,5.4c0.1,0.1,0.1,0.2,0,0.3l-0.7,0.7
				c0.1,0.1,0.2,0.2,0.2,0.3c0.1,0.1,0.2,0.2,0.3,0.3c0.1-0.1,0.2-0.1,0.3-0.2c0.1-0.1,0.3-0.2,0.4-0.3c0.1-0.1,0.2,0,0.3,0
				c0,0.1,0.1,0.2,0.2,0.2c0.1,0.1,0.1,0.2,0.2,0.2c0,0,0,0.1,0,0.2c0,0.1,0,0.1-0.1,0.1c-0.2,0.1-0.4,0.2-0.5,0.4
				c-0.2,0.1-0.4,0.3-0.6,0.4c-0.1,0-0.1,0-0.2,0c-0.6-0.4-1.2-0.9-1.3-1.6l-2.4,2l-0.1,0.4c0,0,0,0.1-0.1,0.1l-8.1,6.8
				c0,0-0.1,0-0.1,0l-0.6,0.1l-0.1,1.5l4.9-4v-0.5c0-0.1,0-0.1,0.1-0.2c0.1,0,0.2,0,0.2,0l0.4,0.4l4-3.2c0,0,0.1,0,0.2,0
				c0.1,0,0.1,0,0.1,0.1c0.3,0.4,0.3,0.5,0.2,0.6c0,0-0.1,0.1-0.1,0.1c-0.2,0.2-2.3,2-3.6,3.2l-0.1,0.3c0,0,0,0.1-0.1,0.1L43,97.5
				c-0.1,0.1-0.2,0.1-0.2,0l-0.2-0.2l-4.8,4.3c0,0-0.1,0.1-0.1,0.1H37l-2.7,2.7c0,0-0.1,0.1-0.1,0.1c-0.7,0.1-1.3,0.1-1.8,0.5
				l-4.7,4.2L30.5,112.5z M47.3,93.3C47.3,93.3,47.3,93.3,47.3,93.3C47.3,93.3,47.3,93.3,47.3,93.3z M47,93L47,93C47,93,47,93,47,93
				L47,93z M52.7,88.6C52.7,88.6,52.7,88.6,52.7,88.6C52.7,88.6,52.7,88.6,52.7,88.6z M52.9,88.2c0,0.1,0.1,0.1,0.1,0.1
				c0.2-0.2,0.8-0.6,1.2-1l-0.1-0.2c0,0,0,0,0,0.1L52.9,88.2z M52.6,88.2L52.6,88.2L52.6,88.2z M51.9,87.1L51.9,87.1L51.9,87.1z"/>
		</g>
	</g>
</g>
</svg>
