<?xml version="1.0" encoding="utf-8"?>
<!-- Generator: Adobe Illustrator 20.1.0, SVG Export Plug-In . SVG Version: 6.00 Build 0)  -->
<svg version="1.0" id="Capa_1" xmlns="http://www.w3.org/2000/svg" xmlns:xlink="http://www.w3.org/1999/xlink" x="0px" y="0px"
	 viewBox="0 0 180 179.5" style="enable-background:new 0 0 180 179.5;" xml:space="preserve">
<style type="text/css">
	.st0{fill:none;stroke:#3C2F18;stroke-width:5;stroke-linecap:round;stroke-miterlimit:10;}
	.st1{clip-path:url(#SVGID_2_);}
	.st2{fill:#006400;}
	.st3{fill:#FFD200;}
	.st4{fill:#D40000;}
	.st5{fill:#FFFFFF;}
	.st6{fill:#FFCC00;}
</style>
<path class="st0" d="M6.2,81.2c-5.3,53.2,39.1,97.6,92.3,92.3c39.4-3.9,71.3-35.8,75.2-75.2C179,45.1,134.7,0.7,81.4,6
	C42,9.9,10.1,41.8,6.2,81.2z"/>
<g>
	<defs>
		<path id="SVGID_1_" d="M20.5,98.9c3.9,31.2,29.2,56.5,60.4,60.4c45.9,5.8,84.4-32.8,78.7-78.7c-3.9-31.3-29.2-56.5-60.4-60.4
			C96,19.8,93,19.6,90,19.6C48.3,19.6,15.1,56.1,20.5,98.9"/>
	</defs>
	<clipPath id="SVGID_2_">
		<use xlink:href="#SVGID_1_"  style="overflow:visible;"/>
	</clipPath>
	<g class="st1">
		<g>
			<path class="st2" d="M19.5,18.3h286.7v143.3H19.5V18.3z"/>
		</g>
		<g>
			<path class="st3" d="M19.5,38.8h286.7v102.4H19.5V38.8z"/>
		</g>
		<g>
			<path class="st4" d="M19.5,59.3h286.7v61.4H19.5V59.3z"/>
		</g>
		<g>
			<path d="M19.5,79.8h286.7v20.5H19.5V79.8z"/>
		</g>
		<g>
			<path d="M19.5,18.3v143.3L115,90L19.5,18.3z"/>
			<path d="M16.1,168.5v-157L120.7,90L16.1,168.5z M22.9,25.2v129.7L109.3,90L22.9,25.2z"/>
		</g>
		<g>
			<path class="st5" d="M19.5,18.3v143.3L115,90L19.5,18.3z"/>
		</g>
		<g>
			<path class="st4" d="M55.8,54l18.9,58.3l-49.6-36h61.3l-49.6,36L55.8,54z"/>
		</g>
		<g>
			<path class="st6" d="M47.7,104.9l3.3-0.6l6.2-0.2l2.3,0.2l5.1,0.9l0.4-0.5v-3.7l0.6-3.2l1.1-3.2l1.1-2.6l1.4-2.6l2.3,0.6h0.6
				l0.1-0.5l-4.9-4.2l-5.1-3.9l-7.4-5.5l-0.7-0.2l-0.8-5.8l-0.6-1.8L52,67.4l-1.5-0.5L48.8,67l-0.7,0.4l-1.6,0.4l-0.8,0.1l-0.5,0.6
				l-0.1,0.8l2.3,0.1l0.6,0.2l-0.1,0.2l-1.3,0.2L46,70.3l0.7,0.5l0.7,0.3l1,0.4l0.2,0.6l0.1,8.8l-0.5,1.4L48,84.9l0.8,3.1l-1.9,2.2
				L45.8,92l-0.2,1.2L45,94.5l-0.1,0.8l0.4,0.8l1.5,4.9l0.8,4L47.7,104.9z"/>
		</g>
		<g>
			<path d="M49.5,66.8c-0.6,0-0.9,0.1-1.4,0.4c-0.5,0.3-1.1,0.5-1.6,0.5c-0.9,0-1.6,0.6-1.6,1.4v0.5l1.3,0c3.6,0.1,0.3,0.5,0.1,0.5
				c-0.9,0.2,0.2,0.9,1.2,1.2c1.1,0.4,1.1,0.2,1.1,5.1c0,4.1,0,4.6-0.3,5.6c-0.5,1.4-0.5,3.4,0,4.8c0.2,0.5,0.3,1.1,0.3,1.1
				c0,0.1-0.5,0.7-1.2,1.5c-1.2,1.3-1.9,2.8-1.9,3.8c0,0.2-0.2,0.6-0.3,0.9c-0.4,0.6-0.5,1.6,0,2c0.4,0.4,2.3,7.4,2.3,8.8
				c0,0.5,0.1,0.5,2.9-0.1c2.2-0.5,7.5-0.5,10.2-0.2c1.2,0.2,2.7,0.4,3.2,0.5c1.6,0.4,1.6,0.5,1.6-1.5c0-3.1,0.6-6,1.8-9.1
				c0.5-1.4,2-4.3,2.3-4.8c0,0,0.6,0.1,1.3,0.2c1.4,0.4,1.8,0.3,1.8-0.3c0-0.4-1.5-1.6-8.6-7.2c-4.8-3.8-8.8-6.8-9-6.8
				c-0.2,0-0.4-0.1-0.4-0.2c0-0.1-0.3-1.6-0.5-3.3c-0.2-1.7-0.6-3.3-0.7-3.7c-0.5-1-1.4-1.5-2.9-1.6C50,66.8,49.7,66.8,49.5,66.8
				L49.5,66.8z M49.5,67.1c0.2,0,0.4,0,0.7,0c2.3,0.1,2.7,0.7,3.3,4.8c0.2,1.6,0.4,3,0.4,3.2c0,0.3-0.3,0.6-1.1,1.1
				c-1.2,0.8-2.7,2.2-3.4,3.2L49,80.1l-0.1-1.4c0-0.8,0-2.6,0-4c0.1-3,0-3.3-1-3.6c-0.8-0.3-1.8-0.6-1.5-0.7
				c0.3-0.2,0.6-0.1,1.5-0.3c0.3-0.1,0.3-0.1,0.2-0.3c-0.1-0.5-0.5-0.7-1.8-0.6c-1,0.1-1.1,0-1.1-0.2c0.1-0.5,0.7-0.9,1.6-1
				c0.5,0,1.1-0.2,1.5-0.4C48.7,67.2,49,67.1,49.5,67.1L49.5,67.1z M54.6,76c0,0,0.1,0,0.1,0c0.6,0.1,17.3,13.2,17.3,13.6
				c0,0.1-0.1,0.3-0.3,0.3c-0.2,0-4.4-1.2-9.5-2.7c-8.1-2.4-9.2-2.7-9.6-3.2c-0.5-0.6-0.5-1.5,0-2.1c0.2-0.3,0.3-0.6,0.3-0.7
				c0-0.4-0.9,0.6-1,1.2c-0.2,0.7,0.2,1.9,0.7,2.2c0.2,0.1,1.7,0.7,3.4,1.2c2.9,0.8,3,0.9,3.2,1.4c0.4,1.1-0.8,2.4-2.6,2.8
				c-0.6,0.1-1.3,0.4-1.8,0.8c-2,1.5-3.3,2.3-4.4,2.8c-0.7,0.3-1.3,0.6-1.4,0.7c-0.1,0.1-0.3,0.6-0.4,1.2c-0.2,1.1-0.3,1.3-0.6,1.3
				c-0.2,0-0.2-0.1-0.1-0.5c0.2-0.7,0.2-1.5-0.1-1.5c-0.1,0-0.2,0.2-0.2,0.6c0,0.3-0.1,0.7-0.2,0.9c-0.2,0.2-0.2,0-0.1-0.8
				c0.1-0.6,0-1-0.1-1c-0.2,0-0.5,0.9-0.6,1.6c-0.1,0.4-0.1,0.4-0.2-0.1c-0.1-0.4-0.1-0.7,0.2-1.2c0.2-0.4,0.4-0.9,0.4-1.2
				c0-0.4,0.3-0.9,1.9-2.5c1.1-1.1,2.3-2.4,2.7-3c0.8-1,0.8-1.1,0.8-2c0-0.6-0.1-1.1-0.1-1.1c-0.2-0.2-0.5,0.9-0.4,1.5
				c0.1,0.5,0,0.7-1.1,2c-0.7,0.8-1.8,2-2.5,2.7c-1.3,1.2-1.8,1.9-1.8,2.5c0,0.2-0.1,0.7-0.3,1.1c-0.2,0.4-0.3,0.9-0.2,1
				c0.1,0.1,0,0.1-0.1,0c-0.1-0.1-0.2-0.4,0-1c0.1-0.4,0.1-0.8,0.1-0.9c-0.2-0.3-0.4,0.1-0.5,0.9c-0.1,0.5-0.2,0.8-0.3,0.8
				c-0.3-0.2-0.2-1.1,0.1-1.5c0.2-0.2,0.4-0.8,0.4-1.2c0.2-1.3,0.8-2.3,2-3.6c0.6-0.7,1.1-1.3,1.1-1.3s-0.2-0.5-0.4-1.1
				c-0.5-1.4-0.5-3.4-0.1-4.7c0.4-1.3,1.3-2.6,2.8-4C52.6,76.8,53.9,76,54.6,76L54.6,76z M59.7,86.9c0.2,0,0.3,0.1,0.3,0.2
				c0,0,0,0,0,0c0,0.1-0.2,0.2-0.3,0.2c-0.1,0-0.2-0.1-0.3-0.2C59.5,87,59.6,87,59.7,86.9z M60.6,87.1
				C60.6,87.1,60.6,87.1,60.6,87.1c0.2,0,0.3,0.1,0.3,0.2c0,0,0,0,0,0c0,0.1-0.1,0.2-0.3,0.2s-0.3-0.1-0.3-0.2l0,0
				C60.3,87.2,60.4,87.1,60.6,87.1L60.6,87.1z M61.5,87.2C61.5,87.2,61.5,87.2,61.5,87.2c0.2,0,0.3,0.1,0.3,0.2c0,0,0,0,0,0
				c0,0.1-0.2,0.2-0.3,0.2c-0.1,0-0.2-0.1-0.3-0.2C61.2,87.3,61.3,87.2,61.5,87.2L61.5,87.2z M62.3,87.4
				C62.3,87.4,62.3,87.4,62.3,87.4c0.2,0,0.3,0.1,0.4,0.2c0,0,0,0,0,0c0,0.1-0.1,0.2-0.3,0.2s-0.3-0.1-0.3-0.2
				C62.1,87.5,62.2,87.4,62.3,87.4z M60.1,87.6C60.1,87.6,60.1,87.6,60.1,87.6c0.2,0,0.3,0.1,0.3,0.2c0,0,0,0,0,0
				c0,0.1-0.1,0.2-0.3,0.2c-0.2,0-0.3-0.1-0.3-0.2C59.9,87.7,60,87.6,60.1,87.6z M61,87.7c0.2,0,0.3,0.1,0.3,0.2c0,0,0,0,0,0
				c0,0.1-0.1,0.2-0.3,0.2s-0.3-0.1-0.3-0.2l0,0C60.7,87.8,60.8,87.7,61,87.7z M62.8,87.8c0.2,0,0.3,0.1,0.3,0.2c0,0,0,0,0,0
				c0,0.1-0.1,0.2-0.3,0.2s-0.3-0.1-0.3-0.2C62.5,87.9,62.6,87.8,62.8,87.8z M61.8,87.8c0.2,0,0.3,0.1,0.3,0.2c0,0,0,0,0,0
				c0,0.1-0.1,0.2-0.3,0.2c-0.2,0-0.3-0.1-0.3-0.2C61.6,87.9,61.7,87.8,61.8,87.8z M63.6,88c0,0,1.3,0.3,2.7,0.7l2.7,0.8l-0.5,0.9
				c-0.3,0.5-0.6,1.2-0.8,1.5c-0.3,0.7-0.4,0.7-2,0.3c-1.8-0.4-4.6-0.8-7.5-1l-2.8-0.2l1-0.4c0.6-0.2,1.4-0.6,1.8-0.8
				c0.7-0.4,1-0.4,2-0.3c1.5,0.1,2.6-0.2,3-0.8C63.4,88.3,63.5,88,63.6,88L63.6,88z M60.5,88.2C60.5,88.2,60.5,88.2,60.5,88.2
				c0.2,0,0.3,0.1,0.3,0.2c0,0,0,0,0,0c0,0.1-0.1,0.2-0.3,0.2c-0.2,0-0.3-0.1-0.3-0.2l0,0C60.3,88.3,60.4,88.2,60.5,88.2z
				 M62.5,88.2C62.5,88.2,62.5,88.2,62.5,88.2c0.2,0,0.3,0.1,0.3,0.2c0,0,0,0,0,0c0,0.1-0.1,0.2-0.3,0.2c-0.2,0-0.3-0.1-0.3-0.2l0,0
				C62.2,88.3,62.3,88.2,62.5,88.2L62.5,88.2z M59.7,88.2C59.7,88.2,59.7,88.2,59.7,88.2c0.2,0,0.3,0.1,0.4,0.2c0,0,0,0,0,0
				c0,0.1-0.1,0.2-0.3,0.2c-0.2,0-0.3-0.1-0.3-0.2l0,0C59.5,88.3,59.6,88.2,59.7,88.2L59.7,88.2z M61.5,88.3c0.2,0,0.3,0.1,0.3,0.2
				c0,0,0,0,0,0c0,0.1-0.1,0.2-0.3,0.2c-0.2,0-0.3-0.1-0.3-0.2C61.3,88.4,61.4,88.3,61.5,88.3z M59.3,88.7
				C59.3,88.7,59.3,88.7,59.3,88.7c0.2,0,0.3,0.1,0.3,0.2c0,0,0,0,0,0c0,0.1-0.2,0.2-0.3,0.2c-0.1,0-0.2-0.1-0.3-0.2
				C59,88.8,59.1,88.7,59.3,88.7z M60.1,88.7C60.1,88.7,60.1,88.7,60.1,88.7c0.2,0,0.3,0.1,0.3,0.2c0,0,0,0,0,0
				c0,0.1-0.2,0.2-0.3,0.2c-0.1,0-0.2-0.1-0.3-0.2C59.9,88.8,60,88.7,60.1,88.7L60.1,88.7z M61,88.7c0.2,0,0.3,0.1,0.3,0.2
				c0,0,0,0,0,0c0,0.1-0.1,0.2-0.3,0.2c-0.2,0-0.3-0.1-0.3-0.2C60.8,88.8,60.9,88.7,61,88.7z M62,88.7C62,88.7,62,88.7,62,88.7
				c0.2,0,0.3,0.1,0.3,0.2c0,0,0,0,0,0c0,0.1-0.2,0.2-0.3,0.2c-0.1,0-0.2-0.1-0.3-0.2C61.7,88.8,61.8,88.8,62,88.7z M55,91.5
				c1.2,0,5.3,0.3,7.2,0.6c1.7,0.3,4.7,0.8,4.8,0.9c0,0-0.2,0.8-0.6,1.8c-0.3,1-0.7,1.9-0.7,2c-0.1,0.2-0.3,0.2-0.8,0.1
				c-2.8-0.4-11-0.4-14.2,0.1c-1.8,0.3-2.1,0.2-1.9-0.1c0.1-0.2,0.2-0.7,0.3-1.2l0.2-0.9l1.9-1c1-0.5,2.2-1.2,2.6-1.5
				c0.4-0.3,0.8-0.6,0.9-0.7C54.8,91.5,54.9,91.5,55,91.5z M45.8,96.3c0.1,0,0.3,0.1,0.5,0.3c0.3,0.2,0.7,0.4,0.9,0.4
				c0.9,0,1.4,1.3,2.1,5.5c0.1,0.6,0.2,1.3,0.3,1.5c0.1,0.3,0,0.4-0.8,0.6c-1,0.2-1.2,0.2-1.2,0.1c0-0.4-1-4.7-1.4-6.2
				C46,97.4,45.8,96.5,45.8,96.3C45.8,96.4,45.8,96.4,45.8,96.3C45.8,96.3,45.8,96.3,45.8,96.3L45.8,96.3z M55.6,97h1l-0.3,0.4
				c-0.6,0.7-0.9,0.7-1.3,0.3c-0.2-0.2-0.4-0.5-0.4-0.5S55.1,97,55.6,97L55.6,97z M57.7,97h1.9l-0.4,0.4c-0.5,0.6-0.5,0.6-1,0
				L57.7,97z M60.5,97h0.4c0.2,0,0.7,0,1,0.1l0.5,0.1l-0.5,0.4c-0.3,0.2-0.5,0.4-0.6,0.4c0,0-0.2-0.3-0.5-0.5L60.5,97z M63.4,97.1
				l0.4,0.1c0.2,0.1,0.7,0.1,1.1,0.1h0.7l-0.5,0.4c-0.3,0.2-0.6,0.4-0.6,0.4c-0.1,0-0.3-0.2-0.6-0.6L63.4,97.1z M53,97.2
				C53.1,97.2,53.1,97.2,53,97.2c0.1,0,0,0.3-0.2,0.6l-0.4,0.5l-0.5-0.4l-0.5-0.4l0.8-0.1C52.6,97.2,52.9,97.2,53,97.2L53,97.2z
				 M53.8,97.2c0,0,0.2,0.2,0.6,0.5l0.6,0.5l-1,0.1l-1,0.1l0.5-0.5C53.6,97.5,53.8,97.2,53.8,97.2L53.8,97.2z M60,97.2
				c0.1,0,0.1,0,0.2,0.1c0.2,0.1,0.3,0.4,0.4,0.6c0.1,0.3,0.1,0.3-0.3,0.3c-0.3,0-0.7-0.1-0.9-0.1L59.1,98l0.4-0.4
				C59.8,97.3,59.9,97.2,60,97.2L60,97.2z M57.1,97.2c0.2,0,0.3,0.1,0.5,0.4c0.2,0.4,0.2,0.4-0.7,0.4l-0.9,0l0.5-0.4
				C56.8,97.4,57,97.2,57.1,97.2z M62.9,97.3l0.4,0.4c0.5,0.5,0.5,0.7,0.2,0.7c-0.1,0-0.5-0.1-1-0.1l-0.7-0.1l0.5-0.5L62.9,97.3z
				 M50.9,97.5c0.1,0,0.3,0.2,0.5,0.4l0.4,0.4L51,98.5c-0.5,0.1-1,0.1-1.2,0.2c-0.3,0.1-0.2-0.1,0.3-0.6
				C50.5,97.8,50.9,97.5,50.9,97.5z M49.7,97.5c0.1,0,0.1,0,0.2,0c0.3,0,0.3,0.1-0.2,0.6l-0.5,0.5l-0.2-0.4
				c-0.1-0.4-0.1-0.5,0.2-0.6C49.3,97.6,49.5,97.5,49.7,97.5L49.7,97.5z M65.4,98.1c0.1,0,0.1,0.1,0.1,0.2c-0.1,0.3-0.4,0.4-0.4,0.1
				c0-0.1,0.1-0.2,0.3-0.3C65.3,98.2,65.3,98.1,65.4,98.1L65.4,98.1z M58.1,98.7c2.6,0,5.3,0.1,5.9,0.1c1.1,0.1,1.2,0.2,1.2,0.6
				c0,0.5-0.1,0.5-1.6,0.2c-0.4-0.1-2.1-0.2-3.8-0.4c-2.9-0.2-6.5-0.1-9.7,0.3c-0.7,0.1-0.8,0.1-0.8-0.2
				C49.3,99,52.7,98.7,58.1,98.7z M54.6,99.7h1.8l-0.4,0.4c-0.5,0.6-0.5,0.6-1,0L54.6,99.7z M56.9,99.7l0.5,0.5
				c0.3,0.3,0.5,0.5,0.5,0.5s-0.4,0.1-1,0.1h-1l0.5-0.5L56.9,99.7z M57.7,99.7h1.9l-0.4,0.4c-0.5,0.6-0.5,0.6-1,0L57.7,99.7z
				 M53.3,99.7c0.1,0,0,0.1-0.2,0.5c-0.2,0.3-0.5,0.6-0.5,0.6c-0.1,0-0.3-0.2-0.5-0.5l-0.4-0.4h0.6c0.3,0,0.8-0.1,0.9-0.1
				C53.2,99.7,53.3,99.7,53.3,99.7L53.3,99.7z M54,99.9l0.4,0.4c0.2,0.2,0.5,0.4,0.5,0.4c0,0-0.4,0.1-0.9,0.1l-1,0.1l0.5-0.5
				L54,99.9z M59.9,99.9l0.5,0.5c0.5,0.6,0.5,0.6-0.7,0.4l-0.6-0.1l0.4-0.4L59.9,99.9z M60.6,99.9h0.8c0.9,0,1,0.1,0.5,0.6
				c-0.4,0.4-0.4,0.4-0.9-0.2L60.6,99.9z M50.2,100c0.4,0,0.4,0-0.1,0.5c-0.4,0.4-0.4,0.4-0.5,0.1C49.4,100.3,49.7,100,50.2,100
				L50.2,100z M63.4,100.1c0.1,0,0.4,0,0.7,0.1l0.7,0.1l-0.4,0.4l-0.4,0.4l-0.4-0.5C63.4,100.4,63.3,100.1,63.4,100.1
				C63.3,100.1,63.4,100.1,63.4,100.1L63.4,100.1z M51.1,100.3c0.1,0,0.2,0.1,0.4,0.2c0.3,0.3,0.3,0.4,0.1,0.5
				c-0.2,0.1-0.5,0.1-0.8,0.1l-0.5,0l0.5-0.5C50.9,100.4,51,100.3,51.1,100.3L51.1,100.3z M62.8,100.3c0.1,0,0.2,0.1,0.4,0.3
				l0.3,0.4h-0.7c-0.5,0-0.7-0.1-0.6-0.2c0-0.1,0.2-0.3,0.4-0.4C62.6,100.4,62.7,100.4,62.8,100.3L62.8,100.3z M64.9,100.8
				c0,0,0,0.1,0,0.2c0,0.3-0.3,0.6-0.4,0.3c-0.1-0.1,0-0.3,0.2-0.4C64.8,100.8,64.9,100.8,64.9,100.8L64.9,100.8z M56.1,101.2
				c3,0,6.3,0.2,8.2,0.6l0.6,0.1v1.5c0,1.1-0.1,1.5-0.2,1.5c-0.1,0-0.9-0.2-1.7-0.4c-2.4-0.5-5.2-0.8-8.3-0.6
				c-1.6,0.1-3.2,0.2-3.7,0.3l-0.8,0.1L50,103c-0.1-0.7-0.2-1.3-0.1-1.3c0,0,0.8-0.2,1.7-0.3C52.7,101.3,54.3,101.2,56.1,101.2
				L56.1,101.2z"/>
		</g>
		<g id="a_3_">
			<path d="M62.1,92.7c-1,0-1.7,0.7-1.7,1.8c0,1.6,1.8,2.4,3,1.3C64.4,94.6,63.6,92.7,62.1,92.7L62.1,92.7z M62,93.1
				c0.7,0,1.4,0.6,1.4,1.4c0,1-1.1,1.7-2,1.2c-0.9-0.5-0.9-2.1,0.1-2.5C61.7,93.1,61.9,93.1,62,93.1L62,93.1z"/>
		</g>
		<g>
			<g id="a_2_">
				<path d="M56.3,92.5c-1,0-1.7,0.7-1.7,1.8c0,1.6,1.8,2.4,3,1.3C58.6,94.4,57.9,92.5,56.3,92.5L56.3,92.5z M56.3,92.9
					c0.7,0,1.4,0.6,1.4,1.4c0,1-1.1,1.7-2,1.2c-0.9-0.5-0.9-2.1,0.1-2.5C55.9,93,56.1,92.9,56.3,92.9L56.3,92.9z"/>
			</g>
		</g>
		<g>
			<path d="M49.5,67.9c-0.3,0-0.5,0.3-0.5,0.6c0,0.3,0.3,0.6,0.6,0.6s0.6-0.3,0.6-0.6l0,0C50.1,68.2,49.9,67.9,49.5,67.9
				C49.5,67.9,49.5,67.9,49.5,67.9z M49.6,68.1c0.2,0,0.4,0.2,0.4,0.4c0,0.2-0.2,0.4-0.4,0.4c-0.2,0-0.4-0.2-0.4-0.4v0
				C49.1,68.3,49.3,68.1,49.6,68.1C49.5,68.1,49.5,68.1,49.6,68.1z"/>
		</g>
	</g>
</g>
</svg>
