<?xml version="1.0" encoding="utf-8"?>
<!-- Generator: Adobe Illustrator 21.1.0, SVG Export Plug-In . SVG Version: 6.00 Build 0)  -->
<svg version="1.1" id="Layer_1" xmlns="http://www.w3.org/2000/svg" xmlns:xlink="http://www.w3.org/1999/xlink" x="0px" y="0px"
	 viewBox="0 0 178 178" style="enable-background:new 0 0 178 178;" xml:space="preserve">
<style type="text/css">
	.st0{fill:none;stroke:#3C2F16;stroke-width:5;stroke-linecap:round;stroke-miterlimit:10;}
	.st1{clip-path:url(#SVGID_2_);fill:#FFFFFF;}
	.st2{clip-path:url(#SVGID_2_);fill:#0038A8;}
	.st3{clip-path:url(#SVGID_2_);fill:#FCD116;}
	.st4{clip-path:url(#SVGID_2_);fill:none;stroke:#000000;stroke-width:0.177;stroke-linecap:square;stroke-miterlimit:20;}
	.st5{clip-path:url(#SVGID_2_);fill:none;stroke:#000000;stroke-width:0.177;stroke-miterlimit:20;}
	.st6{clip-path:url(#SVGID_2_);}
</style>
<g>
	<g>
		<g>
			<path class="st0" d="M4.1,79.3c-5.3,53.2,39.1,97.6,92.3,92.3c39.4-3.9,71.3-35.8,75.2-75.2c5.3-53.2-39.1-97.5-92.3-92.3
				C39.9,8,8,39.9,4.1,79.3z"/>
		</g>
	</g>
	<g>
		<defs>
			<path id="SVGID_1_" d="M157.8,78.9c5.8,45.9-32.8,84.4-78.7,78.7c-31.3-3.9-56.5-29.2-60.4-60.4c-5.8-45.9,32.8-84.4,78.7-78.7
				C128.6,22.4,153.9,47.6,157.8,78.9z"/>
		</defs>
		<clipPath id="SVGID_2_">
			<use xlink:href="#SVGID_1_"  style="overflow:visible;"/>
		</clipPath>
		<rect x="14.6" y="3.6" class="st1" width="265.4" height="176.9"/>
		<rect x="112.9" y="23.2" class="st2" width="167.1" height="19.7"/>
		<rect x="112.9" y="62.5" class="st2" width="167.1" height="19.7"/>
		<rect x="14.6" y="101.9" class="st2" width="265.4" height="19.7"/>
		<rect x="14.6" y="141.2" class="st2" width="265.4" height="19.7"/>
		<path class="st3" d="M61.5,62.3l3.3,4.9c-13.4,9.7-5.2,15.4-14.7,18.5c5.9-5.8-0.9-6.2,4-18.2"/>
		<path class="st4" d="M61.5,62.3l3.3,4.9c-13.4,9.7-5.2,15.4-14.7,18.5c5.9-5.8-0.9-6.2,4-18.2"/>
		<path class="st5" d="M59.2,63.7c-7.4,12.2-2.5,18.8-9.1,22"/>
		<polyline class="st3" points="63.8,52.7 70.3,52.7 63.8,88.4 57.3,52.7 63.8,52.7 63.8,88.4 		"/>
		<polyline class="st5" points="63.8,52.7 70.3,52.7 63.8,88.4 57.3,52.7 63.8,52.7 63.8,88.4 		"/>
		<path class="st3" d="M55.4,57.9l-1.1,5.7c-16.3-2.6-14.6,7.2-23.5,2.7c8.2,0.1,3.8-5.1,15.7-10"/>
		<path class="st4" d="M55.4,57.9l-1.1,5.7c-16.3-2.6-14.6,7.2-23.5,2.7c8.2,0.1,3.8-5.1,15.7-10"/>
		<path class="st5" d="M52.8,57.3c-13.8,3.4-15.1,11.5-22,9.1"/>
		<polyline class="st3" points="63.8,52.7 68.4,57.3 38.5,77.9 59.2,48.1 63.8,52.7 38.5,77.9 		"/>
		<polyline class="st5" points="63.8,52.7 68.4,57.3 38.5,77.9 59.2,48.1 63.8,52.7 38.5,77.9 		"/>
		<path class="st3" d="M54.2,50.5l-4.9,3.3c-9.7-13.4-15.4-5.2-18.5-14.7c5.8,5.9,6.2-0.9,18.2,4"/>
		<path class="st4" d="M54.2,50.5l-4.9,3.3c-9.7-13.4-15.4-5.2-18.5-14.7c5.8,5.9,6.2-0.9,18.2,4"/>
		<path class="st5" d="M52.8,48.2c-12.2-7.4-18.8-2.5-22-9.1"/>
		<polyline class="st3" points="63.8,52.7 63.8,59.2 28.1,52.7 63.8,46.2 63.8,52.7 28.1,52.7 		"/>
		<polyline class="st5" points="63.8,52.7 63.8,59.2 28.1,52.7 63.8,46.2 63.8,52.7 28.1,52.7 		"/>
		<path class="st3" d="M58.6,44.4l-5.7-1.1c2.6-16.3-7.2-14.6-2.7-23.5c-0.1,8.2,5.1,3.8,10,15.7"/>
		<path class="st4" d="M58.6,44.4l-5.7-1.1c2.6-16.3-7.2-14.6-2.7-23.5c-0.1,8.2,5.1,3.8,10,15.7"/>
		<path class="st5" d="M59.2,41.7c-3.4-13.8-11.5-15.1-9.1-22"/>
		<polyline class="st3" points="63.8,52.7 59.2,57.3 38.5,27.5 68.4,48.1 63.8,52.7 38.5,27.5 		"/>
		<polyline class="st5" points="63.8,52.7 59.2,57.3 38.5,27.5 68.4,48.1 63.8,52.7 38.5,27.5 		"/>
		<path class="st3" d="M66,43.1l-3.3-4.9c13.4-9.7,5.2-15.4,14.7-18.5c-5.9,5.8,0.9,6.2-4,18.2"/>
		<path class="st4" d="M66,43.1l-3.3-4.9c13.4-9.7,5.2-15.4,14.7-18.5c-5.9,5.8,0.9,6.2-4,18.2"/>
		<path class="st5" d="M68.3,41.7c7.4-12.2,2.5-18.8,9.1-22"/>
		<polyline class="st3" points="63.8,52.7 57.3,52.7 63.8,17 70.3,52.7 63.8,52.7 63.8,17 		"/>
		<polyline class="st5" points="63.8,52.7 57.3,52.7 63.8,17 70.3,52.7 63.8,52.7 63.8,17 		"/>
		<path class="st3" d="M72.1,47.5l1.1-5.7c16.3,2.6,14.6-7.2,23.5-2.7C88.5,39,93,44.1,81,49.1"/>
		<path class="st4" d="M72.1,47.5l1.1-5.7c16.3,2.6,14.6-7.2,23.5-2.7C88.5,39,93,44.1,81,49.1"/>
		<path class="st5" d="M74.8,48.2c13.8-3.4,15.1-11.5,22-9.1"/>
		<polyline class="st3" points="63.8,52.7 59.2,48.1 89,27.5 68.4,57.3 63.8,52.7 89,27.5 		"/>
		<polyline class="st5" points="63.8,52.7 59.2,48.1 89,27.5 68.4,57.3 63.8,52.7 89,27.5 		"/>
		<path class="st3" d="M73.4,54.9l4.9-3.3c9.7,13.4,15.4,5.2,18.5,14.7c-5.8-5.9-6.2,0.9-18.2-4"/>
		<path class="st4" d="M73.4,54.9l4.9-3.3c9.7,13.4,15.4,5.2,18.5,14.7c-5.8-5.9-6.2,0.9-18.2-4"/>
		<path class="st5" d="M74.8,57.3c12.2,7.4,18.8,2.5,22,9.1"/>
		<polyline class="st3" points="63.8,52.7 63.8,46.2 99.4,52.7 63.8,59.2 63.8,52.7 99.4,52.7 		"/>
		<polyline class="st5" points="63.8,52.7 63.8,46.2 99.4,52.7 63.8,59.2 63.8,52.7 99.4,52.7 		"/>
		<path class="st3" d="M69,61.1l5.7,1.1c-2.6,16.3,7.2,14.6,2.7,23.5c0.1-8.2-5.1-3.8-10-15.7"/>
		<path class="st4" d="M69,61.1l5.7,1.1c-2.6,16.3,7.2,14.6,2.7,23.5c0.1-8.2-5.1-3.8-10-15.7"/>
		<path class="st5" d="M68.3,63.7c3.4,13.8,11.5,15.1,9.1,22"/>
		<polyline class="st3" points="63.8,52.7 68.4,48.1 89,77.9 59.2,57.3 63.8,52.7 89,77.9 		"/>
		<polyline class="st5" points="63.8,52.7 68.4,48.1 89,77.9 59.2,57.3 63.8,52.7 89,77.9 		"/>
		<path class="st3" d="M63.8,40.8c6.6,0,11.9,5.3,11.9,11.9c0,6.6-5.3,11.9-11.9,11.9c-6.6,0-11.9-5.3-11.9-11.9
			C51.9,46.2,57.2,40.8,63.8,40.8"/>
		<circle class="st5" cx="63.8" cy="52.7" r="11.9"/>
		<path class="st6" d="M72.5,48c-0.8,0.9-1.2-0.6-3.9-0.6c-2.7,0-3.1,1.6-3.6,1.3c-0.4-0.3,2.3-2.3,3.1-2.4
			C69.1,46.1,71.6,47,72.5,48 M69.4,48.9c0.8,0.6,0.1,2.1-0.6,2.1c-0.8,0-2.2-1.3-1.5-2.2"/>
		<path class="st6" d="M65.8,49.9c0.1-1.3,1.2-1.5,2.9-1.5c1.7,0,2.5,1.3,3.1,1.6c-0.8,0-1.4-1.1-3.1-1.1c-1.7,0-1.7,0-2.9,1.1
			 M66.2,50.2c0.4-0.6,1,0.6,2.2,0.6c1.2,0,1.8-0.3,2.6-0.9c0.8-0.5-1.1,1.3-2.3,1.3C67.4,51.3,65.8,50.7,66.2,50.2"/>
		<path class="st6" d="M69.8,50.9c1.4-0.8,0.5-1.8,0-2.1C70,49,70.9,50.1,69.8,50.9 M63.8,57.4c0.6,0,0.9-0.2,1.7-0.2
			s2.9,1.2,4.1,0.8c-2.5,1-1.5,0.3-5.8,0.3h-0.5 M70,58.9c-0.4-0.8-0.3-0.5-1.2-1.7C69.7,57.8,69.9,58.1,70,58.9 M63.8,60
			c2.7,0,2.3-0.5,5.8-2.1c-2.6,0.3-3.1,1.2-5.8,1.2h-0.5 M63.8,56c0.8,0,1-0.5,1.8-0.5c0.9,0,2.1,0.3,2.6,0.8c0.1,0.1-0.3-0.9-1.2-1
			c-0.9-0.1-0.5-1.5-1.5-1.7c0,0.4,0.3,0.3,0.4,1c0,0.5-1,0.5-1.2,0c0.2,0.9-0.4,0.9-1,0.9"/>
		<path class="st6" d="M55,48c0.8,0.9,1.2-0.6,3.9-0.6s3.1,1.6,3.6,1.3c0.4-0.3-2.3-2.3-3.1-2.4C58.5,46.1,56,47,55,48 M58.2,48.9
			C57.4,49.6,58,51,58.8,51s2.2-1.3,1.5-2.2"/>
		<path class="st6" d="M61.7,49.9c-0.1-1.3-1.2-1.5-2.9-1.5c-1.7,0-2.5,1.3-3.1,1.6c0.8,0,1.4-1.1,3.1-1.1c1.7,0,1.7,0,2.9,1.1
			 M61.4,50.2c-0.4-0.6-1,0.6-2.2,0.6c-1.2,0-1.8-0.3-2.6-0.9c-0.8-0.5,1.1,1.3,2.3,1.3C60.1,51.3,61.7,50.7,61.4,50.2"/>
		<path class="st6" d="M57.7,50.9c-1.4-0.8-0.5-1.8,0-2.1C57.5,49,56.6,50.1,57.7,50.9 M63.8,57.4c-0.6,0-0.9-0.2-1.7-0.2
			c-0.9,0-2.9,1.2-4.1,0.8c2.5,1,1.5,0.3,5.8,0.3h0.5 M57.5,58.9c0.4-0.8,0.3-0.5,1.2-1.7C57.8,57.8,57.6,58.1,57.5,58.9 M63.8,60
			c-2.7,0-2.3-0.5-5.8-2.1c2.6,0.3,3.1,1.2,5.8,1.2h0.5 M63.8,56c-0.8,0-1-0.5-1.8-0.5c-0.9,0-2.1,0.3-2.6,0.8
			c-0.1,0.1,0.3-0.9,1.2-1c0.9-0.1,0.5-1.5,1.5-1.7c0,0.4-0.3,0.3-0.4,1c0,0.5,1,0.5,1.2,0c-0.2,0.9,0.4,0.9,1,0.9"/>
		<path class="st6" d="M63.8,60.9c-0.5,0-1.9,0.3,0,0.3C65.7,61.3,64.3,60.9,63.8,60.9"/>
	</g>
</g>
</svg>
