<?xml version="1.0" encoding="utf-8"?>
<!-- Generator: Adobe Illustrator 20.1.0, SVG Export Plug-In . SVG Version: 6.00 Build 0)  -->
<svg version="1.1" id="Capa_1" xmlns="http://www.w3.org/2000/svg" xmlns:xlink="http://www.w3.org/1999/xlink" x="0px" y="0px"
	 viewBox="0 0 180 179.5" style="enable-background:new 0 0 180 179.5;" xml:space="preserve">
<style type="text/css">
	.st0{fill:none;stroke:#3C2F18;stroke-width:5;stroke-linecap:round;stroke-miterlimit:10;}
	.st1{clip-path:url(#SVGID_2_);}
	.st2{fill:#009B3A;}
	.st3{fill:#FEDF00;}
	.st4{fill:#002776;}
	.st5{clip-path:url(#SVGID_4_);fill:#FFFFFF;}
	.st6{fill:#FFFFFF;}
</style>
<path class="st0" d="M6.2,80.6C1,133.9,45.3,178.3,98.6,173c39.4-3.9,71.3-35.8,75.2-75.2C179,44.6,134.7,0.2,81.4,5.5
	C42,9.4,10.1,41.3,6.2,80.6z"/>
<g>
	<defs>
		<path id="SVGID_1_" d="M20.5,98.4c3.9,31.2,29.2,56.5,60.4,60.4c45.9,5.8,84.4-32.8,78.7-78.7c-3.9-31.3-29.2-56.5-60.4-60.4
			C96,19.3,93,19.1,90,19.1C48.3,19.1,15.1,55.6,20.5,98.4"/>
	</defs>
	<clipPath id="SVGID_2_">
		<use xlink:href="#SVGID_1_"  style="overflow:visible;"/>
	</clipPath>
	<g class="st1">
		<rect id="_x34_8" x="9.5" y="10.5" class="st2" width="162.2" height="175"/>
		<path id="_x34_7" class="st3" d="M23.3,89.2l67.3,43l67.3-43l-67.3-43L23.3,89.2z"/>
		<circle id="_x34_6" class="st4" cx="90.6" cy="89.2" r="28.4"/>
		<g id="_x34_5">
			<defs>
				<circle id="SVGID_3_" cx="90.6" cy="89.2" r="28.4"/>
			</defs>
			<clipPath id="SVGID_4_">
				<use xlink:href="#SVGID_3_"  style="overflow:visible;"/>
			</clipPath>
			<path class="st5" d="M5.5,146c0-38.1,30.9-68.9,68.9-68.9s68.9,30.9,68.9,68.9h-4.1c0-35.8-29-64.9-64.9-64.9
				c-35.8,0-64.9,29-64.9,64.9H5.5z"/>
		</g>
		<path id="_x34_4" class="st2" d="M75.5,80.5l2.4,0.1l0-0.5L76,80l0-0.7l1.5,0.1l0-0.5L76,78.8l0-0.5l1.9,0.1l0-0.5l-2.3-0.1
			L75.5,80.5z"/>
		<path id="_x34_3" class="st2" d="M78.9,80.6l0.5,0l0.2-1.8l0.4,1.9l0.4,0l0.7-1.8l-0.2,1.8l0.5,0l0.2-2.7l-0.7-0.1l-0.7,1.8
			L79.8,78l-0.7-0.1L78.9,80.6z"/>
		<path id="_x34_2" class="st2" d="M84.5,81.2l2,0.3l0.1-0.5l-1.5-0.3l0.1-0.6l1.3,0.2l0.1-0.5l-1.3-0.2l0.1-0.4l1.5,0.3l0.1-0.5
			l-2-0.3L84.5,81.2z"/>
		
			<rect id="_x34_1" x="101.5" y="84.6" transform="matrix(0.3987 -0.9171 0.9171 0.3987 -16.9191 144.4166)" class="st2" width="0.4" height="1"/>
		
			<rect id="_x34_0" x="101.1" y="85.5" transform="matrix(0.3987 -0.9171 0.9171 0.3987 -17.3855 144.8427)" class="st2" width="1.4" height="0.4"/>
		<path id="_x33_9" class="st2" d="M109.6,89.7c-0.1,0.2,0,0.5,0.3,0.7c0.3,0.2,0.5,0.2,0.6,0.1c0.3-0.5-1.4-1.1-0.9-1.9
			c0.5-0.7,1.2-0.2,1.5,0c0.3,0.2,0.8,0.7,0.4,1.2l-0.5-0.3c0.2-0.2,0-0.5-0.3-0.6c-0.3-0.2-0.5-0.2-0.6,0c-0.3,0.4,1.4,1.1,0.9,1.9
			c-0.4,0.6-1,0.3-1.5,0.1c-0.4-0.2-0.9-0.8-0.6-1.4L109.6,89.7z"/>
		<path id="_x33_8" class="st2" d="M105.6,88.4l2.1,1.2l0.2-0.4l-1.7-1l0.3-0.6l1.3,0.8l0.2-0.4l-1.3-0.8l0.3-0.5l1.6,0.9l0.2-0.4
			l-2-1.1L105.6,88.4z"/>
		<path id="_x33_7" class="st2" d="M112.5,91.6c-0.2,0.2,0,0.5,0.3,0.7c0.3,0.2,0.5,0.2,0.6,0.1c0.3-0.4-1.4-1.2-0.8-2
			c0.5-0.7,1.2-0.1,1.5,0.1c0.3,0.2,0.7,0.7,0.3,1.2l-0.5-0.3c0.2-0.2,0-0.5-0.2-0.7c-0.2-0.2-0.4-0.3-0.6,0
			c-0.3,0.4,1.4,1.2,0.8,1.9c-0.4,0.6-1.1,0.3-1.5,0c-0.4-0.3-0.9-0.8-0.5-1.4L112.5,91.6z"/>
		<path id="_x33_6" class="st2" d="M67.5,79.5c-0.1-0.7-0.7-1.3-1.4-1.2c-0.7,0.1-1.1,0.7-1,1.5c0.1,0.7,0.7,1.3,1.4,1.2
			C67.1,80.9,67.6,80.2,67.5,79.5z M66.3,78.8c0.9,0,0.9,1.6,0,1.6S65.3,78.8,66.3,78.8z"/>
		<path id="_x33_5" class="st2" d="M117.3,94.3c0.3-0.7,0.1-1.5-0.5-1.8c-0.6-0.3-1.4,0-1.7,0.6c-0.3,0.7-0.1,1.5,0.5,1.8
			C116.2,95.2,116.9,94.9,117.3,94.3z M116.7,93c0.8,0.5-0.2,1.9-0.9,1.4C115,93.9,115.9,92.5,116.7,93z"/>
		<path id="_x33_4" class="st2" d="M74.3,78.3c-0.3-0.5-0.9-0.5-0.9-0.5l-1.4,0l0,2.7c0,0,1.1,0,1.4,0c0.3,0,0.6-0.2,0.8-0.5
			c0.2-0.3,0.2-0.6,0.2-0.8C74.5,78.9,74.5,78.6,74.3,78.3z M73.2,80c-0.2,0-0.6,0-0.6,0s0-1.4,0-1.7c0.6,0,0.6,0,0.8,0
			c0.4,0,0.6,0.3,0.7,0.5c0,0.2,0,0.3,0,0.5c0,0.2-0.1,0.4-0.3,0.5C73.5,80,73.3,80,73.2,80z"/>
		<path id="_x33_3" class="st2" d="M70.6,79.4c0,0,0.3-0.2,0.4-0.6c0.1-0.3-0.1-0.6-0.2-0.7c-0.1-0.1-0.3-0.3-0.6-0.3
			c-0.3,0-1.7,0.1-1.7,0.1l0.2,2.7l0.5,0l-0.1-1l0.9-0.1l0.2,0c0,0,0.3,0.4,0.3,0.7c0,0.2,0,0.3,0,0.3h0.5c0,0,0-0.5-0.1-0.8
			C70.7,79.5,70.6,79.4,70.6,79.4z M70.3,79c-0.1,0.1-0.4,0.1-0.4,0.1L69,79.2c0,0,0-0.5,0-0.7c0.1,0,0.8-0.1,0.8-0.1
			c0.1,0,0.3,0,0.3,0s0.1,0,0.2,0.1c0,0,0.1,0.1,0.1,0.2C70.4,78.9,70.3,79,70.3,79z"/>
		<path id="_x33_2" class="st2" d="M99.1,83.5c0.1-0.7-0.4-1.4-1-1.5c-0.7-0.1-1.3,0.4-1.4,1.2c-0.1,0.7,0.4,1.4,1,1.5
			C98.4,84.8,99,84.3,99.1,83.5z M98.1,82.6c0.9,0.2,0.5,1.8-0.4,1.6C96.8,83.9,97.2,82.3,98.1,82.6z"/>
		<path id="_x33_1" class="st2" d="M95.2,82.5c0,0,0.3-0.1,0.5-0.4c0.2-0.3,0.1-0.6,0-0.7c-0.1-0.1-0.2-0.3-0.4-0.4
			c-0.3-0.1-1.6-0.4-1.6-0.4L93,83.1l0.5,0.1l0.3-1l0.8,0.2l0.2,0.1c0,0,0.1,0.5,0,0.8c0,0.2-0.1,0.3-0.1,0.3l0.5,0.2
			c0,0,0.2-0.5,0.1-0.8C95.3,82.6,95.2,82.5,95.2,82.5z M95.1,82c-0.1,0-0.4,0-0.4,0l-0.8-0.2c0,0,0.1-0.5,0.2-0.7
			c0.1,0,0.8,0.2,0.8,0.2c0.1,0,0.3,0.1,0.3,0.1s0.1,0,0.2,0.2c0,0,0.1,0.1,0,0.3C95.3,81.9,95.1,82,95.1,82z"/>
		<path id="_x33_0" class="st2" d="M105.1,86.5c0,0,0.4-0.1,0.6-0.4c0.2-0.3,0.1-0.6,0.1-0.7c0-0.1-0.1-0.4-0.4-0.5
			c-0.3-0.1-1.6-0.6-1.6-0.6l-1,2.5l0.5,0.2l0.3-0.9l0.8,0.3l0.2,0.1c0,0,0.1,0.5,0,0.8c0,0.2-0.1,0.3-0.1,0.3l0.4,0.2
			c0,0,0.2-0.4,0.2-0.8C105.1,86.6,105.1,86.5,105.1,86.5z M104.9,86c-0.1,0-0.4-0.1-0.4-0.1l-0.8-0.3c0,0,0.2-0.4,0.2-0.7
			c0.1,0.1,0.7,0.3,0.8,0.3c0.1,0.1,0.3,0.1,0.3,0.1s0.1,0,0.2,0.2c0,0,0.1,0.1,0,0.3C105.1,85.9,105,86,104.9,86z"/>
		<path id="_x32_9" class="st2" d="M91.9,81.6c0,0,0.3-0.1,0.5-0.4c0.2-0.3,0.1-0.6,0-0.7c-0.1-0.1-0.2-0.3-0.5-0.4
			c-0.3-0.1-1.6-0.4-1.6-0.4l-0.7,2.6l0.5,0.1l0.2-1l0.8,0.2l0.2,0 M91.7,81.1c-0.1,0.1-0.4,0-0.4,0l-0.8-0.2c0,0,0.1-0.5,0.2-0.7
			c0.1,0,0.8,0.2,0.8,0.2c0.1,0,0.3,0.1,0.3,0.1s0.1,0,0.2,0.2c0,0,0.1,0.1,0,0.3C91.9,81,91.8,81.1,91.7,81.1z"/>
		<path id="_x32_8" class="st2" d="M102,85c-0.1,0-0.1-0.1-0.2-0.1c-0.2,0.4-0.7,0.7-1.1,0.4c-0.8-0.5,0.2-1.9,0.9-1.4
			c0.2,0.1,0.3,0.3,0.3,0.5c0.1,0,0.2,0.1,0.4,0.1c0,0,0.1,0,0.1,0.1c0-0.5-0.2-1-0.6-1.2c-0.6-0.3-1.4,0-1.7,0.6
			c-0.3,0.7-0.1,1.5,0.5,1.8c0.6,0.3,1.4,0,1.7-0.6c0,0,0-0.1,0-0.1C102.1,85.1,102.1,85.1,102,85z"/>
		<polygon id="_x32_7" class="st6" points="100.5,80.1 99.9,80.5 100.1,81.2 99.5,80.8 98.9,81.2 99.2,80.5 98.6,80.1 99.3,80.1 
			99.5,79.4 99.8,80.1 		"/>
		<polygon id="_x32_6" class="st6" points="66.3,83.8 67,84.3 66.8,85.1 67.5,84.6 68.2,85.1 67.9,84.3 68.6,83.8 67.7,83.8 
			67.5,82.9 67.2,83.8 		"/>
		<polygon id="_x32_5" class="st6" points="97.6,87.6 98.1,87.9 97.9,88.5 98.4,88.1 98.9,88.5 98.7,87.9 99.2,87.6 98.6,87.6 
			98.4,87 98.2,87.6 		"/>
		<polygon id="_x32_4" class="st6" points="72.2,94.2 72.6,94.4 72.4,94.8 72.7,94.6 73,94.8 72.9,94.4 73.2,94.2 72.9,94.2 
			72.7,93.9 72.6,94.2 		"/>
		<polyline id="_x32_3" class="st6" points="70,94.9 69.7,95.7 68.8,95.7 69.5,96.2 69.3,97.1 70,96.5 70.7,97.1 70.4,96.2 
			71.1,95.7 70.3,95.7 70,94.9 		"/>
		<polygon id="_x32_2" class="st6" points="65.5,98.3 66.1,98.7 65.9,99.4 66.5,99 67.1,99.4 66.9,98.7 67.5,98.3 66.7,98.3 
			66.5,97.6 66.3,98.3 		"/>
		<polygon id="_x32_1" class="st6" points="78.9,90.1 79.5,90.5 79.3,91.2 79.8,90.8 80.4,91.2 80.2,90.5 80.8,90.1 80.1,90.1 
			79.8,89.4 79.6,90.1 		"/>
		<polygon id="_x32_0" class="st6" points="75.1,98.5 75.6,98.9 75.4,99.6 76,99.2 76.5,99.6 76.3,98.9 76.8,98.5 76.2,98.5 
			76,97.9 75.7,98.5 		"/>
		<polygon id="_x31_9" class="st6" points="74.3,101.5 74.8,101.9 74.6,102.5 75.1,102.1 75.6,102.5 75.4,101.9 75.9,101.5 
			75.3,101.5 75.1,100.9 74.9,101.5 		"/>
		<polygon id="_x31_8" class="st6" points="78.1,103.8 78.8,104.3 78.6,105.1 79.3,104.6 80,105.1 79.7,104.3 80.4,103.8 
			79.5,103.8 79.3,102.9 79,103.8 		"/>
		<polygon id="_x31_7" class="st6" points="89.7,93.6 90.3,94 90,94.7 90.6,94.3 91.2,94.7 91,94 91.6,93.6 90.9,93.6 90.6,92.9 
			90.4,93.6 		"/>
		<polygon id="_x31_6" class="st6" points="87,96.1 87.5,96.5 87.3,97.1 87.8,96.7 88.3,97.1 88.1,96.5 88.6,96.1 88,96.1 
			87.8,95.6 87.6,96.1 		"/>
		<polygon id="_x31_5" class="st6" points="88.7,98.1 89,98.3 88.9,98.7 89.2,98.5 89.5,98.7 89.4,98.3 89.7,98.1 89.3,98.1 
			89.2,97.7 89.1,98.1 		"/>
		<polygon id="_x31_4" class="st6" points="92.9,96.1 93.5,96.5 93.3,97.2 93.9,96.8 94.5,97.2 94.3,96.5 94.9,96.1 94.1,96.1 
			93.9,95.4 93.7,96.1 		"/>
		<polygon id="_x31_3" class="st6" points="89.5,101.7 90.2,102.3 89.9,103.1 90.6,102.6 91.4,103.1 91.1,102.3 91.8,101.7 
			90.9,101.7 90.6,100.9 90.4,101.7 		"/>
		<polygon id="_x31_2" class="st6" points="90.2,111.3 90.5,111.5 90.4,111.8 90.6,111.6 90.8,111.8 90.8,111.5 91,111.3 
			90.7,111.3 90.6,111.1 90.5,111.3 		"/>
		<polygon id="_x31_1" class="st6" points="96.1,104.9 96.6,105.3 96.4,105.9 96.9,105.5 97.4,105.9 97.2,105.3 97.7,104.9 
			97.1,104.9 96.9,104.3 96.7,104.9 		"/>
		<polygon id="_x31_0" class="st6" points="98.1,108 98.7,108.5 98.5,109.2 99.1,108.7 99.7,109.2 99.5,108.5 100.1,108 99.4,108 
			99.1,107.3 98.9,108 		"/>
		<polygon id="_x39_" class="st6" points="101.9,105.9 102.4,105.6 101.8,105.6 101.6,105 101.4,105.6 100.8,105.6 101.3,105.9 
			101.1,106.5 101.6,106.1 102.1,106.5 		"/>
		<polygon id="_x38_" class="st6" points="103.9,104.6 104.4,105 104.2,105.6 104.7,105.2 105.2,105.6 105,105 105.5,104.6 
			104.9,104.6 104.7,104 104.5,104.6 		"/>
		<polygon id="_x37_" class="st6" points="103.8,107.3 104.4,107.7 104.2,108.4 104.8,108 105.4,108.4 105.2,107.7 105.8,107.3 
			105,107.3 104.8,106.6 104.6,107.3 		"/>
		<polygon id="_x36_" class="st6" points="104.1,110.3 104.6,110.6 104.4,111.2 104.9,110.8 105.4,111.2 105.2,110.6 105.7,110.3 
			105.1,110.3 104.9,109.7 104.7,110.3 		"/>
		<polygon id="_x35_" class="st6" points="106.9,105.1 107.4,105.5 107.2,106.1 107.7,105.7 108.2,106.1 108,105.5 108.5,105.1 
			107.9,105.1 107.7,104.5 107.5,105.1 		"/>
		<polyline id="_x34_" class="st6" points="109,103.7 109.6,104.1 109.4,104.8 110,104.4 110.6,104.8 110.3,104.1 110.9,103.7 
			110.2,103.7 110,102.9 109.7,103.7 109,103.6 		"/>
		<polygon id="_x33_" class="st6" points="110.7,101.4 111.3,101.9 111.1,102.6 111.7,102.1 112.3,102.6 112,101.9 112.6,101.4 
			111.9,101.4 111.7,100.7 111.4,101.4 		"/>
		<polygon id="_x32_" class="st6" points="109.4,98.8 110.1,99.3 109.8,100.2 110.5,99.6 111.2,100.2 111,99.3 111.7,98.8 
			110.8,98.8 110.5,98 110.2,98.8 		"/>
		<polygon id="_x31_" class="st6" points="113.7,99.2 114.2,99.6 114,100.2 114.5,99.8 115,100.2 114.8,99.6 115.3,99.2 114.7,99.2 
			114.5,98.7 114.3,99.2 		"/>
	</g>
</g>
</svg>
