<?xml version="1.0" encoding="utf-8"?>
<!-- Generator: Adobe Illustrator 21.1.0, SVG Export Plug-In . SVG Version: 6.00 Build 0)  -->
<svg version="1.1" id="Layer_1" xmlns="http://www.w3.org/2000/svg" xmlns:xlink="http://www.w3.org/1999/xlink" x="0px" y="0px"
	 viewBox="0 0 176 177" style="enable-background:new 0 0 176 177;" xml:space="preserve">
<style type="text/css">
	.st0{fill:none;stroke:#3C2F16;stroke-width:5;stroke-linecap:round;stroke-miterlimit:10;}
	.st1{clip-path:url(#SVGID_2_);}
	.st2{fill:#32B34A;}
	.st3{fill:#FFCA05;}
	.st4{fill:#626366;}
	.st5{fill:#E6E6E6;}
	.st6{fill:#F37721;}
	.st7{fill:#00ADEE;}
</style>
<g>
	<path class="st0" d="M4,79.3c-5.3,53.2,39.1,97.6,92.3,92.3c39.4-3.9,71.3-35.8,75.2-75.2c5.3-53.2-39.1-97.6-92.3-92.3
		C39.8,8.1,7.9,39.9,4,79.3z"/>
	<g>
		<defs>
			<circle id="SVGID_1_" cx="87.9" cy="87.8" r="69.7"/>
		</defs>
		<clipPath id="SVGID_2_">
			<use xlink:href="#SVGID_1_"  style="overflow:visible;"/>
		</clipPath>
		<g class="st1">
			<path class="st2" d="M219.3,149.3c0,5.2-4.2,9.4-9.4,9.4H27c-5.2,0-9.4-4.2-9.4-9.4V27c0-5.2,4.2-9.4,9.4-9.4h182.9
				c5.2,0,9.4,4.2,9.4,9.4V149.3z"/>
			<polygon class="st3" points="17.6,35.3 94.9,88.6 17.6,144.3 			"/>
			<polygon class="st4" points="17.6,47.2 78.2,89.6 17.6,133.1 			"/>
			<path class="st5" d="M219.3,75.6V27c0-5.2-4.2-9.4-9.4-9.4H42.8l80.4,58.1H219.3z"/>
			<path class="st5" d="M46.5,158.7h163.4c5.2,0,9.4-4.2,9.4-9.4V104h-96.8L46.5,158.7z"/>
			<path class="st6" d="M219.3,65.5V27c0-5.2-4.2-9.4-9.4-9.4H58.9l66.7,47.9H219.3z"/>
			<path class="st7" d="M62.5,158.7h147.4c5.2,0,9.4-4.2,9.4-9.4v-35.8h-93.8L62.5,158.7z"/>
		</g>
	</g>
</g>
</svg>
