<?xml version="1.0" encoding="utf-8"?>
<!-- Generator: Adobe Illustrator 21.1.0, SVG Export Plug-In . SVG Version: 6.00 Build 0)  -->
<svg version="1.1" id="Layer_1" xmlns="http://www.w3.org/2000/svg" xmlns:xlink="http://www.w3.org/1999/xlink" x="0px" y="0px"
	 viewBox="0 0 176 177" style="enable-background:new 0 0 176 177;" xml:space="preserve">
<style type="text/css">
	.st0{clip-path:url(#SVGID_2_);}
	.st1{clip-path:url(#SVGID_4_);fill:#180087;}
	.st2{clip-path:url(#SVGID_4_);fill:#FFFFFF;}
	.st3{clip-path:url(#SVGID_4_);fill:#EA0020;}
	.st4{fill:none;stroke:#3C2F16;stroke-width:5;stroke-linecap:round;stroke-miterlimit:10;}
</style>
<g>
	<g>
		<defs>
			<ellipse id="SVGID_1_" cx="88.4" cy="87.7" rx="69.7" ry="68.3"/>
		</defs>
		<clipPath id="SVGID_2_">
			<use xlink:href="#SVGID_1_"  style="overflow:visible;"/>
		</clipPath>
		<g id="AUSTRALIA_1_" class="st0">
			<g>
				<g>
					<defs>
						<rect id="SVGID_3_" x="-6.9" y="17.2" width="239.9" height="140"/>
					</defs>
					<clipPath id="SVGID_4_">
						<use xlink:href="#SVGID_3_"  style="overflow:visible;"/>
					</clipPath>
					<rect x="-6.9" y="17.2" class="st1" width="239.9" height="140"/>
					<polygon class="st2" points="56.2,103 59.9,114.3 71.1,110.1 64.5,120 74.7,126.1 62.9,127.2 64.5,139 56.2,130.3 48.1,139 
						49.7,127.2 37.8,126.1 48.1,120 41.4,110.1 52.6,114.3 					"/>
					<polygon class="st2" points="182.5,123.4 184.2,128.8 189.5,126.8 186.4,131.5 191.3,134.4 185.6,134.9 186.4,140.5 
						182.5,136.4 178.6,140.5 179.4,134.9 173.7,134.4 178.6,131.5 175.5,126.8 180.8,128.8 					"/>
					<polygon class="st2" points="150.9,73.4 152.7,78.8 158,76.8 154.9,81.6 159.7,84.5 154.1,84.9 154.9,90.6 150.9,86.5 
						147,90.6 147.8,84.9 142.1,84.5 147,81.6 143.9,76.8 149.2,78.8 					"/>
					<polygon class="st2" points="182.5,39.2 184.2,44.6 189.5,42.6 186.4,47.4 191.3,50.3 185.6,50.8 186.4,56.4 182.5,52.3 
						178.6,56.4 179.4,50.8 173.7,50.3 178.6,47.4 175.5,42.6 180.8,44.6 					"/>
					<polygon class="st2" points="210.6,65 212.3,70.4 217.6,68.4 214.5,73.1 219.4,76 213.7,76.5 214.5,82.2 210.6,78 206.7,82.2 
						207.4,76.5 201.8,76 206.7,73.1 203.5,68.4 208.8,70.4 					"/>
					<polygon class="st2" points="195.1,90.3 196.5,93.7 200.1,94 197.4,96.3 198.2,99.9 195.1,97.9 192,99.9 192.9,96.3 190.1,94 
						193.8,93.7 					"/>
					<polygon class="st2" points="45.7,17.2 45.7,38.3 -6.9,38.3 -6.9,59.3 45.7,59.3 45.7,80.3 66.8,80.3 66.8,59.3 119.4,59.3 
						119.4,38.3 66.8,38.3 66.8,17.2 					"/>
					<polygon class="st2" points="-6.9,17.2 -6.9,24.3 105.3,80.3 119.4,80.3 119.4,73.3 7.3,17.2 					"/>
					<polygon class="st2" points="105.3,17.2 -6.9,73.3 -6.9,80.3 7.3,80.3 119.4,24.3 119.4,17.2 					"/>
					<polygon class="st3" points="49.9,17.2 49.9,42.5 -6.9,42.5 -6.9,55.1 49.9,55.1 49.9,80.3 62.6,80.3 62.6,55.1 119.4,55.1 
						119.4,42.5 62.6,42.5 62.6,17.2 					"/>
					<path class="st3" d="M-6.9,17.2v4.7l32.6,16.3h9.4L-6.9,17.2z M110,17.2l-42.1,21h9.4l42.1-21H110z"/>
					<path class="st3" d="M35.2,59.3l-42.1,21h9.4l42.1-21H35.2z M77.3,59.3l42.1,21v-4.7L86.7,59.3H77.3z"/>
				</g>
			</g>
		</g>
	</g>
	<path class="st4" d="M4.1,79.2c-5.3,53.2,39.1,97.6,92.3,92.3c39.4-3.9,71.3-35.8,75.2-75.2C176.9,43.1,132.5-1.3,79.3,4
		C39.9,7.9,8,39.8,4.1,79.2z"/>
</g>
</svg>
