<?xml version="1.0" encoding="utf-8"?>
<!-- Generator: Adobe Illustrator 21.1.0, SVG Export Plug-In . SVG Version: 6.00 Build 0)  -->
<svg version="1.1" id="Layer_1" xmlns="http://www.w3.org/2000/svg" xmlns:xlink="http://www.w3.org/1999/xlink" x="0px" y="0px"
	 viewBox="0 0 178 177" style="enable-background:new 0 0 178 177;" xml:space="preserve">
<style type="text/css">
	.st0{clip-path:url(#SVGID_2_);}
	.st1{fill:#0038A8;}
	.st2{fill:#CE1126;}
	.st3{fill:#FFFFFF;}
	.st4{fill:#FCD116;}
	.st5{fill:none;stroke:#3C2F16;stroke-width:5;stroke-linecap:round;stroke-miterlimit:10;}
</style>
<g>
	<g>
		<defs>
			<ellipse id="SVGID_1_" cx="89.7" cy="89.1" rx="69.7" ry="68.3"/>
		</defs>
		<clipPath id="SVGID_2_">
			<use xlink:href="#SVGID_1_"  style="overflow:visible;"/>
		</clipPath>
		<g class="st0">
			<rect x="18.7" y="18.6" class="st1" width="282.9" height="141.5"/>
			<rect x="18.7" y="89.4" class="st2" width="282.9" height="70.7"/>
			<polyline class="st3" points="141.2,89.4 18.7,160.1 18.7,18.6 			"/>
			<path class="st4" d="M62.7,75.2c7.8,0,14.1,6.3,14.1,14.1c0,7.8-6.3,14.1-14.1,14.1c-7.8,0-14.1-6.3-14.1-14.1
				C48.5,81.6,54.9,75.2,62.7,75.2"/>
			<polygon class="st4" points="32.8,89.4 34.7,91.2 62.7,89.4 34.7,87.5 			"/>
			<polygon class="st4" points="36,92.9 37.5,94.4 62.7,89.4 			"/>
			<polygon class="st4" points="36,85.8 37.5,84.3 62.7,89.4 			"/>
			<polygon class="st4" points="41.6,68.2 41.6,70.8 62.7,89.4 44.2,68.2 			"/>
			<polygon class="st4" points="41.3,73 41.3,75.1 62.7,89.4 			"/>
			<polygon class="st4" points="46.3,68 48.4,68 62.7,89.4 			"/>
			<polygon class="st4" points="62.7,59.5 60.9,61.3 62.7,89.4 64.5,61.3 			"/>
			<polygon class="st4" points="59.2,62.6 57.7,64.1 62.7,89.4 			"/>
			<polygon class="st4" points="66.2,62.6 67.7,64.1 62.7,89.4 			"/>
			<polygon class="st4" points="83.8,68.2 81.2,68.2 62.7,89.4 83.8,70.8 			"/>
			<polygon class="st4" points="79.1,68 77,68 62.7,89.4 			"/>
			<polygon class="st4" points="84.1,73 84.1,75.1 62.7,89.4 			"/>
			<polygon class="st4" points="92.6,89.4 90.7,87.5 62.7,89.4 90.7,91.2 			"/>
			<polygon class="st4" points="89.4,85.8 87.9,84.3 62.7,89.4 			"/>
			<polygon class="st4" points="89.4,92.9 87.9,94.4 62.7,89.4 			"/>
			<polygon class="st4" points="83.8,110.5 83.8,107.9 62.7,89.4 81.2,110.5 			"/>
			<polygon class="st4" points="84.1,105.8 84.1,103.7 62.7,89.4 			"/>
			<polygon class="st4" points="79.1,110.7 77,110.7 62.7,89.4 			"/>
			<polygon class="st4" points="62.7,119.2 64.5,117.4 62.7,89.4 60.9,117.4 			"/>
			<polygon class="st4" points="66.2,116.1 67.7,114.6 62.7,89.4 			"/>
			<polygon class="st4" points="59.2,116.1 57.7,114.6 62.7,89.4 			"/>
			<polygon class="st4" points="41.6,110.5 44.2,110.5 62.7,89.4 41.6,107.9 			"/>
			<polygon class="st4" points="46.3,110.7 48.4,110.7 62.7,89.4 			"/>
			<polygon class="st4" points="41.3,105.8 41.3,103.7 62.7,89.4 			"/>
			<polygon class="st4" points="22,39.3 27.6,40 28.9,45.5 31.3,40.4 36.9,40.9 32.8,37 34.9,31.9 30,34.6 25.8,30.9 26.8,36.4 			
				"/>
			<polygon class="st4" points="22,139.4 26.8,142.3 25.8,147.8 30,144.2 34.9,146.9 32.8,141.7 36.9,137.8 31.3,138.3 28.9,133.2 
				27.6,138.7 			"/>
			<polygon class="st4" points="112.8,84.7 116,89.4 112.8,94 118.2,92.4 121.6,96.8 121.7,91.2 127,89.4 121.7,87.5 121.6,81.9 
				118.2,86.4 			"/>
		</g>
	</g>
	<path class="st5" d="M5.7,80.5c-5.3,53.2,39.1,97.6,92.3,92.3c39.4-3.9,71.3-35.8,75.2-75.2c5.3-53.2-39.1-97.6-92.3-92.3
		C41.5,9.2,9.6,41.1,5.7,80.5z"/>
</g>
</svg>
