<?xml version="1.0" encoding="utf-8"?>
<!-- Generator: Adobe Illustrator 22.0.1, SVG Export Plug-In . SVG Version: 6.00 Build 0)  -->
<svg version="1.1" id="Capa_1" xmlns="http://www.w3.org/2000/svg" xmlns:xlink="http://www.w3.org/1999/xlink" x="0px" y="0px"
	 viewBox="0 0 180 179.5" style="enable-background:new 0 0 180 179.5;" xml:space="preserve">
<style type="text/css">
	.st0{fill:none;stroke:#3C2F18;stroke-width:5;stroke-linecap:round;stroke-miterlimit:10;}
	.st1{clip-path:url(#SVGID_2_);}
	.st2{fill:#2D6B4F;}
	.st3{fill:#E01748;}
</style>
<path class="st0" d="M6,80.7c-5.3,53.2,39.1,97.6,92.3,92.3c39.4-3.9,71.3-35.8,75.2-75.2c5.3-53.2-39.1-97.6-92.3-92.3
	C41.8,9.5,9.9,41.3,6,80.7z"/>
<g>
	<g>
		<g>
			<defs>
				<path id="SVGID_1_" d="M20.2,98.4c3.9,31.2,29.2,56.5,60.4,60.4c45.9,5.8,84.4-32.8,78.7-78.7c-3.9-31.3-29.2-56.5-60.4-60.4
					c-3.1-0.4-6.1-0.6-9.1-0.6C48,19.2,14.8,55.7,20.2,98.4"/>
			</defs>
			<clipPath id="SVGID_2_">
				<use xlink:href="#SVGID_1_"  style="overflow:visible;"/>
			</clipPath>
			<g class="st1">
				<g>
					<rect x="-16.3" y="17.7" class="st2" width="216" height="144"/>
				</g>
				<circle class="st3" cx="82.7" cy="89.8" r="50"/>
			</g>
		</g>
	</g>
</g>
</svg>
