<svg xmlns="http://www.w3.org/2000/svg" xmlns:xlink="http://www.w3.org/1999/xlink" viewBox="0 0 261.24 177.18"><defs><style>.cls-1{fill:none;}.cls-2,.cls-6{fill:#fff;}.cls-2{stroke:#231f20;stroke-miterlimit:10;stroke-width:4px;}.cls-3{clip-path:url(#clip-path);}.cls-4{clip-path:url(#clip-path-2);}.cls-5{fill:#ca2027;}.cls-7{fill:#2b3561;}</style><clipPath id="clip-path"><ellipse class="cls-1" cx="115.53" cy="88.59" rx="75.48" ry="73.73"/></clipPath><clipPath id="clip-path-2"><rect class="cls-1" y="14.86" width="261.24" height="148.88"/></clipPath></defs><title>Asset 1</title><g id="Layer_2" data-name="Layer 2"><g id="MESA_DE_TRABAJO" data-name="MESA DE TRABAJO"><path class="cls-2" d="M25.32,79.73c-5.62,54.9,42,100.65,99.47,95,42.3-3.79,76.67-36.6,81-77.3,5.62-54.58-42.3-100.33-99.47-95C63.65,6.53,29.61,39.34,25.32,79.73Z"/><g class="cls-3"><g class="cls-4"><rect class="cls-5" y="152.28" width="261.24" height="11.45"/><rect class="cls-6" y="140.82" width="261.24" height="11.45"/><rect class="cls-5" y="129.38" width="261.24" height="11.45"/><rect class="cls-6" y="117.92" width="261.24" height="11.45"/><rect class="cls-5" y="106.47" width="261.24" height="11.45"/><rect class="cls-6" y="95.02" width="261.24" height="11.45"/><rect class="cls-5" y="83.57" width="261.24" height="11.45"/><rect class="cls-6" y="72.12" width="261.24" height="11.44"/><rect class="cls-5" y="60.66" width="261.24" height="11.45"/><rect class="cls-6" y="49.21" width="261.24" height="11.46"/><rect class="cls-5" y="37.75" width="261.24" height="11.45"/><rect class="cls-6" y="26.31" width="261.24" height="11.44"/><rect class="cls-5" y="14.86" width="261.24" height="11.45"/><rect class="cls-7" y="14.86" width="119.27" height="80.17"/><polygon class="cls-6" points="10.76 23.69 11.76 26.72 15.02 26.72 12.38 28.59 13.39 31.62 10.76 29.74 8.12 31.62 9.12 28.59 6.49 26.72 9.74 26.72 10.76 23.69"/><polygon class="cls-6" points="10.76 37.07 11.76 40.1 15.02 40.1 12.38 41.97 13.39 45 10.76 43.13 8.12 45 9.12 41.97 6.49 40.1 9.74 40.1 10.76 37.07"/><polygon class="cls-6" points="10.76 50.45 11.76 53.48 15.02 53.48 12.38 55.35 13.39 58.39 10.76 56.51 8.12 58.39 9.12 55.35 6.49 53.48 9.74 53.48 10.76 50.45"/><polygon class="cls-6" points="10.76 63.84 11.76 66.86 15.02 66.86 12.38 68.74 13.39 71.76 10.76 69.89 8.12 71.76 9.12 68.74 6.49 66.86 9.74 66.86 10.76 63.84"/><polygon class="cls-6" points="10.76 77.22 11.76 80.25 15.02 80.25 12.38 82.11 13.39 85.14 10.76 83.27 8.12 85.14 9.12 82.11 6.49 80.25 9.74 80.25 10.76 77.22"/><polygon class="cls-6" points="20.29 30.74 21.3 33.77 24.56 33.77 21.92 35.64 22.93 38.67 20.29 36.8 17.65 38.67 18.66 35.64 16.03 33.77 19.29 33.77 20.29 30.74"/><polygon class="cls-6" points="20.29 44.12 21.3 47.14 24.56 47.14 21.92 49.02 22.93 52.05 20.29 50.18 17.65 52.05 18.66 49.02 16.03 47.14 19.29 47.14 20.29 44.12"/><polygon class="cls-6" points="20.29 57.5 21.3 60.53 24.56 60.53 21.92 62.41 22.93 65.43 20.29 63.56 17.65 65.43 18.66 62.41 16.03 60.53 19.29 60.53 20.29 57.5"/><polygon class="cls-6" points="20.29 70.88 21.3 73.91 24.56 73.91 21.92 75.79 22.93 78.81 20.29 76.94 17.65 78.81 18.66 75.79 16.03 73.91 19.29 73.91 20.29 70.88"/><polygon class="cls-6" points="29.95 23.69 30.96 26.72 34.22 26.72 31.58 28.59 32.59 31.62 29.95 29.74 27.31 31.62 28.32 28.59 25.69 26.72 28.95 26.72 29.95 23.69"/><polygon class="cls-6" points="29.95 37.07 30.96 40.1 34.22 40.1 31.58 41.97 32.59 45 29.95 43.13 27.31 45 28.32 41.97 25.69 40.1 28.95 40.1 29.95 37.07"/><polygon class="cls-6" points="29.95 50.45 30.96 53.48 34.22 53.48 31.58 55.35 32.59 58.39 29.95 56.51 27.31 58.39 28.32 55.35 25.69 53.48 28.95 53.48 29.95 50.45"/><polygon class="cls-6" points="29.95 63.84 30.96 66.86 34.22 66.86 31.58 68.74 32.59 71.76 29.95 69.89 27.31 71.76 28.32 68.74 25.69 66.86 28.95 66.86 29.95 63.84"/><polygon class="cls-6" points="29.95 77.22 30.96 80.25 34.22 80.25 31.58 82.11 32.59 85.14 29.95 83.27 27.31 85.14 28.32 82.11 25.69 80.25 28.95 80.25 29.95 77.22"/><polygon class="cls-6" points="39.49 30.74 40.5 33.77 43.76 33.77 41.13 35.64 42.13 38.67 39.49 36.8 36.85 38.67 37.86 35.64 35.23 33.77 38.48 33.77 39.49 30.74"/><polygon class="cls-6" points="39.49 44.12 40.5 47.14 43.76 47.14 41.13 49.02 42.13 52.05 39.49 50.18 36.85 52.05 37.86 49.02 35.23 47.14 38.48 47.14 39.49 44.12"/><polygon class="cls-6" points="39.49 57.5 40.5 60.53 43.76 60.53 41.13 62.41 42.13 65.43 39.49 63.56 36.85 65.43 37.86 62.41 35.23 60.53 38.48 60.53 39.49 57.5"/><polygon class="cls-6" points="39.49 70.88 40.5 73.91 43.76 73.91 41.13 75.79 42.13 78.81 39.49 76.94 36.85 78.81 37.86 75.79 35.23 73.91 38.48 73.91 39.49 70.88"/><polygon class="cls-6" points="49.15 23.69 50.17 26.72 53.43 26.72 50.79 28.59 51.79 31.62 49.15 29.74 46.52 31.62 47.52 28.59 44.89 26.72 48.15 26.72 49.15 23.69"/><polygon class="cls-6" points="49.15 37.07 50.17 40.1 53.43 40.1 50.79 41.97 51.79 45 49.15 43.13 46.52 45 47.52 41.97 44.89 40.1 48.15 40.1 49.15 37.07"/><polygon class="cls-6" points="49.15 50.45 50.17 53.48 53.43 53.48 50.79 55.35 51.79 58.39 49.15 56.51 46.52 58.39 47.52 55.35 44.89 53.48 48.15 53.48 49.15 50.45"/><polygon class="cls-6" points="49.15 63.84 50.17 66.86 53.43 66.86 50.79 68.74 51.79 71.76 49.15 69.89 46.52 71.76 47.52 68.74 44.89 66.86 48.15 66.86 49.15 63.84"/><polygon class="cls-6" points="49.15 77.22 50.17 80.25 53.43 80.25 50.79 82.11 51.79 85.14 49.15 83.27 46.52 85.14 47.52 82.11 44.89 80.25 48.15 80.25 49.15 77.22"/><polygon class="cls-6" points="58.7 30.74 59.71 33.77 62.96 33.77 60.32 35.64 61.34 38.67 58.7 36.8 56.06 38.67 57.06 35.64 54.43 33.77 57.69 33.77 58.7 30.74"/><polygon class="cls-6" points="58.7 44.12 59.71 47.14 62.96 47.14 60.32 49.02 61.34 52.05 58.7 50.18 56.06 52.05 57.06 49.02 54.43 47.14 57.69 47.14 58.7 44.12"/><polygon class="cls-6" points="58.7 57.5 59.71 60.53 62.96 60.53 60.32 62.41 61.34 65.43 58.7 63.56 56.06 65.43 57.06 62.41 54.43 60.53 57.69 60.53 58.7 57.5"/><polygon class="cls-6" points="58.7 70.88 59.71 73.91 62.96 73.91 60.32 75.79 61.34 78.81 58.7 76.94 56.06 78.81 57.06 75.79 54.43 73.91 57.69 73.91 58.7 70.88"/><polygon class="cls-6" points="68.36 23.69 69.36 26.72 72.63 26.72 69.99 28.59 70.99 31.62 68.36 29.74 65.72 31.62 66.73 28.59 64.09 26.72 67.35 26.72 68.36 23.69"/><polygon class="cls-6" points="68.36 37.07 69.36 40.1 72.63 40.1 69.99 41.97 70.99 45 68.36 43.13 65.72 45 66.73 41.97 64.09 40.1 67.35 40.1 68.36 37.07"/><polygon class="cls-6" points="68.36 50.45 69.36 53.48 72.63 53.48 69.99 55.35 70.99 58.39 68.36 56.51 65.72 58.39 66.73 55.35 64.09 53.48 67.35 53.48 68.36 50.45"/><polygon class="cls-6" points="68.36 63.84 69.36 66.86 72.63 66.86 69.99 68.74 70.99 71.76 68.36 69.89 65.72 71.76 66.73 68.74 64.09 66.86 67.35 66.86 68.36 63.84"/><polygon class="cls-6" points="68.36 77.22 69.36 80.25 72.63 80.25 69.99 82.11 70.99 85.14 68.36 83.27 65.72 85.14 66.73 82.11 64.09 80.25 67.35 80.25 68.36 77.22"/><polygon class="cls-6" points="77.9 30.74 78.9 33.77 82.16 33.77 79.53 35.64 80.54 38.67 77.9 36.8 75.26 38.67 76.27 35.64 73.63 33.77 76.89 33.77 77.9 30.74"/><polygon class="cls-6" points="77.9 44.12 78.9 47.14 82.16 47.14 79.53 49.02 80.54 52.05 77.9 50.18 75.26 52.05 76.27 49.02 73.63 47.14 76.89 47.14 77.9 44.12"/><polygon class="cls-6" points="77.9 57.5 78.9 60.53 82.16 60.53 79.53 62.41 80.54 65.43 77.9 63.56 75.26 65.43 76.27 62.41 73.63 60.53 76.89 60.53 77.9 57.5"/><polygon class="cls-6" points="77.9 70.88 78.9 73.91 82.16 73.91 79.53 75.79 80.54 78.81 77.9 76.94 75.26 78.81 76.27 75.79 73.63 73.91 76.89 73.91 77.9 70.88"/><polygon class="cls-6" points="87.56 23.69 88.56 26.72 91.83 26.72 89.19 28.59 90.19 31.62 87.56 29.74 84.92 31.62 85.93 28.59 83.29 26.72 86.55 26.72 87.56 23.69"/><polygon class="cls-6" points="87.56 37.07 88.56 40.1 91.83 40.1 89.19 41.97 90.19 45 87.56 43.13 84.92 45 85.93 41.97 83.29 40.1 86.55 40.1 87.56 37.07"/><polygon class="cls-6" points="87.56 50.45 88.56 53.48 91.83 53.48 89.19 55.35 90.19 58.39 87.56 56.51 84.92 58.39 85.93 55.35 83.29 53.48 86.55 53.48 87.56 50.45"/><polygon class="cls-6" points="87.56 63.84 88.56 66.86 91.83 66.86 89.19 68.74 90.19 71.76 87.56 69.89 84.92 71.76 85.93 68.74 83.29 66.86 86.55 66.86 87.56 63.84"/><polygon class="cls-6" points="87.56 77.22 88.56 80.25 91.83 80.25 89.19 82.11 90.19 85.14 87.56 83.27 84.92 85.14 85.93 82.11 83.29 80.25 86.55 80.25 87.56 77.22"/><polygon class="cls-6" points="97.1 30.74 98.11 33.77 101.36 33.77 98.73 35.64 99.73 38.67 97.1 36.8 94.46 38.67 95.47 35.64 92.83 33.77 96.09 33.77 97.1 30.74"/><polygon class="cls-6" points="97.1 44.12 98.11 47.14 101.36 47.14 98.73 49.02 99.73 52.05 97.1 50.18 94.46 52.05 95.47 49.02 92.83 47.14 96.09 47.14 97.1 44.12"/><polygon class="cls-6" points="97.1 57.5 98.11 60.53 101.36 60.53 98.73 62.41 99.73 65.43 97.1 63.56 94.46 65.43 95.47 62.41 92.83 60.53 96.09 60.53 97.1 57.5"/><polygon class="cls-6" points="97.1 70.88 98.11 73.91 101.36 73.91 98.73 75.79 99.73 78.81 97.1 76.94 94.46 78.81 95.47 75.79 92.83 73.91 96.09 73.91 97.1 70.88"/><polygon class="cls-6" points="106.76 23.69 107.77 26.72 111.03 26.72 108.39 28.59 109.4 31.62 106.76 29.74 104.12 31.62 105.13 28.59 102.49 26.72 105.75 26.72 106.76 23.69"/><polygon class="cls-6" points="106.76 37.07 107.77 40.1 111.03 40.1 108.39 41.97 109.4 45 106.76 43.13 104.12 45 105.13 41.97 102.49 40.1 105.75 40.1 106.76 37.07"/><polygon class="cls-6" points="106.76 50.45 107.77 53.48 111.03 53.48 108.39 55.35 109.4 58.39 106.76 56.51 104.12 58.39 105.13 55.35 102.49 53.48 105.75 53.48 106.76 50.45"/><polygon class="cls-6" points="106.76 63.84 107.77 66.86 111.03 66.86 108.39 68.74 109.4 71.76 106.76 69.89 104.12 71.76 105.13 68.74 102.49 66.86 105.75 66.86 106.76 63.84"/><polygon class="cls-6" points="106.76 77.22 107.77 80.25 111.03 80.25 108.39 82.11 109.4 85.14 106.76 83.27 104.12 85.14 105.13 82.11 102.49 80.25 105.75 80.25 106.76 77.22"/></g></g></g></g></svg>