<?xml version="1.0" encoding="utf-8"?>
<!-- Generator: Adobe Illustrator 21.0.2, SVG Export Plug-In . SVG Version: 6.00 Build 0)  -->
<svg version="1.1" xmlns="http://www.w3.org/2000/svg" xmlns:xlink="http://www.w3.org/1999/xlink" x="0px" y="0px"
	 viewBox="0 0 57.4 57.9" style="enable-background:new 0 0 57.4 57.9;" xml:space="preserve">
<style type="text/css">
	.st0{opacity:0.8;fill:#FCC549;}
	.st1{fill:#FFFFFF;}
	.st2{fill:none;stroke:#73629A;stroke-width:2;stroke-linecap:round;stroke-miterlimit:10;}
	.st3{fill:#73629A;stroke:#73629A;stroke-miterlimit:10;}
	.st4{fill:#FFFFFF;stroke:#73629A;stroke-width:2;stroke-linecap:round;stroke-miterlimit:10;}
	.st5{fill:#FFFFFF;stroke:#FFFFFF;stroke-width:9;stroke-miterlimit:10;}
	.st6{fill:#6CC5DB;}
	.st7{fill:#73629A;}
	.st8{fill:#F5C153;}
	.st9{fill:#FFFFFF;stroke:#8778B3;stroke-miterlimit:10;}
	.st10{clip-path:url(#SVGID_2_);}
	.st11{clip-path:url(#SVGID_4_);fill:#C73B3C;}
	.st12{clip-path:url(#SVGID_4_);fill:#ECD652;}
	.st13{clip-path:url(#SVGID_4_);fill:#336B44;}
	.st14{clip-path:url(#SVGID_4_);}
	.st15{clip-path:url(#SVGID_6_);fill:#55A0CE;}
	.st16{clip-path:url(#SVGID_6_);fill:#ECD652;}
	.st17{clip-path:url(#SVGID_6_);}
	.st18{fill:#ECD652;}
	.st19{clip-path:url(#SVGID_8_);}
	.st20{fill-rule:evenodd;clip-rule:evenodd;}
	.st21{fill-rule:evenodd;clip-rule:evenodd;fill:#FFFFFF;}
	.st22{fill-rule:evenodd;clip-rule:evenodd;fill:#E42535;}
	.st23{fill-rule:evenodd;clip-rule:evenodd;fill:#CACACA;}
	.st24{fill-rule:evenodd;clip-rule:evenodd;fill:#F4C343;}
	.st25{clip-path:url(#SVGID_10_);}
	.st26{fill:#E42535;}
	.st27{fill:#179F56;}
	.st28{fill:#EDCA50;}
	.st29{fill:none;}
	.st30{clip-path:url(#SVGID_12_);}
	.st31{clip-path:url(#SVGID_14_);fill:#C32732;}
	.st32{clip-path:url(#SVGID_14_);fill:#F1D74F;}
	.st33{clip-path:url(#SVGID_16_);}
	.st34{clip-path:url(#SVGID_20_);fill:#FFFFFF;}
	.st35{opacity:0.75;clip-path:url(#SVGID_20_);fill:#F90D1B;}
	.st36{clip-path:url(#SVGID_20_);fill:#030C7E;}
	.st37{clip-path:url(#SVGID_24_);}
	.st38{clip-path:url(#SVGID_26_);fill:#34448C;}
	.st39{clip-path:url(#SVGID_26_);fill:#FFFFFF;}
	.st40{clip-path:url(#SVGID_26_);fill:#CF273D;}
	.st41{clip-path:url(#SVGID_28_);}
	.st42{fill:#2978B3;}
	.st43{clip-path:url(#SVGID_30_);}
	.st44{clip-path:url(#SVGID_32_);fill:#3D8156;}
	.st45{clip-path:url(#SVGID_32_);fill:#FFFFFF;}
	.st46{clip-path:url(#SVGID_34_);}
	.st47{clip-path:url(#SVGID_36_);fill:#C32732;}
	.st48{clip-path:url(#SVGID_36_);fill:#F1D74F;}
	.st49{clip-path:url(#SVGID_38_);}
	.st50{clip-path:url(#SVGID_40_);fill:#FFFFFF;}
	.st51{clip-path:url(#SVGID_40_);fill:#316738;}
	.st52{clip-path:url(#SVGID_40_);}
	.st53{clip-path:url(#SVGID_42_);fill:#FFFFFF;}
	.st54{clip-path:url(#SVGID_42_);fill:#316738;}
	.st55{clip-path:url(#SVGID_44_);}
	.st56{clip-path:url(#SVGID_46_);fill:#AD2434;}
	.st57{clip-path:url(#SVGID_46_);fill:#EEBD49;}
	.st58{clip-path:url(#SVGID_46_);}
	.st59{fill:#95202E;}
	.st60{fill:#BCAB47;}
	.st61{fill:#43896F;}
	.st62{fill:#3F5FA1;}
	.st63{fill:#C6C6C6;}
	.st64{fill:#BAAE48;}
	.st65{fill:#C24250;}
	.st66{fill:#D66FA2;}
	.st67{fill:#F1CF95;}
	.st68{fill:#47569B;}
	.st69{clip-path:url(#SVGID_48_);fill:#3F5FA1;}
	.st70{clip-path:url(#SVGID_50_);}
	.st71{fill:#314490;}
	.st72{fill:#B4253A;}
	.st73{clip-path:url(#SVGID_52_);}
	.st74{clip-path:url(#SVGID_54_);fill:#428C4A;}
	.st75{clip-path:url(#SVGID_54_);fill:#E7BB46;}
	.st76{clip-path:url(#SVGID_54_);}
	.st77{clip-path:url(#SVGID_56_);fill:#302B68;}
	.st78{clip-path:url(#SVGID_56_);fill:#FFFFFF;}
	.st79{clip-path:url(#SVGID_56_);}
	.st80{fill-rule:evenodd;clip-rule:evenodd;fill:#428C4A;}
	.st81{clip-path:url(#SVGID_58_);}
	.st82{clip-path:url(#SVGID_60_);fill:#FFFFFF;}
	.st83{clip-path:url(#SVGID_60_);fill:#4E9A4F;}
	.st84{clip-path:url(#SVGID_60_);fill:#BE2632;}
	.st85{clip-path:url(#SVGID_60_);}
	.st86{clip-path:url(#SVGID_62_);fill:#BE2632;}
	.st87{clip-path:url(#SVGID_62_);fill:#FFFFFF;}
	.st88{clip-path:url(#SVGID_64_);}
	.st89{clip-path:url(#SVGID_66_);fill:#FFFFFF;}
	.st90{clip-path:url(#SVGID_66_);}
	.st91{clip-path:url(#SVGID_66_);fill:#316738;}
	.st92{clip-path:url(#SVGID_68_);}
	.st93{fill:#8778B3;}
	.st94{clip-path:url(#SVGID_68_);fill:#FFFFFF;}
	.st95{clip-path:url(#SVGID_68_);fill:#A2232B;}
	.st96{clip-path:url(#SVGID_70_);}
	.st97{clip-path:url(#SVGID_72_);fill:#6080B9;}
	.st98{clip-path:url(#SVGID_72_);fill:#FFFFFF;}
	.st99{clip-path:url(#SVGID_74_);}
	.st100{clip-path:url(#SVGID_76_);fill:#FFFFFF;}
	.st101{clip-path:url(#SVGID_76_);fill:#E8904F;}
	.st102{clip-path:url(#SVGID_76_);fill:#428447;}
	.st103{clip-path:url(#SVGID_76_);}
	.st104{clip-path:url(#SVGID_78_);fill:#2B2C70;}
	.st105{clip-path:url(#SVGID_78_);fill:#FFFFFF;}
	.st106{clip-path:url(#SVGID_80_);}
	.st107{clip-path:url(#SVGID_82_);fill:#CF273D;}
	.st108{clip-path:url(#SVGID_82_);fill:#FFFFFF;}
	.st109{clip-path:url(#SVGID_84_);}
	.st110{clip-path:url(#SVGID_86_);fill:#C82635;}
	.st111{clip-path:url(#SVGID_86_);}
	.st112{clip-path:url(#SVGID_88_);fill:#FFFFFF;}
	.st113{clip-path:url(#SVGID_88_);fill:#C82635;}
	.st114{clip-path:url(#SVGID_90_);}
	.st115{clip-path:url(#SVGID_92_);}
	.st116{fill:#2F3480;}
	.st117{fill:#B2252F;}
	.st118{fill:#FFFFFF;stroke:#B2252F;stroke-width:0.1;stroke-miterlimit:10;}
	.st119{opacity:0.7;fill:#73BFD3;}
	.st120{fill:#FFFFFF;stroke:#FFFFFF;stroke-width:4;stroke-miterlimit:10;}
	.st121{clip-path:url(#SVGID_94_);fill:#2A3F84;}
	.st122{clip-path:url(#SVGID_94_);fill:#B4253A;}
	.st123{clip-path:url(#SVGID_94_);}
	.st124{clip-path:url(#SVGID_96_);fill:#FFFFFF;}
	.st125{fill:none;stroke:#F0BC5C;stroke-width:2;stroke-linecap:round;stroke-miterlimit:10;}
	.st126{opacity:0.8;fill:#FFFFFF;}
	.st127{fill:#AFE6EF;}
	.st128{fill:#AFE6EF;stroke:#73629A;stroke-width:2;stroke-linecap:round;stroke-miterlimit:10;}
	.st129{fill:#FCC549;}
	.st130{opacity:0.9;fill:#FFFFFF;}
	.st131{opacity:0.8;}
	.st132{display:none;}
	.st133{display:inline;}
	.st134{fill:#FFE2C9;}
	.st135{fill:none;stroke:#FCC549;stroke-width:2;stroke-linecap:round;stroke-miterlimit:10;}
	.st136{fill:none;stroke:#FFFFFF;stroke-miterlimit:10;}
	.st137{fill:#FFFFFF;stroke:#FFFFFF;stroke-miterlimit:10;}
	.st138{fill:none;stroke:#3C2F16;stroke-width:2;stroke-linecap:round;stroke-miterlimit:10;}
	.st139{fill:#DEE7FF;}
	.st140{fill:#3C2F16;}
	.st141{fill:none;stroke:#3C2F16;stroke-width:2;stroke-linecap:round;stroke-miterlimit:10;stroke-dasharray:9.9901,4.995;}
	.st142{fill:#B4CAF6;}
</style>
<g id="MESA_DE_TRABAJO">
	<g>
		<path class="st9" d="M1.4,26.1C-0.3,43.5,14.1,58,31.5,56.2C44.3,55,54.7,44.6,56,31.7C57.7,14.4,43.2-0.1,25.9,1.6
			C13,2.9,2.7,13.3,1.4,26.1z"/>
		<g>
			<defs>
				<path id="SVGID_57_" d="M51.5,26c1.9,15-10.7,27.5-25.6,25.6C15.6,50.3,7.4,42.1,6.1,31.9C4.2,17,16.8,4.4,31.8,6.3
					C42,7.5,50.2,15.8,51.5,26z"/>
			</defs>
			<clipPath id="SVGID_2_">
				<use xlink:href="#SVGID_57_"  style="overflow:visible;"/>
			</clipPath>
			<g id="IRAN_2_" class="st10">
				<g>
					<g>
						<defs>
							<rect id="SVGID_59_" x="-10.9" y="5.8" width="79.4" height="46.3"/>
						</defs>
						<clipPath id="SVGID_4_">
							<use xlink:href="#SVGID_59_"  style="overflow:visible;"/>
						</clipPath>
						<rect x="-10.9" y="5.8" style="clip-path:url(#SVGID_4_);fill:#FFFFFF;" width="79.4" height="46.3"/>
						<rect x="-10.9" y="5.8" style="clip-path:url(#SVGID_4_);fill:#4E9A4F;" width="79.4" height="15.5"/>
						<rect x="-10.9" y="36.6" style="clip-path:url(#SVGID_4_);fill:#BE2632;" width="79.4" height="15.5"/>
						<polygon style="clip-path:url(#SVGID_4_);fill:#BE2632;" points="28.8,23.4 27.9,24 28.1,35 28.8,35.8 29.5,35 29.6,24 						
							"/>
						<g class="st14">
							<defs>
								<rect id="SVGID_61_" x="-10.9" y="5.8" width="79.4" height="46.3"/>
							</defs>
							<clipPath id="SVGID_6_">
								<use xlink:href="#SVGID_61_"  style="overflow:visible;"/>
							</clipPath>
							<path style="clip-path:url(#SVGID_6_);fill:#BE2632;" d="M30.5,22.2c-0.3,0.5-1,0.7-1.6,0.4c0,0-0.1,0-0.1-0.1
								c-0.5,0.4-1.2,0.3-1.6-0.2c0,0,0-0.1-0.1-0.1c-0.1,0.5,0.2,1.1,0.7,1.2c0.3,0.1,0.7,0,1-0.3c0.4,0.4,1,0.4,1.4,0
								C30.5,22.9,30.6,22.5,30.5,22.2"/>
							<path style="clip-path:url(#SVGID_6_);fill:#BE2632;" d="M30.9,23.7c2.2,3.1,1.6,7.3-1.5,9.6c-1.4,1-3.1,1.5-4.8,1.3
								c3.2,1.3,6.9-0.3,8.2-3.5C33.9,28.4,33.1,25.5,30.9,23.7"/>
							<path style="clip-path:url(#SVGID_6_);fill:#BE2632;" d="M26.7,23.7c-2.2,3.1-1.6,7.3,1.5,9.6c1.4,1,3.1,1.5,4.8,1.3
								c-3.3,1.3-6.9-0.3-8.2-3.5C23.7,28.4,24.5,25.5,26.7,23.7"/>
							<path style="clip-path:url(#SVGID_6_);fill:#BE2632;" d="M31.7,23.5c3.1,2.2,3.7,6.5,1.5,9.6c-0.1,0.1-0.2,0.3-0.3,0.4
								c2.6-1.4,3.6-4.7,2.2-7.3C34.3,24.9,33.1,23.9,31.7,23.5"/>
							<path style="clip-path:url(#SVGID_6_);fill:#BE2632;" d="M25.9,23.5c-3.1,2.2-3.7,6.5-1.5,9.6c0.1,0.1,0.2,0.3,0.4,0.4
								c-2.6-1.4-3.6-4.7-2.2-7.3C23.3,24.9,24.5,23.9,25.9,23.5"/>
							<path style="clip-path:url(#SVGID_6_);fill:#FFFFFF;" d="M-3.5,20.5h0.4v-0.7h1.1v0.7h1.8v-1.1h-1.1v0.4h0.7v0.4h-1.1v-0.7
								h-1.8V20.5z M-2.8,20.5h0.4v-0.4h-0.4V20.5z M-3.5,19h4.7v-0.4h-4.7V19z M1.2,20.5H0.1v-1.1h1.4v-0.7h0.4v1.5h0.4v-1.5h0.4
								v1.5H3v-1.5h0.4v1.8H1.5v-0.7H0.4v0.4h0.7V20.5z"/>
							<path style="clip-path:url(#SVGID_6_);fill:#FFFFFF;" d="M3.7,20.5H4v-0.7h1.1v0.7h1.8v-1.1H5.9v0.4h0.7v0.4H5.5v-0.7H3.7
								V20.5z M4.4,20.5h0.4v-0.4H4.4V20.5z M3.7,19h4.7v-0.4H3.7V19z M8.4,20.5H7.3v-1.1h1.4v-0.7h0.4v1.5h0.4v-1.5h0.4v1.5h0.4
								v-1.5h0.4v1.8H8.7v-0.7H7.7v0.4h0.7V20.5z"/>
							<path style="clip-path:url(#SVGID_6_);fill:#FFFFFF;" d="M10.9,20.5h0.4v-0.7h1.1v0.7h1.8v-1.1h-1.1v0.4h0.7v0.4h-1.1v-0.7
								h-1.8V20.5z M11.6,20.5H12v-0.4h-0.4V20.5z M10.9,19h4.7v-0.4h-4.7V19z M15.6,20.5h-1.1v-1.1H16v-0.7h0.4v1.5h0.4v-1.5h0.4
								v1.5h0.4v-1.5h0.4v1.8H16v-0.7h-1.1v0.4h0.7V20.5z"/>
							<path style="clip-path:url(#SVGID_6_);fill:#FFFFFF;" d="M18.1,20.5h0.4v-0.7h1.1v0.7h1.8v-1.1h-1.1v0.4H21v0.4h-1.1v-0.7
								h-1.8V20.5z M18.9,20.5h0.4v-0.4h-0.4V20.5z M18.1,19h4.7v-0.4h-4.7V19z M22.8,20.5h-1.1v-1.1h1.4v-0.7h0.4v1.5h0.4v-1.5h0.4
								v1.5h0.4v-1.5H25v1.8h-1.8v-0.7h-1.1v0.4h0.7V20.5z"/>
							<path style="clip-path:url(#SVGID_6_);fill:#FFFFFF;" d="M25.4,20.5h0.4v-0.7h1.1v0.7h1.8v-1.1h-1.1v0.4h0.7v0.4h-1.1v-0.7
								h-1.8V20.5z M26.1,20.5h0.4v-0.4h-0.4V20.5z M25.4,19h4.7v-0.4h-4.7V19z M30.1,20.5H29v-1.1h1.4v-0.7h0.4v1.5h0.4v-1.5h0.4
								v1.5h0.4v-1.5h0.4v1.8h-1.8v-0.7h-1.1v0.4h0.7V20.5z"/>
							<path style="clip-path:url(#SVGID_6_);fill:#FFFFFF;" d="M32.6,20.5h0.4v-0.7H34v0.7h1.8v-1.1h-1.1v0.4h0.7v0.4h-1.1v-0.7
								h-1.8V20.5z M33.3,20.5h0.4v-0.4h-0.4V20.5z M32.6,19h4.7v-0.4h-4.7V19z M37.3,20.5h-1.1v-1.1h1.4v-0.7H38v1.5h0.4v-1.5h0.4
								v1.5h0.4v-1.5h0.4v1.8h-1.8v-0.7h-1.1v0.4h0.7V20.5z"/>
							<path style="clip-path:url(#SVGID_6_);fill:#FFFFFF;" d="M39.8,20.5h0.4v-0.7h1.1v0.7H43v-1.1H42v0.4h0.7v0.4h-1.1v-0.7h-1.8
								V20.5z M40.5,20.5h0.4v-0.4h-0.4V20.5z M39.8,19h4.7v-0.4h-4.7V19z M44.5,20.5h-1.1v-1.1h1.4v-0.7h0.4v1.5h0.4v-1.5h0.4v1.5
								h0.4v-1.5h0.4v1.8h-1.8v-0.7h-1.1v0.4h0.7V20.5z"/>
							<path style="clip-path:url(#SVGID_6_);fill:#FFFFFF;" d="M47,20.5h0.4v-0.7h1.1v0.7h1.8v-1.1h-1.1v0.4h0.7v0.4h-1.1v-0.7H47
								V20.5z M47.7,20.5h0.4v-0.4h-0.4V20.5z M47,19h4.7v-0.4H47V19z M51.7,20.5h-1.1v-1.1h1.5v-0.7h0.4v1.5h0.4v-1.5h0.4v1.5h0.4
								v-1.5h0.4v1.8h-1.8v-0.7H51v0.4h0.7V20.5z"/>
							<path style="clip-path:url(#SVGID_6_);fill:#FFFFFF;" d="M54.3,20.5h0.4v-0.7h1.1v0.7h1.8v-1.1h-1.1v0.4h0.7v0.4h-1.1v-0.7
								h-1.8V20.5z M55,20.5h0.4v-0.4H55V20.5z M54.3,19h4.7v-0.4h-4.7V19z M58.9,20.5h-1.1v-1.1h1.4v-0.7h0.4v1.5H60v-1.5h0.4v1.5
								h0.4v-1.5h0.4v1.8h-1.8v-0.7h-1.1v0.4h0.7V20.5z"/>
							<path style="clip-path:url(#SVGID_6_);fill:#FFFFFF;" d="M-3.5,21.6h3.2v-0.7h-3.2V21.6z M0.1,21.6h3.3v-0.7H0.1V21.6z"/>
							<path style="clip-path:url(#SVGID_6_);fill:#FFFFFF;" d="M3.7,21.6h3.3v-0.7H3.7V21.6z M7.3,21.6h3.3v-0.7H7.3V21.6z"/>
							<path style="clip-path:url(#SVGID_6_);fill:#FFFFFF;" d="M10.9,21.6h3.3v-0.7h-3.3V21.6z M14.5,21.6h3.3v-0.7h-3.3V21.6z"/>
							<path style="clip-path:url(#SVGID_6_);fill:#FFFFFF;" d="M18.1,21.6h3.3v-0.7h-3.3V21.6z M21.7,21.6H25v-0.7h-3.3V21.6z"/>
							<path style="clip-path:url(#SVGID_6_);fill:#FFFFFF;" d="M25.4,21.6h3.3v-0.7h-3.3V21.6z M29,21.6h3.2v-0.7H29V21.6z"/>
							<path style="clip-path:url(#SVGID_6_);fill:#FFFFFF;" d="M32.6,21.6h3.3v-0.7h-3.3V21.6z M36.2,21.6h3.2v-0.7h-3.2V21.6z"/>
							<path style="clip-path:url(#SVGID_6_);fill:#FFFFFF;" d="M39.8,21.6H43v-0.7h-3.2V21.6z M43.4,21.6h3.3v-0.7h-3.3V21.6z"/>
							<path style="clip-path:url(#SVGID_6_);fill:#FFFFFF;" d="M47,21.6h3.3v-0.7H47V21.6z M50.6,21.6h3.3v-0.7h-3.3V21.6z"/>
							<path style="clip-path:url(#SVGID_6_);fill:#FFFFFF;" d="M54.3,21.6h3.2v-0.7h-3.2V21.6z M57.9,21.6h3.3v-0.7h-3.3V21.6z"/>
							<path style="clip-path:url(#SVGID_6_);fill:#FFFFFF;" d="M-3.5,39.2h0.4v-0.7h1.1v0.7h1.8v-1.1h-1.1v0.4h0.7v0.4h-1.1v-0.7
								h-1.8V39.2z M-2.8,39.2h0.4v-0.4h-0.4V39.2z M-3.5,37.7h4.7v-0.4h-4.7V37.7z M1.2,39.2H0.1v-1.1h1.4v-0.7h0.4v1.5h0.4v-1.5
								h0.4v1.5H3v-1.5h0.4v1.8H1.5v-0.7H0.4v0.4h0.7V39.2z"/>
							<path style="clip-path:url(#SVGID_6_);fill:#FFFFFF;" d="M3.7,39.2H4v-0.7h1.1v0.7h1.8v-1.1H5.9v0.4h0.7v0.4H5.5v-0.7H3.7
								V39.2z M4.4,39.2h0.4v-0.4H4.4V39.2z M3.7,37.7h4.7v-0.4H3.7V37.7z M8.4,39.2H7.3v-1.1h1.4v-0.7h0.4v1.5h0.4v-1.5h0.4v1.5
								h0.4v-1.5h0.4v1.8H8.7v-0.7H7.7v0.4h0.7V39.2z"/>
							<path style="clip-path:url(#SVGID_6_);fill:#FFFFFF;" d="M10.9,39.2h0.4v-0.7h1.1v0.7h1.8v-1.1h-1.1v0.4h0.7v0.4h-1.1v-0.7
								h-1.8V39.2z M11.6,39.2H12v-0.4h-0.4V39.2z M10.9,37.7h4.7v-0.4h-4.7V37.7z M15.6,39.2h-1.1v-1.1H16v-0.7h0.4v1.5h0.4v-1.5
								h0.4v1.5h0.4v-1.5h0.4v1.8H16v-0.7h-1.1v0.4h0.7V39.2z"/>
							<path style="clip-path:url(#SVGID_6_);fill:#FFFFFF;" d="M18.1,39.2h0.4v-0.7h1.1v0.7h1.8v-1.1h-1.1v0.4H21v0.4h-1.1v-0.7
								h-1.8V39.2z M18.9,39.2h0.4v-0.4h-0.4V39.2z M18.1,37.7h4.7v-0.4h-4.7V37.7z M22.8,39.2h-1.1v-1.1h1.4v-0.7h0.4v1.5h0.4v-1.5
								h0.4v1.5h0.4v-1.5H25v1.8h-1.8v-0.7h-1.1v0.4h0.7V39.2z"/>
							<path style="clip-path:url(#SVGID_6_);fill:#FFFFFF;" d="M25.4,39.2h0.4v-0.7h1.1v0.7h1.8v-1.1h-1.1v0.4h0.7v0.4h-1.1v-0.7
								h-1.8V39.2z M26.1,39.2h0.4v-0.4h-0.4V39.2z M25.4,37.7h4.7v-0.4h-4.7V37.7z M30.1,39.2H29v-1.1h1.4v-0.7h0.4v1.5h0.4v-1.5
								h0.4v1.5h0.4v-1.5h0.4v1.8h-1.8v-0.7h-1.1v0.4h0.7V39.2z"/>
							<path style="clip-path:url(#SVGID_6_);fill:#FFFFFF;" d="M32.6,39.2h0.4v-0.7H34v0.7h1.8v-1.1h-1.1v0.4h0.7v0.4h-1.1v-0.7
								h-1.8V39.2z M33.3,39.2h0.4v-0.4h-0.4V39.2z M32.6,37.7h4.7v-0.4h-4.7V37.7z M37.3,39.2h-1.1v-1.1h1.4v-0.7H38v1.5h0.4v-1.5
								h0.4v1.5h0.4v-1.5h0.4v1.8h-1.8v-0.7h-1.1v0.4h0.7V39.2z"/>
							<path style="clip-path:url(#SVGID_6_);fill:#FFFFFF;" d="M39.8,39.2h0.4v-0.7h1.1v0.7H43v-1.1H42v0.4h0.7v0.4h-1.1v-0.7h-1.8
								V39.2z M40.5,39.2h0.4v-0.4h-0.4V39.2z M39.8,37.7h4.7v-0.4h-4.7V37.7z M44.5,39.2h-1.1v-1.1h1.4v-0.7h0.4v1.5h0.4v-1.5h0.4
								v1.5h0.4v-1.5h0.4v1.8h-1.8v-0.7h-1.1v0.4h0.7V39.2z"/>
							<path style="clip-path:url(#SVGID_6_);fill:#FFFFFF;" d="M47,39.2h0.4v-0.7h1.1v0.7h1.8v-1.1h-1.1v0.4h0.7v0.4h-1.1v-0.7H47
								V39.2z M47.7,39.2h0.4v-0.4h-0.4V39.2z M47,37.7h4.7v-0.4H47V37.7z M51.7,39.2h-1.1v-1.1h1.5v-0.7h0.4v1.5h0.4v-1.5h0.4v1.5
								h0.4v-1.5h0.4v1.8h-1.8v-0.7H51v0.4h0.7V39.2z"/>
							<path style="clip-path:url(#SVGID_6_);fill:#FFFFFF;" d="M54.3,39.2h0.4v-0.7h1.1v0.7h1.8v-1.1h-1.1v0.4h0.7v0.4h-1.1v-0.7
								h-1.8V39.2z M55,39.2h0.4v-0.4H55V39.2z M54.3,37.7h4.7v-0.4h-4.7V37.7z M58.9,39.2h-1.1v-1.1h1.4v-0.7h0.4v1.5H60v-1.5h0.4
								v1.5h0.4v-1.5h0.4v1.8h-1.8v-0.7h-1.1v0.4h0.7V39.2z"/>
							<path style="clip-path:url(#SVGID_6_);fill:#FFFFFF;" d="M-3.5,37h3.2v-0.7h-3.2V37z M0.1,37h3.3v-0.7H0.1V37z"/>
							<path style="clip-path:url(#SVGID_6_);fill:#FFFFFF;" d="M3.7,37h3.3v-0.7H3.7V37z M7.3,37h3.3v-0.7H7.3V37z"/>
							<path style="clip-path:url(#SVGID_6_);fill:#FFFFFF;" d="M10.9,37h3.3v-0.7h-3.3V37z M14.5,37h3.3v-0.7h-3.3V37z"/>
							<path style="clip-path:url(#SVGID_6_);fill:#FFFFFF;" d="M18.1,37h3.3v-0.7h-3.3V37z M21.7,37H25v-0.7h-3.3V37z"/>
							<path style="clip-path:url(#SVGID_6_);fill:#FFFFFF;" d="M25.4,37h3.3v-0.7h-3.3V37z M29,37h3.2v-0.7H29V37z"/>
							<path style="clip-path:url(#SVGID_6_);fill:#FFFFFF;" d="M32.6,37h3.3v-0.7h-3.3V37z M36.2,37h3.2v-0.7h-3.2V37z"/>
							<path style="clip-path:url(#SVGID_6_);fill:#FFFFFF;" d="M39.8,37H43v-0.7h-3.2V37z M43.4,37h3.3v-0.7h-3.3V37z"/>
							<path style="clip-path:url(#SVGID_6_);fill:#FFFFFF;" d="M47,37h3.3v-0.7H47V37z M50.6,37h3.3v-0.7h-3.3V37z"/>
							<path style="clip-path:url(#SVGID_6_);fill:#FFFFFF;" d="M54.3,37h3.2v-0.7h-3.2V37z M57.9,37h3.3v-0.7h-3.3V37z"/>
						</g>
					</g>
				</g>
			</g>
		</g>
	</g>
</g>
<g id="ALMACEN" class="st132">
</g>
<g id="GUIAS" class="st132">
</g>
</svg>
